<?xml version="1.0" encoding="UTF-8" standalone="no"?>
<!-- Created with Inkscape (http://www.inkscape.org/) -->
<!-- Copyright © 2008 by Silvio Grosso, under the terms of the GNU GPL version 2. -->
<svg
   xmlns:svg="http://www.w3.org/2000/svg"
   xmlns="http://www.w3.org/2000/svg"
   version="1.0"
   viewBox="0 0 450 500"
   width="450"
   height="500"
   id="svg2">
  <defs
     id="defs4" />
  <g
     id="layer1">
    <g
       transform="matrix(1.0703751,0,0,1.0644861,-214.68022,-204.72749)"
       id="g2353">
      <path
         d="M 325.51172,277.64573 L 358.70703,277.64573 L 358.70703,286.20433 L 337.92578,286.20433 L 337.92578,292.57542 L 357.20313,292.57542 L 357.20313,300.7512 L 337.92578,300.7512 L 337.92578,308.65355 L 359.30859,308.65355 L 359.30859,317.73167 L 325.51172,317.73167 L 325.51172,277.64573 z "
         transform="translate(222.3454,140.0558)"
         style="font-size:56px;font-family:Arial Black"
         id="flowRoot2029" />
      <path
         d="M 325.62109,277.64573 L 337.1875,277.64573 L 352.28125,299.82151 L 352.28125,277.64573 L 363.95703,277.64573 L 363.95703,317.73167 L 352.28125,317.73167 L 337.26953,295.71995 L 337.26953,317.73167 L 325.62109,317.73167 L 325.62109,277.64573 z "
         transform="translate(59.76398,-16.51779)"
         style="font-size:56px;font-family:Arial Black"
         id="flowRoot2045" />
      <g
         transform="matrix(0.311736,0,0,0.302213,279.8002,284.787)"
         id="g3222">
        <g
           transform="matrix(0.781857,0,0,0.766882,63.83974,141.9881)"
           id="g3205">
          <path
             d="M 398.25392,383.31251 C 414.38946,377.47009 430.78354,374.47169 448.25392,383.31251 L 425.63489,339.52316 L 398.25392,383.31251 z "
             style="fill:#000000;fill-opacity:1;fill-rule:evenodd;stroke:none;stroke-width:1px;stroke-linecap:butt;stroke-linejoin:miter;stroke-opacity:1"
             id="path3178" />
          <g
             id="g3192">
            <g
               transform="matrix(0.587863,0,0,0.552833,146.4351,243.0267)"
               id="g3166">
              <path
                 d="M 418.57143 483.79074 A 30.714285 30.714285 0 1 1  357.14286,483.79074 A 30.714285 30.714285 0 1 1  418.57143 483.79074 z"
                 transform="matrix(3.260196,0,0,3.305983,-784.3987,-1182.114)"
                 style="opacity:0.97000002;fill:none;fill-opacity:1;stroke:#000000;stroke-width:15.0170002;stroke-linecap:square;stroke-linejoin:miter;stroke-miterlimit:4;stroke-dasharray:none;stroke-opacity:1"
                 id="path2270" />
              <path
                 d="M 322.85714 567.36218 A 27.857143 27.857143 0 1 1  267.14286,567.36218 A 27.857143 27.857143 0 1 1  322.85714 567.36218 z"
                 transform="matrix(1.398549,0,0,1.449831,66.71392,-405.2167)"
                 style="opacity:0.97000002;fill:#000000;fill-opacity:1;stroke:#000000;stroke-width:15.0170002;stroke-linecap:square;stroke-linejoin:miter;stroke-miterlimit:4;stroke-dasharray:none;stroke-opacity:1"
                 id="path3164" />
            </g>
            <path
               d="M 336.44036,500.51572 C 330.59794,484.38018 327.59954,467.9861 336.44036,450.51572 L 292.65101,473.13475 L 336.44036,500.51572 z "
               style="fill:#000000;fill-opacity:1;fill-rule:evenodd;stroke:none;stroke-width:1px;stroke-linecap:butt;stroke-linejoin:miter;stroke-opacity:1"
               id="path3174" />
            <path
               d="M 483.35799 632.6438 A 75.256363 75.256363 0 1 1  332.84526,632.6438 A 75.256363 75.256363 0 1 1  483.35799 632.6438 z"
               transform="matrix(1.199403,0,0,1.175914,-60.29851,-269.8845)"
               style="opacity:0.97000002;fill:none;fill-opacity:1;stroke:#000000;stroke-width:15.0170002;stroke-linecap:square;stroke-linejoin:miter;stroke-miterlimit:4;stroke-dasharray:none;stroke-opacity:1"
               id="path3176" />
            <path
               d="M 522.07247,449.55493 C 527.9149,465.69047 530.9133,482.08455 522.07247,499.55493 L 565.86183,476.93589 L 522.07247,449.55493 z "
               style="fill:#000000;fill-opacity:1;fill-rule:evenodd;stroke:none;stroke-width:1px;stroke-linecap:butt;stroke-linejoin:miter;stroke-opacity:1"
               id="path3180" />
            <path
               d="M 507.44045,423.87181 C 500.16211,408.33104 490.68994,394.61849 472.08511,388.51647 L 519.04292,373.54679 L 507.44045,423.87181 z "
               style="fill:#000000;fill-opacity:1;fill-rule:evenodd;stroke:none;stroke-width:1px;stroke-linecap:butt;stroke-linejoin:miter;stroke-opacity:1"
               id="path3182" />
            <path
               d="M 453.80976,565.29225 C 437.67422,571.13466 421.28013,574.13307 403.80976,565.29225 L 426.42877,609.0816 L 453.80976,565.29225 z "
               style="fill:#000000;fill-opacity:1;fill-rule:evenodd;stroke:none;stroke-width:1px;stroke-linecap:butt;stroke-linejoin:miter;stroke-opacity:1"
               id="path3184" />
            <path
               d="M 342.68712,430.01692 C 349.96546,414.47613 359.43763,400.76359 378.04246,394.66156 L 331.08465,379.6919 L 342.68712,430.01692 z "
               style="fill:#000000;fill-opacity:1;fill-rule:evenodd;stroke:none;stroke-width:1px;stroke-linecap:butt;stroke-linejoin:miter;stroke-opacity:1"
               id="path3186" />
            <path
               d="M 476.88331,556.71909 C 492.42407,549.44075 506.13662,539.96858 512.23864,521.36375 L 527.20833,568.32157 L 476.88331,556.71909 z "
               style="fill:#000000;fill-opacity:1;fill-rule:evenodd;stroke:none;stroke-width:1px;stroke-linecap:butt;stroke-linejoin:miter;stroke-opacity:1"
               id="path3188" />
            <path
               d="M 347.2328,522.36218 C 354.51114,537.90294 363.98331,551.61549 382.58814,557.71751 L 335.63032,572.6872 L 347.2328,522.36218 z "
               style="fill:#000000;fill-opacity:1;fill-rule:evenodd;stroke:none;stroke-width:1px;stroke-linecap:butt;stroke-linejoin:miter;stroke-opacity:1"
               id="path3190" />
          </g>
        </g>
        <path
           d="M 783.87836 426.57269 A 101.52033 97.479721 0 1 1  580.8377,426.57269 A 101.52033 97.479721 0 1 1  783.87836 426.57269 z"
           transform="matrix(1.112549,0,0,1.101028,-360.5463,35.14687)"
           style="opacity:0.97000002;fill:none;fill-opacity:1;stroke:#000000;stroke-width:23.84678459;stroke-linecap:square;stroke-linejoin:miter;stroke-miterlimit:4;stroke-dasharray:none;stroke-opacity:1"
           id="path3220" />
      </g>
      <g
         transform="matrix(2.836932,0,0,5.390526,-517.6559,-1354.956)"
         id="g4168">
        <path
           d="M 315,327.36218 L 325,325.93361 L 325,307.04651 L 315,327.36218 z "
           style="fill:none;fill-rule:evenodd;stroke:#000000;stroke-width:0.5;stroke-linecap:butt;stroke-linejoin:miter;stroke-miterlimit:4;stroke-dasharray:none;stroke-opacity:1"
           id="path3279" />
        <path
           d="M 335.10714,327.71933 L 324.57143,325.75504 L 324.9394,306.78246 L 335.10714,327.71933 z "
           style="fill:#000000;fill-opacity:1;fill-rule:evenodd;stroke:none;stroke-width:0.5;stroke-linecap:butt;stroke-linejoin:miter;stroke-miterlimit:4;stroke-dasharray:none;stroke-opacity:1"
           id="path4166" />
      </g>
      <g
         transform="matrix(0,-2.836932,5.390526,0,-1387.849,1358.038)"
         id="g4172">
        <path
           d="M 315,327.36218 L 325,325.93361 L 325,307.04651 L 315,327.36218 z "
           style="fill:none;fill-rule:evenodd;stroke:#000000;stroke-width:0.5;stroke-linecap:butt;stroke-linejoin:miter;stroke-miterlimit:4;stroke-dasharray:none;stroke-opacity:1"
           id="path4174" />
        <path
           d="M 335.10714,327.71933 L 324.57143,325.75504 L 324.9394,306.78246 L 335.10714,327.71933 z "
           style="fill:#000000;fill-opacity:1;fill-rule:evenodd;stroke:none;stroke-width:0.5;stroke-linecap:butt;stroke-linejoin:miter;stroke-miterlimit:4;stroke-dasharray:none;stroke-opacity:1"
           id="path4176" />
      </g>
      <g
         transform="matrix(-2.836932,0,0,-5.390526,1326.737,2228.14)"
         id="g4178">
        <path
           d="M 315,327.36218 L 325,325.93361 L 325,307.04651 L 315,327.36218 z "
           style="fill:none;fill-rule:evenodd;stroke:#000000;stroke-width:0.5;stroke-linecap:butt;stroke-linejoin:miter;stroke-miterlimit:4;stroke-dasharray:none;stroke-opacity:1"
           id="path4180" />
        <path
           d="M 335.10714,327.71933 L 325.10554,325.94243 L 324.9394,306.78246 L 335.10714,327.71933 z "
           style="fill:#000000;fill-opacity:1;fill-rule:evenodd;stroke:none;stroke-width:0.5;stroke-linecap:butt;stroke-linejoin:miter;stroke-miterlimit:4;stroke-dasharray:none;stroke-opacity:1"
           id="path4182" />
      </g>
      <g
         transform="matrix(0,2.836932,-5.390526,0,2197.005,-483.6711)"
         id="g4184">
        <path
           d="M 315,327.36218 L 325,325.93361 L 325,307.04651 L 315,327.36218 z "
           style="fill:none;fill-rule:evenodd;stroke:#000000;stroke-width:0.5;stroke-linecap:butt;stroke-linejoin:miter;stroke-miterlimit:4;stroke-dasharray:none;stroke-opacity:1"
           id="path4186" />
        <path
           d="M 335.10714,327.71933 L 324.57143,325.75504 L 324.9394,306.78246 L 335.10714,327.71933 z "
           style="fill:#000000;fill-opacity:1;fill-rule:evenodd;stroke:none;stroke-width:0.5;stroke-linecap:butt;stroke-linejoin:miter;stroke-miterlimit:4;stroke-dasharray:none;stroke-opacity:1"
           id="path4188" />
      </g>
    </g>
  </g>
</svg>
