<?xml version="1.0" encoding="UTF-8" standalone="no"?>
<!-- Created with Inkscape (http://www.inkscape.org/) -->
<!-- Copyright © 2008 by Silvio Grosso, under the terms of the GNU GPL version 2. -->
<svg
   xmlns:svg="http://www.w3.org/2000/svg"
   xmlns="http://www.w3.org/2000/svg"
   version="1.0"
   viewBox="0 0 450 500"
   width="450"
   height="500"
   id="svg2">
  <defs
     id="defs4" />
  <g
     id="layer1">
    <g
       transform="matrix(0.9454976,0,0,0.9070214,-102.31787,-192.66026)"
       id="g2345">
      <g
         transform="matrix(0,0.937717,-0.916227,0,754.273,22.3902)"
         id="g5068">
        <path
           d="M 507.23536,651.86218 L 464.02108,609.36218 L 495.44965,626.1479 L 508.30679,504.36218 L 507.23536,651.86218 z "
           style="fill:#000000;fill-opacity:1;fill-rule:evenodd;stroke:#000000;stroke-width:1px;stroke-linecap:butt;stroke-linejoin:miter;stroke-opacity:1"
           id="path5062" />
        <path
           d="M 508.10267,651.86218 L 551.31695,609.36218 L 519.88838,626.1479 L 507.03124,504.36218 L 508.10267,651.86218 z "
           style="fill:#000000;fill-opacity:1;fill-rule:evenodd;stroke:#000000;stroke-width:1px;stroke-linecap:butt;stroke-linejoin:miter;stroke-opacity:1"
           id="path5066" />
      </g>
      <g
         transform="matrix(0.916227,0,0,0.937717,-131.357,66.4309)"
         id="g5074">
        <path
           d="M 507.23536,651.86218 L 464.02108,609.36218 L 495.44965,626.1479 L 508.30679,504.36218 L 507.23536,651.86218 z "
           style="fill:#000000;fill-opacity:1;fill-rule:evenodd;stroke:#000000;stroke-width:1px;stroke-linecap:butt;stroke-linejoin:miter;stroke-opacity:1"
           id="path5076" />
        <path
           d="M 508.10267,651.86218 L 551.31695,609.36218 L 519.88838,626.1479 L 507.03124,504.36218 L 508.10267,651.86218 z "
           style="fill:#000000;fill-opacity:1;fill-rule:evenodd;stroke:#000000;stroke-width:1px;stroke-linecap:butt;stroke-linejoin:miter;stroke-opacity:1"
           id="path5078" />
      </g>
      <g
         transform="matrix(0,-0.937717,0.916227,0,-87.6122,975.339)"
         id="g5080">
        <path
           d="M 507.23536,651.86218 L 464.02108,609.36218 L 495.44965,626.1479 L 508.30679,506.70096 L 507.23536,651.86218 z "
           style="fill:#000000;fill-opacity:1;fill-rule:evenodd;stroke:#000000;stroke-width:1px;stroke-linecap:butt;stroke-linejoin:miter;stroke-opacity:1"
           id="path5082" />
        <path
           d="M 508.10267,651.86218 L 551.31695,609.36218 L 519.88838,626.1479 L 507.03124,506.31117 L 508.10267,651.86218 z "
           style="fill:#000000;fill-opacity:1;fill-rule:evenodd;stroke:#000000;stroke-width:1px;stroke-linecap:butt;stroke-linejoin:miter;stroke-opacity:1"
           id="path5084" />
      </g>
      <g
         transform="matrix(-0.916227,0,0,-0.937717,799.8488,924.885)"
         id="g5086">
        <path
           d="M 507.23536,651.86218 L 464.02108,609.36218 L 495.44965,626.1479 L 508.30679,504.36218 L 507.23536,651.86218 z "
           style="fill:#000000;fill-opacity:1;fill-rule:evenodd;stroke:#000000;stroke-width:1px;stroke-linecap:butt;stroke-linejoin:miter;stroke-opacity:1"
           id="path5088" />
        <path
           d="M 508.10267,651.86218 L 551.31695,609.36218 L 519.88838,626.1479 L 507.03124,504.36218 L 508.10267,651.86218 z "
           style="fill:#000000;fill-opacity:1;fill-rule:evenodd;stroke:#000000;stroke-width:1px;stroke-linecap:butt;stroke-linejoin:miter;stroke-opacity:1"
           id="path5090" />
      </g>
      <path
         d="M 325.62109,277.64573 L 337.1875,277.64573 L 352.28125,299.82151 L 352.28125,277.64573 L 363.95703,277.64573 L 363.95703,317.73167 L 352.28125,317.73167 L 337.26953,295.71995 L 337.26953,317.73167 L 325.62109,317.73167 L 325.62109,277.64573 z "
         transform="translate(-9.9544,-14.3312)"
         style="font-size:56px;font-family:Arial Black"
         id="flowRoot6986" />
      <path
         d="M 325.51172,277.64573 L 358.70703,277.64573 L 358.70703,286.20433 L 337.92578,286.20433 L 337.92578,292.57542 L 357.20313,292.57542 L 357.20313,300.7512 L 337.92578,300.7512 L 337.92578,308.65355 L 359.30859,308.65355 L 359.30859,317.73167 L 325.51172,317.73167 L 325.51172,277.64573 z "
         transform="translate(190.4144,201.8415)"
         style="font-size:56px;font-family:Arial Black"
         id="flowRoot2798" />
      <rect
         width="72.688103"
         height="72.920319"
         x="298.56589"
         y="459.87506"
         style="opacity:0.97000002;fill:none;fill-opacity:1;stroke:#000000;stroke-width:11.47000217;stroke-linecap:square;stroke-linejoin:miter;stroke-miterlimit:4;stroke-dasharray:none;stroke-opacity:1"
         id="rect2190" />
    </g>
  </g>
</svg>
