<?xml version="1.0" encoding="UTF-8" standalone="no"?>
<!-- Created with Inkscape (http://www.inkscape.org/) -->
<!-- Copyright © 2008 by Silvio Grosso, under the terms of the GNU GPL version 2. -->
<svg
   xmlns:svg="http://www.w3.org/2000/svg"
   xmlns="http://www.w3.org/2000/svg"
   version="1.0"
   viewBox="0 0 450 500"
   width="450"
   height="500"
   id="svg2">
  <defs
     id="defs4" />
  <g
     id="layer1">
    <g
       transform="matrix(1.0646113,0,0,1.0445461,-107.99269,-239.52049)"
       id="g2290">
      <path
         d="M 270.22876,451.0387 L 302.39096,354.68987 L 334.55315,451.0387 L 431.03974,483.15497 L 334.55315,515.27125 L 302.39096,611.62007 L 270.22876,515.27125 L 173.74218,483.15497 L 270.22876,451.0387 z "
         style="fill:none;fill-rule:evenodd;stroke:#000000;stroke-width:6.42784548px;stroke-linecap:butt;stroke-linejoin:miter;stroke-opacity:1"
         id="path1872" />
      <path
         d="M 332.48889,447.94051 L 305.35195,480.19858 L 305.35195,364.06953 L 332.48889,447.94051 z "
         style="fill:#000000;fill-opacity:1;fill-rule:evenodd;stroke:#000000;stroke-width:5.91738272px;stroke-linecap:butt;stroke-linejoin:miter;stroke-opacity:1"
         id="path1892" />
      <path
         d="M 334.86437,510.89705 L 301.42178,484.69684 L 421.81508,484.69684 L 334.86437,510.89705 z "
         style="fill:#000000;fill-opacity:1;fill-rule:evenodd;stroke:#000000;stroke-width:5.92014647px;stroke-linecap:butt;stroke-linejoin:miter;stroke-opacity:1"
         id="path1894" />
      <path
         d="M 268.07295,453.95177 L 300.39726,480.24184 L 184.0298,480.24184 L 268.07295,453.95177 z "
         style="fill:#000000;fill-opacity:1;fill-rule:evenodd;stroke:#000000;stroke-width:5.83029413px;stroke-linecap:butt;stroke-linejoin:miter;stroke-opacity:1"
         id="path1896" />
      <path
         d="M 270.50127,514.97334 L 302.87963,481.39902 L 302.87963,602.26659 L 270.50127,514.97334 z "
         style="fill:#000000;fill-opacity:1;fill-rule:evenodd;stroke:#000000;stroke-width:6.59418631px;stroke-linecap:butt;stroke-linejoin:miter;stroke-opacity:1"
         id="path1898" />
      <path
         d="M 325.51172,277.64573 L 358.70703,277.64573 L 358.70703,286.20433 L 337.92578,286.20433 L 337.92578,292.57542 L 357.20313,292.57542 L 357.20313,300.7512 L 337.92578,300.7512 L 337.92578,308.65355 L 359.30859,308.65355 L 359.30859,317.73167 L 325.51172,317.73167 L 325.51172,277.64573 z "
         transform="translate(123.9057,182.3509)"
         style="font-size:56px;font-family:Arial Black"
         id="flowRoot2029" />
      <path
         d="M 325.62109,277.64573 L 337.1875,277.64573 L 352.28125,299.82151 L 352.28125,277.64573 L 363.95703,277.64573 L 363.95703,317.73167 L 352.28125,317.73167 L 337.26953,295.71995 L 337.26953,317.73167 L 325.62109,317.73167 L 325.62109,277.64573 z "
         transform="translate(-43.12799,19.71645)"
         style="font-size:56px;font-family:Arial Black"
         id="flowRoot2045" />
      <path
         d="M 450.35715 547.89789 A 8.3928576 8.3928576 0 1 1  433.57144,547.89789 A 8.3928576 8.3928576 0 1 1  450.35715 547.89789 z"
         transform="translate(-137.8571,-64.16256)"
         style="opacity:0.97000002;fill:none;fill-opacity:1;stroke:#000000;stroke-width:20.46800041;stroke-linecap:square;stroke-linejoin:miter;stroke-miterlimit:4;stroke-dasharray:none;stroke-opacity:1"
         id="path2532" />
      <path
         d="M 406.07143 568.25507 A 15.714286 14.821428 0 1 1  374.64286,568.25507 A 15.714286 14.821428 0 1 1  406.07143 568.25507 z"
         transform="matrix(1.536168,0,0,1.61666,-295.3682,-435.0628)"
         style="opacity:0.97000002;fill:none;fill-opacity:1;stroke:#000000;stroke-width:5.46799994;stroke-linecap:square;stroke-linejoin:miter;stroke-miterlimit:4;stroke-dasharray:none;stroke-opacity:1"
         id="path2536" />
    </g>
  </g>
</svg>
