<?xml version="1.0" encoding="UTF-8" standalone="no"?>
<!-- Created with Inkscape (http://www.inkscape.org/) -->
<!-- Copyright © 2008 by Silvio Grosso, under the terms of the GNU GPL version 2. -->
<svg
   xmlns:svg="http://www.w3.org/2000/svg"
   xmlns="http://www.w3.org/2000/svg"
   version="1.0"
   viewBox="0 0 450 500"
   width="450"
   height="500"
   id="svg2">
  <defs
     id="defs4" />
  <g
     id="layer1">
    <g
       transform="matrix(0.9056777,0,0,0.9067649,-1.6034056,-234.939)"
       id="g2470">
      <g
         transform="matrix(11.20515,0,0,10.81525,-3804.37,-5258.72)"
         id="g1936">
        <g
           transform="translate(2.148909,2.188814)"
           id="g1904">
          <path
             d="M 360.44643 532.18359 A 1.0714285 11.339286 0 1 1  358.30357,532.18359 A 1.0714285 11.339286 0 1 1  360.44643 532.18359 z"
             style="opacity:0.97000002;fill:#000000;fill-opacity:1;stroke:#000000;stroke-width:0.30000001;stroke-miterlimit:4;stroke-dasharray:none;stroke-opacity:1"
             id="path1872" />
          <path
             d="M 360.44643 532.18359 A 1.0714285 11.339286 0 1 1  358.30357,532.18359 A 1.0714285 11.339286 0 1 1  360.44643 532.18359 z"
             transform="matrix(0,1,-1,0,892.0943,172.7658)"
             style="opacity:0.97000002;fill:#000000;fill-opacity:1;stroke:#000000;stroke-width:0.30000001;stroke-miterlimit:4;stroke-dasharray:none;stroke-opacity:1"
             id="path1874" />
          <path
             d="M 360.44643 532.18359 A 1.0714285 11.339286 0 1 1  358.30357,532.18359 A 1.0714285 11.339286 0 1 1  360.44643 532.18359 z"
             transform="matrix(-0.5355,0.5355,0.209582,0.209582,440.3929,228.3843)"
             style="opacity:0.97000002;fill:#000000;fill-opacity:1;stroke:#000000;stroke-width:0.30000001;stroke-miterlimit:4;stroke-dasharray:none;stroke-opacity:1"
             id="path1876" />
          <path
             d="M 360.44643 532.18359 A 1.0714285 11.339286 0 1 1  358.30357,532.18359 A 1.0714285 11.339286 0 1 1  360.44643 532.18359 z"
             transform="matrix(0.5355,0.5355,-0.209582,0.209582,278.6071,228.2915)"
             style="opacity:0.97000002;fill:#000000;fill-opacity:1;stroke:#000000;stroke-width:0.30000001;stroke-miterlimit:4;stroke-dasharray:none;stroke-opacity:1"
             id="path1880" />
          <path
             d="M 359.97683,543.24378 L 359.34954,544.96402 L 358.76551,543.24378 L 359.34954,543.75064 L 359.97683,543.24378 z "
             style="fill:#000000;fill-opacity:1;fill-rule:evenodd;stroke:#000000;stroke-width:0.28870204px;stroke-linecap:butt;stroke-linejoin:miter;stroke-opacity:1"
             id="path1888" />
          <path
             d="M 358.77059,521.03796 L 359.39788,519.31772 L 359.98191,521.03796 L 359.39788,520.5311 L 358.77059,521.03796 z "
             style="fill:#000000;fill-opacity:1;fill-rule:evenodd;stroke:#000000;stroke-width:0.28870204px;stroke-linecap:butt;stroke-linejoin:miter;stroke-opacity:1"
             id="path1894" />
          <path
             d="M 348.74841,532.78927 L 347.02817,532.16198 L 348.74841,531.57795 L 348.24155,532.16198 L 348.74841,532.78927 z "
             style="fill:#000000;fill-opacity:1;fill-rule:evenodd;stroke:#000000;stroke-width:0.28870204px;stroke-linecap:butt;stroke-linejoin:miter;stroke-opacity:1"
             id="path1896" />
          <path
             d="M 370.9865,531.53296 L 372.70674,532.16025 L 370.9865,532.74428 L 371.49336,532.16025 L 370.9865,531.53296 z "
             style="fill:#000000;fill-opacity:1;fill-rule:evenodd;stroke:#000000;stroke-width:0.28870204px;stroke-linecap:butt;stroke-linejoin:miter;stroke-opacity:1"
             id="path1898" />
        </g>
        <path
           d="M 390.67649 532.98596 A 5.5874062 5.5874062 0 1 1  379.50167,532.98596 A 5.5874062 5.5874062 0 1 1  390.67649 532.98596 z"
           transform="translate(-23.64467,1.269573)"
           style="opacity:0.97000002;fill:none;fill-opacity:1;stroke:#000000;stroke-width:0.30000001;stroke-miterlimit:4;stroke-dasharray:none;stroke-opacity:1"
           id="path1900" />
      </g>
      <path
         d="M 325.51172,277.64573 L 358.70703,277.64573 L 358.70703,286.20433 L 337.92578,286.20433 L 337.92578,292.57542 L 357.20313,292.57542 L 357.20313,300.7512 L 337.92578,300.7512 L 337.92578,308.65355 L 359.30859,308.65355 L 359.30859,317.73167 L 325.51172,317.73167 L 325.51172,277.64573 z "
         transform="translate(77.20367,223.5084)"
         style="font-size:56px;font-family:Arial Black"
         id="flowRoot2798" />
      <path
         d="M 325.62109,277.64573 L 337.1875,277.64573 L 352.28125,299.82151 L 352.28125,277.64573 L 363.95703,277.64573 L 363.95703,317.73167 L 352.28125,317.73167 L 337.26953,295.71995 L 337.26953,317.73167 L 325.62109,317.73167 L 325.62109,277.64573 z "
         transform="translate(-97.39909,62.79767)"
         style="font-size:56px;font-family:Arial Black"
         id="flowRoot2790" />
      <path
         d="M 323.37891,304.46995 L 335.16406,303.73167 C 335.41926,305.64575 335.93879,307.10408 336.72266,308.10667 C 337.99868,309.72908 339.8216,310.54027 342.19141,310.54026 C 343.95961,310.54027 345.32224,310.12556 346.2793,309.29612 C 347.2363,308.46671 347.71482,307.50512 347.71484,306.41136 C 347.71482,305.37231 347.25909,304.44262 346.34766,303.6223 C 345.43617,302.802 343.32159,302.02726 340.00391,301.29808 C 334.5716,300.07674 330.69791,298.45435 328.38281,296.43089 C 326.04947,294.40748 324.88281,291.82805 324.88281,288.69261 C 324.88281,286.63274 325.47981,284.68678 326.67383,282.85472 C 327.86783,281.02272 329.6634,279.58262 332.06055,278.53441 C 334.45767,277.48627 337.74347,276.96218 341.91797,276.96214 C 347.04034,276.96218 350.94593,277.91465 353.63477,279.81956 C 356.32353,281.72455 357.92314,284.75514 358.43359,288.91136 L 346.75781,289.59495 C 346.44789,287.79029 345.7962,286.4778 344.80273,285.65745 C 343.80922,284.83717 342.43748,284.42702 340.6875,284.42698 C 339.24738,284.42702 338.16274,284.73236 337.43359,285.343 C 336.70441,285.95371 336.33983,286.69655 336.33984,287.57151 C 336.33983,288.20957 336.64061,288.78378 337.24219,289.29417 C 337.8255,289.82284 339.21092,290.31503 341.39844,290.77073 C 346.81247,291.93743 350.69073,293.11776 353.0332,294.31175 C 355.37562,295.50578 357.08004,296.9869 358.14648,298.75511 C 359.21285,300.52336 359.74606,302.50122 359.74609,304.6887 C 359.74606,307.25903 359.03512,309.62881 357.61328,311.79808 C 356.19137,313.96735 354.20439,315.61253 351.65234,316.73362 C 349.10023,317.85472 345.88279,318.41526 342,318.41526 C 335.18228,318.41526 330.46093,317.10277 327.83594,314.47776 C 325.21093,311.85277 323.72526,308.51684 323.37891,304.46995 L 323.37891,304.46995 z "
         transform="translate(-95.50705,390.4)"
         style="font-size:56px;font-family:Arial Black"
         id="flowRoot1980" />
      <path
         d="M 323.98047,297.71605 C 323.98047,291.1718 325.80338,286.07675 329.44922,282.43089 C 333.09504,278.7851 338.17186,276.96218 344.67969,276.96214 C 351.35153,276.96218 356.49215,278.75319 360.10156,282.33519 C 363.7109,285.91725 365.51558,290.93482 365.51563,297.38792 C 365.51558,302.07283 364.72717,305.91463 363.15039,308.91331 C 361.57353,311.91202 359.29488,314.24535 356.31445,315.91331 C 353.33395,317.58128 349.61976,318.41526 345.17188,318.41526 C 340.65102,318.41526 336.90949,317.69521 333.94727,316.25511 C 330.98502,314.81501 328.58333,312.53636 326.74219,309.41917 C 324.90104,306.302 323.98047,302.40096 323.98047,297.71605 L 323.98047,297.71605 z M 336.36719,297.77073 C 336.36717,301.81762 337.11912,304.72517 338.62305,306.49339 C 340.12693,308.26163 342.17316,309.14574 344.76172,309.14573 C 347.42315,309.14574 349.48304,308.27986 350.94141,306.54808 C 352.39971,304.81632 353.12887,301.70825 353.12891,297.22386 C 353.12887,293.45045 352.36781,290.69329 350.8457,288.95237 C 349.32354,287.21152 347.25909,286.34108 344.65234,286.34105 C 342.15493,286.34108 340.14972,287.22519 338.63672,288.99339 C 337.12368,290.76165 336.36717,293.68742 336.36719,297.77073 L 336.36719,297.77073 z "
         transform="translate(-273.0134,223.2292)"
         style="font-size:56px;font-family:Arial Black"
         id="flowRoot1988" />
    </g>
  </g>
</svg>
