<?xml version="1.0" encoding="UTF-8" standalone="no"?>
<!-- Created with Inkscape (http://www.inkscape.org/) -->
<!-- Copyright © 2008 by Silvio Grosso, under the terms of the GNU GPL version 2. -->
<svg
   xmlns:svg="http://www.w3.org/2000/svg"
   xmlns="http://www.w3.org/2000/svg"
   version="1.0"
   viewBox="0 0 450 500"
   width="450"
   height="500"
   id="svg2">
  <defs
     id="defs4" />
  <g
     id="layer1">
    <g
       transform="matrix(0.9134585,0,0,0.914023,-41.303183,-208.6576)"
       id="g2437">
      <path
         d="M 325.62109,277.64573 L 337.1875,277.64573 L 352.28125,299.82151 L 352.28125,277.64573 L 363.95703,277.64573 L 363.95703,317.73167 L 352.28125,317.73167 L 337.26953,295.71995 L 337.26953,317.73167 L 325.62109,317.73167 L 325.62109,277.64573 z "
         transform="translate(-60.39171,23.3712)"
         style="font-size:56px;font-family:Arial Black"
         id="flowRoot5601" />
      <path
         d="M 325.51172,277.64573 L 358.70703,277.64573 L 358.70703,286.20433 L 337.92578,286.20433 L 337.92578,292.57542 L 357.20313,292.57542 L 357.20313,300.7512 L 337.92578,300.7512 L 337.92578,308.65355 L 359.30859,308.65355 L 359.30859,317.73167 L 325.51172,317.73167 L 325.51172,277.64573 z "
         transform="translate(142.0369,231.6826)"
         style="font-size:56px;font-family:Arial Black"
         id="flowRoot5629" />
      <path
         d="M 411.42857 608.79077 A 130.71428 130.71428 0 1 1  150.00002,608.79077 A 130.71428 130.71428 0 1 1  411.42857 608.79077 z"
         transform="translate(3.0959,-84.909229)"
         style="opacity:0.97000002;fill:none;fill-opacity:1;stroke:#000000;stroke-width:14.19999981;stroke-linejoin:round;stroke-miterlimit:4;stroke-dasharray:none;stroke-opacity:1"
         id="path2031" />
      <g
         transform="matrix(1.922619,0,0,4.383232,-396.4173,-2084.6818)"
         id="g4708">
        <g
           id="g6484">
          <path
             d="M 353.66649,564.0395 L 353.66664,553.75846 L 363.09041,564.0395 L 353.66649,564.0395 z "
             style="fill:#000000;fill-opacity:1;fill-rule:evenodd;stroke:#000000;stroke-width:0;stroke-linecap:butt;stroke-linejoin:miter;stroke-miterlimit:4;stroke-dasharray:none;stroke-opacity:1"
             id="path4710" />
          <path
             d="M 353.54449,563.96907 L 353.76443,553.91206 L 352.03253,555.77243 L 344.17746,563.96907 L 353.54449,563.96907 z "
             style="fill:none;fill-rule:evenodd;stroke:#000000;stroke-width:0.17066273;stroke-linecap:butt;stroke-linejoin:miter;stroke-miterlimit:0.89999998;stroke-dasharray:none;stroke-opacity:1"
             id="path4712" />
        </g>
      </g>
      <g
         transform="matrix(0,1.922619,-4.383232,0,2891.8129,-149.0024)"
         id="g6512">
        <g
           id="g6514">
          <path
             d="M 353.66649,564.0395 L 353.66664,553.75846 L 363.09041,564.0395 L 353.66649,564.0395 z "
             style="fill:#000000;fill-opacity:1;fill-rule:evenodd;stroke:#000000;stroke-width:0;stroke-linecap:butt;stroke-linejoin:miter;stroke-miterlimit:4;stroke-dasharray:none;stroke-opacity:1"
             id="path6516" />
          <path
             d="M 353.54449,563.96907 L 353.76443,553.91206 L 352.03253,555.77243 L 344.17746,563.96907 L 353.54449,563.96907 z "
             style="fill:none;fill-rule:evenodd;stroke:#000000;stroke-width:0.17066273;stroke-linecap:butt;stroke-linejoin:miter;stroke-miterlimit:0.89999998;stroke-dasharray:none;stroke-opacity:1"
             id="path6518" />
        </g>
      </g>
      <g
         transform="matrix(0,-1.922619,4.383232,0,-2322.7701,1198.9132)"
         id="g6520">
        <g
           id="g6522">
          <path
             d="M 353.66649,564.0395 L 353.66664,553.75846 L 363.09041,564.0395 L 353.66649,564.0395 z "
             style="fill:#000000;fill-opacity:1;fill-rule:evenodd;stroke:#000000;stroke-width:0;stroke-linecap:butt;stroke-linejoin:miter;stroke-miterlimit:4;stroke-dasharray:none;stroke-opacity:1"
             id="path6524" />
          <path
             d="M 353.54449,563.96907 L 353.76443,553.91206 L 352.03253,555.77243 L 344.17746,563.96907 L 353.54449,563.96907 z "
             style="fill:none;fill-rule:evenodd;stroke:#000000;stroke-width:0.17066273;stroke-linecap:butt;stroke-linejoin:miter;stroke-miterlimit:0.89999998;stroke-dasharray:none;stroke-opacity:1"
             id="path6526" />
        </g>
      </g>
      <g
         transform="matrix(-1.922619,0,0,-4.383232,963.5943,3127.7382)"
         id="g6528">
        <g
           id="g6530">
          <path
             d="M 353.66649,564.0395 L 353.66664,553.75846 L 363.09041,564.0395 L 353.66649,564.0395 z "
             style="fill:#000000;fill-opacity:1;fill-rule:evenodd;stroke:#000000;stroke-width:0;stroke-linecap:butt;stroke-linejoin:miter;stroke-miterlimit:4;stroke-dasharray:none;stroke-opacity:1"
             id="path6532" />
          <path
             d="M 353.54449,563.96907 L 353.76443,553.91206 L 352.03253,555.77243 L 344.17746,563.96907 L 353.54449,563.96907 z "
             style="fill:none;fill-rule:evenodd;stroke:#000000;stroke-width:0.17066273;stroke-linecap:butt;stroke-linejoin:miter;stroke-miterlimit:0.89999998;stroke-dasharray:none;stroke-opacity:1"
             id="path6534" />
        </g>
      </g>
      <g
         transform="translate(-251.0229,142.9366)"
         id="g2301">
        <path
           d="M 473.15698,395.53775 L 497.20946,395.53775 L 497.20946,373.22204 L 473.15698,373.22204 L 473.15698,395.53775 z "
           style="fill:#000000;fill-opacity:1;fill-rule:evenodd;stroke-width:1px;stroke-linecap:butt;stroke-linejoin:miter;stroke-opacity:1"
           id="path2040" />
        <path
           d="M 545.31443,417.85346 L 569.36692,417.85346 L 569.36692,395.53775 L 545.31443,395.53775 L 545.31443,417.85346 z "
           style="fill:#000000;fill-opacity:1;fill-rule:evenodd;stroke-width:1px;stroke-linecap:butt;stroke-linejoin:miter;stroke-opacity:1"
           id="path2927" />
        <path
           d="M 497.20946,417.85346 L 521.26195,417.85346 L 521.26195,395.53775 L 497.20946,395.53775 L 497.20946,417.85346 z "
           style="fill:#000000;fill-opacity:1;fill-rule:evenodd;stroke-width:1px;stroke-linecap:butt;stroke-linejoin:miter;stroke-opacity:1"
           id="path2929" />
        <path
           d="M 473.15698,350.90633 L 497.20946,350.90633 L 497.20946,328.59062 L 473.15698,328.59062 L 473.15698,350.90633 z "
           style="fill:#000000;fill-opacity:1;fill-rule:evenodd;stroke-width:1px;stroke-linecap:butt;stroke-linejoin:miter;stroke-opacity:1"
           id="path2931" />
        <path
           d="M 521.26195,350.90633 L 545.31443,350.90633 L 545.31443,328.59062 L 521.26195,328.59062 L 521.26195,350.90633 z "
           style="fill:#000000;fill-opacity:1;fill-rule:evenodd;stroke-width:1px;stroke-linecap:butt;stroke-linejoin:miter;stroke-opacity:1"
           id="path2933" />
        <path
           d="M 497.20946,373.22204 L 521.26195,373.22204 L 521.26195,350.90633 L 497.20946,350.90633 L 497.20946,373.22204 z "
           style="fill:#000000;fill-opacity:1;fill-rule:evenodd;stroke-width:1px;stroke-linecap:butt;stroke-linejoin:miter;stroke-opacity:1"
           id="path2935" />
        <path
           d="M 521.26195,395.53775 L 545.31443,395.53775 L 545.31443,373.22204 L 521.26195,373.22204 L 521.26195,395.53775 z "
           style="fill:#000000;fill-opacity:1;fill-rule:evenodd;stroke-width:1px;stroke-linecap:butt;stroke-linejoin:miter;stroke-opacity:1"
           id="path2937" />
        <path
           d="M 545.31443,462.48488 L 569.36692,462.48488 L 569.36692,440.16917 L 545.31443,440.16917 L 545.31443,462.48488 z "
           style="fill:#000000;fill-opacity:1;fill-rule:evenodd;stroke-width:1px;stroke-linecap:butt;stroke-linejoin:miter;stroke-opacity:1"
           id="path2939" />
        <path
           d="M 569.36692,440.16917 L 593.4194,440.16917 L 593.4194,417.85346 L 569.36692,417.85346 L 569.36692,440.16917 z "
           style="fill:#000000;fill-opacity:1;fill-rule:evenodd;stroke-width:1px;stroke-linecap:butt;stroke-linejoin:miter;stroke-opacity:1"
           id="path2941" />
        <path
           d="M 569.36692,350.90633 L 593.4194,350.90633 L 593.4194,328.59062 L 569.36692,328.59062 L 569.36692,350.90633 z "
           style="fill:#000000;fill-opacity:1;fill-rule:evenodd;stroke-width:1px;stroke-linecap:butt;stroke-linejoin:miter;stroke-opacity:1"
           id="path2943" />
        <path
           d="M 545.31443,373.22204 L 569.36692,373.22204 L 569.36692,350.90633 L 545.31443,350.90633 L 545.31443,373.22204 z "
           style="fill:#000000;fill-opacity:1;fill-rule:evenodd;stroke-width:1px;stroke-linecap:butt;stroke-linejoin:miter;stroke-opacity:1"
           id="path2945" />
        <path
           d="M 569.36692,395.53775 L 593.4194,395.53775 L 593.4194,373.22204 L 569.36692,373.22204 L 569.36692,395.53775 z "
           style="fill:#000000;fill-opacity:1;fill-rule:evenodd;stroke-width:1px;stroke-linecap:butt;stroke-linejoin:miter;stroke-opacity:1"
           id="path2947" />
        <path
           d="M 521.26195,440.16917 L 545.31443,440.16917 L 545.31443,417.85346 L 521.26195,417.85346 L 521.26195,440.16917 z "
           style="fill:#000000;fill-opacity:1;fill-rule:evenodd;stroke-width:1px;stroke-linecap:butt;stroke-linejoin:miter;stroke-opacity:1"
           id="path2949" />
        <path
           d="M 497.20946,462.48488 L 521.26195,462.48488 L 521.26195,440.16917 L 497.20946,440.16917 L 497.20946,462.48488 z "
           style="fill:#000000;fill-opacity:1;fill-rule:evenodd;stroke-width:1px;stroke-linecap:butt;stroke-linejoin:miter;stroke-opacity:1"
           id="path2951" />
        <path
           d="M 593.4194,373.22204 L 617.47189,373.22204 L 617.47189,350.90633 L 593.4194,350.90633 L 593.4194,373.22204 z "
           style="fill:#000000;fill-opacity:1;fill-rule:evenodd;stroke-width:1px;stroke-linecap:butt;stroke-linejoin:miter;stroke-opacity:1"
           id="path2953" />
        <path
           d="M 593.4194,417.85346 L 617.47189,417.85346 L 617.47189,395.53775 L 593.4194,395.53775 L 593.4194,417.85346 z "
           style="fill:#000000;fill-opacity:1;fill-rule:evenodd;stroke-width:1px;stroke-linecap:butt;stroke-linejoin:miter;stroke-opacity:1"
           id="path2955" />
        <path
           d="M 593.4194,462.48488 L 617.47189,462.48488 L 617.47189,440.16917 L 593.4194,440.16917 L 593.4194,462.48488 z "
           style="fill:#000000;fill-opacity:1;fill-rule:evenodd;stroke-width:1px;stroke-linecap:butt;stroke-linejoin:miter;stroke-opacity:1"
           id="path2957" />
        <path
           d="M 449.10449,373.22204 L 473.15698,373.22204 L 473.15698,350.90633 L 449.10449,350.90633 L 449.10449,373.22204 z "
           style="fill:#000000;fill-opacity:1;fill-rule:evenodd;stroke-width:1px;stroke-linecap:butt;stroke-linejoin:miter;stroke-opacity:1"
           id="path2959" />
        <path
           d="M 449.10449,417.85346 L 473.15698,417.85346 L 473.15698,395.53775 L 449.10449,395.53775 L 449.10449,417.85346 z "
           style="fill:#000000;fill-opacity:1;fill-rule:evenodd;stroke-width:1px;stroke-linecap:butt;stroke-linejoin:miter;stroke-opacity:1"
           id="path2961" />
        <path
           d="M 449.10449,462.48488 L 473.15698,462.48488 L 473.15698,440.16917 L 449.10449,440.16917 L 449.10449,462.48488 z "
           style="fill:#000000;fill-opacity:1;fill-rule:evenodd;stroke-width:1px;stroke-linecap:butt;stroke-linejoin:miter;stroke-opacity:1"
           id="path2963" />
        <path
           d="M 473.15698,440.16917 L 497.20946,440.16917 L 497.20946,417.85346 L 473.15698,417.85346 L 473.15698,440.16917 z "
           style="fill:#000000;fill-opacity:1;fill-rule:evenodd;stroke-width:1px;stroke-linecap:butt;stroke-linejoin:miter;stroke-opacity:1"
           id="path2965" />
        <path
           d="M 593.4194,328.59062 L 617.47189,328.59062 L 617.47189,306.27491 L 593.4194,306.27491 L 593.4194,328.59062 z "
           style="fill:#000000;fill-opacity:1;fill-rule:evenodd;stroke-width:1px;stroke-linecap:butt;stroke-linejoin:miter;stroke-opacity:1"
           id="path2967" />
        <path
           d="M 545.31443,328.59062 L 569.36692,328.59062 L 569.36692,306.27491 L 545.31443,306.27491 L 545.31443,328.59062 z "
           style="fill:#000000;fill-opacity:1;fill-rule:evenodd;stroke-width:1px;stroke-linecap:butt;stroke-linejoin:miter;stroke-opacity:1"
           id="path2969" />
        <path
           d="M 497.20946,328.59062 L 521.26195,328.59062 L 521.26195,306.27491 L 497.20946,306.27491 L 497.20946,328.59062 z "
           style="fill:#000000;fill-opacity:1;fill-rule:evenodd;stroke-width:1px;stroke-linecap:butt;stroke-linejoin:miter;stroke-opacity:1"
           id="path2971" />
        <path
           d="M 449.10449,328.59062 L 473.15698,328.59062 L 473.15698,306.27491 L 449.10449,306.27491 L 449.10449,328.59062 z "
           style="fill:#000000;fill-opacity:1;fill-rule:evenodd;stroke-width:1px;stroke-linecap:butt;stroke-linejoin:miter;stroke-opacity:1"
           id="path2973" />
        <rect
           width="174.07446"
           height="163.09892"
           x="446.40341"
           y="302.03339"
           style="opacity:0.97000002;fill:none;fill-opacity:1;stroke:#000000;stroke-width:9.14688969;stroke-linecap:square;stroke-linejoin:miter;stroke-miterlimit:4;stroke-dasharray:none;stroke-opacity:1"
           id="rect3002" />
      </g>
    </g>
  </g>
</svg>
