<?xml version="1.0" encoding="UTF-8" standalone="no"?>
<!-- Created with Inkscape (http://www.inkscape.org/) -->
<!-- Copyright © 2008 by Silvio Grosso, under the terms of the GNU GPL version 2. -->
<svg
   xmlns:svg="http://www.w3.org/2000/svg"
   xmlns="http://www.w3.org/2000/svg"
   version="1.0"
   viewBox="0 0 450 500"
   width="450"
   height="500"
   id="svg2">
  <defs
     id="defs4" />
  <g
     id="layer1">
    <g
       transform="translate(-114.28571,-294.28571)"
       id="g2377">
      <g
         id="g2409">
        <g
           transform="matrix(2.490164,0,0,2.501418,-469.1066,-790.4677)"
           id="g4623">
          <g
             transform="translate(-76.14023,1.308439)"
             id="g3669">
            <path
               d="M 394.5,542.86218 C 399.5,546.16789 404.5,545.60644 409.5,542.86218 L 404.5,532.86218 L 399.5,532.86218 L 394.5,542.86218 z "
               style="fill:#000000;fill-opacity:1;fill-rule:evenodd;stroke:#000000;stroke-width:1px;stroke-linecap:butt;stroke-linejoin:miter;stroke-opacity:1"
               id="path1872" />
            <path
               d="M 418.20314 529.48199 A 16.541248 16.541248 0 1 1  385.12065,529.48199 A 16.541248 16.541248 0 1 1  418.20314 529.48199 z"
               transform="matrix(0.996614,0,0,0.992796,1.297126,3.940326)"
               style="opacity:0.97000002;fill:none;fill-opacity:1;stroke:#000000;stroke-width:2.68700004;stroke-miterlimit:4;stroke-dasharray:none;stroke-opacity:1"
               id="path1874" />
            <path
               d="M 388.8336,522.36077 C 385.52789,527.36077 386.08934,532.36077 388.8336,537.36077 L 398.8336,532.36077 L 398.8336,527.36077 L 388.8336,522.36077 z "
               style="fill:#000000;fill-opacity:1;fill-rule:evenodd;stroke:#000000;stroke-width:1px;stroke-linecap:butt;stroke-linejoin:miter;stroke-opacity:1"
               id="path1876" />
            <path
               d="M 414.78104,537.29082 C 418.08675,532.29082 417.5253,527.29082 414.78104,522.29082 L 404.78104,527.29082 L 404.78104,532.29082 L 414.78104,537.29082 z "
               style="fill:#000000;fill-opacity:1;fill-rule:evenodd;stroke:#000000;stroke-width:1px;stroke-linecap:butt;stroke-linejoin:miter;stroke-opacity:1"
               id="path1880" />
            <path
               d="M 409.16055,516.6836 C 404.16055,513.37789 399.16055,513.93934 394.16055,516.6836 L 399.16055,526.6836 L 404.16055,526.6836 L 409.16055,516.6836 z "
               style="fill:#000000;fill-opacity:1;fill-rule:evenodd;stroke:#000000;stroke-width:1px;stroke-linecap:butt;stroke-linejoin:miter;stroke-opacity:1"
               id="path1882" />
            <path
               d="M 387.61799,519.00176 L 391.15352,515.46623 L 386.00508,513.54361 L 387.61799,519.00176 z "
               style="fill:#000000;fill-opacity:1;fill-rule:evenodd;stroke:#000000;stroke-width:1px;stroke-linecap:butt;stroke-linejoin:miter;stroke-opacity:1"
               id="path1884" />
            <path
               d="M 391.51153,543.95406 L 387.976,540.41854 L 386.05338,545.56698 L 391.51153,543.95406 z "
               style="fill:#000000;fill-opacity:1;fill-rule:evenodd;stroke:#000000;stroke-width:1px;stroke-linecap:butt;stroke-linejoin:miter;stroke-opacity:1"
               id="path1886" />
            <path
               d="M 416.00774,518.95279 L 412.47221,515.41726 L 417.62065,513.49464 L 416.00774,518.95279 z "
               style="fill:#000000;fill-opacity:1;fill-rule:evenodd;stroke:#000000;stroke-width:1px;stroke-linecap:butt;stroke-linejoin:miter;stroke-opacity:1"
               id="path1888" />
            <path
               d="M 411.93854,544.20659 L 415.47407,540.67107 L 417.39669,545.81951 L 411.93854,544.20659 z "
               style="fill:#000000;fill-opacity:1;fill-rule:evenodd;stroke:#000000;stroke-width:1px;stroke-linecap:butt;stroke-linejoin:miter;stroke-opacity:1"
               id="path1890" />
            <path
               d="M 425.40049 532.25989 A 21.844549 21.844549 0 1 1  381.71139,532.25989 A 21.844549 21.844549 0 1 1  425.40049 532.25989 z"
               transform="matrix(1.056264,0,0,1.045084,-24.35541,-26.64766)"
               style="opacity:0.97000002;fill:none;fill-opacity:1;stroke:#000000;stroke-width:1.38103783;stroke-miterlimit:4;stroke-dasharray:none;stroke-opacity:1"
               id="path1892" />
          </g>
          <path
             d="M 369.71582 530.49213 A 44.067905 44.067905 0 1 1  281.58001,530.49213 A 44.067905 44.067905 0 1 1  369.71582 530.49213 z"
             style="opacity:0.97000002;fill:none;fill-opacity:1;stroke:#000000;stroke-width:1.45099998;stroke-miterlimit:4;stroke-dasharray:none;stroke-opacity:1"
             id="path3702" />
          <path
             d="M 349.51278,531.12347 L 370,530.87093 L 370,531.37601"
             style="fill:none;fill-rule:evenodd;stroke:#000000;stroke-width:1px;stroke-linecap:butt;stroke-linejoin:miter;stroke-opacity:1"
             id="path3706" />
          <path
             d="M 301.78307,531.62854 L 281.83256,531.62854"
             style="fill:none;fill-rule:evenodd;stroke:#000000;stroke-width:1px;stroke-linecap:butt;stroke-linejoin:miter;stroke-opacity:1"
             id="path3708" />
          <path
             d="M 326.02673,507.36218 L 326.02673,485.16153"
             style="fill:none;fill-rule:evenodd;stroke:#000000;stroke-width:1px;stroke-linecap:butt;stroke-linejoin:miter;stroke-opacity:1"
             id="path3710" />
          <path
             d="M 326.27927,553.8519 L 326.53181,574.05495"
             style="fill:none;fill-rule:evenodd;stroke:#000000;stroke-width:1px;stroke-linecap:butt;stroke-linejoin:miter;stroke-opacity:1"
             id="path3712" />
          <path
             d="M 342.18918,513.69834 L 355,497.36218"
             style="fill:none;fill-rule:evenodd;stroke:#000000;stroke-width:1px;stroke-linecap:butt;stroke-linejoin:miter;stroke-opacity:1"
             id="path3714" />
          <path
             d="M 341.43156,547.36218 L 354.56354,563.95343"
             style="fill:none;fill-rule:evenodd;stroke:#000000;stroke-width:1px;stroke-linecap:butt;stroke-linejoin:miter;stroke-opacity:1"
             id="path3716" />
          <path
             d="M 309.35922,547.36218 L 295.46962,561.68058"
             style="fill:none;fill-rule:evenodd;stroke:#000000;stroke-width:1px;stroke-linecap:butt;stroke-linejoin:miter;stroke-opacity:1"
             id="path3718" />
          <path
             d="M 309.35922,514.20341 L 296.73231,496.02067"
             style="fill:none;fill-rule:evenodd;stroke:#000000;stroke-width:1px;stroke-linecap:butt;stroke-linejoin:miter;stroke-opacity:1"
             id="path3720" />
          <path
             d="M 382.59529 532.00732 A 52.149124 49.623745 0 1 1  278.29704,532.00732 A 52.149124 49.623745 0 1 1  382.59529 532.00732 z"
             transform="matrix(0.999896,0,0,1.015158,-4.763756,-9.579154)"
             style="opacity:0.97000002;fill:none;fill-opacity:1;stroke:#000000;stroke-width:1.45099998;stroke-miterlimit:4;stroke-dasharray:none;stroke-opacity:1"
             id="path3722" />
          <path
             d="M 369.29168,526.58285 C 370.34729,529.55251 370.14715,532.71945 369.29168,535.98933 L 377.41844,531.05128 L 369.29168,526.58285 z "
             style="fill:#000000;fill-opacity:1;fill-rule:evenodd;stroke:#000000;stroke-width:0.08522195;stroke-linecap:butt;stroke-linejoin:miter;stroke-miterlimit:4;stroke-dasharray:none;stroke-opacity:1"
             id="path3724" />
          <path
             d="M 331.13369,574.1693 C 328.16284,575.13307 324.99464,574.95034 321.72345,574.1693 L 326.66347,581.58901 L 331.13369,574.1693 z "
             style="fill:#000000;fill-opacity:1;fill-rule:evenodd;stroke:#000000;stroke-width:0.08144661;stroke-linecap:butt;stroke-linejoin:miter;stroke-miterlimit:4;stroke-dasharray:none;stroke-opacity:1"
             id="path4617" />
          <path
             d="M 281.74195,527.42468 C 280.68634,530.39434 280.88648,533.56128 281.74195,536.83116 L 273.61519,531.89311 L 281.74195,527.42468 z "
             style="fill:#000000;fill-opacity:1;fill-rule:evenodd;stroke:#000000;stroke-width:0.08522195;stroke-linecap:butt;stroke-linejoin:miter;stroke-miterlimit:4;stroke-dasharray:none;stroke-opacity:1"
             id="path4619" />
          <path
             d="M 321.72193,487.17996 C 324.58099,486.21599 327.62997,486.39875 330.77807,487.17996 L 326.02393,479.75872 L 321.72193,487.17996 z "
             style="fill:#000000;fill-opacity:1;fill-rule:evenodd;stroke:#000000;stroke-width:0.07990775;stroke-linecap:butt;stroke-linejoin:miter;stroke-miterlimit:4;stroke-dasharray:none;stroke-opacity:1"
             id="path4621" />
        </g>
        <path
           d="M 325.51172,277.64573 L 358.70703,277.64573 L 358.70703,286.20433 L 337.92578,286.20433 L 337.92578,292.57542 L 357.20313,292.57542 L 357.20313,300.7512 L 337.92578,300.7512 L 337.92578,308.65355 L 359.30859,308.65355 L 359.30859,317.73167 L 325.51172,317.73167 L 325.51172,277.64573 z "
           transform="translate(154.4883,241.2908)"
           style="font-size:56px;font-family:Arial Black"
           id="flowRoot2798" />
        <path
           d="M 319.22941,359.11863 L 330.79582,359.11863 L 345.88957,381.29441 L 345.88957,359.11863 L 357.56535,359.11863 L 357.56535,399.20457 L 345.88957,399.20457 L 330.87785,377.19285 L 330.87785,399.20457 L 319.22941,399.20457 L 319.22941,359.11863 z "
           style="font-size:56px;font-family:Arial Black"
           id="flowRoot2790" />
        <path
           d="M 323.4638,704.14248 L 336.63778,703.32786 C 336.92306,705.43984 337.50381,707.04894 338.38006,708.15519 C 339.80645,709.94533 341.84419,710.84039 344.49328,710.84037 C 346.46985,710.84039 347.99306,710.3828 349.06291,709.46761 C 350.13268,708.55245 350.6676,707.49144 350.66761,706.2846 C 350.6676,705.13813 350.15816,704.11232 349.13932,703.20719 C 348.12042,702.30209 345.75664,701.44724 342.04798,700.64268 C 335.9755,699.29507 331.64531,697.50494 329.05739,695.27228 C 326.44907,693.03968 325.14493,690.19357 325.14493,686.73397 C 325.14493,684.46113 325.81228,682.31398 327.14702,680.29252 C 328.48172,678.27111 330.48889,676.68212 333.16854,675.52554 C 335.84814,674.36903 339.52116,673.79076 344.18761,673.79072 C 349.91363,673.79076 354.27947,674.84171 357.28518,676.94356 C 360.2908,679.0455 362.07892,682.38941 362.64952,686.97533 L 349.5978,687.7296 C 349.25136,685.73836 348.52288,684.29018 347.41233,683.38501 C 346.30174,682.47993 344.76834,682.02737 342.81213,682.02733 C 341.20231,682.02737 339.98984,682.36428 339.17476,683.03805 C 338.35966,683.7119 337.95211,684.53154 337.95212,685.49696 C 337.95211,686.20098 338.28833,686.83456 338.96081,687.39771 C 339.61286,687.98105 341.16154,688.52412 343.60686,689.02694 C 349.6589,690.31426 353.9942,691.61662 356.61272,692.93405 C 359.23119,694.25153 361.13646,695.88578 362.32858,697.83679 C 363.52062,699.78786 364.11666,701.97021 364.11669,704.38385 C 364.11666,707.21991 363.32194,709.8347 361.73255,712.22824 C 360.14307,714.62179 357.92193,716.43705 355.06913,717.67406 C 352.21627,718.91106 348.61967,719.52955 344.2793,719.52955 C 336.65815,719.52955 331.38041,718.08137 328.44608,715.18497 C 325.51172,712.28858 323.85097,708.60776 323.4638,704.14248 L 323.4638,704.14248 z "
           style="font-size:56px;font-family:Arial Black"
           id="flowRoot1980" />
        <path
           d="M 323.43359,303.29417 C 323.43359,298.8645 324.92838,295.21412 327.91797,292.343 C 330.90754,289.47193 334.9453,288.03639 340.03125,288.03636 C 345.84633,288.03639 350.23955,289.72258 353.21094,293.09495 C 355.59892,295.81112 356.79293,299.15617 356.79297,303.13011 C 356.79293,307.59626 355.31182,311.25577 352.34961,314.10862 C 349.38734,316.96149 345.29034,318.38792 340.05859,318.38792 C 335.39191,318.38792 331.61848,317.20303 328.73828,314.83323 C 325.20182,311.89834 323.43359,308.05199 323.43359,303.29417 L 323.43359,303.29417 z M 334.58984,303.26683 C 334.58983,305.85538 335.11392,307.76944 336.16211,309.00901 C 337.21027,310.24861 338.52733,310.8684 340.11328,310.86839 C 341.71743,310.8684 343.03448,310.25772 344.06445,309.03636 C 345.09438,307.81501 345.60935,305.85538 345.60938,303.15745 C 345.60935,300.64184 345.08982,298.7688 344.05078,297.53831 C 343.0117,296.30786 341.72654,295.69263 340.19531,295.69261 C 338.5729,295.69263 337.23306,296.31698 336.17578,297.56566 C 335.11848,298.81437 334.58983,300.71476 334.58984,303.26683 L 334.58984,303.26683 z "
           transform="matrix(1.1070592,0,0,1.4000735,-189.30762,117.42833)"
           style="font-size:56px;font-family:Arial Black"
           id="flowRoot1988" />
      </g>
    </g>
  </g>
</svg>
