<?xml version="1.0" encoding="UTF-8" standalone="no"?>
<!-- Created with Inkscape (http://www.inkscape.org/) -->
<!-- Copyright © 2008 by Silvio Grosso, under the terms of the GNU GPL version 2. -->
<svg
   xmlns:svg="http://www.w3.org/2000/svg"
   xmlns="http://www.w3.org/2000/svg"
   version="1.0"
   viewBox="0 0 450 500"
   width="450"
   height="500"
   id="svg2">
  <defs
     id="defs4" />
  <g
     id="layer1">
    <rect
       width="2.1465743"
       height="0"
       x="-2192.2886"
       y="679.51837"
       style="fill:#ffffff;fill-opacity:1;stroke:#000000;stroke-width:3.33699989;stroke-miterlimit:4;stroke-dasharray:none;stroke-opacity:1"
       id="rect10945" />
    <g
       transform="translate(11.428571,-31.428571)"
       id="g2691">
      <path
         d="M 368.39001 537.05811 A 8.5231619 8.5231619 0 1 1  351.34369,537.05811 A 8.5231619 8.5231619 0 1 1  368.39001 537.05811 z"
         transform="matrix(7.6127586,0,0,4.9447,-2569.3395,-2348.7304)"
         style="opacity:0.97000002;fill:none;fill-opacity:1;stroke:#000000;stroke-width:0.99897921;stroke-miterlimit:4;stroke-dasharray:none;stroke-opacity:1"
         id="path1872" />
      <path
         d="M 170.38701,266.10392 L 170.85897,307.35786 L 232.55538,307.0628 C 231.23495,287.06589 219.06732,268.96046 170.38701,266.10392 z "
         style="fill:#000000;fill-opacity:1;fill-rule:evenodd;stroke:#000000;stroke-width:1.77328086;stroke-linecap:butt;stroke-linejoin:miter;stroke-miterlimit:4;stroke-dasharray:none;stroke-opacity:1"
         id="path1874" />
      <path
         d="M 232.17955,308.33172 L 170.4789,308.6562 L 170.92016,351.07171 C 200.82811,350.16397 227.90719,341.79882 232.17955,308.33172 z "
         style="fill:none;fill-rule:evenodd;stroke:#000000;stroke-width:1.79813766;stroke-linecap:butt;stroke-linejoin:miter;stroke-miterlimit:4;stroke-dasharray:none;stroke-opacity:1"
         id="path2762" />
      <path
         d="M 169.07523,351.21743 L 168.60008,307.86897 L 106.49085,308.17902 C 107.82008,329.19117 120.06914,348.21581 169.07523,351.21743 z "
         style="fill:#000000;fill-opacity:1;fill-rule:evenodd;stroke:#000000;stroke-width:1.82381284;stroke-linecap:butt;stroke-linejoin:miter;stroke-miterlimit:4;stroke-dasharray:none;stroke-opacity:1"
         id="path2764" />
      <path
         d="M 107.6676,306.89368 L 169.23133,306.58106 L 168.79106,265.71362 C 138.94945,266.58828 111.93049,274.64807 107.6676,306.89368 z "
         style="fill:none;fill-rule:evenodd;stroke:#000000;stroke-width:1.76305711;stroke-linecap:butt;stroke-linejoin:miter;stroke-miterlimit:4;stroke-dasharray:none;stroke-opacity:1"
         id="path2766" />
      <path
         d="M 369.27388 534.87994 A 0.91545075 0.91545075 0 1 1  367.44298,534.87994 A 0.91545075 0.91545075 0 1 1  369.27388 534.87994 z"
         transform="matrix(9.0351562,0,0,7.0465837,-3158.5547,-3463.0081)"
         style="opacity:0.97000002;fill:#000000;fill-opacity:1;stroke:#000000;stroke-width:0.30000001;stroke-miterlimit:4;stroke-dasharray:none;stroke-opacity:1"
         id="path3653" />
      <g
         transform="matrix(-7.5816931,0,0,5.9450504,2913.1796,-2901.1405)"
         id="g6328">
        <path
           d="M 360,527.36218 L 360,532.36218 L 362,532.36218 L 362,527.36218 L 360,527.36218 z "
           style="fill:none;fill-rule:evenodd;stroke:#000000;stroke-width:0.2;stroke-linecap:butt;stroke-linejoin:miter;stroke-miterlimit:4;stroke-dasharray:none;stroke-opacity:1"
           id="path6330" />
        <path
           d="M 362.05536,527.34679 L 362.05536,532.34679 L 364.05536,532.34679 L 364.05536,527.34679 L 362.05536,527.34679 z "
           style="fill:#000000;fill-opacity:1;fill-rule:evenodd;stroke:#000000;stroke-width:0.2;stroke-linecap:butt;stroke-linejoin:miter;stroke-miterlimit:4;stroke-dasharray:none;stroke-opacity:1"
           id="path6332" />
      </g>
      <g
         transform="matrix(-7.5816931,0,0,8.0021747,2753.7327,-4118.7553)"
         id="g7281">
        <path
           d="M 335.58543,544.35634 L 340.58543,539.35634 L 340.58543,543.79349 L 335.58543,544.35634 z "
           style="fill:#000000;fill-opacity:1;fill-rule:evenodd;stroke:#000000;stroke-width:0.30000001;stroke-linecap:butt;stroke-linejoin:miter;stroke-miterlimit:4;stroke-dasharray:none;stroke-opacity:1"
           id="path7277" />
        <path
           d="M 345.85,544.38592 L 340.85,539.38592 L 340.85,543.77616 L 345.85,544.38592 z "
           style="fill:none;fill-opacity:1;fill-rule:evenodd;stroke:#000000;stroke-width:0.30000001;stroke-linecap:butt;stroke-linejoin:miter;stroke-miterlimit:4;stroke-dasharray:none;stroke-opacity:1"
           id="path7279" />
      </g>
      <g
         transform="matrix(0,4.9449326,-20.276994,0,11031,-1482.2875)"
         id="g6384">
        <path
           d="M 360,527.36218 L 360,532.36218 L 362,532.36218 L 362,527.36218 L 360,527.36218 z "
           style="fill:none;fill-rule:evenodd;stroke:#000000;stroke-width:0.2;stroke-linecap:butt;stroke-linejoin:miter;stroke-miterlimit:4;stroke-dasharray:none;stroke-opacity:1"
           id="path6386" />
        <path
           d="M 362.05536,527.34679 L 362.05536,532.34679 L 364.05536,532.34679 L 364.05536,527.34679 L 362.05536,527.34679 z "
           style="fill:#000000;fill-opacity:1;fill-rule:evenodd;stroke:#000000;stroke-width:0.2;stroke-linecap:butt;stroke-linejoin:miter;stroke-miterlimit:4;stroke-dasharray:none;stroke-opacity:1"
           id="path6388" />
      </g>
      <g
         transform="matrix(0,4.9449326,-8.7655457,0,5106.2826,-1378.7352)"
         id="g7285">
        <path
           d="M 335.58543,544.35634 L 340.58543,539.35634 L 340.58543,543.79349 L 335.58543,544.35634 z "
           style="fill:#000000;fill-opacity:1;fill-rule:evenodd;stroke:#000000;stroke-width:0.30000001;stroke-linecap:butt;stroke-linejoin:miter;stroke-miterlimit:4;stroke-dasharray:none;stroke-opacity:1"
           id="path7287" />
        <path
           d="M 345.85,544.38592 L 340.85,539.38592 L 340.85,543.77616 L 345.85,544.38592 z "
           style="fill:none;fill-opacity:1;fill-rule:evenodd;stroke:#000000;stroke-width:0.30000001;stroke-linecap:butt;stroke-linejoin:miter;stroke-miterlimit:4;stroke-dasharray:none;stroke-opacity:1"
           id="path7289" />
      </g>
      <g
         transform="matrix(7.5816931,0,0,3.5607864,-2574.2398,-1531.313)"
         id="g6324">
        <path
           d="M 360,527.36218 L 360,532.36218 L 362,532.36218 L 362,527.36218 L 360,527.36218 z "
           style="fill:none;fill-rule:evenodd;stroke:#000000;stroke-width:0.2;stroke-linecap:butt;stroke-linejoin:miter;stroke-miterlimit:4;stroke-dasharray:none;stroke-opacity:1"
           id="path5435" />
        <path
           d="M 362.05536,527.34679 L 362.05536,532.34679 L 364.05536,532.34679 L 364.05536,527.34679 L 362.05536,527.34679 z "
           style="fill:#000000;fill-opacity:1;fill-rule:evenodd;stroke:#000000;stroke-width:0.2;stroke-linecap:butt;stroke-linejoin:miter;stroke-miterlimit:4;stroke-dasharray:none;stroke-opacity:1"
           id="path6322" />
      </g>
      <path
         d="M 129.73354,362.40528 L 167.642,386.36978 L 167.642,365.10296 L 129.73354,362.40528 z "
         style="fill:#000000;fill-opacity:1;fill-rule:evenodd;stroke:#000000;stroke-width:1.80843782;stroke-linecap:butt;stroke-linejoin:miter;stroke-miterlimit:4;stroke-dasharray:none;stroke-opacity:1"
         id="path7293" />
      <path
         d="M 207.55636,362.26351 L 169.64789,386.22801 L 169.64789,365.18603 L 207.55636,362.26351 z "
         style="fill:none;fill-opacity:1;fill-rule:evenodd;stroke:#000000;stroke-width:1.80843782;stroke-linecap:butt;stroke-linejoin:miter;stroke-miterlimit:4;stroke-dasharray:none;stroke-opacity:1"
         id="path7295" />
      <g
         transform="matrix(6.1470247,0,0,4.9449326,-2161.6542,-2305.1099)"
         id="g7311">
        <g
           transform="matrix(0,-1,1.091992,0,-211.7912,890.2011)"
           id="g6378">
          <path
             d="M 360,527.36218 L 360,532.36218 L 362,532.36218 L 362,527.36218 L 360,527.36218 z "
             style="fill:none;fill-rule:evenodd;stroke:#000000;stroke-width:0.2;stroke-linecap:butt;stroke-linejoin:miter;stroke-miterlimit:4;stroke-dasharray:none;stroke-opacity:1"
             id="path6380" />
          <path
             d="M 362.05536,527.34679 L 362.05536,532.34679 L 364.05536,532.34679 L 364.05536,527.34679 L 362.05536,527.34679 z "
             style="fill:#000000;fill-opacity:1;fill-rule:evenodd;stroke:#000000;stroke-width:0.2;stroke-linecap:butt;stroke-linejoin:miter;stroke-miterlimit:4;stroke-dasharray:none;stroke-opacity:1"
             id="path6382" />
        </g>
        <g
           transform="matrix(0,-1,1.346023,0,-368.0639,868.7946)"
           id="g7297">
          <path
             d="M 335.58543,544.35634 L 340.58543,539.35634 L 340.58543,543.79349 L 335.58543,544.35634 z "
             style="fill:#000000;fill-opacity:1;fill-rule:evenodd;stroke:#000000;stroke-width:0.30000001;stroke-linecap:butt;stroke-linejoin:miter;stroke-miterlimit:4;stroke-dasharray:none;stroke-opacity:1"
             id="path7299" />
          <path
             d="M 345.85,544.38592 L 340.85,539.38592 L 340.85,543.77616 L 345.85,544.38592 z "
             style="fill:none;fill-opacity:1;fill-rule:evenodd;stroke:#000000;stroke-width:0.30000001;stroke-linecap:butt;stroke-linejoin:miter;stroke-miterlimit:4;stroke-dasharray:none;stroke-opacity:1"
             id="path7301" />
        </g>
      </g>
      <path
         d="M 393.26214,295.13612 L 418.07515,295.13612 L 418.07515,299.809 L 402.54147,299.809 L 402.54147,303.28753 L 416.95101,303.28753 L 416.95101,307.7514 L 402.54147,307.7514 L 402.54147,312.06597 L 418.52481,312.06597 L 418.52481,317.0225 L 393.26214,317.0225 L 393.26214,295.13612 z "
         style="font-size:56px;font-family:Arial Black"
         id="flowRoot2798" />
      <path
         d="M 155.67772,169.28237 L 164.32345,169.28237 L 175.60581,181.39004 L 175.60581,169.28237 L 184.33328,169.28237 L 184.33328,191.16875 L 175.60581,191.16875 L 164.38476,179.15065 L 164.38476,191.16875 L 155.67772,191.16875 L 155.67772,169.28237 z "
         style="font-size:56px;font-family:Arial Black"
         id="flowRoot2790" />
    </g>
  </g>
</svg>
