<?xml version="1.0" encoding="UTF-8" standalone="no"?>
<!-- Created with Inkscape (http://www.inkscape.org/) -->
<!-- Copyright © 2008 by Silvio Grosso, under the terms of the GNU GPL version 2. -->
<svg
   xmlns:svg="http://www.w3.org/2000/svg"
   xmlns="http://www.w3.org/2000/svg"
   version="1.0"
   viewBox="0 0 450 500"
   width="450"
   height="500"
   id="svg2">
  <defs
     id="defs4" />
  <g
     id="layer1">
    <g
       transform="matrix(0.8532494,0,0,0.761749,-99.778453,-68.522937)"
       id="g2351">
      <path
         d="M -28.571419 510.93362 A 127.14286 127.14286 0 1 1  -282.85714,510.93362 A 127.14286 127.14286 0 1 1  -28.571419 510.93362 z"
         transform="matrix(0.8185667,0,0,0.8477863,506.79762,-8.5147898)"
         style="opacity:0.97000002;fill:none;fill-opacity:1;stroke:#000000;stroke-width:6.91922426;stroke-linecap:square;stroke-linejoin:miter;stroke-miterlimit:4;stroke-dasharray:none;stroke-opacity:1"
         id="path2259" />
      <g
         transform="matrix(0,-0.758562,0.763105,0,6.8490004,23.428044)"
         id="g3314">
        <path
           d="M -472.14286,541.6479 L -432.85714,533.07647 L -428.57143,604.50504 L -472.14286,541.6479 z "
           style="fill:none;fill-rule:evenodd;stroke:#000000;stroke-width:1px;stroke-linecap:butt;stroke-linejoin:miter;stroke-opacity:1"
           id="path3308" />
        <path
           d="M -428.57142,605.93362 L -494.28571,575.21933 L -471.42857,540.93361 L -428.57142,605.93362 z "
           style="fill:#000000;fill-opacity:1;fill-rule:evenodd;stroke:#000000;stroke-width:1px;stroke-linecap:butt;stroke-linejoin:miter;stroke-opacity:1"
           id="path3312" />
      </g>
      <g
         transform="matrix(0,0.758562,-0.763105,0,751.15132,828.76865)"
         id="g3321">
        <path
           d="M -472.14286,541.6479 L -432.85714,533.07647 L -428.57143,604.50504 L -472.14286,541.6479 z "
           style="fill:none;fill-rule:evenodd;stroke:#000000;stroke-width:1px;stroke-linecap:butt;stroke-linejoin:miter;stroke-opacity:1"
           id="path3323" />
        <path
           d="M -428.57142,605.93362 L -494.28571,575.21933 L -471.42857,540.93361 L -428.57142,605.93362 z "
           style="fill:#000000;fill-opacity:1;fill-rule:evenodd;stroke:#000000;stroke-width:1px;stroke-linecap:butt;stroke-linejoin:miter;stroke-opacity:1"
           id="path3325" />
      </g>
      <g
         transform="matrix(0.763105,0,0,0.758562,789.70201,45.208672)"
         id="g3327">
        <path
           d="M -472.14286,541.6479 L -432.85714,533.07647 L -428.57143,604.50504 L -472.14286,541.6479 z "
           style="fill:none;fill-rule:evenodd;stroke:#000000;stroke-width:1px;stroke-linecap:butt;stroke-linejoin:miter;stroke-opacity:1"
           id="path3329" />
        <path
           d="M -428.57142,605.93362 L -494.28571,575.21933 L -471.42857,540.93361 L -428.57142,605.93362 z "
           style="fill:#000000;fill-opacity:1;fill-rule:evenodd;stroke:#000000;stroke-width:1px;stroke-linecap:butt;stroke-linejoin:miter;stroke-opacity:1"
           id="path3331" />
      </g>
      <g
         transform="matrix(-0.763105,0,0,-0.758562,-30.163195,805.00654)"
         id="g3333">
        <path
           d="M -472.14286,541.6479 L -432.85714,533.07647 L -428.57143,604.50504 L -472.14286,541.6479 z "
           style="fill:none;fill-rule:evenodd;stroke:#000000;stroke-width:1px;stroke-linecap:butt;stroke-linejoin:miter;stroke-opacity:1"
           id="path3335" />
        <path
           d="M -428.57142,605.93362 L -494.28571,575.21933 L -471.42857,540.93361 L -428.57142,605.93362 z "
           style="fill:#000000;fill-opacity:1;fill-rule:evenodd;stroke:#000000;stroke-width:1px;stroke-linecap:butt;stroke-linejoin:miter;stroke-opacity:1"
           id="path3337" />
      </g>
      <path
         d="M 338.63805,386.97205 L 379.69891,268.42909 L 420.75975,386.97205 L 543.94237,426.48637 L 420.75975,466.0007 L 379.69891,584.54365 L 338.63805,466.0007 L 215.45549,426.48637 L 338.63805,386.97205 z "
         style="fill:none;fill-rule:evenodd;stroke:#000000;stroke-width:8.05603409px;stroke-linecap:butt;stroke-linejoin:miter;stroke-opacity:1"
         id="path1872" />
      <path
         d="M 418.12436,383.16019 L 383.47915,422.84897 L 383.47915,279.96937 L 418.12436,383.16019 z "
         style="fill:#000000;fill-opacity:1;fill-rule:evenodd;stroke:#000000;stroke-width:7.4162693px;stroke-linecap:butt;stroke-linejoin:miter;stroke-opacity:1"
         id="path1892" />
      <path
         d="M 421.1571,460.61889 L 378.46158,428.38341 L 532.16537,428.38341 L 421.1571,460.61889 z "
         style="fill:#000000;fill-opacity:1;fill-rule:evenodd;stroke:#000000;stroke-width:7.41973352px;stroke-linecap:butt;stroke-linejoin:miter;stroke-opacity:1"
         id="path1894" />
      <path
         d="M 335.88577,390.55616 L 377.15359,422.90219 L 228.5895,422.90219 L 335.88577,390.55616 z "
         style="fill:#000000;fill-opacity:1;fill-rule:evenodd;stroke:#000000;stroke-width:7.30712128px;stroke-linecap:butt;stroke-linejoin:miter;stroke-opacity:1"
         id="path1896" />
      <path
         d="M 341.95835,480.83114 L 379.05515,441.08949 L 379.05515,584.15943 L 341.95835,480.83114 z "
         style="fill:#000000;fill-opacity:1;fill-rule:evenodd;stroke:#000000;stroke-width:7.67929459px;stroke-linecap:butt;stroke-linejoin:miter;stroke-opacity:1"
         id="path1898" />
      <path
         d="M 325.51172,277.64573 L 358.70703,277.64573 L 358.70703,286.20433 L 337.92578,286.20433 L 337.92578,292.57542 L 357.20313,292.57542 L 357.20313,300.7512 L 337.92578,300.7512 L 337.92578,308.65355 L 359.30859,308.65355 L 359.30859,317.73167 L 325.51172,317.73167 L 325.51172,277.64573 z "
         transform="matrix(1.2766808,0,0,1.2303519,151.83018,56.391499)"
         style="font-size:56px;font-family:Arial Black"
         id="flowRoot2029" />
      <path
         d="M 325.62109,277.64573 L 337.1875,277.64573 L 352.28125,299.82151 L 352.28125,277.64573 L 363.95703,277.64573 L 363.95703,317.73167 L 352.28125,317.73167 L 337.26953,295.71995 L 337.26953,317.73167 L 325.62109,317.73167 L 325.62109,277.64573 z "
         transform="matrix(1.2766808,0,0,1.2303519,-61.418448,-143.70626)"
         style="font-size:56px;font-family:Arial Black"
         id="flowRoot2045" />
      <path
         d="M 79.802052 680.62604 A 24.748737 26.263966 0 1 1  30.304577,680.62604 A 24.748737 26.263966 0 1 1  79.802052 680.62604 z"
         transform="matrix(0.763105,0,0,0.758562,340.01378,-89.163903)"
         style="opacity:0.97000002;fill:#000000;fill-opacity:1;stroke:none;stroke-width:20.46800041;stroke-linecap:square;stroke-linejoin:miter;stroke-miterlimit:4;stroke-dasharray:none;stroke-opacity:1"
         id="path10789" />
    </g>
  </g>
</svg>
