<?xml version="1.0" encoding="UTF-8" standalone="no"?>
<!-- Created with Inkscape (http://www.inkscape.org/) -->
<!-- Copyright © 2008 by Silvio Grosso, under the terms of the GNU GPL version 2. -->
<svg
   xmlns:svg="http://www.w3.org/2000/svg"
   xmlns="http://www.w3.org/2000/svg"
   version="1.0"
   viewBox="0 0 450 500"
   width="450"
   height="500"
   id="svg2">
  <defs
     id="defs4" />
  <g
     id="layer1">
    <g
       transform="translate(-84.852813,-216.17264)"
       id="g2389">
      <g
         transform="matrix(1.571043,0,0,1.579954,-346.75734,-400.58831)"
         id="g8708">
        <g
           id="g7798">
          <g
             transform="matrix(1.499409,0,0,1.417922,-191.9873,-156.6127)"
             id="g6877">
            <path
               d="M 403.17712 540.59363 A 13.384521 13.384521 0 1 1  376.40808,540.59363 A 13.384521 13.384521 0 1 1  403.17712 540.59363 z"
               transform="matrix(1.195693,0,0,1.190976,-72.34677,-122.1065)"
               style="opacity:0.97000002;fill:none;fill-opacity:1;stroke:#000000;stroke-width:1.92016244;stroke-linecap:square;stroke-linejoin:miter;stroke-miterlimit:4;stroke-dasharray:none;stroke-opacity:1"
               id="path4200" />
            <g
               id="g4214">
              <g
                 id="g4204">
                <path
                   d="M 393.94568,506.11758 L 393.94568,521.85051 L 408.92234,521.85051 C 407.80587,513.39838 405.95738,505.55212 393.94568,506.11758 z "
                   style="fill:none;fill-rule:evenodd;stroke:#000000;stroke-width:1.02334249px;stroke-linecap:butt;stroke-linejoin:miter;stroke-opacity:1"
                   id="path4198" />
                <path
                   d="M 393.62106,506.22294 L 393.62106,521.83367 L 378.64056,521.83367 C 379.75731,513.44719 381.60628,505.66187 393.62106,506.22294 z "
                   style="fill:#000000;fill-opacity:1;fill-rule:evenodd;stroke:#000000;stroke-width:1.01949167px;stroke-linecap:butt;stroke-linejoin:miter;stroke-opacity:1"
                   id="path4202" />
              </g>
              <g
                 transform="matrix(-1,0,0,-1,787.6156,1044.094)"
                 id="g4208">
                <path
                   d="M 393.94568,506.11758 L 393.94568,521.85051 L 408.92234,521.85051 C 407.80587,513.39838 405.95738,505.55212 393.94568,506.11758 z "
                   style="fill:none;fill-rule:evenodd;stroke:#000000;stroke-width:1.02334249px;stroke-linecap:butt;stroke-linejoin:miter;stroke-opacity:1"
                   id="path4210" />
                <path
                   d="M 393.62106,506.22294 L 393.62106,521.83367 L 378.64056,521.83367 C 379.75731,513.44719 381.60628,505.66187 393.62106,506.22294 z "
                   style="fill:#000000;fill-opacity:1;fill-rule:evenodd;stroke:#000000;stroke-width:1.01949167px;stroke-linecap:butt;stroke-linejoin:miter;stroke-opacity:1"
                   id="path4212" />
              </g>
            </g>
          </g>
          <g
             transform="matrix(4.00614,0,0,4.277573,-1024.345,-1738.586)"
             id="g7782">
            <path
               d="M 355.06313,536.94472 L 355.06313,516.77774 L 347.62119,527.39853 L 353.06313,525.82017 L 353.06313,537.36218 L 355.06313,536.94472 z "
               style="fill:none;fill-rule:evenodd;stroke:#000000;stroke-width:0.5;stroke-linecap:butt;stroke-linejoin:miter;stroke-miterlimit:4;stroke-dasharray:none;stroke-opacity:1"
               id="path6889" />
            <path
               d="M 355.58824,536.74494 L 355.74052,517.57703 L 361.36875,526.7465 L 357.30349,526.11765 L 357.30349,537.20415 L 355.58824,536.74494 z "
               style="fill:#000000;fill-opacity:1;fill-rule:evenodd;stroke:#000000;stroke-width:0.88372129px;stroke-linecap:butt;stroke-linejoin:miter;stroke-opacity:1"
               id="path6891" />
          </g>
          <g
             transform="matrix(0,-4.00614,-4.277573,0,2719.64,2005.773)"
             id="g7786">
            <path
               d="M 355.06313,536.94472 L 355.06313,516.77774 L 347.62119,527.39853 L 353.06313,525.82017 L 353.06313,537.36218 L 355.06313,536.94472 z "
               style="fill:none;fill-rule:evenodd;stroke:#000000;stroke-width:0.5;stroke-linecap:butt;stroke-linejoin:miter;stroke-miterlimit:4;stroke-dasharray:none;stroke-opacity:1"
               id="path7788" />
            <path
               d="M 355.58824,536.74494 L 355.74052,517.57703 L 361.36875,526.7465 L 357.30349,526.11765 L 357.30349,537.20415 L 355.58824,536.74494 z "
               style="fill:#000000;fill-opacity:1;fill-rule:evenodd;stroke:#000000;stroke-width:0.88372129px;stroke-linecap:butt;stroke-linejoin:miter;stroke-opacity:1"
               id="path7790" />
          </g>
        </g>
        <g
           transform="matrix(1.903547,0,0,2.122449,-260.0025,-661.6547)"
           id="g8704">
          <path
             d="M 341,597.05034 L 341,617.92407 L 345.91071,617.92407 L 345.91071,597.05034 L 341,597.05034 z "
             style="fill:#000000;fill-opacity:1;fill-rule:evenodd;stroke:#000000;stroke-width:0;stroke-linecap:butt;stroke-linejoin:miter;stroke-miterlimit:4;stroke-dasharray:none;stroke-opacity:1"
             id="path7815" />
          <path
             d="M 345.5,597.45147 L 345.5,617.45147 L 350.5,617.45147 L 350.5,597.45147 L 345.5,597.45147 z "
             style="fill:none;fill-rule:evenodd;stroke:#000000;stroke-width:1px;stroke-linecap:butt;stroke-linejoin:miter;stroke-opacity:1"
             id="path7817" />
        </g>
      </g>
      <path
         d="M 325.51172,277.64573 L 358.70703,277.64573 L 358.70703,286.20433 L 337.92578,286.20433 L 337.92578,292.57542 L 357.20313,292.57542 L 357.20313,300.7512 L 337.92578,300.7512 L 337.92578,308.65355 L 359.30859,308.65355 L 359.30859,317.73167 L 325.51172,317.73167 L 325.51172,277.64573 z "
         transform="translate(136.65162,223.71949)"
         style="font-size:56px;font-family:Arial Black"
         id="flowRoot2798" />
      <path
         d="M 325.62109,277.64573 L 337.1875,277.64573 L 352.28125,299.82151 L 352.28125,277.64573 L 363.95703,277.64573 L 363.95703,317.73167 L 352.28125,317.73167 L 337.26953,295.71995 L 337.26953,317.73167 L 325.62109,317.73167 L 325.62109,277.64573 z "
         transform="translate(-64.517638,17.31039)"
         style="font-size:56px;font-family:Arial Black"
         id="flowRoot2790" />
    </g>
  </g>
</svg>
