<?xml version="1.0" encoding="UTF-8" standalone="no"?>
<!-- Created with Inkscape (http://www.inkscape.org/) -->
<!-- Copyright © 2008 by Silvio Grosso, under the terms of the GNU GPL version 2. -->
<svg
   xmlns:svg="http://www.w3.org/2000/svg"
   xmlns="http://www.w3.org/2000/svg"
   version="1.0"
   viewBox="0 0 450 500"
   width="450"
   height="500"
   id="svg2">
  <defs
     id="defs4" />
  <g
     id="layer1">
    <g
       transform="matrix(0.5195424,0,0,0.6016449,24.376483,-53.793862)"
       id="g2174">
      <path
         d="M 325.62109,277.64573 L 337.1875,277.64573 L 352.28125,299.82151 L 352.28125,277.64573 L 363.95703,277.64573 L 363.95703,317.73167 L 352.28125,317.73167 L 337.26953,295.71995 L 337.26953,317.73167 L 325.62109,317.73167 L 325.62109,277.64573 z "
         transform="matrix(3.640839,0,0,3.157632,-864.7505,-755.91207)"
         style="font-size:56px;font-family:Arial Black"
         id="flowRoot7755" />
      <g
         transform="matrix(28.115021,0,0,17.267132,23470.126,-12571.168)"
         id="g7864">
        <path
           d="M -825.62731,778.65596 L -821.18658,778.65596 L -821.18658,753.89884 L -818.82382,753.89884 L -823.42178,746.38114 L -828.35618,753.89884 L -825.62731,753.89884 L -825.62731,778.65596 z "
           style="fill:none;fill-rule:evenodd;stroke:#000000;stroke-width:0.9378258px;stroke-linecap:butt;stroke-linejoin:miter;stroke-opacity:1"
           id="path7860" />
        <path
           d="M -823.16032,776.72383 L -818.16032,776.72383 L -818.16032,751.72383 L -815.5,751.72383 L -820.67703,744.13238 L -826.23287,751.72383 L -823.16032,751.72383 L -823.16032,776.72383 z "
           style="fill:#000000;fill-opacity:1;fill-rule:evenodd;stroke:#000000;stroke-width:1px;stroke-linecap:butt;stroke-linejoin:miter;stroke-opacity:1"
           id="path7862" />
      </g>
    </g>
  </g>
</svg>
