<?xml version="1.0" encoding="UTF-8" standalone="no"?>
<!-- Created with Inkscape (http://www.inkscape.org/) -->
<!-- Copyright © 2008 by Silvio Grosso, under the terms of the GNU GPL version 2. -->
<svg
   xmlns:svg="http://www.w3.org/2000/svg"
   xmlns="http://www.w3.org/2000/svg"
   version="1.0"
   viewBox="0 0 450 500"
   width="450"
   height="500"
   id="svg2">
  <defs
     id="defs4" />
  <g
     id="layer1">
    <g
       transform="matrix(1.108799,0,0,1.0728296,-103.86298,-303.1657)"
       id="g2374">
      <g
         transform="matrix(4.68386,0,0,5.159583,-653.4472,-2365.377)"
         id="g4199">
        <g
           transform="matrix(0.330231,0,0,0.326986,129.2325,382.611)"
           id="g4128">
          <g
             transform="matrix(1.001355,0,0,0.97775,-0.260911,12.75667)"
             id="g2315">
            <g
               transform="matrix(0.486888,0,0,0.468202,98.9607,304.8798)"
               id="g2303">
              <path
                 d="M 285.3681 516.72882 A 38.638336 38.638336 0 1 1  208.09143,516.72882 A 38.638336 38.638336 0 1 1  285.3681 516.72882 z"
                 style="opacity:0.97000002;fill:none;fill-opacity:1;stroke:#000000;stroke-width:6.06500006;stroke-linecap:square;stroke-linejoin:miter;stroke-miterlimit:4;stroke-dasharray:none;stroke-opacity:1"
                 id="path2297" />
              <path
                 d="M 285.3681 516.72882 A 38.638336 38.638336 0 1 1  208.09143,516.72882 A 38.638336 38.638336 0 1 1  285.3681 516.72882 z"
                 transform="matrix(1.282951,0,0,1.335239,-70.1382,-172.2173)"
                 style="opacity:0.97000002;fill:none;fill-opacity:1;stroke:#000000;stroke-width:6.06500006;stroke-linecap:square;stroke-linejoin:miter;stroke-miterlimit:4;stroke-dasharray:none;stroke-opacity:1"
                 id="path2301" />
            </g>
            <rect
               width="2.0546257"
               height="2.3071637"
               x="217.67072"
               y="524.36737"
               style="opacity:0.97000002;fill:none;fill-opacity:1;stroke:#000000;stroke-width:4.01037455;stroke-linecap:square;stroke-linejoin:miter;stroke-miterlimit:4;stroke-dasharray:none;stroke-opacity:1"
               id="rect2307" />
            <rect
               width="2.0546257"
               height="2.3071637"
               x="195.94019"
               y="545.87982"
               style="opacity:0.97000002;fill:none;fill-opacity:1;stroke:#000000;stroke-width:4.01037455;stroke-linecap:square;stroke-linejoin:miter;stroke-miterlimit:4;stroke-dasharray:none;stroke-opacity:1"
               id="rect2309" />
            <rect
               width="2.0546257"
               height="2.3071637"
               x="239.89407"
               y="545.62726"
               style="opacity:0.97000002;fill:none;fill-opacity:1;stroke:#000000;stroke-width:4.01037455;stroke-linecap:square;stroke-linejoin:miter;stroke-miterlimit:4;stroke-dasharray:none;stroke-opacity:1"
               id="rect2311" />
            <rect
               width="2.0546257"
               height="2.3071637"
               x="217.41818"
               y="566.33539"
               style="opacity:0.97000002;fill:none;fill-opacity:1;stroke:#000000;stroke-width:4.01037455;stroke-linecap:square;stroke-linejoin:miter;stroke-miterlimit:4;stroke-dasharray:none;stroke-opacity:1"
               id="rect2313" />
          </g>
          <path
             d="M 176.96428 504.32648 A 3.3928571 3.3928571 0 1 1  170.17857,504.32648 A 3.3928571 3.3928571 0 1 1  176.96428 504.32648 z"
             transform="matrix(2.065176,0,0,1.855593,-139.259,-388.5523)"
             style="opacity:0.97000002;fill:none;fill-opacity:1;stroke:#000000;stroke-width:6.06500006;stroke-linecap:square;stroke-linejoin:miter;stroke-miterlimit:4;stroke-dasharray:none;stroke-opacity:1"
             id="path2324" />
        </g>
        <g
           transform="matrix(-0.487972,0,0,-0.614019,338.0609,910.8315)"
           id="g4116">
          <path
             d="M 280.07919,555.84733 L 269.28533,557.36256 L 279.70038,525.1261 L 280.07919,555.84733 z "
             style="fill:none;fill-rule:evenodd;stroke:#000000;stroke-width:0.39899999;stroke-linecap:butt;stroke-linejoin:miter;stroke-miterlimit:4;stroke-dasharray:none;stroke-opacity:1"
             id="path4118" />
          <path
             d="M 279.82142,555.98853 L 290.53571,557.63003 L 279.62753,524.91633 L 279.82142,555.98853 z "
             style="fill:#000000;fill-opacity:1;fill-rule:evenodd;stroke:none;stroke-width:1px;stroke-linecap:butt;stroke-linejoin:miter;stroke-opacity:1"
             id="path4120" />
        </g>
        <g
           transform="matrix(0,-0.487972,0.614019,0,-147.3954,698.2145)"
           id="g4139">
          <path
             d="M 280.07919,555.84733 L 269.28533,557.36256 L 279.70038,525.1261 L 280.07919,555.84733 z "
             style="fill:none;fill-rule:evenodd;stroke:#000000;stroke-width:0.39899999;stroke-linecap:butt;stroke-linejoin:miter;stroke-miterlimit:4;stroke-dasharray:none;stroke-opacity:1"
             id="path4141" />
          <path
             d="M 279.82142,555.98853 L 290.53571,557.63003 L 279.62753,524.91633 L 279.82142,555.98853 z "
             style="fill:#000000;fill-opacity:1;fill-rule:evenodd;stroke:none;stroke-width:1px;stroke-linecap:butt;stroke-linejoin:miter;stroke-opacity:1"
             id="path4143" />
        </g>
        <g
           transform="matrix(0.487972,0,0,0.614019,64.99151,212.7874)"
           id="g4151">
          <path
             d="M 280.07919,555.84733 L 269.28533,557.36256 L 279.70038,525.1261 L 280.07919,555.84733 z "
             style="fill:none;fill-rule:evenodd;stroke:#000000;stroke-width:0.39899999;stroke-linecap:butt;stroke-linejoin:miter;stroke-miterlimit:4;stroke-dasharray:none;stroke-opacity:1"
             id="path4153" />
          <path
             d="M 279.82142,555.98853 L 290.53571,557.63003 L 279.62753,524.91633 L 279.82142,555.98853 z "
             style="fill:#000000;fill-opacity:1;fill-rule:evenodd;stroke:none;stroke-width:1px;stroke-linecap:butt;stroke-linejoin:miter;stroke-opacity:1"
             id="path4155" />
        </g>
        <g
           transform="matrix(0,0.487972,-0.614019,0,550.4186,424.8941)"
           id="g4157">
          <path
             d="M 280.07919,555.84733 L 269.28533,557.36256 L 279.70038,525.1261 L 280.07919,555.84733 z "
             style="fill:none;fill-rule:evenodd;stroke:#000000;stroke-width:0.39899999;stroke-linecap:butt;stroke-linejoin:miter;stroke-miterlimit:4;stroke-dasharray:none;stroke-opacity:1"
             id="path4159" />
          <path
             d="M 279.82142,555.98853 L 290.53571,557.63003 L 279.62753,524.91633 L 279.82142,555.98853 z "
             style="fill:#000000;fill-opacity:1;fill-rule:evenodd;stroke:none;stroke-width:1px;stroke-linecap:butt;stroke-linejoin:miter;stroke-opacity:1"
             id="path4161" />
        </g>
        <g
           transform="matrix(-0.228464,0.260814,-0.148329,-0.169332,354.5441,587.1342)"
           id="g4175">
          <path
             d="M 280.07919,555.84733 L 269.28533,557.36256 L 279.70038,525.1261 L 280.07919,555.84733 z "
             style="fill:none;fill-rule:evenodd;stroke:#000000;stroke-width:0.39899999;stroke-linecap:butt;stroke-linejoin:miter;stroke-miterlimit:4;stroke-dasharray:none;stroke-opacity:1"
             id="path4177" />
          <path
             d="M 279.82142,555.98853 L 290.53571,557.63003 L 279.62753,524.91633 L 279.82142,555.98853 z "
             style="fill:#000000;fill-opacity:1;fill-rule:evenodd;stroke:none;stroke-width:1px;stroke-linecap:butt;stroke-linejoin:miter;stroke-opacity:1"
             id="path4179" />
        </g>
        <g
           transform="matrix(0.260814,0.228464,-0.169332,0.148329,227.7437,408.9894)"
           id="g4181">
          <path
             d="M 280.07919,555.84733 L 269.28533,557.36256 L 279.70038,525.1261 L 280.07919,555.84733 z "
             style="fill:none;fill-rule:evenodd;stroke:#000000;stroke-width:0.39899999;stroke-linecap:butt;stroke-linejoin:miter;stroke-miterlimit:4;stroke-dasharray:none;stroke-opacity:1"
             id="path4183" />
          <path
             d="M 279.82142,555.98853 L 290.53571,557.63003 L 279.62753,524.91633 L 279.82142,555.98853 z "
             style="fill:#000000;fill-opacity:1;fill-rule:evenodd;stroke:none;stroke-width:1px;stroke-linecap:butt;stroke-linejoin:miter;stroke-opacity:1"
             id="path4185" />
        </g>
        <g
           transform="matrix(-0.260814,-0.228464,0.169332,-0.148329,175.7916,714.4944)"
           id="g4187">
          <path
             d="M 280.07919,555.84733 L 269.28533,557.36256 L 279.70038,525.1261 L 280.07919,555.84733 z "
             style="fill:none;fill-rule:evenodd;stroke:#000000;stroke-width:0.39899999;stroke-linecap:butt;stroke-linejoin:miter;stroke-miterlimit:4;stroke-dasharray:none;stroke-opacity:1"
             id="path4189" />
          <path
             d="M 279.82142,555.98853 L 290.53571,557.63003 L 279.62753,524.91633 L 279.82142,555.98853 z "
             style="fill:#000000;fill-opacity:1;fill-rule:evenodd;stroke:none;stroke-width:1px;stroke-linecap:butt;stroke-linejoin:miter;stroke-opacity:1"
             id="path4191" />
        </g>
        <g
           transform="matrix(0.228464,-0.260814,0.148329,0.169332,48.95192,535.3813)"
           id="g4193">
          <path
             d="M 280.07919,555.84733 L 269.28533,557.36256 L 279.70038,525.1261 L 280.07919,555.84733 z "
             style="fill:none;fill-rule:evenodd;stroke:#000000;stroke-width:0.39899999;stroke-linecap:butt;stroke-linejoin:miter;stroke-miterlimit:4;stroke-dasharray:none;stroke-opacity:1"
             id="path4195" />
          <path
             d="M 279.82142,555.98853 L 290.53571,557.63003 L 279.62753,524.91633 L 279.82142,555.98853 z "
             style="fill:#000000;fill-opacity:1;fill-rule:evenodd;stroke:none;stroke-width:1px;stroke-linecap:butt;stroke-linejoin:miter;stroke-opacity:1"
             id="path4197" />
        </g>
      </g>
      <path
         d="M 325.51172,277.64573 L 358.70703,277.64573 L 358.70703,286.20433 L 337.92578,286.20433 L 337.92578,292.57542 L 357.20313,292.57542 L 357.20313,300.7512 L 337.92578,300.7512 L 337.92578,308.65355 L 359.30859,308.65355 L 359.30859,317.73167 L 325.51172,317.73167 L 325.51172,277.64573 z "
         transform="translate(95.38128,231.1886)"
         style="font-size:56px;font-family:Arial Black"
         id="flowRoot2029" />
      <path
         d="M 325.62109,277.64573 L 337.1875,277.64573 L 352.28125,299.82151 L 352.28125,277.64573 L 363.95703,277.64573 L 363.95703,317.73167 L 352.28125,317.73167 L 337.26953,295.71995 L 337.26953,317.73167 L 325.62109,317.73167 L 325.62109,277.64573 z "
         transform="translate(-54.47973,79.66574)"
         style="font-size:56px;font-family:Arial Black"
         id="flowRoot2045" />
    </g>
  </g>
</svg>
