<?xml version="1.0" encoding="UTF-8" standalone="no"?>
<!-- Created with Inkscape (http://www.inkscape.org/) -->
<!-- Copyright © 2008 by Silvio Grosso, under the terms of the GNU GPL version 2. -->
<svg
   xmlns:svg="http://www.w3.org/2000/svg"
   xmlns="http://www.w3.org/2000/svg"
   version="1.0"
   viewBox="0 0 450 500"
   width="450"
   height="500"
   id="svg2">
  <defs
     id="defs4" />
  <g
     id="layer1">
    <g
       transform="matrix(0.928007,0,0,0.8676816,-38.415215,-275.01597)"
       id="g2285">
      <path
         d="M 325.62109,277.64573 L 337.1875,277.64573 L 352.28125,299.82151 L 352.28125,277.64573 L 363.95703,277.64573 L 363.95703,317.73167 L 352.28125,317.73167 L 337.26953,295.71995 L 337.26953,317.73167 L 325.62109,317.73167 L 325.62109,277.64573 z "
         transform="translate(-63.48761,108.459)"
         style="font-size:56px;font-family:Arial Black"
         id="flowRoot5601" />
      <path
         d="M 325.51172,277.64573 L 358.70703,277.64573 L 358.70703,286.20433 L 337.92578,286.20433 L 337.92578,292.57542 L 357.20313,292.57542 L 357.20313,300.7512 L 337.92578,300.7512 L 337.92578,308.65355 L 359.30859,308.65355 L 359.30859,317.73167 L 325.51172,317.73167 L 325.51172,277.64573 z "
         transform="translate(138.941,316.7704)"
         style="font-size:56px;font-family:Arial Black"
         id="flowRoot5629" />
      <path
         d="M 411.42857 608.79077 A 130.71428 130.71428 0 1 1  150.00002,608.79077 A 130.71428 130.71428 0 1 1  411.42857 608.79077 z"
         transform="translate(0,0.178571)"
         style="opacity:0.97000002;fill:none;fill-opacity:1;stroke:#000000;stroke-width:14.19999981;stroke-linejoin:round;stroke-miterlimit:4;stroke-dasharray:none;stroke-opacity:1"
         id="path2031" />
      <g
         transform="matrix(1.922619,0,0,4.383232,-399.5132,-1999.594)"
         id="g4708">
        <g
           id="g6484">
          <path
             d="M 353.66649,564.0395 L 353.66664,553.75846 L 363.09041,564.0395 L 353.66649,564.0395 z "
             style="fill:#000000;fill-opacity:1;fill-rule:evenodd;stroke:#000000;stroke-width:0;stroke-linecap:butt;stroke-linejoin:miter;stroke-miterlimit:4;stroke-dasharray:none;stroke-opacity:1"
             id="path4710" />
          <path
             d="M 353.54449,563.96907 L 353.76443,553.91206 L 352.03253,555.77243 L 344.17746,563.96907 L 353.54449,563.96907 z "
             style="fill:none;fill-rule:evenodd;stroke:#000000;stroke-width:0.17066273;stroke-linecap:butt;stroke-linejoin:miter;stroke-miterlimit:0.89999998;stroke-dasharray:none;stroke-opacity:1"
             id="path4712" />
        </g>
      </g>
      <g
         transform="matrix(0,1.922619,-4.383232,0,2888.717,-63.9146)"
         id="g6512">
        <g
           id="g6514">
          <path
             d="M 353.66649,564.0395 L 353.66664,553.75846 L 363.09041,564.0395 L 353.66649,564.0395 z "
             style="fill:#000000;fill-opacity:1;fill-rule:evenodd;stroke:#000000;stroke-width:0;stroke-linecap:butt;stroke-linejoin:miter;stroke-miterlimit:4;stroke-dasharray:none;stroke-opacity:1"
             id="path6516" />
          <path
             d="M 353.54449,563.96907 L 353.76443,553.91206 L 352.03253,555.77243 L 344.17746,563.96907 L 353.54449,563.96907 z "
             style="fill:none;fill-rule:evenodd;stroke:#000000;stroke-width:0.17066273;stroke-linecap:butt;stroke-linejoin:miter;stroke-miterlimit:0.89999998;stroke-dasharray:none;stroke-opacity:1"
             id="path6518" />
        </g>
      </g>
      <g
         transform="matrix(0,-1.922619,4.383232,0,-2325.866,1284.001)"
         id="g6520">
        <g
           id="g6522">
          <path
             d="M 353.66649,564.0395 L 353.66664,553.75846 L 363.09041,564.0395 L 353.66649,564.0395 z "
             style="fill:#000000;fill-opacity:1;fill-rule:evenodd;stroke:#000000;stroke-width:0;stroke-linecap:butt;stroke-linejoin:miter;stroke-miterlimit:4;stroke-dasharray:none;stroke-opacity:1"
             id="path6524" />
          <path
             d="M 353.54449,563.96907 L 353.76443,553.91206 L 352.03253,555.77243 L 344.17746,563.96907 L 353.54449,563.96907 z "
             style="fill:none;fill-rule:evenodd;stroke:#000000;stroke-width:0.17066273;stroke-linecap:butt;stroke-linejoin:miter;stroke-miterlimit:0.89999998;stroke-dasharray:none;stroke-opacity:1"
             id="path6526" />
        </g>
      </g>
      <g
         transform="matrix(-1.922619,0,0,-4.383232,960.4984,3212.826)"
         id="g6528">
        <g
           id="g6530">
          <path
             d="M 353.66649,564.0395 L 353.66664,553.75846 L 363.09041,564.0395 L 353.66649,564.0395 z "
             style="fill:#000000;fill-opacity:1;fill-rule:evenodd;stroke:#000000;stroke-width:0;stroke-linecap:butt;stroke-linejoin:miter;stroke-miterlimit:4;stroke-dasharray:none;stroke-opacity:1"
             id="path6532" />
          <path
             d="M 353.54449,563.96907 L 353.76443,553.91206 L 352.03253,555.77243 L 344.17746,563.96907 L 353.54449,563.96907 z "
             style="fill:none;fill-rule:evenodd;stroke:#000000;stroke-width:0.17066273;stroke-linecap:butt;stroke-linejoin:miter;stroke-miterlimit:0.89999998;stroke-dasharray:none;stroke-opacity:1"
             id="path6534" />
        </g>
      </g>
    </g>
  </g>
</svg>
