<?xml version="1.0" encoding="UTF-8" standalone="no"?>
<!-- Created with Inkscape (http://www.inkscape.org/) -->
<!-- Copyright © 2008 by Silvio Grosso, under the terms of the GNU GPL version 2. -->
<svg
   xmlns:svg="http://www.w3.org/2000/svg"
   xmlns="http://www.w3.org/2000/svg"
   version="1.0"
   viewBox="0 0 450 500"
   width="450"
   height="500"
   id="svg2">
  <defs
     id="defs4" />
  <g
     id="layer1">
    <rect
       width="2.1465743"
       height="0"
       x="-256.33777"
       y="380.63318"
       style="fill:#ffffff;fill-opacity:1;stroke:#000000;stroke-width:3.33699989;stroke-miterlimit:4;stroke-dasharray:none;stroke-opacity:1"
       id="rect1904" />
    <g
       transform="translate(-18.571429,-22.857143)"
       id="g2337">
      <rect
         width="6.3891425"
         height="70.025955"
         x="233.28166"
         y="158.41487"
         style="fill:#ffffff;fill-opacity:1;stroke:#000000;stroke-width:11.37500095;stroke-miterlimit:4;stroke-dasharray:none;stroke-opacity:1"
         id="rect1902" />
      <rect
         width="6.3891425"
         height="70.025955"
         x="233.49455"
         y="324.85138"
         style="fill:#ffffff;fill-opacity:1;stroke:#000000;stroke-width:11.37500095;stroke-miterlimit:4;stroke-dasharray:none;stroke-opacity:1"
         id="rect1906" />
      <rect
         width="6.524157"
         height="68.576797"
         x="276.5726"
         y="-350.34045"
         transform="matrix(0,1,-1,0,0,0)"
         style="fill:#ffffff;fill-opacity:1;stroke:#000000;stroke-width:11.37500095;stroke-miterlimit:4;stroke-dasharray:none;stroke-opacity:1"
         id="rect1908" />
      <rect
         width="6.524157"
         height="68.576797"
         x="277.74426"
         y="-191.32622"
         transform="matrix(0,1,-1,0,0,0)"
         style="fill:#ffffff;fill-opacity:1;stroke:#000000;stroke-width:11.37500095;stroke-miterlimit:4;stroke-dasharray:none;stroke-opacity:1"
         id="rect1910" />
      <path
         d="M 252.03306 499.1774 A 2.6516504 2.6516504 0 1 1  246.72976,499.1774 A 2.6516504 2.6516504 0 1 1  252.03306 499.1774 z"
         transform="matrix(3.373295,0,0,3.444579,-604.855,-1580.9045)"
         style="fill:#000000;fill-opacity:1;stroke:#000000;stroke-width:3.33699989;stroke-miterlimit:4;stroke-dasharray:none;stroke-opacity:1"
         id="path1914" />
      <path
         d="M 252.03306 499.1774 A 2.6516504 2.6516504 0 1 1  246.72976,499.1774 A 2.6516504 2.6516504 0 1 1  252.03306 499.1774 z"
         transform="matrix(3.373295,0,0,3.444579,-470.7754,-1440.0555)"
         style="fill:#000000;fill-opacity:1;stroke:#000000;stroke-width:3.33699989;stroke-miterlimit:4;stroke-dasharray:none;stroke-opacity:1"
         id="path1916" />
      <path
         d="M 252.03306 499.1774 A 2.6516504 2.6516504 0 1 1  246.72976,499.1774 A 2.6516504 2.6516504 0 1 1  252.03306 499.1774 z"
         transform="matrix(3.373295,0,0,3.444579,-738.083,-1438.3165)"
         style="fill:#000000;fill-opacity:1;stroke:#000000;stroke-width:3.33699989;stroke-miterlimit:4;stroke-dasharray:none;stroke-opacity:1"
         id="path1918" />
      <path
         d="M 252.03306 499.1774 A 2.6516504 2.6516504 0 1 1  246.72976,499.1774 A 2.6516504 2.6516504 0 1 1  252.03306 499.1774 z"
         transform="matrix(3.373295,0,0,3.444579,-604.855,-1304.6975)"
         style="fill:#000000;fill-opacity:1;stroke:#000000;stroke-width:3.33699989;stroke-miterlimit:4;stroke-dasharray:none;stroke-opacity:1"
         id="path1920" />
      <g
         transform="matrix(1.563758,-1.40606,1.563758,1.40606,-1079.764,-56.02686)"
         id="g1926">
        <rect
           width="0.82368344"
           height="6.0328536"
           x="305"
           y="502.36218"
           style="opacity:1;fill:#000000;fill-opacity:1;stroke:#000000;stroke-width:3.33699989;stroke-miterlimit:4;stroke-dasharray:none;stroke-opacity:1"
           id="rect1922" />
        <path
           d="M 257.33637 495.38931 A 1.1364216 1.1364216 0 1 1  255.06353,495.38931 A 1.1364216 1.1364216 0 1 1  257.33637 495.38931 z"
           transform="translate(49.24493,2.525381)"
           style="opacity:1;fill:#000000;fill-opacity:1;stroke:#000000;stroke-width:3.33699989;stroke-miterlimit:4;stroke-dasharray:none;stroke-opacity:1"
           id="path1924" />
      </g>
      <g
         transform="matrix(-1.376962,-1.596803,1.376962,-1.596803,-87.5671,1623.5275)"
         id="g1936">
        <rect
           width="0.82368344"
           height="6.0328536"
           x="305"
           y="502.36218"
           style="opacity:1;fill:#000000;fill-opacity:1;stroke:#000000;stroke-width:3.33699989;stroke-miterlimit:4;stroke-dasharray:none;stroke-opacity:1"
           id="rect1938" />
        <path
           d="M 257.33637 495.38931 A 1.1364216 1.1364216 0 1 1  255.06353,495.38931 A 1.1364216 1.1364216 0 1 1  257.33637 495.38931 z"
           transform="translate(49.24493,2.525381)"
           style="opacity:1;fill:#000000;fill-opacity:1;stroke:#000000;stroke-width:3.33699989;stroke-miterlimit:4;stroke-dasharray:none;stroke-opacity:1"
           id="path1940" />
      </g>
      <g
         transform="matrix(1.376962,1.596803,-1.376962,1.596803,559.24128,-1069.9471)"
         id="g1942">
        <rect
           width="0.82368344"
           height="6.0328536"
           x="305"
           y="502.36218"
           style="opacity:1;fill:#000000;fill-opacity:1;stroke:#000000;stroke-width:3.33699989;stroke-miterlimit:4;stroke-dasharray:none;stroke-opacity:1"
           id="rect1944" />
        <path
           d="M 257.33637 495.38931 A 1.1364216 1.1364216 0 1 1  255.06353,495.38931 A 1.1364216 1.1364216 0 1 1  257.33637 495.38931 z"
           transform="translate(49.24493,2.525381)"
           style="opacity:1;fill:#000000;fill-opacity:1;stroke:#000000;stroke-width:3.33699989;stroke-miterlimit:4;stroke-dasharray:none;stroke-opacity:1"
           id="path1946" />
      </g>
      <g
         transform="matrix(-1.563758,1.40606,-1.563758,-1.40606,1553.853,609.20281)"
         id="g1948">
        <rect
           width="0.82368344"
           height="6.0328536"
           x="305"
           y="502.36218"
           style="opacity:1;fill:#000000;fill-opacity:1;stroke:#000000;stroke-width:3.33699989;stroke-miterlimit:4;stroke-dasharray:none;stroke-opacity:1"
           id="rect1950" />
        <path
           d="M 257.33637 495.38931 A 1.1364216 1.1364216 0 1 1  255.06353,495.38931 A 1.1364216 1.1364216 0 1 1  257.33637 495.38931 z"
           transform="translate(49.24493,2.525381)"
           style="opacity:1;fill:#000000;fill-opacity:1;stroke:#000000;stroke-width:3.33699989;stroke-miterlimit:4;stroke-dasharray:none;stroke-opacity:1"
           id="path1952" />
      </g>
      <path
         d="M 325.51172,277.64573 L 358.70703,277.64573 L 358.70703,286.20433 L 337.92578,286.20433 L 337.92578,292.57542 L 357.20313,292.57542 L 357.20313,300.7512 L 337.92578,300.7512 L 337.92578,308.65355 L 359.30859,308.65355 L 359.30859,317.73167 L 325.51172,317.73167 L 325.51172,277.64573 z "
         transform="translate(66.8279,-17.68201)"
         style="font-size:56px;font-family:Arial Black"
         id="flowRoot2798" />
      <path
         d="M 325.62109,277.64573 L 337.1875,277.64573 L 352.28125,299.82151 L 352.28125,277.64573 L 363.95703,277.64573 L 363.95703,317.73167 L 352.28125,317.73167 L 337.26953,295.71995 L 337.26953,317.73167 L 325.62109,317.73167 L 325.62109,277.64573 z "
         transform="translate(-109.7053,-197.68199)"
         style="font-size:56px;font-family:Arial Black"
         id="flowRoot2790" />
      <rect
         width="67.85714"
         height="75"
         x="202.26985"
         y="238.54054"
         style="opacity:0.97000002;fill:none;fill-opacity:1;stroke:#000000;stroke-width:13.07299995;stroke-linecap:square;stroke-linejoin:miter;stroke-miterlimit:4;stroke-dasharray:none;stroke-opacity:1"
         id="rect4069" />
      <path
         d="M 265.71429 277.36218 A 54.285713 54.285713 0 1 1  157.14286,277.36218 A 54.285713 54.285713 0 1 1  265.71429 277.36218 z"
         transform="matrix(1.011092,0,0,1.023256,22.8897,-6.70785)"
         style="opacity:0.97000002;fill:none;fill-opacity:1;stroke:#000000;stroke-width:13.07299995;stroke-linecap:square;stroke-linejoin:miter;stroke-miterlimit:4;stroke-dasharray:none;stroke-opacity:1"
         id="path4956" />
    </g>
  </g>
</svg>
