<?xml version="1.0" encoding="UTF-8" standalone="no"?>
<!-- Created with Inkscape (http://www.inkscape.org/) -->
<!-- Copyright © 2008 by Silvio Grosso, under the terms of the GNU GPL version 2. -->
<svg
   xmlns:svg="http://www.w3.org/2000/svg"
   xmlns="http://www.w3.org/2000/svg"
   version="1.0"
   viewBox="0 0 450 500"
   width="450"
   height="500"
   id="svg2">
  <defs
     id="defs4" />
  <g
     id="layer1">
    <g
       transform="matrix(1.0587175,0,0,1.0527831,-267.98969,-477.69647)"
       id="g2317">
      <path
         d="M 325.51172,277.64573 L 358.70703,277.64573 L 358.70703,286.20433 L 337.92578,286.20433 L 337.92578,292.57542 L 357.20313,292.57542 L 357.20313,300.7512 L 337.92578,300.7512 L 337.92578,308.65355 L 359.30859,308.65355 L 359.30859,317.73167 L 325.51172,317.73167 L 325.51172,277.64573 z "
         transform="translate(263.3523,396.1393)"
         style="font-size:56px;font-family:Arial Black"
         id="flowRoot2029" />
      <path
         d="M 325.62109,277.64573 L 337.1875,277.64573 L 352.28125,299.82151 L 352.28125,277.64573 L 363.95703,277.64573 L 363.95703,317.73167 L 352.28125,317.73167 L 337.26953,295.71995 L 337.26953,317.73167 L 325.62109,317.73167 L 325.62109,277.64573 z "
         transform="translate(111.3186,247.0762)"
         style="font-size:56px;font-family:Arial Black"
         id="flowRoot2045" />
      <g
         transform="translate(5.714286,-4.285714)"
         id="g3526">
        <g
           transform="matrix(0.568373,0,0,0.62482,179.0582,277.4692)"
           id="g3486">
          <path
             d="M 476.78571 602.89789 A 21.25 23.035715 0 1 1  434.28571,602.89789 A 21.25 23.035715 0 1 1  476.78571 602.89789 z"
             transform="matrix(1.326212,0,0,1.28339,-124.2005,-99.83376)"
             style="opacity:0.97000002;fill:#000000;fill-opacity:1;stroke:#000000;stroke-width:5.46799994;stroke-linecap:square;stroke-linejoin:miter;stroke-miterlimit:4;stroke-dasharray:none;stroke-opacity:1"
             id="path2520" />
          <path
             d="M 567.50001 591.11218 A 38.035713 38.035713 0 1 1  491.42858,591.11218 A 38.035713 38.035713 0 1 1  567.50001 591.11218 z"
             transform="matrix(1.480367,0,0,1.456455,-303.0604,-186.2503)"
             style="opacity:0.97000002;fill:none;fill-opacity:1;stroke:#000000;stroke-width:12.99924469;stroke-linecap:square;stroke-linejoin:miter;stroke-miterlimit:4;stroke-dasharray:none;stroke-opacity:1"
             id="path2522" />
        </g>
        <g
           transform="matrix(0,-1.617502,0.758826,0,25.37736,1413.412)"
           id="g3502">
          <path
             d="M 463.283,562.10964 L 459.36687,527.36218 L 520,561.17551 L 463.283,562.10964 z "
             style="fill:#000000;fill-opacity:1;fill-rule:evenodd;stroke:#000000;stroke-width:1px;stroke-linecap:butt;stroke-linejoin:miter;stroke-opacity:1"
             id="path3504" />
          <path
             d="M 463.27101,560.84811 L 459.35489,595.84811 L 519.98801,562.03479 L 463.27101,560.84811 z "
             style="fill:none;fill-rule:evenodd;stroke:#000000;stroke-width:1px;stroke-linecap:butt;stroke-linejoin:miter;stroke-opacity:1"
             id="path3506" />
        </g>
        <g
           transform="matrix(1.617502,0,0,0.758826,-262.1424,273.3014)"
           id="g3508">
          <path
             d="M 463.283,562.10964 L 459.36687,527.36218 L 520,561.17551 L 463.283,562.10964 z "
             style="fill:#000000;fill-opacity:1;fill-rule:evenodd;stroke:#000000;stroke-width:1px;stroke-linecap:butt;stroke-linejoin:miter;stroke-opacity:1"
             id="path3510" />
          <path
             d="M 463.27101,560.84811 L 459.35489,595.84811 L 519.98801,562.03479 L 463.27101,560.84811 z "
             style="fill:none;fill-rule:evenodd;stroke:#000000;stroke-width:1px;stroke-linecap:butt;stroke-linejoin:miter;stroke-opacity:1"
             id="path3512" />
        </g>
        <g
           transform="matrix(0,1.617502,-0.758826,0,878.117,-14.93325)"
           id="g3514">
          <path
             d="M 463.283,562.10964 L 459.36687,527.36218 L 520,561.17551 L 463.283,562.10964 z "
             style="fill:#000000;fill-opacity:1;fill-rule:evenodd;stroke:#000000;stroke-width:1px;stroke-linecap:butt;stroke-linejoin:miter;stroke-opacity:1"
             id="path3516" />
          <path
             d="M 463.27101,560.84811 L 459.35489,595.84811 L 519.98801,562.03479 L 463.27101,560.84811 z "
             style="fill:none;fill-rule:evenodd;stroke:#000000;stroke-width:1px;stroke-linecap:butt;stroke-linejoin:miter;stroke-opacity:1"
             id="path3518" />
        </g>
        <g
           transform="matrix(-1.617502,0,0,-0.758826,1166.647,1125.061)"
           id="g3520">
          <path
             d="M 463.283,562.10964 L 459.36687,527.36218 L 520,561.17551 L 463.283,562.10964 z "
             style="fill:#000000;fill-opacity:1;fill-rule:evenodd;stroke:#000000;stroke-width:1px;stroke-linecap:butt;stroke-linejoin:miter;stroke-opacity:1"
             id="path3522" />
          <path
             d="M 463.27101,560.84811 L 459.35489,595.84811 L 519.98801,562.03479 L 463.27101,560.84811 z "
             style="fill:none;fill-rule:evenodd;stroke:#000000;stroke-width:1px;stroke-linecap:butt;stroke-linejoin:miter;stroke-opacity:1"
             id="path3524" />
        </g>
      </g>
    </g>
  </g>
</svg>
