<?xml version="1.0" encoding="UTF-8" standalone="no"?>
<!-- Created with Inkscape (http://www.inkscape.org/) -->
<!-- Copyright © 2008 by Silvio Grosso, under the terms of the GNU GPL version 2. -->
<svg
   xmlns:svg="http://www.w3.org/2000/svg"
   xmlns="http://www.w3.org/2000/svg"
   version="1.0"
   viewBox="0 0 450 500"
   width="450"
   height="500"
   id="svg2">
  <defs
     id="defs4" />
  <g
     id="layer1">
    <rect
       width="2.1465743"
       height="0"
       x="-1710.7015"
       y="549.28674"
       style="fill:#ffffff;fill-opacity:1;stroke:#000000;stroke-width:3.33699989;stroke-miterlimit:4;stroke-dasharray:none;stroke-opacity:1"
       id="rect10945" />
    <g
       transform="matrix(0.68551,0,0,0.7295708,73.944732,15.285212)"
       id="g2316">
      <g
         transform="matrix(5.373307,0,0,5.188327,-1811.917,-2360.821)"
         id="g2794">
        <path
           d="M 372.94642 536.60327 A 14.955358 14.955358 0 1 1  343.0357,536.60327 A 14.955358 14.955358 0 1 1  372.94642 536.60327 z"
           style="opacity:0.97000002;fill:none;fill-opacity:1;stroke:#000000;stroke-width:2.9000001;stroke-miterlimit:4;stroke-dasharray:none;stroke-opacity:1"
           id="path1872" />
        <path
           d="M 345,532.36218 C 362,522.36218 362,522.36218 362,522.36218 L 362.41072,523.36218"
           style="fill:none;fill-rule:evenodd;stroke:#000000;stroke-width:1px;stroke-linecap:butt;stroke-linejoin:miter;stroke-opacity:1"
           id="path2760" />
        <path
           d="M 345,541.82647 C 368,526.36218 368,526.36218 368,526.36218"
           style="fill:none;fill-rule:evenodd;stroke:#000000;stroke-width:1px;stroke-linecap:butt;stroke-linejoin:miter;stroke-opacity:1"
           id="path2762" />
        <path
           d="M 349,548.36218 L 372,532.36218"
           style="fill:none;fill-rule:evenodd;stroke:#000000;stroke-width:1px;stroke-linecap:butt;stroke-linejoin:miter;stroke-opacity:1"
           id="path2764" />
        <path
           d="M 359,550.36218 C 372,540.36218 372,540.36218 372,540.36218"
           style="fill:none;fill-rule:evenodd;stroke:#000000;stroke-width:1px;stroke-linecap:butt;stroke-linejoin:miter;stroke-opacity:1"
           id="path2766" />
        <path
           d="M 371.69407,539.87768 C 358.02021,522.38239 358.02021,522.38239 358.02021,522.38239"
           style="fill:none;fill-rule:evenodd;stroke:#000000;stroke-width:1.04042327px;stroke-linecap:butt;stroke-linejoin:miter;stroke-opacity:1"
           id="path2768" />
        <path
           d="M 350,525.36218 C 367,548.36218 367,548.36218 367,548.36218"
           style="fill:none;fill-rule:evenodd;stroke:#000000;stroke-width:1px;stroke-linecap:butt;stroke-linejoin:miter;stroke-opacity:1"
           id="path2770" />
        <path
           d="M 344.18734,530.22809 C 358.90194,550.28198 358.90194,550.28198 358.90194,550.28198 L 358.90194,550.28198"
           style="fill:none;fill-rule:evenodd;stroke:#000000;stroke-width:1.01753926px;stroke-linecap:butt;stroke-linejoin:miter;stroke-opacity:1"
           id="path2772" />
      </g>
      <g
         transform="matrix(5.373307,0,0,5.704256,-1971.648,-2809.513)"
         id="g2786">
        <path
           d="M 385,552.36218 L 385,532.36218 L 380,532.36218 L 388,521.91575 L 395,532.36218 L 390,532.36218 L 390,552.36218 L 385,552.36218 z "
           style="fill:none;fill-rule:evenodd;stroke:#000000;stroke-width:1px;stroke-linecap:butt;stroke-linejoin:miter;stroke-opacity:1"
           id="path2774" />
        <path
           d="M 385,551.82647 L 389.55357,547.36218 L 389.55357,547.36218 L 389.55357,547.36218 L 389.46429,546.82647"
           style="fill:none;fill-rule:evenodd;stroke:#000000;stroke-width:1px;stroke-linecap:butt;stroke-linejoin:miter;stroke-opacity:1"
           id="path2776" />
        <path
           d="M 385,542.36218 L 389.55357,537.36218"
           style="fill:none;fill-rule:evenodd;stroke:#000000;stroke-width:1px;stroke-linecap:butt;stroke-linejoin:miter;stroke-opacity:1"
           id="path2778" />
        <path
           d="M 385,532.36218 L 391,526.36218"
           style="fill:none;fill-rule:evenodd;stroke:#000000;stroke-width:1px;stroke-linecap:butt;stroke-linejoin:miter;stroke-opacity:1"
           id="path2780" />
        <path
           d="M 389.55357,547.36218 L 385,542.36218"
           style="fill:none;fill-rule:evenodd;stroke:#000000;stroke-width:1px;stroke-linecap:butt;stroke-linejoin:miter;stroke-opacity:1"
           id="path2782" />
        <path
           d="M 385,542.36218 L 389,537.36218 L 382.58929,529.36218"
           style="fill:none;fill-rule:evenodd;stroke:#000000;stroke-width:1px;stroke-linecap:butt;stroke-linejoin:miter;stroke-opacity:1"
           id="path2784" />
      </g>
      <g
         transform="matrix(0,-5.188327,-9.152113,0,5245.939,2437.684)"
         id="g2804">
        <path
           d="M 385,552.36218 L 385,532.36218 L 380,532.36218 L 388,521.91575 L 395,532.36218 L 390,532.36218 L 390,552.36218 L 385,552.36218 z "
           style="fill:none;fill-rule:evenodd;stroke:#000000;stroke-width:1px;stroke-linecap:butt;stroke-linejoin:miter;stroke-opacity:1"
           id="path2806" />
        <path
           d="M 385,551.82647 L 389.55357,547.36218 L 389.55357,547.36218 L 389.55357,547.36218 L 389.46429,546.82647"
           style="fill:none;fill-rule:evenodd;stroke:#000000;stroke-width:1px;stroke-linecap:butt;stroke-linejoin:miter;stroke-opacity:1"
           id="path2808" />
        <path
           d="M 385,542.36218 L 389.55357,537.36218"
           style="fill:none;fill-rule:evenodd;stroke:#000000;stroke-width:1px;stroke-linecap:butt;stroke-linejoin:miter;stroke-opacity:1"
           id="path2810" />
        <path
           d="M 385,532.36218 L 391,526.36218"
           style="fill:none;fill-rule:evenodd;stroke:#000000;stroke-width:1px;stroke-linecap:butt;stroke-linejoin:miter;stroke-opacity:1"
           id="path2812" />
        <path
           d="M 389.55357,547.36218 L 385,542.36218"
           style="fill:none;fill-rule:evenodd;stroke:#000000;stroke-width:1px;stroke-linecap:butt;stroke-linejoin:miter;stroke-opacity:1"
           id="path2814" />
        <path
           d="M 385,542.36218 L 389,537.36218 L 382.58929,529.36218"
           style="fill:none;fill-rule:evenodd;stroke:#000000;stroke-width:1px;stroke-linecap:butt;stroke-linejoin:miter;stroke-opacity:1"
           id="path2816" />
      </g>
      <path
         d="M 325.51172,277.64573 L 358.70703,277.64573 L 358.70703,286.20433 L 337.92578,286.20433 L 337.92578,292.57542 L 357.20313,292.57542 L 357.20313,300.7512 L 337.92578,300.7512 L 337.92578,308.65355 L 359.30859,308.65355 L 359.30859,317.73167 L 325.51172,317.73167 L 325.51172,277.64573 z "
         transform="translate(159.0077,125.7178)"
         style="font-size:56px;font-family:Arial Black"
         id="flowRoot2798" />
      <path
         d="M 325.62109,277.64573 L 337.1875,277.64573 L 352.28125,299.82151 L 352.28125,277.64573 L 363.95703,277.64573 L 363.95703,317.73167 L 352.28125,317.73167 L 337.26953,295.71995 L 337.26953,317.73167 L 325.62109,317.73167 L 325.62109,277.64573 z "
         transform="translate(-233.6978,-161.3578)"
         style="font-size:56px;font-family:Arial Black"
         id="flowRoot2790" />
    </g>
  </g>
</svg>
