<?xml version="1.0" encoding="UTF-8" standalone="no"?>
<!-- Created with Inkscape (http://www.inkscape.org/) -->
<!-- Copyright © 2008 by Silvio Grosso, under the terms of the GNU GPL version 2. -->
<svg
   xmlns:svg="http://www.w3.org/2000/svg"
   xmlns="http://www.w3.org/2000/svg"
   version="1.0"
   viewBox="0 0 450 500"
   width="450"
   height="500"
   id="svg2">
  <defs
     id="defs4" />
  <g
     id="layer1">
    <g
       transform="matrix(0.7952555,0,0,0.7499971,-48.86649,-22.086995)"
       id="g2585">
      <g
         transform="matrix(1.267811,0,0,1.311632,177.19772,-149.59913)"
         id="g5667">
        <path
           d="M 333.92856 519.95148 A 3.125 12.053572 0 1 1  327.67856,519.95148 A 3.125 12.053572 0 1 1  333.92856 519.95148 z"
           transform="matrix(1.004336,0,0,0.527545,-139.5076,139.21)"
           style="opacity:0.97000002;fill:#000000;fill-opacity:1;stroke:#000000;stroke-width:0.1;stroke-miterlimit:4;stroke-dasharray:none;stroke-opacity:1"
           id="path1918" />
        <path
           d="M 333.92856 519.95148 A 3.125 12.053572 0 1 1  327.67856,519.95148 A 3.125 12.053572 0 1 1  333.92856 519.95148 z"
           transform="matrix(0,-1.004664,0.498031,0,-72.36866,751.7734)"
           style="opacity:0.97000002;fill:#000000;fill-opacity:1;stroke:#000000;stroke-width:0.1;stroke-miterlimit:4;stroke-dasharray:none;stroke-opacity:1"
           id="path1920" />
        <g
           transform="matrix(0.941046,0,0,1,-160.0324,-40.46175)"
           id="g3009">
          <path
             d="M 333.92856 519.95148 A 3.125 12.053572 0 1 1  327.67856,519.95148 A 3.125 12.053572 0 1 1  333.92856 519.95148 z"
             transform="translate(-83.29021,-108.7499)"
             style="opacity:0.97000002;fill:#000000;fill-opacity:1;stroke:#000000;stroke-width:0.1;stroke-miterlimit:4;stroke-dasharray:none;stroke-opacity:1"
             id="path1924" />
          <path
             d="M 333.92856 519.95148 A 3.125 12.053572 0 1 1  327.67856,519.95148 A 3.125 12.053572 0 1 1  333.92856 519.95148 z"
             transform="matrix(0,-1,1,0,-272.1702,742.0941)"
             style="opacity:0.97000002;fill:#000000;fill-opacity:1;stroke:#000000;stroke-width:0.1;stroke-miterlimit:4;stroke-dasharray:none;stroke-opacity:1"
             id="path1926" />
        </g>
        <path
           d="M 333.92856 519.95148 A 3.125 12.053572 0 1 1  327.67856,519.95148 A 3.125 12.053572 0 1 1  333.92856 519.95148 z"
           transform="matrix(1.004664,0,0,0.498031,-162.4193,70.779)"
           style="opacity:0.97000002;fill:#000000;fill-opacity:1;stroke:#000000;stroke-width:0.1;stroke-miterlimit:4;stroke-dasharray:none;stroke-opacity:1"
           id="path1930" />
        <path
           d="M 333.92856 519.95148 A 3.125 12.053572 0 1 1  327.67856,519.95148 A 3.125 12.053572 0 1 1  333.92856 519.95148 z"
           transform="matrix(0,-1.004499,0.512786,0,-103.304,656.1562)"
           style="opacity:0.97000002;fill:#000000;fill-opacity:1;stroke:#000000;stroke-width:0.1;stroke-miterlimit:4;stroke-dasharray:none;stroke-opacity:1"
           id="path1932" />
        <g
           transform="matrix(0.937911,0,0,1,-50.10407,5.252538)"
           id="g2979">
          <path
             d="M 333.92856 519.95148 A 3.125 12.053572 0 1 1  327.67856,519.95148 A 3.125 12.053572 0 1 1  333.92856 519.95148 z"
             transform="translate(-71.68301,-153.5714)"
             style="opacity:0.97000002;fill:#000000;fill-opacity:1;stroke:#000000;stroke-width:0.1;stroke-miterlimit:4;stroke-dasharray:none;stroke-opacity:1"
             id="path1936" />
          <path
             d="M 333.92856 519.95148 A 3.125 12.053572 0 1 1  327.67856,519.95148 A 3.125 12.053572 0 1 1  333.92856 519.95148 z"
             transform="matrix(0,-1,1,0,-260.563,697.2726)"
             style="opacity:0.97000002;fill:#000000;fill-opacity:1;stroke:#000000;stroke-width:0.1;stroke-miterlimit:4;stroke-dasharray:none;stroke-opacity:1"
             id="path1938" />
        </g>
        <g
           transform="translate(-246.1713,-102.6046)"
           id="g2917">
          <g
             id="g1900">
            <g
               transform="translate(11.04459,1.25)"
               id="g1876">
              <path
                 d="M 333.92856 519.95148 A 3.125 12.053572 0 1 1  327.67856,519.95148 A 3.125 12.053572 0 1 1  333.92856 519.95148 z"
                 style="opacity:0.97000002;fill:#000000;fill-opacity:1;stroke:#000000;stroke-width:0.1;stroke-miterlimit:4;stroke-dasharray:none;stroke-opacity:1"
                 id="path1872" />
              <path
                 d="M 333.92856 519.95148 A 3.125 12.053572 0 1 1  327.67856,519.95148 A 3.125 12.053572 0 1 1  333.92856 519.95148 z"
                 transform="matrix(0,-1,1,0,-188.88,850.844)"
                 style="opacity:0.97000002;fill:#000000;fill-opacity:1;stroke:#000000;stroke-width:0.1;stroke-miterlimit:4;stroke-dasharray:none;stroke-opacity:1"
                 id="path1874" />
            </g>
            <g
               transform="translate(35.35709,1.339276)"
               id="g1882">
              <path
                 d="M 333.92856 519.95148 A 3.125 12.053572 0 1 1  327.67856,519.95148 A 3.125 12.053572 0 1 1  333.92856 519.95148 z"
                 style="opacity:0.97000002;fill:#000000;fill-opacity:1;stroke:#000000;stroke-width:0.1;stroke-miterlimit:4;stroke-dasharray:none;stroke-opacity:1"
                 id="path1884" />
              <path
                 d="M 333.92856 519.95148 A 3.125 12.053572 0 1 1  327.67856,519.95148 A 3.125 12.053572 0 1 1  333.92856 519.95148 z"
                 transform="matrix(0,-1,1,0,-188.88,850.844)"
                 style="opacity:0.97000002;fill:#000000;fill-opacity:1;stroke:#000000;stroke-width:0.1;stroke-miterlimit:4;stroke-dasharray:none;stroke-opacity:1"
                 id="path1886" />
            </g>
            <g
               transform="translate(11.04459,-22.76787)"
               id="g1888">
              <path
                 d="M 333.92856 519.95148 A 3.125 12.053572 0 1 1  327.67856,519.95148 A 3.125 12.053572 0 1 1  333.92856 519.95148 z"
                 style="opacity:0.97000002;fill:#000000;fill-opacity:1;stroke:#000000;stroke-width:0.1;stroke-miterlimit:4;stroke-dasharray:none;stroke-opacity:1"
                 id="path1890" />
              <path
                 d="M 333.92856 519.95148 A 3.125 12.053572 0 1 1  327.67856,519.95148 A 3.125 12.053572 0 1 1  333.92856 519.95148 z"
                 transform="matrix(0,-1,1,0,-188.88,850.844)"
                 style="opacity:0.97000002;fill:#000000;fill-opacity:1;stroke:#000000;stroke-width:0.1;stroke-miterlimit:4;stroke-dasharray:none;stroke-opacity:1"
                 id="path1892" />
            </g>
            <g
               transform="translate(35.53567,-22.76787)"
               id="g1894">
              <path
                 d="M 333.92856 519.95148 A 3.125 12.053572 0 1 1  327.67856,519.95148 A 3.125 12.053572 0 1 1  333.92856 519.95148 z"
                 style="opacity:0.97000002;fill:#000000;fill-opacity:1;stroke:#000000;stroke-width:0.1;stroke-miterlimit:4;stroke-dasharray:none;stroke-opacity:1"
                 id="path1896" />
              <path
                 d="M 333.92856 519.95148 A 3.125 12.053572 0 1 1  327.67856,519.95148 A 3.125 12.053572 0 1 1  333.92856 519.95148 z"
                 transform="matrix(0,-1,1,0,-188.88,850.844)"
                 style="opacity:0.97000002;fill:#000000;fill-opacity:1;stroke:#000000;stroke-width:0.1;stroke-miterlimit:4;stroke-dasharray:none;stroke-opacity:1"
                 id="path1898" />
            </g>
          </g>
          <g
             transform="translate(4.650269e-6,-48.30357)"
             id="g1940">
            <g
               transform="translate(11.04459,1.25)"
               id="g1942">
              <path
                 d="M 333.92856 519.95148 A 3.125 12.053572 0 1 1  327.67856,519.95148 A 3.125 12.053572 0 1 1  333.92856 519.95148 z"
                 style="opacity:0.97000002;fill:#000000;fill-opacity:1;stroke:#000000;stroke-width:0.1;stroke-miterlimit:4;stroke-dasharray:none;stroke-opacity:1"
                 id="path1944" />
              <path
                 d="M 333.92856 519.95148 A 3.125 12.053572 0 1 1  327.67856,519.95148 A 3.125 12.053572 0 1 1  333.92856 519.95148 z"
                 transform="matrix(0,-1,1,0,-188.88,850.844)"
                 style="opacity:0.97000002;fill:#000000;fill-opacity:1;stroke:#000000;stroke-width:0.1;stroke-miterlimit:4;stroke-dasharray:none;stroke-opacity:1"
                 id="path1946" />
            </g>
            <g
               transform="translate(35.35709,1.339276)"
               id="g1948">
              <path
                 d="M 333.92856 519.95148 A 3.125 12.053572 0 1 1  327.67856,519.95148 A 3.125 12.053572 0 1 1  333.92856 519.95148 z"
                 style="opacity:0.97000002;fill:#000000;fill-opacity:1;stroke:#000000;stroke-width:0.1;stroke-miterlimit:4;stroke-dasharray:none;stroke-opacity:1"
                 id="path1950" />
              <path
                 d="M 333.92856 519.95148 A 3.125 12.053572 0 1 1  327.67856,519.95148 A 3.125 12.053572 0 1 1  333.92856 519.95148 z"
                 transform="matrix(0,-1,1,0,-188.88,850.844)"
                 style="opacity:0.97000002;fill:#000000;fill-opacity:1;stroke:#000000;stroke-width:0.1;stroke-miterlimit:4;stroke-dasharray:none;stroke-opacity:1"
                 id="path1952" />
            </g>
            <g
               transform="translate(11.04459,-22.76787)"
               id="g1954">
              <path
                 d="M 333.92856 519.95148 A 3.125 12.053572 0 1 1  327.67856,519.95148 A 3.125 12.053572 0 1 1  333.92856 519.95148 z"
                 style="opacity:0.97000002;fill:#000000;fill-opacity:1;stroke:#000000;stroke-width:0.1;stroke-miterlimit:4;stroke-dasharray:none;stroke-opacity:1"
                 id="path1956" />
              <path
                 d="M 333.92856 519.95148 A 3.125 12.053572 0 1 1  327.67856,519.95148 A 3.125 12.053572 0 1 1  333.92856 519.95148 z"
                 transform="matrix(0,-1,1,0,-188.88,850.844)"
                 style="opacity:0.97000002;fill:#000000;fill-opacity:1;stroke:#000000;stroke-width:0.1;stroke-miterlimit:4;stroke-dasharray:none;stroke-opacity:1"
                 id="path1958" />
            </g>
            <g
               transform="translate(35.53567,-22.76787)"
               id="g1960">
              <path
                 d="M 333.92856 519.95148 A 3.125 12.053572 0 1 1  327.67856,519.95148 A 3.125 12.053572 0 1 1  333.92856 519.95148 z"
                 style="opacity:0.97000002;fill:#000000;fill-opacity:1;stroke:#000000;stroke-width:0.1;stroke-miterlimit:4;stroke-dasharray:none;stroke-opacity:1"
                 id="path1962" />
              <path
                 d="M 333.92856 519.95148 A 3.125 12.053572 0 1 1  327.67856,519.95148 A 3.125 12.053572 0 1 1  333.92856 519.95148 z"
                 transform="matrix(0,-1,1,0,-188.88,850.844)"
                 style="opacity:0.97000002;fill:#000000;fill-opacity:1;stroke:#000000;stroke-width:0.1;stroke-miterlimit:4;stroke-dasharray:none;stroke-opacity:1"
                 id="path1964" />
            </g>
          </g>
          <g
             transform="translate(49.56697,-47.23214)"
             id="g1966">
            <g
               transform="translate(11.04459,1.25)"
               id="g1968">
              <path
                 d="M 333.92856 519.95148 A 3.125 12.053572 0 1 1  327.67856,519.95148 A 3.125 12.053572 0 1 1  333.92856 519.95148 z"
                 style="opacity:0.97000002;fill:#000000;fill-opacity:1;stroke:#000000;stroke-width:0.1;stroke-miterlimit:4;stroke-dasharray:none;stroke-opacity:1"
                 id="path1970" />
              <path
                 d="M 333.92856 519.95148 A 3.125 12.053572 0 1 1  327.67856,519.95148 A 3.125 12.053572 0 1 1  333.92856 519.95148 z"
                 transform="matrix(0,-1,1,0,-188.88,850.844)"
                 style="opacity:0.97000002;fill:#000000;fill-opacity:1;stroke:#000000;stroke-width:0.1;stroke-miterlimit:4;stroke-dasharray:none;stroke-opacity:1"
                 id="path1972" />
            </g>
            <g
               transform="translate(35.35709,1.339276)"
               id="g1974">
              <path
                 d="M 333.92856 519.95148 A 3.125 12.053572 0 1 1  327.67856,519.95148 A 3.125 12.053572 0 1 1  333.92856 519.95148 z"
                 style="opacity:0.97000002;fill:#000000;fill-opacity:1;stroke:#000000;stroke-width:0.1;stroke-miterlimit:4;stroke-dasharray:none;stroke-opacity:1"
                 id="path1976" />
              <path
                 d="M 333.92856 519.95148 A 3.125 12.053572 0 1 1  327.67856,519.95148 A 3.125 12.053572 0 1 1  333.92856 519.95148 z"
                 transform="matrix(0,-1,1,0,-188.88,850.844)"
                 style="opacity:0.97000002;fill:#000000;fill-opacity:1;stroke:#000000;stroke-width:0.1;stroke-miterlimit:4;stroke-dasharray:none;stroke-opacity:1"
                 id="path1978" />
            </g>
            <g
               transform="translate(11.04459,-22.76787)"
               id="g1980">
              <path
                 d="M 333.92856 519.95148 A 3.125 12.053572 0 1 1  327.67856,519.95148 A 3.125 12.053572 0 1 1  333.92856 519.95148 z"
                 style="opacity:0.97000002;fill:#000000;fill-opacity:1;stroke:#000000;stroke-width:0.1;stroke-miterlimit:4;stroke-dasharray:none;stroke-opacity:1"
                 id="path1982" />
              <path
                 d="M 333.92856 519.95148 A 3.125 12.053572 0 1 1  327.67856,519.95148 A 3.125 12.053572 0 1 1  333.92856 519.95148 z"
                 transform="matrix(0,-1,1,0,-188.88,850.844)"
                 style="opacity:0.97000002;fill:#000000;fill-opacity:1;stroke:#000000;stroke-width:0.1;stroke-miterlimit:4;stroke-dasharray:none;stroke-opacity:1"
                 id="path1984" />
            </g>
            <g
               transform="translate(35.53567,-22.76787)"
               id="g1986">
              <path
                 d="M 333.92856 519.95148 A 3.125 12.053572 0 1 1  327.67856,519.95148 A 3.125 12.053572 0 1 1  333.92856 519.95148 z"
                 style="opacity:0.97000002;fill:#000000;fill-opacity:1;stroke:#000000;stroke-width:0.1;stroke-miterlimit:4;stroke-dasharray:none;stroke-opacity:1"
                 id="path1988" />
              <path
                 d="M 333.92856 519.95148 A 3.125 12.053572 0 1 1  327.67856,519.95148 A 3.125 12.053572 0 1 1  333.92856 519.95148 z"
                 transform="matrix(0,-1,1,0,-188.88,850.844)"
                 style="opacity:0.97000002;fill:#000000;fill-opacity:1;stroke:#000000;stroke-width:0.1;stroke-miterlimit:4;stroke-dasharray:none;stroke-opacity:1"
                 id="path1990" />
            </g>
          </g>
          <g
             transform="translate(48.49554,0.625003)"
             id="g1992">
            <g
               transform="translate(11.04459,1.25)"
               id="g1994">
              <path
                 d="M 333.92856 519.95148 A 3.125 12.053572 0 1 1  327.67856,519.95148 A 3.125 12.053572 0 1 1  333.92856 519.95148 z"
                 style="opacity:0.97000002;fill:#000000;fill-opacity:1;stroke:#000000;stroke-width:0.1;stroke-miterlimit:4;stroke-dasharray:none;stroke-opacity:1"
                 id="path1996" />
              <path
                 d="M 333.92856 519.95148 A 3.125 12.053572 0 1 1  327.67856,519.95148 A 3.125 12.053572 0 1 1  333.92856 519.95148 z"
                 transform="matrix(0,-1,1,0,-188.88,850.844)"
                 style="opacity:0.97000002;fill:#000000;fill-opacity:1;stroke:#000000;stroke-width:0.1;stroke-miterlimit:4;stroke-dasharray:none;stroke-opacity:1"
                 id="path1998" />
            </g>
            <g
               transform="translate(35.35709,1.339276)"
               id="g2000">
              <path
                 d="M 333.92856 519.95148 A 3.125 12.053572 0 1 1  327.67856,519.95148 A 3.125 12.053572 0 1 1  333.92856 519.95148 z"
                 style="opacity:0.97000002;fill:#000000;fill-opacity:1;stroke:#000000;stroke-width:0.1;stroke-miterlimit:4;stroke-dasharray:none;stroke-opacity:1"
                 id="path2002" />
              <path
                 d="M 333.92856 519.95148 A 3.125 12.053572 0 1 1  327.67856,519.95148 A 3.125 12.053572 0 1 1  333.92856 519.95148 z"
                 transform="matrix(0,-1,1,0,-188.88,850.844)"
                 style="opacity:0.97000002;fill:#000000;fill-opacity:1;stroke:#000000;stroke-width:0.1;stroke-miterlimit:4;stroke-dasharray:none;stroke-opacity:1"
                 id="path2004" />
            </g>
            <g
               transform="translate(11.04459,-22.76787)"
               id="g2006">
              <path
                 d="M 333.92856 519.95148 A 3.125 12.053572 0 1 1  327.67856,519.95148 A 3.125 12.053572 0 1 1  333.92856 519.95148 z"
                 style="opacity:0.97000002;fill:#000000;fill-opacity:1;stroke:#000000;stroke-width:0.1;stroke-miterlimit:4;stroke-dasharray:none;stroke-opacity:1"
                 id="path2008" />
              <path
                 d="M 333.92856 519.95148 A 3.125 12.053572 0 1 1  327.67856,519.95148 A 3.125 12.053572 0 1 1  333.92856 519.95148 z"
                 transform="matrix(0,-1,1,0,-188.88,850.844)"
                 style="opacity:0.97000002;fill:#000000;fill-opacity:1;stroke:#000000;stroke-width:0.1;stroke-miterlimit:4;stroke-dasharray:none;stroke-opacity:1"
                 id="path2010" />
            </g>
            <g
               transform="translate(35.53567,-22.76787)"
               id="g2012">
              <path
                 d="M 333.92856 519.95148 A 3.125 12.053572 0 1 1  327.67856,519.95148 A 3.125 12.053572 0 1 1  333.92856 519.95148 z"
                 style="opacity:0.97000002;fill:#000000;fill-opacity:1;stroke:#000000;stroke-width:0.1;stroke-miterlimit:4;stroke-dasharray:none;stroke-opacity:1"
                 id="path2014" />
              <path
                 d="M 333.92856 519.95148 A 3.125 12.053572 0 1 1  327.67856,519.95148 A 3.125 12.053572 0 1 1  333.92856 519.95148 z"
                 transform="matrix(0,-1,1,0,-188.88,850.844)"
                 style="opacity:0.97000002;fill:#000000;fill-opacity:1;stroke:#000000;stroke-width:0.1;stroke-miterlimit:4;stroke-dasharray:none;stroke-opacity:1"
                 id="path2016" />
            </g>
          </g>
        </g>
        <path
           d="M 204.28571 381.64789 A 70.714287 70.714287 0 1 1  62.85714,381.64789 A 70.714287 70.714287 0 1 1  204.28571 381.64789 z"
           transform="matrix(1.000723,0,0,0.930016,-0.553585,26.24739)"
           style="opacity:0.97000002;fill:none;fill-opacity:1;stroke:#000000;stroke-width:4.86979723;stroke-miterlimit:4;stroke-dasharray:none;stroke-opacity:1"
           id="path2030" />
        <g
           transform="matrix(0.926308,0,0,1,-156.202,-16.47078)"
           id="g3013">
          <path
             d="M 333.92856 519.95148 A 3.125 12.053572 0 1 1  327.67856,519.95148 A 3.125 12.053572 0 1 1  333.92856 519.95148 z"
             transform="translate(-83.29021,-108.7499)"
             style="opacity:0.97000002;fill:#000000;fill-opacity:1;stroke:#000000;stroke-width:0.1;stroke-miterlimit:4;stroke-dasharray:none;stroke-opacity:1"
             id="path3015" />
          <path
             d="M 333.92856 519.95148 A 3.125 12.053572 0 1 1  327.67856,519.95148 A 3.125 12.053572 0 1 1  333.92856 519.95148 z"
             transform="matrix(0,-1,1,0,-272.1702,742.0941)"
             style="opacity:0.97000002;fill:#000000;fill-opacity:1;stroke:#000000;stroke-width:0.1;stroke-miterlimit:4;stroke-dasharray:none;stroke-opacity:1"
             id="path3017" />
        </g>
        <g
           transform="matrix(0.941046,0,0,1,-40.7735,-15.70293)"
           id="g3019">
          <path
             d="M 333.92856 519.95148 A 3.125 12.053572 0 1 1  327.67856,519.95148 A 3.125 12.053572 0 1 1  333.92856 519.95148 z"
             transform="translate(-83.29021,-108.7499)"
             style="opacity:0.97000002;fill:#000000;fill-opacity:1;stroke:#000000;stroke-width:0.1;stroke-miterlimit:4;stroke-dasharray:none;stroke-opacity:1"
             id="path3021" />
          <path
             d="M 333.92856 519.95148 A 3.125 12.053572 0 1 1  327.67856,519.95148 A 3.125 12.053572 0 1 1  333.92856 519.95148 z"
             transform="matrix(0,-1,1,0,-272.1702,742.0941)"
             style="opacity:0.97000002;fill:#000000;fill-opacity:1;stroke:#000000;stroke-width:0.1;stroke-miterlimit:4;stroke-dasharray:none;stroke-opacity:1"
             id="path3023" />
        </g>
        <path
           d="M 333.92856 519.95148 A 3.125 12.053572 0 1 1  327.67856,519.95148 A 3.125 12.053572 0 1 1  333.92856 519.95148 z"
           transform="matrix(1.002767,0,0,0.675128,-138.9881,0.83985)"
           style="opacity:0.97000002;fill:#000000;fill-opacity:1;stroke:#000000;stroke-width:0.1;stroke-miterlimit:4;stroke-dasharray:none;stroke-opacity:1"
           id="path3027" />
        <path
           d="M 333.92856 519.95148 A 3.125 12.053572 0 1 1  327.67856,519.95148 A 3.125 12.053572 0 1 1  333.92856 519.95148 z"
           transform="matrix(0,-0.990161,0.468587,0,-164.7878,746.4745)"
           style="opacity:0.97000002;fill:#000000;fill-opacity:1;stroke:#000000;stroke-width:0.1;stroke-miterlimit:4;stroke-dasharray:none;stroke-opacity:1"
           id="path3029" />
        <g
           transform="matrix(1,0,0,0.852616,-127.524,-26.19663)"
           id="g3031">
          <path
             d="M 333.92856 519.95148 A 3.125 12.053572 0 1 1  327.67856,519.95148 A 3.125 12.053572 0 1 1  333.92856 519.95148 z"
             transform="translate(-83.29021,-108.7499)"
             style="opacity:0.97000002;fill:#000000;fill-opacity:1;stroke:#000000;stroke-width:0.1;stroke-miterlimit:4;stroke-dasharray:none;stroke-opacity:1"
             id="path3033" />
          <path
             d="M 333.92856 519.95148 A 3.125 12.053572 0 1 1  327.67856,519.95148 A 3.125 12.053572 0 1 1  333.92856 519.95148 z"
             transform="matrix(0,-1,1,0,-272.1702,742.0941)"
             style="opacity:0.97000002;fill:#000000;fill-opacity:1;stroke:#000000;stroke-width:0.1;stroke-miterlimit:4;stroke-dasharray:none;stroke-opacity:1"
             id="path3035" />
        </g>
        <g
           transform="matrix(1,0,0,0.867354,-102.1668,-31.72137)"
           id="g3037">
          <path
             d="M 333.92856 519.95148 A 3.125 12.053572 0 1 1  327.67856,519.95148 A 3.125 12.053572 0 1 1  333.92856 519.95148 z"
             transform="translate(-83.29021,-108.7499)"
             style="opacity:0.97000002;fill:#000000;fill-opacity:1;stroke:#000000;stroke-width:0.1;stroke-miterlimit:4;stroke-dasharray:none;stroke-opacity:1"
             id="path3039" />
          <path
             d="M 333.92856 519.95148 A 3.125 12.053572 0 1 1  327.67856,519.95148 A 3.125 12.053572 0 1 1  333.92856 519.95148 z"
             transform="matrix(0,-1,1,0,-272.1702,742.0941)"
             style="opacity:0.97000002;fill:#000000;fill-opacity:1;stroke:#000000;stroke-width:0.1;stroke-miterlimit:4;stroke-dasharray:none;stroke-opacity:1"
             id="path3041" />
        </g>
        <path
           d="M 333.92856 519.95148 A 3.125 12.053572 0 1 1  327.67856,519.95148 A 3.125 12.053572 0 1 1  333.92856 519.95148 z"
           transform="matrix(0,-1,1,0,-376.4799,773.7754)"
           style="opacity:0.97000002;fill:#000000;fill-opacity:1;stroke:#000000;stroke-width:0.1;stroke-miterlimit:4;stroke-dasharray:none;stroke-opacity:1"
           id="path3055" />
        <path
           d="M 333.92856 519.95148 A 3.125 12.053572 0 1 1  327.67856,519.95148 A 3.125 12.053572 0 1 1  333.92856 519.95148 z"
           transform="matrix(0,-1.004336,0.527545,0,-196.1563,678.7813)"
           style="opacity:0.97000002;fill:#000000;fill-opacity:1;stroke:#000000;stroke-width:0.1;stroke-miterlimit:4;stroke-dasharray:none;stroke-opacity:1"
           id="path3057" />
        <path
           d="M 333.92856 519.95148 A 3.125 12.053572 0 1 1  327.67856,519.95148 A 3.125 12.053572 0 1 1  333.92856 519.95148 z"
           transform="matrix(0,-1.004176,0.542302,0,-93.32075,680.1569)"
           style="opacity:0.97000002;fill:#000000;fill-opacity:1;stroke:#000000;stroke-width:0.1;stroke-miterlimit:4;stroke-dasharray:none;stroke-opacity:1"
           id="path3059" />
        <path
           d="M 333.92856 519.95148 A 3.125 12.053572 0 1 1  327.67856,519.95148 A 3.125 12.053572 0 1 1  333.92856 519.95148 z"
           transform="matrix(1.005709,0,0,0.409506,-237.0778,116.4773)"
           style="opacity:0.97000002;fill:#000000;fill-opacity:1;stroke:#000000;stroke-width:0.1;stroke-miterlimit:4;stroke-dasharray:none;stroke-opacity:1"
           id="path3061" />
        <path
           d="M 333.92856 519.95148 A 3.125 12.053572 0 1 1  327.67856,519.95148 A 3.125 12.053572 0 1 1  333.92856 519.95148 z"
           transform="matrix(1.005709,0,0,0.409506,-260.6492,198.62)"
           style="opacity:0.97000002;fill:#000000;fill-opacity:1;stroke:#000000;stroke-width:0.1;stroke-miterlimit:4;stroke-dasharray:none;stroke-opacity:1"
           id="path3063" />
        <path
           d="M 333.92856 519.95148 A 3.125 12.053572 0 1 1  327.67856,519.95148 A 3.125 12.053572 0 1 1  333.92856 519.95148 z"
           transform="matrix(1.007284,0,0,0.29263,-237.5988,281.9033)"
           style="opacity:0.97000002;fill:#000000;fill-opacity:1;stroke:#000000;stroke-width:0.1;stroke-miterlimit:4;stroke-dasharray:none;stroke-opacity:1"
           id="path3065" />
        <path
           d="M 333.92856 519.95148 A 3.125 12.053572 0 1 1  327.67856,519.95148 A 3.125 12.053572 0 1 1  333.92856 519.95148 z"
           transform="matrix(1.006671,0,0,0.335759,-164.5389,260.715)"
           style="opacity:0.97000002;fill:#000000;fill-opacity:1;stroke:#000000;stroke-width:0.1;stroke-miterlimit:4;stroke-dasharray:none;stroke-opacity:1"
           id="path3067" />
        <path
           d="M 333.92856 519.95148 A 3.125 12.053572 0 1 1  327.67856,519.95148 A 3.125 12.053572 0 1 1  333.92856 519.95148 z"
           transform="matrix(1.002419,0,0,-0.717678,-187.4179,813.072)"
           style="opacity:0.97000002;fill:#000000;fill-opacity:1;stroke:#000000;stroke-width:0.1;stroke-miterlimit:4;stroke-dasharray:none;stroke-opacity:1"
           id="path3071" />
        <path
           d="M 333.92856 519.95148 A 3.125 12.053572 0 1 1  327.67856,519.95148 A 3.125 12.053572 0 1 1  333.92856 519.95148 z"
           transform="matrix(1.002671,0,0,-0.691016,-211.787,798.5299)"
           style="opacity:0.97000002;fill:#000000;fill-opacity:1;stroke:#000000;stroke-width:0.1;stroke-miterlimit:4;stroke-dasharray:none;stroke-opacity:1"
           id="path3073" />
        <path
           d="M 333.92856 519.95148 A 3.125 12.053572 0 1 1  327.67856,519.95148 A 3.125 12.053572 0 1 1  333.92856 519.95148 z"
           transform="matrix(0,-1,1,0,-400.4085,774.1325)"
           style="opacity:0.97000002;fill:#000000;fill-opacity:1;stroke:#000000;stroke-width:0.1;stroke-miterlimit:4;stroke-dasharray:none;stroke-opacity:1"
           id="path3075" />
        <path
           d="M 333.92856 519.95148 A 3.125 12.053572 0 1 1  327.67856,519.95148 A 3.125 12.053572 0 1 1  333.92856 519.95148 z"
           transform="matrix(1.004279,0,0,0.527534,-259.4885,77.78699)"
           style="opacity:0.97000002;fill:#000000;fill-opacity:1;stroke:#000000;stroke-width:0.1;stroke-miterlimit:4;stroke-dasharray:none;stroke-opacity:1"
           id="path3077" />
        <path
           d="M 333.92856 519.95148 A 3.125 12.053572 0 1 1  327.67856,519.95148 A 3.125 12.053572 0 1 1  333.92856 519.95148 z"
           transform="matrix(0,1.004607,-0.498021,0,362.24,-7.90042)"
           style="opacity:0.97000002;fill:#000000;fill-opacity:1;stroke:#000000;stroke-width:0.1;stroke-miterlimit:4;stroke-dasharray:none;stroke-opacity:1"
           id="path3966" />
        <path
           d="M 27.142853 347.71933 A 91.785713 91.785713 0 1 1  -156.42857,347.71933 A 91.785713 91.785713 0 1 1  27.142853 347.71933 z"
           transform="matrix(0.992558,0,0,0.980885,197.5823,40.57523)"
           style="opacity:0.97000002;fill:none;fill-opacity:1;stroke:#000000;stroke-width:4.69799995;stroke-miterlimit:4;stroke-dasharray:none;stroke-opacity:1"
           id="path4078" />
        <path
           d="M 282.85715 328.79074 A 2.5 13.571428 0 1 1  277.85715,328.79074 A 2.5 13.571428 0 1 1  282.85715 328.79074 z"
           transform="matrix(0.847588,0,0,0.64298,-105.409,91.41664)"
           style="opacity:0.97000002;fill:#000000;fill-opacity:1;stroke:#000000;stroke-width:4.69799995;stroke-miterlimit:4;stroke-dasharray:none;stroke-opacity:1"
           id="path4080" />
        <path
           d="M 282.85715 328.79074 A 2.5 13.571428 0 1 1  277.85715,328.79074 A 2.5 13.571428 0 1 1  282.85715 328.79074 z"
           transform="matrix(0,0.749719,-0.530065,0,227.4948,183.818)"
           style="opacity:0.97000002;fill:#000000;fill-opacity:1;stroke:#000000;stroke-width:4.69799995;stroke-miterlimit:4;stroke-dasharray:none;stroke-opacity:1"
           id="path4082" />
        <path
           d="M 282.85715 328.79074 A 2.5 13.571428 0 1 1  277.85715,328.79074 A 2.5 13.571428 0 1 1  282.85715 328.79074 z"
           transform="matrix(0.847588,0,0,0.64298,-105.1274,247.742)"
           style="opacity:0.97000002;fill:#000000;fill-opacity:1;stroke:#000000;stroke-width:4.69799995;stroke-miterlimit:4;stroke-dasharray:none;stroke-opacity:1"
           id="path4084" />
        <path
           d="M 282.85715 328.79074 A 2.5 13.571428 0 1 1  277.85715,328.79074 A 2.5 13.571428 0 1 1  282.85715 328.79074 z"
           transform="matrix(0,0.74352,-0.518546,0,383.529,186.2325)"
           style="opacity:0.97000002;fill:#000000;fill-opacity:1;stroke:#000000;stroke-width:4.69799995;stroke-miterlimit:4;stroke-dasharray:none;stroke-opacity:1"
           id="path4086" />
        <path
           d="M 282.85715 328.79074 A 2.5 13.571428 0 1 1  277.85715,328.79074 A 2.5 13.571428 0 1 1  282.85715 328.79074 z"
           transform="matrix(0.578331,0.553145,-0.403339,0.385774,48.96962,156.5383)"
           style="opacity:0.97000002;fill:#000000;fill-opacity:1;stroke:#000000;stroke-width:4.69799995;stroke-miterlimit:4;stroke-dasharray:none;stroke-opacity:1"
           id="path4094" />
        <path
           d="M 282.85715 328.79074 A 2.5 13.571428 0 1 1  277.85715,328.79074 A 2.5 13.571428 0 1 1  282.85715 328.79074 z"
           transform="matrix(0.535999,0.572473,-0.373816,0.399254,161.3861,32.2013)"
           style="opacity:0.97000002;fill:#000000;fill-opacity:1;stroke:#000000;stroke-width:4.69799995;stroke-miterlimit:4;stroke-dasharray:none;stroke-opacity:1"
           id="path4096" />
        <path
           d="M 282.85715 328.79074 A 2.5 13.571428 0 1 1  277.85715,328.79074 A 2.5 13.571428 0 1 1  282.85715 328.79074 z"
           transform="matrix(-0.526226,0.616496,0.367,0.429956,212.4529,126.7723)"
           style="opacity:0.97000002;fill:#000000;fill-opacity:1;stroke:#000000;stroke-width:4.69799995;stroke-miterlimit:4;stroke-dasharray:none;stroke-opacity:1"
           id="path4098" />
        <path
           d="M 282.85715 328.79074 A 2.5 13.571428 0 1 1  277.85715,328.79074 A 2.5 13.571428 0 1 1  282.85715 328.79074 z"
           transform="matrix(-0.525748,0.525748,0.366667,0.366667,102.5547,58.69397)"
           style="opacity:0.97000002;fill:#000000;fill-opacity:1;stroke:#000000;stroke-width:4.69799995;stroke-miterlimit:4;stroke-dasharray:none;stroke-opacity:1"
           id="path4100" />
        <path
           d="M 117.93007,291.45111 C 126.40039,288.97665 135.40607,287.83917 146.31358,291.45111 L 132.04091,265.27054 L 117.93007,291.45111 z "
           style="fill:#000000;fill-opacity:1;fill-rule:evenodd;stroke:#000000;stroke-width:1.82214069px;stroke-linecap:butt;stroke-linejoin:miter;stroke-opacity:1"
           id="path4118" />
        <path
           d="M 42.889787,407.4294 C 40.415327,398.95908 39.277847,389.9534 42.889787,379.04589 L 16.709217,393.31856 L 42.889787,407.4294 z "
           style="fill:#000000;fill-opacity:1;fill-rule:evenodd;stroke:#000000;stroke-width:1.82214069px;stroke-linecap:butt;stroke-linejoin:miter;stroke-opacity:1"
           id="path4120" />
        <path
           d="M 147.53189,471.06109 C 139.06157,473.53555 130.05589,474.67303 119.14838,471.06109 L 133.42105,497.24166 L 147.53189,471.06109 z "
           style="fill:#000000;fill-opacity:1;fill-rule:evenodd;stroke:#000000;stroke-width:1.82214069px;stroke-linecap:butt;stroke-linejoin:miter;stroke-opacity:1"
           id="path4122" />
        <path
           d="M 223.41344,379.29842 C 225.8879,387.76874 227.02538,396.77442 223.41344,407.68193 L 249.59401,393.40926 L 223.41344,379.29842 z "
           style="fill:#000000;fill-opacity:1;fill-rule:evenodd;stroke:#000000;stroke-width:1.82214069px;stroke-linecap:butt;stroke-linejoin:miter;stroke-opacity:1"
           id="path4124" />
      </g>
      <path
         d="M 325.51172,277.64573 L 358.70703,277.64573 L 358.70703,286.20433 L 337.92578,286.20433 L 337.92578,292.57542 L 357.20313,292.57542 L 357.20313,300.7512 L 337.92578,300.7512 L 337.92578,308.65355 L 359.30859,308.65355 L 359.30859,317.73167 L 325.51172,317.73167 L 325.51172,277.64573 z "
         transform="translate(176.50529,71.26976)"
         style="font-size:56px;font-family:Arial Black"
         id="flowRoot2798" />
      <path
         d="M 325.62109,277.64573 L 337.1875,277.64573 L 352.28125,299.82151 L 352.28125,277.64573 L 363.95703,277.64573 L 363.95703,317.73167 L 352.28125,317.73167 L 337.26953,295.71995 L 337.26953,317.73167 L 325.62109,317.73167 L 325.62109,277.64573 z "
         transform="translate(1.0954,-120.28128)"
         style="font-size:56px;font-family:Arial Black"
         id="flowRoot2790" />
      <path
         d="M 323.37891,304.46995 L 335.16406,303.73167 C 335.41926,305.64575 335.93879,307.10408 336.72266,308.10667 C 337.99868,309.72908 339.8216,310.54027 342.19141,310.54026 C 343.95961,310.54027 345.32224,310.12556 346.2793,309.29612 C 347.2363,308.46671 347.71482,307.50512 347.71484,306.41136 C 347.71482,305.37231 347.25909,304.44262 346.34766,303.6223 C 345.43617,302.802 343.32159,302.02726 340.00391,301.29808 C 334.5716,300.07674 330.69791,298.45435 328.38281,296.43089 C 326.04947,294.40748 324.88281,291.82805 324.88281,288.69261 C 324.88281,286.63274 325.47981,284.68678 326.67383,282.85472 C 327.86783,281.02272 329.6634,279.58262 332.06055,278.53441 C 334.45767,277.48627 337.74347,276.96218 341.91797,276.96214 C 347.04034,276.96218 350.94593,277.91465 353.63477,279.81956 C 356.32353,281.72455 357.92314,284.75514 358.43359,288.91136 L 346.75781,289.59495 C 346.44789,287.79029 345.7962,286.4778 344.80273,285.65745 C 343.80922,284.83717 342.43748,284.42702 340.6875,284.42698 C 339.24738,284.42702 338.16274,284.73236 337.43359,285.343 C 336.70441,285.95371 336.33983,286.69655 336.33984,287.57151 C 336.33983,288.20957 336.64061,288.78378 337.24219,289.29417 C 337.8255,289.82284 339.21092,290.31503 341.39844,290.77073 C 346.81247,291.93743 350.69073,293.11776 353.0332,294.31175 C 355.37562,295.50578 357.08004,296.9869 358.14648,298.75511 C 359.21285,300.52336 359.74606,302.50122 359.74609,304.6887 C 359.74606,307.25903 359.03512,309.62881 357.61328,311.79808 C 356.19137,313.96735 354.20439,315.61253 351.65234,316.73362 C 349.10023,317.85472 345.88279,318.41526 342,318.41526 C 335.18228,318.41526 330.46093,317.10277 327.83594,314.47776 C 325.21093,311.85277 323.72526,308.51684 323.37891,304.46995 L 323.37891,304.46995 z "
         transform="translate(4.5894,233.23026)"
         style="font-size:56px;font-family:Arial Black"
         id="flowRoot1980" />
      <path
         d="M 323.98047,297.71605 C 323.98047,291.1718 325.80338,286.07675 329.44922,282.43089 C 333.09504,278.7851 338.17186,276.96218 344.67969,276.96214 C 351.35153,276.96218 356.49215,278.75319 360.10156,282.33519 C 363.7109,285.91725 365.51558,290.93482 365.51563,297.38792 C 365.51558,302.07283 364.72717,305.91463 363.15039,308.91331 C 361.57353,311.91202 359.29488,314.24535 356.31445,315.91331 C 353.33395,317.58128 349.61976,318.41526 345.17188,318.41526 C 340.65102,318.41526 336.90949,317.69521 333.94727,316.25511 C 330.98502,314.81501 328.58333,312.53636 326.74219,309.41917 C 324.90104,306.302 323.98047,302.40096 323.98047,297.71605 L 323.98047,297.71605 z M 336.36719,297.77073 C 336.36717,301.81762 337.11912,304.72517 338.62305,306.49339 C 340.12693,308.26163 342.17316,309.14574 344.76172,309.14573 C 347.42315,309.14574 349.48304,308.27986 350.94141,306.54808 C 352.39971,304.81632 353.12887,301.70825 353.12891,297.22386 C 353.12887,293.45045 352.36781,290.69329 350.8457,288.95237 C 349.32354,287.21152 347.25909,286.34108 344.65234,286.34105 C 342.15493,286.34108 340.14972,287.22519 338.63672,288.99339 C 337.12368,290.76165 336.36717,293.68742 336.36719,297.77073 L 336.36719,297.77073 z "
         transform="matrix(1.0729613,0,0,1.1462113,-202.53553,26.873207)"
         style="font-size:56px;font-family:Arial Black"
         id="flowRoot1988" />
    </g>
  </g>
</svg>
