<?xml version="1.0" encoding="UTF-8" standalone="no"?>
<!-- Created with Inkscape (http://www.inkscape.org/) -->
<!-- Copyright © 2008 by Silvio Grosso, under the terms of the GNU GPL version 2. -->
<svg
   xmlns:svg="http://www.w3.org/2000/svg"
   xmlns="http://www.w3.org/2000/svg"
   version="1.0"
   viewBox="0 0 450 500"
   width="450"
   height="500"
   id="svg2">
  <defs
     id="defs4" />
  <g
     id="layer1">
    <g
       transform="matrix(1.2048906,0,0,1.2187584,-140.60253,-383.18666)"
       id="g2615">
      <path
         d="M 278.25058,373.19073 L 289.81699,373.19073 L 304.91074,395.36652 L 304.91074,373.19073 L 316.58652,373.19073 L 316.58652,413.27667 L 304.91074,413.27667 L 289.89902,391.26495 L 289.89902,413.27667 L 278.25058,413.27667 L 278.25058,373.19073 z "
         style="font-size:56px;font-style:normal;font-weight:normal;fill:#000000;fill-opacity:1;stroke:none;stroke-width:1px;stroke-linecap:butt;stroke-linejoin:miter;stroke-opacity:1;font-family:Arial Black"
         id="text3823" />
      <path
         d="M 414.24942,509.00494 L 447.44473,509.00494 L 447.44473,517.56354 L 426.66348,517.56354 L 426.66348,523.93463 L 445.94083,523.93463 L 445.94083,532.11041 L 426.66348,532.11041 L 426.66348,540.01276 L 448.0463,540.01276 L 448.0463,549.09088 L 414.24942,549.09088 L 414.24942,509.00494 z "
         style="font-size:56px;font-style:normal;font-weight:normal;fill:#000000;fill-opacity:1;stroke:none;stroke-width:1px;stroke-linecap:butt;stroke-linejoin:miter;stroke-opacity:1;font-family:Arial Black"
         id="text3831" />
      <g
         id="g8432">
        <path
           d="M 545.48238 517.99152 A 79.802048 79.802048 0 1 1  385.87828,517.99152 A 79.802048 79.802048 0 1 1  545.48238 517.99152 z"
           transform="matrix(0.759387,0,0,0.722648,-57.16595,152.0945)"
           style="opacity:0.97000002;fill:none;fill-opacity:1;stroke:#000000;stroke-width:26.54899979;stroke-linecap:square;stroke-linejoin:miter;stroke-miterlimit:4;stroke-dasharray:none;stroke-opacity:1"
           id="path2209" />
        <path
           d="M 545.48238 517.99152 A 79.802048 79.802048 0 1 1  385.87828,517.99152 A 79.802048 79.802048 0 1 1  545.48238 517.99152 z"
           transform="matrix(0.184375,0,0,0.165506,211.2137,441.605)"
           style="opacity:0.97000002;fill:none;fill-opacity:1;stroke:#000000;stroke-width:70.65251923;stroke-linecap:square;stroke-linejoin:miter;stroke-miterlimit:4;stroke-dasharray:none;stroke-opacity:1"
           id="path3098" />
        <path
           d="M 296.73231,544.41218 L 296.73231,584.06066 L 296.73231,584.06066"
           style="fill:none;fill-rule:evenodd;stroke:#000000;stroke-width:5.5;stroke-linecap:butt;stroke-linejoin:miter;stroke-miterlimit:4;stroke-dasharray:none;stroke-opacity:1"
           id="path5759" />
        <path
           d="M 296.42857,468.60937 L 296.42857,508.25785 L 296.42857,508.25785"
           style="fill:none;fill-rule:evenodd;stroke:#000000;stroke-width:5.5;stroke-linecap:butt;stroke-linejoin:miter;stroke-miterlimit:4;stroke-dasharray:none;stroke-opacity:1"
           id="path8418" />
        <path
           d="M 354.4671,527.71932 L 314.81862,527.71932 L 314.81862,527.71932"
           style="fill:none;fill-rule:evenodd;stroke:#000000;stroke-width:5.5;stroke-linecap:butt;stroke-linejoin:miter;stroke-miterlimit:4;stroke-dasharray:none;stroke-opacity:1"
           id="path8420" />
        <path
           d="M 277.39848,526.6479 L 237.75,526.6479 L 237.75,526.6479"
           style="fill:none;fill-rule:evenodd;stroke:#000000;stroke-width:5.5;stroke-linecap:butt;stroke-linejoin:miter;stroke-miterlimit:4;stroke-dasharray:none;stroke-opacity:1"
           id="path8422" />
        <path
           d="M 257.75,487.63005 L 285.7857,515.66575 L 285.7857,515.66575"
           style="fill:none;fill-rule:evenodd;stroke:#000000;stroke-width:5.5;stroke-linecap:butt;stroke-linejoin:miter;stroke-miterlimit:4;stroke-dasharray:none;stroke-opacity:1"
           id="path8424" />
        <path
           d="M 309.2143,537.98719 L 337.25,566.02289 L 337.25,566.02289"
           style="fill:none;fill-rule:evenodd;stroke:#000000;stroke-width:5.5;stroke-linecap:butt;stroke-linejoin:miter;stroke-miterlimit:4;stroke-dasharray:none;stroke-opacity:1"
           id="path8426" />
        <path
           d="M 285.7857,534.05862 L 257.75,562.09432 L 257.75,562.09432"
           style="fill:none;fill-rule:evenodd;stroke:#000000;stroke-width:5.5;stroke-linecap:butt;stroke-linejoin:miter;stroke-miterlimit:4;stroke-dasharray:none;stroke-opacity:1"
           id="path8428" />
        <path
           d="M 337.25,486.20148 L 309.2143,514.23718 L 309.2143,514.23718"
           style="fill:none;fill-rule:evenodd;stroke:#000000;stroke-width:5.5;stroke-linecap:butt;stroke-linejoin:miter;stroke-miterlimit:4;stroke-dasharray:none;stroke-opacity:1"
           id="path8430" />
      </g>
      <path
         d="M 286.26606,459.20305 L 286.26606,430.25831 L 297.34173,415.78595 L 308.41739,430.25831 L 308.41739,459.20305 L 286.26606,459.20305 z "
         style="fill:#000000;fill-opacity:1;fill-rule:evenodd;stroke:#000000;stroke-width:2.53212357px;stroke-linecap:butt;stroke-linejoin:miter;stroke-opacity:1"
         id="path8446" />
      <path
         d="M 365.31685,518.62824 L 394.26158,518.62824 L 408.73394,529.70391 L 394.26158,540.77958 L 365.31685,540.77958 L 365.31685,518.62824 z "
         style="fill:#000000;fill-opacity:1;fill-rule:evenodd;stroke:#000000;stroke-width:2.53212357px;stroke-linecap:butt;stroke-linejoin:miter;stroke-opacity:1"
         id="path8450" />
      <path
         d="M 307.55545,589.72204 L 307.55545,618.66678 L 296.47977,633.13914 L 285.40411,618.66678 L 285.40411,589.72204 L 307.55545,589.72204 z "
         style="fill:#000000;fill-opacity:1;fill-rule:evenodd;stroke:#000000;stroke-width:2.53212357px;stroke-linecap:butt;stroke-linejoin:miter;stroke-opacity:1"
         id="path8452" />
      <path
         d="M 227.77969,537.65344 L 198.83494,537.65344 L 184.36259,526.57776 L 198.83494,515.50211 L 227.77969,515.50211 L 227.77969,537.65344 z "
         style="fill:#000000;fill-opacity:1;fill-rule:evenodd;stroke:#000000;stroke-width:2.53212357px;stroke-linecap:butt;stroke-linejoin:miter;stroke-opacity:1"
         id="path8454" />
    </g>
  </g>
</svg>
