<?xml version="1.0" encoding="UTF-8" standalone="no"?>
<!-- Created with Inkscape (http://www.inkscape.org/) -->
<!-- Copyright © 2008 by Silvio Grosso, under the terms of the GNU GPL version 2. -->
<svg
   xmlns:svg="http://www.w3.org/2000/svg"
   xmlns="http://www.w3.org/2000/svg"
   version="1.0"
   viewBox="0 0 450 500"
   width="450"
   height="500"
   id="svg2">
  <defs
     id="defs4" />
  <g
     id="layer1">
    <rect
       width="2.1465743"
       height="0"
       x="-672.29156"
       y="401.89316"
       style="fill:#ffffff;fill-opacity:1;stroke:#000000;stroke-width:3.33699989;stroke-miterlimit:4;stroke-dasharray:none;stroke-opacity:1"
       id="rect1904" />
    <g
       id="g2318">
      <path
         d="M 144.63022,264.05769 L 212.21011,91.515571 L 278.94537,264.05769 L 211.3653,436.59979 L 144.63022,264.05769 z "
         style="fill:none;fill-rule:evenodd;stroke:#000000;stroke-width:15.19420242px;stroke-linecap:butt;stroke-linejoin:miter;stroke-opacity:1"
         id="path3529" />
      <path
         d="M 495 441.29074 A 62.5 32.5 0 1 1  370,441.29074 A 62.5 32.5 0 1 1  495 441.29074 z"
         transform="matrix(0.98806,0,0,1.2714034,-214.42615,-299.72441)"
         style="fill:none;fill-opacity:1;stroke:#000000;stroke-width:5.22312641;stroke-linejoin:bevel;stroke-miterlimit:4;stroke-dasharray:none;stroke-opacity:1"
         id="path3531" />
      <path
         d="M 206.82872,312.78865 L 209.45683,408.64233 L 179.88855,307.65363 C 188.60997,308.86183 186.37506,311.20474 206.82872,312.78865 z "
         style="fill:none;fill-rule:evenodd;stroke:#000000;stroke-width:1.3971262;stroke-linecap:butt;stroke-linejoin:miter;stroke-miterlimit:4;stroke-dasharray:none;stroke-opacity:1"
         id="path4418" />
      <path
         d="M 215.43536,212.71282 L 212.3496,114.27707 L 242.61824,218.19018 C 233.89682,216.98197 235.88901,214.29673 215.43536,212.71282 z "
         style="fill:none;fill-rule:evenodd;stroke:#000000;stroke-width:1.46815443;stroke-linecap:butt;stroke-linejoin:miter;stroke-miterlimit:4;stroke-dasharray:none;stroke-opacity:1"
         id="path5305" />
      <path
         d="M 169.07202,240.61131 C 169.29219,240.21848 169.50278,240.212 170.00894,239.92591 C 170.25388,239.83239 170.47608,239.89173 170.72095,239.93246 C 170.9907,240.0213 171.21608,240.18691 171.44976,240.33851 C 171.6675,240.5319 171.92875,240.54732 172.19986,240.596 C 172.49683,240.54399 172.74345,240.67487 173.00033,240.7445 C 173.13597,240.88574 173.22349,241.06024 173.33205,241.21724 C 173.40767,241.44499 173.60251,241.40379 173.77391,241.48417 C 174.03057,241.49284 174.26165,241.59581 174.49639,241.68414 C 174.70592,241.75024 174.86058,241.89104 175.033,242.01748 C 175.25891,242.17444 175.42134,242.06056 175.64194,242.03437 C 175.60479,241.99337 174.98997,242.50891 175.6625,241.88921 C 176.06511,241.52567 176.53465,241.35532 177.0335,241.21613 C 177.04865,241.20835 176.99923,241.22108 176.98403,241.22876 C 177.9522,240.62524 177.61269,240.70725 177.97038,241.14628 C 178.06553,241.34939 178.06531,241.57229 178.09541,241.789 C 178.11754,242.04213 178.10283,242.29558 178.09516,242.54808 C 178.04192,242.79942 178.02483,243.05529 177.99595,243.30967 C 177.97028,243.5561 177.98892,243.80391 177.9928,244.0495 C 178.08273,244.27273 178.24428,244.23617 178.44537,244.29044 C 178.69309,244.30688 178.94155,244.30076 179.18961,244.29966 C 179.44426,244.29738 179.69891,244.29692 179.95357,244.29618 C 180.38508,244.35972 181.00703,243.97652 179.98793,244.5444 C 180.20686,244.39634 180.28767,244.16627 180.39614,243.94096 C 180.47264,243.69665 180.46969,243.44097 180.48118,243.18829 C 180.46268,242.94198 180.49758,242.69841 180.51304,242.45503 C 180.56205,242.19303 180.76829,242.08076 180.94238,241.9127 C 181.1931,241.78287 181.37765,241.57581 181.57407,241.38029 C 181.88793,240.96797 182.44944,240.94945 182.84241,240.78967 C 183.03328,240.83435 183.18189,240.96131 183.34727,241.05208 C 183.40672,241.25669 183.60333,241.31693 183.72718,241.4387 C 184.05718,241.50617 184.32998,241.695 184.60665,241.87608 C 184.94382,242.05995 185.04938,242.35167 185.20245,242.67789 C 185.35607,243.01418 185.38802,243.37724 185.43698,243.73755 C 185.39541,244.1036 185.52212,244.2603 185.7194,244.51589 C 186.03387,244.65846 186.38453,244.66563 186.72287,244.69978 C 187.1173,244.71026 187.30479,244.92867 187.57022,245.17126 C 187.6912,245.4316 187.83172,245.69186 187.95265,245.94539 C 188.04834,245.94967 187.85979,246.12964 187.77292,246.17007 C 188.04373,245.76602 188.56204,245.65999 188.96404,245.46325 C 189.56933,245.11895 188.2301,246.0358 189.03654,245.34124 C 189.43145,244.95369 189.93059,244.72975 190.44926,244.58068 C 190.76342,244.47139 190.90095,244.64285 191.13949,244.75608 C 191.31795,244.9964 191.21735,245.19247 191.19933,245.44868 C 191.10851,245.65945 190.98846,245.85771 190.87284,246.05498 C 190.83322,246.2556 190.71685,246.41871 190.6245,246.59398 C 190.21349,247.04624 189.85906,247.07867 189.36226,247.14628 C 189.08374,247.15644 188.805,247.15302 188.52637,247.15238 C 188.26911,247.15103 188.01185,247.15074 187.7546,247.15029 C 187.50134,247.15004 187.24808,247.1501 186.99481,247.15007 C 186.73983,247.1196 186.49976,247.20032 186.25631,247.25092 C 186.04455,247.29912 185.85376,247.3964 185.65422,247.4749 C 186.65813,246.75904 185.96213,247.41901 185.7599,247.71741 C 185.61534,247.89478 185.5243,248.10374 185.4183,248.30415 C 185.31272,248.50077 185.15686,248.65887 185.01429,248.82716 C 184.83146,249.02534 184.792,249.27111 184.72829,249.52027 C 184.72422,249.76056 184.53815,249.86355 184.41874,250.02915 C 183.85846,250.44176 183.01084,250.8746 183.96476,250.33878 C 183.80968,250.43155 183.68592,250.56387 183.54928,250.6795 C 183.17255,251.0417 182.77696,251.13837 182.31899,251.22809 C 182.26142,251.18986 182.45826,251.2409 182.5262,251.22846 C 182.41749,251.38901 182.46913,251.59354 182.4579,251.74991 C 182.6313,251.7972 182.81824,251.79868 182.99716,251.81279 C 183.29978,251.88183 183.34178,252.10229 183.48838,252.32119 C 183.5594,252.56821 183.55199,252.82558 183.55957,253.0797 C 183.57403,253.39294 183.52129,253.70208 183.48106,254.0115 C 183.50081,254.30957 183.34064,254.52157 183.22198,254.76803 C 183.05866,254.98615 182.88766,255.19786 182.716,255.40923 C 182.57701,255.60545 182.42612,255.79257 182.28038,255.98341 C 182.07946,256.12411 182.04288,256.33445 181.95047,256.53744 C 181.88374,256.80152 181.93016,257.06072 181.95913,257.32504 C 181.95645,257.57738 182.08775,257.77296 182.18515,257.9904 C 182.27761,258.2317 182.47417,258.38983 182.63677,258.57477 C 182.83144,258.7336 183.05102,258.86047 183.26092,258.99756 C 183.4813,259.18126 183.47098,259.42308 183.53087,259.67116 C 183.42863,260.31422 182.70076,260.06323 182.33335,260.17087 C 182.08647,260.1672 181.89818,260.02758 181.68822,259.92516 C 181.51489,259.7737 181.35762,259.6052 181.19386,259.44386 C 181.04027,259.29391 180.91869,259.1125 180.78747,258.94237 C 180.68739,258.77653 180.57853,258.61614 180.47162,258.45528 C 180.42431,258.27309 180.25027,258.2042 180.14413,258.09427 C 179.9813,258.03653 179.83472,257.94326 179.68084,257.86978 C 179.51691,257.73684 179.31479,257.74116 179.12036,257.70218 C 178.91043,257.74147 178.69818,257.76418 178.48689,257.79365 C 178.55835,257.65388 177.90715,258.02968 178.04554,257.95598 C 178.22928,257.85514 178.41304,257.7543 178.59678,257.65346 C 178.56799,257.67804 178.5392,257.70262 178.51041,257.7272 C 178.13532,258.06949 176.61891,258.84 177.93339,258.10523 C 177.58063,258.41875 177.12172,258.57891 176.71667,258.78524 C 176.48349,258.85339 176.25033,258.92026 176.01628,258.98327 C 176.09553,258.87017 175.51738,259.21795 175.63748,259.15001 C 175.81857,259.04734 175.99967,258.94467 176.18077,258.842 C 176.14573,258.86381 176.11069,258.88562 176.07565,258.90743 C 175.86103,259.07166 175.68125,259.27353 175.49453,259.46718 C 175.16469,259.87501 174.61825,259.91151 174.19315,260.09371 C 173.9597,260.05801 173.7448,259.92679 173.53416,259.81987 C 173.58275,259.68222 172.97352,259.94624 173.10049,259.87464 C 173.28572,259.77238 173.47094,259.67012 173.65616,259.56786 C 173.62724,259.59014 173.59832,259.61242 173.5694,259.63469 C 173.38211,259.78241 173.35239,260.00155 173.27477,260.21199 C 173.21144,260.47114 173.1682,260.73477 173.11521,260.99638 C 173.05262,261.32436 173.05277,261.65849 173.04045,261.99072 C 173.01247,262.26778 173.05299,262.54179 173.07107,262.81531 C 173.13026,263.04061 173.13473,263.27314 173.1565,263.50322 C 173.16762,263.75409 173.16494,264.00525 173.16637,264.25629 C 173.16618,264.51042 173.1659,264.76456 173.16566,265.0187 C 173.15424,265.27857 173.23294,265.52746 173.2883,265.7776 C 173.38041,266.04581 173.542,266.02901 173.76486,266.11913 C 173.81585,266.11557 173.7471,266.23675 173.70098,266.2588 C 173.88752,266.10392 173.96014,265.87476 174.06408,265.66453 C 174.15854,265.42893 174.22783,265.18141 174.29862,264.93938 C 175.02307,264.31599 174.96591,264.32107 175.36176,264.72958 C 175.45032,265.02065 175.43707,265.32647 175.44677,265.62696 C 175.44956,265.92877 175.44798,266.23059 175.44728,266.53241 C 175.41814,266.81095 175.52722,267.04218 175.62348,267.29211 C 175.70692,267.54596 175.89388,267.60522 176.08011,267.73764 C 176.31805,267.72329 176.50062,267.84527 176.70426,267.91656 C 176.9072,268.116 176.91004,268.36286 176.95279,268.62641 C 176.97336,268.90261 176.9691,269.17973 176.96962,269.45645 C 176.92412,269.69061 177.01459,269.88421 177.07289,270.09781 C 177.17821,270.2985 177.17701,270.52247 177.2092,270.73985 C 177.18147,271.0047 177.25184,271.25753 177.28877,271.51217 C 177.36357,271.75158 177.56153,271.85193 177.72456,272.00446 C 177.92166,272.04797 178.12626,272.01114 178.32567,271.99737 C 178.58862,271.97852 178.85224,271.97963 179.11564,271.97655 C 179.5067,271.96432 179.89445,271.97814 180.28339,272.01532 C 180.57465,272.01406 180.81713,272.15075 181.07697,272.2551 C 181.34181,272.35603 181.57144,272.51343 181.80858,272.66196 C 182.06637,272.86354 182.3016,273.09305 182.54042,273.31511 C 182.79146,273.43682 183.05784,273.3872 183.32314,273.37384 C 183.58907,273.30996 183.86033,273.28659 184.13127,273.25877 C 184.60195,273.20184 185.04548,273.29365 185.49889,273.40502 C 185.95407,273.48336 186.24786,273.74298 186.55205,274.06345 C 186.81969,274.36528 186.90872,274.72515 187.00004,275.10524 C 187.11989,275.72045 187.1594,276.34601 187.2009,276.97008 C 187.20317,277.37129 187.2398,277.76718 187.28568,278.16486 C 187.30006,278.50182 187.43705,278.80665 187.54924,279.11814 C 187.66582,279.39709 187.69009,279.69428 187.72581,279.98997 C 187.74241,280.25281 187.73827,280.51627 187.73834,280.77945 C 187.73608,281.09628 187.7362,281.4131 187.73608,281.72992 C 187.73592,282.06249 187.7352,282.39506 187.73452,282.72763 C 187.77246,283.08617 187.70806,283.42497 187.64645,283.77277 C 187.57575,284.0127 187.42285,284.20672 187.28899,284.41247 C 187.1721,284.6219 187.10701,284.85476 187.02589,285.07921 C 186.95612,285.2971 186.8519,285.49976 186.75935,285.70754 C 186.67015,285.91464 186.53352,286.09628 186.40909,286.28307 C 186.27304,286.48894 186.17607,286.71679 186.07015,286.93871 C 186.0086,287.17365 185.93295,287.40349 185.85718,287.63417 C 185.77488,287.89777 185.55646,288.02187 185.36664,288.19444 C 185.158,288.29891 185.03406,288.48601 184.88065,288.64541 C 184.82051,288.90116 184.65551,289.09472 184.53057,289.30802 C 182.59253,290.45245 184.65077,289.19489 184.02779,289.7275 C 183.93208,289.94916 183.94287,290.19002 183.93147,290.42596 C 183.92818,290.74328 183.93122,291.06061 183.93297,291.37794 C 184.00185,291.64868 183.87209,291.81186 183.78335,292.02424 C 183.02867,292.4871 183.10935,292.46387 182.62676,292.09474 C 182.44006,291.94135 182.26202,291.77785 182.08333,291.6166 C 181.85922,291.47454 181.85042,291.26041 181.76979,291.0389 C 181.73623,290.79183 181.74592,290.54211 181.7428,290.29359 C 181.71269,289.98436 181.85195,289.74296 181.97857,289.47726 C 182.14263,289.26343 182.1656,289.00764 182.23073,288.75933 C 182.26048,288.50935 182.25284,288.25736 182.25623,288.00627 C 182.25538,287.75228 182.25459,287.4983 182.25389,287.24431 C 182.25302,286.97815 182.25368,286.712 182.25408,286.44584 C 182.26175,286.16537 182.24973,285.88498 182.24038,285.60548 C 182.18145,285.35745 182.08806,285.12035 182.00723,284.8797 C 181.95753,284.66252 181.76408,284.62116 181.62484,284.49711 C 181.47219,284.38351 181.29197,284.32751 181.12524,284.24195 C 180.94384,284.13329 180.81235,283.96417 180.66612,283.81535 C 180.51949,283.69507 180.42019,283.53554 180.30091,283.39213 C 180.20328,283.27843 180.11703,283.16115 180.02587,283.04664 C 179.93953,282.84976 179.81073,282.67906 179.6947,282.50108 C 179.56126,282.26522 179.34266,282.12565 179.14256,281.95765 C 178.94594,281.82962 178.71912,281.8428 178.49766,281.8139 C 178.249,281.85604 177.99928,281.8867 177.74901,281.9166 C 177.49521,281.93828 177.39618,281.79297 177.21935,281.66066 C 177.0805,281.53884 176.98832,281.38021 176.87681,281.23646 C 176.77904,281.06131 176.67291,280.8914 176.56611,280.72168 C 176.51557,280.49996 176.39282,280.31607 176.29003,280.11929 C 176.13395,279.92659 175.9402,279.76905 175.75604,279.60443 C 175.54251,279.39529 175.47762,279.11562 175.3808,278.84524 C 175.31338,278.56489 175.29729,278.27575 175.27249,277.98967 C 175.22632,277.66993 175.17452,277.35186 175.11801,277.03374 C 175.05824,276.64858 175.04846,276.25885 175.03702,275.87007 C 175.03025,275.55858 175.03088,275.24702 175.03035,274.93548 C 175.01013,274.65759 175.10066,274.39932 175.16916,274.13681 C 175.29552,273.87532 175.45071,273.62901 175.59707,273.37848 C 175.73598,273.19211 175.81889,272.97737 175.91629,272.76878 C 176.02878,272.57735 175.99374,272.37318 176.00509,272.16907 C 175.96278,271.97479 175.89093,271.78566 175.82626,271.59689 C 175.74478,271.40754 175.6019,271.2631 175.474,271.10658 C 175.31109,270.99629 175.23238,270.81751 175.11889,270.67132 C 175.00759,270.29627 175.16888,270.00569 175.32056,269.66834 C 175.59609,269.43201 175.46629,269.12062 175.48775,268.91098 C 175.28087,268.83422 175.05745,268.8593 174.84134,268.85227 C 174.5853,268.85556 174.32926,268.85774 174.07322,268.8599 C 173.80811,268.89633 173.62894,268.74879 173.41038,268.63974 C 173.21554,268.51446 173.08043,268.32596 172.92536,268.1589 C 172.74872,267.97794 172.57564,267.79211 172.40227,267.60954 C 172.36378,267.36891 172.12284,267.4286 172.02341,267.36422 C 171.86026,267.39688 171.77159,267.22279 171.65448,267.15703 C 171.57262,266.9733 171.45565,266.81032 171.35272,266.63912 C 171.22721,266.48663 171.07618,266.35023 170.92955,266.21731 C 170.7709,266.03982 170.66775,265.82596 170.54396,265.62583 C 170.40712,265.37215 170.39393,265.08733 170.35776,264.80838 C 170.33887,264.54272 170.34196,264.27629 170.34086,264.01018 C 170.3714,263.75702 170.29929,263.5164 170.25601,263.27215 C 170.14264,263.05203 169.96094,263.08066 169.75276,263.02634 C 169.49766,263.05017 169.3843,262.89776 169.20593,262.77009 C 169.06914,262.6203 169.00816,262.42394 168.92852,262.24167 C 168.74394,262.09957 168.70524,261.89251 168.61583,261.69758 C 168.56373,261.45635 168.57448,261.209 168.56645,260.96416 C 168.58859,260.73213 168.53262,260.50971 168.49431,260.28337 C 168.45493,260.01068 168.45348,259.73495 168.44474,259.46021 C 168.44203,259.16433 168.44242,258.86845 168.44219,258.57256 C 168.47296,258.34074 168.3094,258.2073 168.22339,258.02793 C 168.05296,257.8819 167.86619,257.75993 167.68717,257.62609 C 167.48884,257.51589 167.33087,257.35199 167.16298,257.2034 C 167.00394,257.05086 166.85013,256.89318 166.69243,256.73922 C 166.53198,256.58528 166.48099,256.37191 166.40127,256.17224 C 166.34859,256.05271 166.32086,255.81741 166.30372,255.74175 C 168.29208,254.08334 166.48563,255.72799 167.13075,255.67916 C 167.19329,255.91157 167.20164,256.15428 167.22135,256.39298 C 167.27479,256.67859 167.29694,256.96763 167.32243,257.25645 C 167.33747,257.51618 167.33615,257.77641 167.33788,258.03645 C 167.37769,258.25341 167.40595,258.47232 167.43964,258.69019 C 167.4626,258.94565 167.46111,259.20233 167.46447,259.45855 C 167.3827,260.2587 166.65643,259.67299 166.46594,259.69341 C 166.30291,259.51147 166.18933,259.29782 166.06236,259.09133 C 165.97277,258.88604 165.86925,258.6883 165.77107,258.48738 C 165.63644,258.26689 165.6049,258.02011 165.55616,257.77363 C 165.51958,257.48655 165.53403,257.19786 165.53978,256.91058 C 165.58848,256.65357 165.61292,256.39399 165.63895,256.13419 C 165.6274,255.87153 165.67724,255.6207 165.72377,255.36559 C 165.82093,255.163 165.68582,255.05802 165.63138,254.887 C 165.53073,254.71057 165.39354,254.55996 165.26847,254.40094 C 165.12521,254.25382 164.98079,254.10827 164.83452,253.96434 C 164.72599,253.80827 164.60913,253.65911 164.49445,253.50749 C 164.3535,253.29812 164.24146,253.07195 164.12229,252.85 C 163.96532,252.59451 163.94325,252.30863 163.89965,252.02122 C 163.87619,251.73952 163.88024,251.45672 163.87908,251.17436 C 163.86629,250.74222 163.90041,250.31314 163.9396,249.88339 C 163.9774,249.55795 163.98942,249.23083 164.00342,248.90386 C 163.96179,248.60799 164.05723,248.36606 164.1463,248.09668 C 164.26055,247.85612 164.47432,247.71372 164.66774,247.54553 C 164.84306,247.35669 165.0321,247.1853 165.22533,247.01474 C 165.41114,246.88021 165.54707,246.69821 165.69937,246.53205 C 165.83705,246.36688 165.867,246.156 165.92795,245.95654 C 166.00339,245.71171 166.06149,245.46386 166.11826,245.21454 C 166.1144,244.98028 166.23276,244.79343 166.31767,244.58845 C 166.48453,244.38244 166.61553,244.15614 166.74815,243.92782 C 166.89431,243.72179 166.99145,243.49049 167.10637,243.26973 C 167.17709,243.03612 167.16501,242.79175 167.17763,242.55133 C 167.23825,242.31558 167.13178,242.12202 167.0793,241.92296 C 166.74062,241.91028 166.13444,242.32084 167.19807,241.72387 C 166.84284,242.03582 166.3348,242.17712 165.95891,242.34471 C 165.73031,242.30195 165.62583,242.11577 165.48013,241.95448 C 165.36963,241.78566 165.19404,241.69207 165.04727,241.56383 C 164.87708,241.48498 164.67345,241.47444 164.4925,241.45745 C 164.28519,241.34311 164.5181,241.15545 164.52798,241.03892 C 164.78527,240.65996 165.28044,240.56854 165.6578,240.38456 C 165.89197,240.32408 166.1115,240.39169 166.34089,240.42006 C 166.53898,240.38576 166.74334,240.33183 166.94094,240.28058 C 167.2122,240.25258 167.48578,240.23452 167.75648,240.21373 C 168.01639,240.13281 168.28452,240.14492 168.55069,240.13663 C 168.83546,240.22113 169.12266,240.26432 169.41467,240.30428 C 169.70387,240.40437 169.63158,240.54481 169.69054,240.77855 L 169.01212,241.10533 C 168.96846,241.02922 169.07892,240.684 168.80203,240.73902 C 168.51353,240.69316 168.22914,240.6403 167.94393,240.57448 C 167.67958,240.59069 167.41449,240.59393 167.1556,240.66463 C 166.8844,240.68141 166.61132,240.6921 166.34218,240.73332 C 166.14044,240.78745 165.93368,240.86521 165.72416,240.8508 C 165.50085,240.83069 165.2842,240.77111 165.05866,240.8393 C 165.10883,240.80109 165.2642,240.69661 165.22145,240.743 C 165.19321,240.82242 164.9987,240.94319 165.11784,241.03439 C 165.31176,241.05343 165.51197,241.04292 165.68201,241.15831 C 165.83796,241.28751 166.00611,241.39825 166.12508,241.5676 C 166.2632,241.71523 166.3511,241.88357 166.56972,241.90454 C 166.53911,241.92972 166.46692,242.0239 166.4983,241.99968 C 167.06972,241.66104 167.1975,241.44293 167.72497,241.53456 C 167.78839,241.75459 167.91358,241.95075 167.84665,242.21093 C 167.83631,242.45761 167.84765,242.70743 167.78576,242.94905 C 167.67649,243.17742 167.59481,243.41679 167.43132,243.61899 C 167.30378,243.85063 167.18266,244.08365 167.00494,244.28268 C 166.91318,244.47953 166.78672,244.65313 166.79216,244.88451 C 166.73886,245.13694 166.68395,245.38706 166.60598,245.63343 C 166.54878,245.83928 166.51499,246.05727 166.39126,246.23565 C 166.23983,246.40685 166.11233,246.59803 165.91855,246.73004 C 165.7235,246.89802 165.53009,247.06523 165.36471,247.26293 C 165.16971,247.42264 164.95466,247.564 164.82939,247.79041 C 164.72629,248.04923 164.62931,248.27142 164.67213,248.56491 C 164.65769,248.89445 164.64548,249.22419 164.6048,249.55196 C 164.56329,249.97872 164.52607,250.40436 164.54621,250.83382 C 164.54719,251.11406 164.54359,251.39466 164.56328,251.67443 C 164.60286,251.95262 164.62087,252.22892 164.77227,252.47641 C 164.89031,252.69465 165.00074,252.91742 165.14121,253.12259 C 165.25422,253.27191 165.37004,253.41853 165.47733,253.57205 C 165.62459,253.71785 165.77159,253.86376 165.91386,254.01459 C 166.04038,254.17534 166.17885,254.32785 166.28118,254.506 C 166.34582,254.6955 166.49589,254.81783 166.40123,255.04355 C 166.36026,255.29357 166.28431,255.53764 166.30973,255.79764 C 166.28553,256.05856 166.2652,256.3197 166.21121,256.57691 C 166.20181,256.85859 166.18327,257.14225 166.21953,257.4246 C 166.27301,257.66142 166.28673,257.90638 166.42591,258.11757 C 166.52272,258.31627 166.625,258.51187 166.71341,258.71485 C 166.8359,258.91512 166.94332,259.12399 167.10495,259.29746 C 166.99671,259.46192 166.95116,259.921 166.79555,259.80061 C 166.79301,259.5466 166.79581,259.29215 166.77391,259.03877 C 166.74068,258.81824 166.71495,258.5966 166.66952,258.37786 C 166.66827,258.11907 166.66979,257.86011 166.65676,257.60155 C 166.63333,257.31411 166.61434,257.02624 166.55846,256.74251 C 166.53774,256.50959 166.52619,256.27274 166.47198,256.04445 C 166.87312,255.45965 164.53401,256.35655 166.95186,255.34487 C 166.98663,255.49508 167.0089,255.6561 167.05851,255.80553 C 167.13307,255.99581 167.18009,256.19852 167.33253,256.34457 C 167.49023,256.4993 167.64517,256.65652 167.80353,256.81051 C 167.97017,256.95489 168.12769,257.11256 168.32166,257.22219 C 168.50456,257.35944 168.69611,257.48491 168.86718,257.63798 C 168.97909,257.83167 169.12146,257.98362 169.10977,258.23179 C 169.10934,258.5272 169.10768,258.82264 169.11191,259.11804 C 169.11945,259.38904 169.11939,259.66108 169.15806,259.93008 C 169.1984,260.16 169.25605,260.38663 169.23472,260.62237 C 169.24134,260.86152 169.23091,261.10283 169.27684,261.33911 C 169.36263,261.52949 169.40229,261.72549 169.5802,261.86635 C 169.65821,262.04423 169.71978,262.2356 169.85201,262.38227 C 170.02053,262.46791 170.13356,262.63631 170.36579,262.59148 C 170.59714,262.67026 170.79443,262.65405 170.91482,262.91084 C 170.96228,263.16149 171.03984,263.40848 171.00923,263.66902 C 171.00969,263.93341 171.00635,264.19806 171.02243,264.46212 C 171.05468,264.73145 171.0635,265.00646 171.19535,265.25148 C 171.31615,265.44681 171.41628,265.65622 171.57314,265.8279 C 171.72129,265.96143 171.87729,266.0945 171.99872,266.25331 C 172.1003,266.42164 172.21722,266.58152 172.29738,266.76212 C 172.40104,266.80923 172.48458,266.97008 172.62836,266.91256 C 172.76941,267.00472 172.97568,266.99794 173.04843,267.22495 C 173.22089,267.40621 173.39376,267.59015 173.56813,267.77095 C 173.71937,267.93189 173.85136,268.1144 174.0429,268.232 C 174.25505,268.32862 174.42628,268.46023 174.67979,268.41765 C 174.93598,268.4153 175.19216,268.41255 175.44834,268.41043 C 175.67995,268.42373 175.91941,268.39154 176.12873,268.51372 C 176.17243,268.82211 176.27735,269.03293 175.99566,269.36291 C 175.84681,269.67827 175.68675,269.94482 175.77406,270.30004 C 175.88412,270.43944 175.96532,270.60932 176.119,270.71794 C 176.25135,270.88247 176.39932,271.03459 176.48387,271.23258 C 176.55061,271.42557 176.62429,271.61889 176.67035,271.81704 C 176.66588,272.03397 176.71105,272.2481 176.60037,272.45552 C 176.50531,272.66715 176.42476,272.88662 176.28081,273.07181 C 176.13711,273.32168 175.98817,273.56831 175.84742,273.81998 C 175.77587,274.07408 175.68085,274.32357 175.69819,274.59462 C 175.69748,274.90628 175.69559,275.21797 175.70018,275.52961 C 175.7105,275.91498 175.71816,276.30144 175.77707,276.68329 C 175.83492,277.00141 175.88733,277.31965 175.93552,277.6393 C 175.9602,277.92227 175.9767,278.20866 176.038,278.48712 C 176.12941,278.74308 176.18739,279.01018 176.39227,279.2061 C 176.57972,279.37715 176.78019,279.5374 176.93801,279.7377 C 177.04225,279.93687 177.16967,280.12183 177.21816,280.34712 C 177.32361,280.51381 177.42953,280.6801 177.5252,280.8527 C 177.63547,280.99385 177.72707,281.14974 177.8637,281.26986 C 178.02889,281.35563 178.11905,281.53181 178.35155,281.46881 C 178.60332,281.43591 178.85473,281.39413 179.10777,281.37559 C 179.33953,281.41418 179.5762,281.40636 179.77661,281.55393 C 179.97827,281.72937 180.2008,281.87695 180.33783,282.11688 C 180.45904,282.29921 180.59242,282.47436 180.68379,282.67568 C 180.77022,282.78385 180.86277,282.893 180.9484,283.00684 C 181.0668,283.14835 181.1668,283.30511 181.3103,283.42565 C 181.45016,283.56685 181.5746,283.73016 181.75293,283.82565 C 181.92347,283.90914 182.09949,283.97714 182.25669,284.08689 C 182.4198,284.21805 182.59247,284.29051 182.66337,284.5131 C 182.74583,284.76012 182.83902,285.00382 182.90444,285.25685 C 182.91595,285.53876 182.93102,285.8219 182.92105,286.10529 C 182.92158,286.37115 182.92214,286.63702 182.92227,286.90288 C 182.92294,287.1569 182.9236,287.41092 182.92468,287.66494 C 182.92351,287.91901 182.92821,288.1737 182.90377,288.42696 C 182.85398,288.68831 182.82094,288.94662 182.66318,289.17247 C 182.52974,289.42517 182.38519,289.65154 182.41133,289.95244 C 182.41362,290.19696 182.40464,290.44243 182.43336,290.68588 C 182.50526,290.89364 182.50722,291.08358 182.71837,291.21522 C 182.89864,291.37827 183.0764,291.54453 183.26558,291.69819 C 183.694,292.00121 183.87439,291.90535 183.07946,292.29674 C 183.15492,292.12231 183.37713,292.0075 183.26638,291.71862 C 183.26537,291.40099 183.26373,291.08336 183.26342,290.76573 C 183.27167,290.52102 183.26118,290.27221 183.34222,290.03707 C 183.86915,289.64151 184.63303,289.02912 183.83406,289.59055 C 183.97353,289.38731 184.15805,289.2251 184.19435,288.94916 C 184.34337,288.77696 184.44452,288.57403 184.66965,288.4735 C 184.86167,288.31506 185.07904,288.19653 185.17765,287.95199 C 185.25328,287.7206 185.3402,287.49375 185.38785,287.25397 C 185.49237,287.02861 185.5876,286.79699 185.72273,286.58734 C 185.84661,286.40235 185.98027,286.21828 186.07409,286.01683 C 186.16995,285.81179 186.27849,285.61374 186.34416,285.395 C 186.42683,285.16798 186.49897,284.93518 186.60146,284.71561 C 186.73704,284.51589 186.88285,284.32158 186.97141,284.09486 C 187.04167,283.75235 187.11053,283.42253 187.07025,283.06679 C 187.06962,282.73462 187.06879,282.40245 187.06928,282.07028 C 187.07012,281.75354 187.07101,281.4368 187.07089,281.12007 C 187.07052,280.85868 187.07358,280.59709 187.06041,280.33595 C 187.02881,280.04648 187.00893,279.75554 186.89634,279.48208 C 186.78176,279.16579 186.64085,278.85569 186.62434,278.51369 C 186.57817,278.11275 186.54085,277.71398 186.54539,277.30931 C 186.50904,276.68832 186.47339,276.0655 186.3462,275.45481 C 186.25704,275.0886 186.17054,274.73991 185.91336,274.44859 C 185.60228,274.15814 185.34088,273.88793 184.88878,273.82567 C 184.43687,273.72054 183.99486,273.64089 183.52804,273.70533 C 183.25845,273.73665 182.98922,273.76677 182.72302,273.8226 C 182.43977,273.82766 182.16306,273.86893 181.90663,273.71473 C 181.66987,273.49096 181.43723,273.25933 181.1764,273.06244 C 180.94079,272.92085 180.71139,272.77079 180.45111,272.67244 C 180.1972,272.57344 179.96044,272.4436 179.67644,272.44746 C 179.28831,272.41544 178.90112,272.40476 178.51135,272.4173 C 178.24783,272.42247 177.98404,272.42359 177.72108,272.44413 C 177.51002,272.45401 177.2967,272.49982 177.09488,272.41469 C 176.92287,272.247 176.7141,272.12798 176.63108,271.87685 C 176.59047,271.61609 176.51198,271.35868 176.54264,271.08628 C 176.51396,270.87718 176.51765,270.66197 176.41748,270.46866 C 176.35375,270.24493 176.25408,270.04333 176.30138,269.79733 C 176.30166,269.52262 176.30639,269.24758 176.2887,268.97324 C 176.25244,268.73114 176.25774,268.50289 176.0699,268.3216 C 175.87114,268.26295 175.67484,268.17064 175.45611,268.1578 C 175.26403,268.00766 175.05804,267.92618 174.97104,267.66123 C 174.86908,267.40265 174.75217,267.16202 174.77934,266.87313 C 174.78095,266.57128 174.78348,266.26943 174.78192,265.96758 C 174.77298,265.67638 174.78544,265.38011 174.70587,265.09678 C 174.72041,265.07467 174.23641,264.24722 174.9842,264.62991 C 174.90979,264.86708 174.82345,265.11099 174.74596,265.35206 C 174.64512,265.56946 174.56818,265.80367 174.39821,265.97882 C 174.00668,266.219 173.6402,266.6501 173.14858,266.54967 C 172.91584,266.43492 172.7208,266.43088 172.62997,266.13666 C 172.57141,265.88077 172.48857,265.62592 172.49719,265.35994 C 172.49741,265.10583 172.49767,264.85173 172.49792,264.59762 C 172.49674,264.34779 172.49927,264.09786 172.48935,263.84815 C 172.46925,263.62121 172.46645,263.39185 172.40818,263.16965 C 172.38814,262.89072 172.34251,262.61202 172.37435,262.32894 C 172.38572,261.99365 172.3838,261.65627 172.44242,261.32474 C 172.49595,261.06119 172.53836,260.79608 172.59634,260.53364 C 172.66779,260.3155 172.70208,260.08273 172.87175,259.91475 C 173.35264,259.61781 173.62394,259.29054 174.15794,259.40181 C 174.36212,259.50314 174.56353,259.6395 174.79537,259.64463 C 174.79775,259.6818 174.7901,259.79124 174.80252,259.75614 C 174.98935,259.55918 175.17502,259.36222 175.37564,259.17857 C 175.77711,258.9413 176.1589,258.654 176.61005,258.52173 C 176.84478,258.45973 177.07993,258.39812 177.31227,258.32675 C 177.28635,258.34572 177.20933,258.40359 177.23439,258.3835 C 179.35301,257.10938 176.85479,258.66812 177.81417,258.00997 C 178.22977,257.7416 178.59124,257.40775 179.08998,257.34501 C 179.30323,257.31332 179.51783,257.27433 179.73306,257.26667 C 179.93541,257.31582 180.14532,257.32013 180.31507,257.46243 C 180.4668,257.53261 180.61472,257.61427 180.7716,257.67524 C 180.88871,257.80217 181.06561,257.88915 181.12423,258.07926 C 181.22906,258.23738 181.33691,258.39448 181.43436,258.5579 C 181.56374,258.72603 181.68353,258.90473 181.83618,259.05239 C 181.99513,259.20919 182.14661,259.37496 182.31969,259.51659 C 182.52436,259.61038 182.70906,259.73744 182.94671,259.73845 C 182.90325,259.82371 182.94466,260.05824 182.86072,260.01247 C 182.81228,259.78409 182.83351,259.56675 182.62628,259.39806 C 182.41395,259.26355 182.19175,259.13779 182.0007,258.97272 C 181.8252,258.78604 181.63974,258.61022 181.53487,258.36798 C 181.43332,258.14168 181.29502,257.93733 181.29708,257.6748 C 181.26293,257.40333 181.21372,257.13679 181.27379,256.86402 C 181.35705,256.6464 181.37642,256.42435 181.58707,256.27556 C 181.73547,256.08656 181.89819,255.90696 182.02511,255.70067 C 182.19968,255.49295 182.37214,255.28417 182.53144,255.06379 C 182.6627,254.82979 182.8303,254.64074 182.81098,254.34345 C 182.85069,254.03727 182.90613,253.73136 182.89147,253.42155 C 182.88225,253.17549 182.89685,252.92571 182.8313,252.68533 C 182.69582,252.48574 182.66921,252.29569 182.38403,252.24694 C 182.18707,252.22895 181.97334,252.2528 181.80592,252.13277 C 181.80669,251.95167 181.71882,251.73488 181.84211,251.5401 C 182.15381,251.28985 182.3935,250.77563 182.91689,250.77121 C 183.6993,250.59251 182.83159,250.88369 182.85155,250.96362 C 182.98856,250.84536 183.11454,250.716 183.26217,250.61006 C 183.41932,250.5177 183.89243,250.2514 183.72037,250.31144 C 183.85102,250.16108 184.03412,250.08298 184.05472,249.85051 C 184.11264,249.59225 184.14697,249.33444 184.32108,249.12044 C 184.46584,248.95689 184.61649,248.79925 184.73427,248.6135 C 184.83716,248.4103 184.92485,248.1963 185.07354,248.0209 C 185.39455,247.52433 185.61833,247.26854 186.2415,247.00471 C 186.44352,246.93127 186.64078,246.8439 186.85053,246.79071 C 187.09964,246.74942 187.34493,246.67943 187.60177,246.70819 C 187.85503,246.70824 188.10831,246.70816 188.36158,246.70851 C 188.61875,246.7091 188.87591,246.70952 189.13307,246.71106 C 189.41057,246.71148 189.68831,246.71578 189.96555,246.701 C 190.75641,246.54112 190.02466,246.79853 189.9325,246.89168 C 190.02566,246.72259 190.16597,246.57492 190.18987,246.36981 C 190.30329,246.173 190.4047,245.96667 190.5214,245.7699 C 190.54994,245.53601 190.65572,245.37217 190.49665,245.14721 C 190.27751,245.06414 190.12781,244.92423 189.85222,245.03477 C 188.91645,245.35544 190.41728,244.6016 189.72968,245.06134 C 189.32752,245.42142 188.8917,245.7596 188.36566,245.9183 C 188.39407,245.89621 188.48818,245.84644 188.46337,245.87251 C 188.00825,246.18697 187.78592,246.58789 187.30881,246.33415 C 187.17162,246.08056 187.05949,245.81731 186.9299,245.55555 C 186.67129,245.33084 186.48863,245.13575 186.11256,245.13192 C 185.76312,245.09435 185.40269,245.08687 185.08636,244.91598 C 184.88141,244.64013 184.72523,244.47049 184.77415,244.08348 C 184.72977,243.72962 184.70266,243.37331 184.55206,243.04303 C 184.40419,242.72874 184.30224,242.45424 183.97815,242.2768 C 183.70165,242.10136 183.4284,241.92759 183.10246,241.85748 C 182.96136,241.73081 182.78926,241.65204 182.71055,241.455 C 182.55423,241.37453 182.41339,241.25328 182.23074,241.22872 C 182.2425,241.18297 182.29287,241.05264 182.26601,241.09147 C 182.07255,241.29116 181.89199,241.50715 181.64129,241.639 C 181.46685,241.7861 181.2574,241.88605 181.1892,242.12592 C 181.16963,242.36552 181.12575,242.60423 181.15024,242.84834 C 181.14058,243.10742 181.144,243.36911 181.07508,243.62161 C 180.97365,243.85839 180.89618,244.09899 180.68862,244.27143 C 180.10869,244.60592 179.93514,244.77859 179.34674,244.73818 C 179.09216,244.73904 178.83758,244.73966 178.58301,244.7419 C 178.33269,244.74229 178.08161,244.7495 177.83207,244.72523 C 177.60479,244.64252 177.42506,244.66723 177.32792,244.40014 C 177.32172,244.15026 177.29853,243.89766 177.32517,243.64627 C 177.34874,243.3901 177.36752,243.13352 177.42279,242.88136 C 177.42985,242.63395 177.45409,242.38419 177.42885,242.13528 C 177.40173,241.92595 177.40432,241.71074 177.31291,241.5145 C 177.67742,240.97123 175.56871,241.88642 177.68577,240.95876 C 177.27701,241.20676 176.88413,241.49553 176.43918,241.67445 C 176.20052,241.74575 175.82985,241.92516 176.35588,241.60668 C 175.96507,241.97172 175.57757,242.31158 175.05323,242.49994 C 174.81952,242.5041 174.6194,242.5937 174.39835,242.42307 C 174.22808,242.30086 174.07676,242.16327 173.87063,242.09933 C 173.63637,242.02678 173.40993,241.92096 173.1578,241.91563 C 172.95657,241.82604 172.77276,241.82587 172.67626,241.58736 C 172.5751,241.44208 172.49379,241.27851 172.36543,241.14912 C 172.11723,241.09567 171.86357,240.99852 171.5896,241.02934 C 171.30953,240.97049 171.03804,240.94402 170.81531,240.73914 C 170.58811,240.59529 170.36859,240.43612 170.1051,240.35942 C 169.86876,240.34799 169.64841,240.27233 169.41977,240.39555 C 170.36912,239.83091 170.0023,240.05217 169.74833,240.26601 L 169.07202,240.61131 z "
         style="fill:#000000;fill-opacity:1;stroke:#000000;stroke-width:0.78131109;stroke-linejoin:bevel;stroke-miterlimit:4;stroke-dasharray:none;stroke-opacity:1"
         id="path6202" />
      <path
         d="M 198.30994,229.46853 C 198.15135,229.58595 197.9499,229.62978 197.76988,229.7104 C 198.61043,229.09514 199.51024,228.61936 200.48865,228.29986 C 201.03269,228.19395 201.588,228.20894 202.13917,228.19919 C 202.7585,228.30259 203.35659,228.54136 203.95356,228.73045 C 204.66008,228.64133 205.29124,228.2918 205.94819,228.03592 C 206.55425,227.80304 207.19387,227.76435 207.8309,227.70403 C 208.43327,227.62448 208.56971,227.92737 208.96621,228.26655 C 209.24279,228.56485 209.51182,228.87305 209.79478,229.16487 C 210.07684,229.58194 210.16004,230.07981 210.28041,230.55954 C 210.35779,231.11166 210.75762,231.41498 211.06085,231.80297 C 211.44955,231.93261 211.77146,232.18293 212.11537,232.38908 C 212.40096,232.78851 212.83295,233.00352 213.20239,233.28189 C 213.64382,233.42966 213.70639,233.80683 213.91264,234.15407 C 214.11018,234.6823 213.96398,235.11113 213.84732,235.61659 C 213.33762,236.58081 212.14438,236.57941 211.30942,236.9475 C 210.74852,236.91608 210.22577,237.07672 209.68956,237.20773 C 209.15317,237.34784 208.59918,237.41415 208.05325,237.49135 C 208.23928,237.61131 209.25027,236.32294 208.74384,237.71339 C 208.69813,238.27298 208.71281,238.83503 208.7147,239.39582 C 208.78271,239.95923 208.56652,240.41762 208.36901,240.91757 C 207.816,241.77437 206.70887,241.97474 205.85096,242.39358 C 205.21238,243.09439 205.8785,241.28002 205.84674,242.56451 C 205.54634,243.00669 205.41893,243.5082 205.26972,244.00945 C 205.30339,245.10815 204.52598,245.13874 203.73961,245.51746 C 203.64737,245.1022 203.47952,244.71282 203.33745,244.3121 C 203.07244,243.90066 203.01203,243.42735 202.88634,242.97043 C 202.81715,242.4755 202.83174,241.97514 202.82139,241.4771 C 202.82084,240.92005 202.82421,240.36302 202.82695,239.80599 C 202.89324,238.95097 203.08894,238.11064 203.24551,237.26863 C 203.49671,236.72066 203.367,236.20879 203.31825,235.68269 C 203.04823,235.32482 202.81183,234.94367 202.5694,234.56592 C 202.3015,234.12885 201.97432,233.73802 201.66088,233.33493 C 201.36734,232.96971 201.00482,232.67485 200.66483,232.36316 C 200.24569,232.25811 199.80799,232.32881 199.38135,232.34717 C 198.95766,232.62164 198.70324,232.32008 198.34314,232.2596 C 198.17355,231.94337 197.9632,231.64091 197.7856,231.33027 C 197.68306,231.22332 197.6274,231.08357 197.54889,230.96115 L 198.85086,230.20799 C 198.92599,230.32379 198.97801,230.4574 199.07752,230.55733 C 199.24918,230.85487 199.45658,231.14328 199.61603,231.44763 C 199.91332,231.45031 200.25906,231.67691 200.5911,231.45642 C 201.04437,231.44682 201.50688,231.35593 201.93378,231.55409 C 202.27918,231.87998 202.64552,232.18922 202.94782,232.56264 C 203.26307,232.97092 203.59315,233.3665 203.86482,233.80734 C 204.11134,234.18718 204.35202,234.57012 204.62426,234.93141 C 204.6936,235.49967 204.86885,236.02245 204.58541,236.61968 C 204.4276,237.45135 204.23055,238.28162 204.15881,239.12623 C 204.15928,239.68214 204.15957,240.23805 204.15813,240.79396 C 204.16659,241.28492 204.15256,241.77779 204.2137,242.2663 C 204.3324,242.71647 204.38729,243.1801 204.64969,243.58442 C 204.78938,243.96433 204.96581,244.33246 205.03685,244.7331 C 203.54426,245.62144 203.78237,245.78759 203.91971,244.66462 C 204.05906,244.14568 204.17849,243.63139 204.47288,243.16848 C 205.1199,242.33207 205.98055,241.74542 207.03852,241.47852 C 207.02541,241.49681 206.98372,241.54974 206.99918,241.5334 C 207.18055,241.05029 207.47006,240.63703 207.37958,240.07865 C 207.3776,239.51274 207.36631,238.94617 207.39964,238.38088 C 207.67293,237.33305 207.79718,237.01881 209.25038,236.58292 C 209.7961,236.50996 210.34594,236.4494 210.87688,236.29455 C 211.41903,236.17397 211.9507,236.03573 212.51314,236.04911 C 212.50207,236.11159 212.49022,236.2992 212.47995,236.23658 C 212.57617,235.77249 212.81863,235.38977 212.5953,234.88098 C 212.39334,234.5939 212.3711,234.21587 211.94938,234.11451 C 211.557,233.83459 211.16184,233.57008 210.84166,233.19428 C 210.49447,232.99752 210.16516,232.76255 209.79167,232.60917 C 209.47178,232.18843 209.0542,231.8524 208.96219,231.27258 C 208.84667,230.81419 208.76833,230.33549 208.50261,229.93567 C 208.22179,229.64828 207.94909,229.34802 207.6805,229.04838 C 207.28508,228.81579 207.20786,228.43989 206.62404,228.5945 C 205.99718,228.6646 205.368,228.714 204.77497,228.95564 C 204.10843,229.2263 203.46036,229.58746 202.72498,229.58632 C 202.13812,229.3902 201.54828,229.13959 200.92889,229.08207 C 200.38335,229.09797 199.83241,229.08417 199.29761,229.2134 C 197.49448,229.89617 200.46898,228.39822 199.16576,229.1561 C 198.49925,229.57339 197.92249,230.36796 197.0818,230.36267 L 198.30994,229.46853 z "
         style="fill:#000000;fill-opacity:1;stroke:#000000;stroke-width:0.78131109;stroke-linejoin:bevel;stroke-miterlimit:4;stroke-dasharray:none;stroke-opacity:1"
         id="path6204" />
      <path
         d="M 214.25316,264.89764 C 214.0136,264.79202 213.73639,264.76563 213.47959,264.70003 C 213.0052,264.59205 212.5398,264.69275 212.06991,264.7205 C 211.55354,264.92018 211.16723,264.70349 210.69782,264.59037 C 210.33986,264.29897 209.90509,264.27765 209.48244,264.17216 C 208.98204,264.06449 208.50411,264.19555 208.01137,264.25104 C 207.96193,264.26927 208.08877,264.17659 208.13658,264.15439 C 207.74838,264.51093 207.46478,264.95691 207.16028,265.38232 C 206.82885,265.76794 206.60356,266.21947 206.34245,266.64972 C 206.10782,267.04158 205.99888,267.4885 205.85599,267.91789 C 205.71419,268.3993 205.72377,268.90108 205.68787,269.39576 C 205.6077,269.83472 205.54738,270.27719 205.47735,270.71767 C 205.42961,271.20665 205.43747,271.69823 205.42851,272.18872 C 205.42692,272.69655 205.42815,273.20437 205.42873,273.7122 C 205.41047,274.20755 205.44251,274.70376 205.45614,275.19669 C 205.57559,275.67443 205.87237,276.06016 206.13655,276.46265 C 206.36755,276.94282 206.74174,276.97294 207.16229,277.16133 C 207.62042,277.16911 208.05834,277.27666 208.50729,277.34812 C 208.95893,277.4156 209.41699,277.45669 209.86935,277.50049 C 210.21783,277.66457 210.61711,277.73228 210.97076,277.85223 C 211.13698,277.81606 210.82361,278.18865 210.67271,278.26729 C 210.94473,277.83358 211.04678,277.31778 211.18599,276.82939 C 211.43462,275.74022 212.16798,275.79317 213.13983,275.42812 C 213.36832,275.76807 213.5416,276.1477 213.73098,276.51237 C 213.95277,276.98619 213.97311,277.502 214.02808,278.01148 C 214.10453,278.56364 214.01331,279.09958 213.95294,279.64143 C 213.80049,280.28101 213.51892,280.87915 213.26629,281.48319 C 213.02163,282.01285 212.84922,282.56894 212.66748,283.12079 C 212.50938,283.63364 212.56675,284.147 212.59014,284.667 C 212.61594,285.18587 212.94586,285.41563 213.25614,285.77798 C 213.68007,286.17033 213.87712,286.68208 214.11301,287.18527 C 214.27418,287.74977 214.27442,288.33608 214.30153,288.91684 C 214.3544,289.47595 214.47312,290.02447 214.57233,290.57579 C 214.69463,291.17381 215.04569,291.63646 215.37252,292.12502 C 215.76909,292.46944 216.242,292.41187 216.72402,292.46918 C 216.63085,292.73209 217.772,292.10925 217.52878,292.24504 C 217.14795,292.45785 216.76711,292.67065 216.38628,292.88346 C 216.4341,292.84549 216.48192,292.80752 216.52973,292.76954 C 216.96335,292.62914 216.98128,292.22517 217.18833,291.92099 C 217.28689,291.4505 217.26313,290.96822 217.2764,290.49105 C 217.21164,289.88993 217.48322,289.43449 217.7346,288.92286 C 218.19935,288.04679 219.24061,287.81326 220.05649,287.37932 C 219.61956,287.65227 220.95309,286.87179 221.40314,286.62115 C 221.98645,286.39824 222.61124,286.39857 223.22457,286.35718 C 223.32515,286.3432 223.08781,286.5207 222.99195,286.55424 C 223.13447,286.10351 223.09497,285.62792 223.11055,285.16267 C 223.10742,284.65215 223.10393,284.14163 223.10088,283.63111 C 223.09802,283.11212 223.09915,282.59312 223.09952,282.07413 C 223.13539,281.43426 223.2831,280.81197 223.41585,280.18775 C 223.53898,279.63904 223.66364,279.09181 223.77674,278.54108 C 223.80286,277.98956 224.16864,277.70294 224.45672,277.29497 C 224.86708,277.01444 225.21865,276.66632 225.5928,276.34573 C 225.89499,275.87041 226.22906,275.42429 226.56081,274.97422 C 227.01576,274.54547 227.51208,274.16531 228.00363,273.78056 C 228.38087,273.54318 228.54907,273.15059 228.78156,272.8034 C 228.88556,272.35001 228.96211,271.88775 229.04022,271.42791 C 229.10365,270.94125 229.26033,270.47531 229.38869,270.00422 C 229.4205,269.57386 228.97248,270.03454 228.79842,270.04722 C 228.09822,270.44085 229.4162,269.69123 229.73098,269.52407 C 229.96581,269.39938 229.31212,269.85199 229.10269,270.01595 C 228.24206,270.70713 227.61657,270.89853 226.70868,271.14168 C 226.33257,271.11973 226.02259,270.88776 225.69265,270.73281 C 225.40536,270.43539 225.01998,270.37351 224.65177,270.23839 C 224.08627,270.00838 223.8055,269.51709 223.45492,269.06213 C 223.19131,268.2849 223.51967,267.65367 223.77953,266.9324 C 224.1065,266.48982 224.0842,266.02272 224.14145,265.52792 C 224.07979,265.13115 223.84119,264.81987 223.64573,264.48168 C 223.43624,264.04994 223.41235,263.56923 223.33725,263.10411 C 223.36293,262.67843 223.07003,262.36765 222.93384,262.03704 C 222.55569,261.79357 222.17034,261.91806 221.76802,261.92357 C 221.78327,261.9134 221.79726,261.96616 221.78231,261.97676 C 220.9566,262.7647 220.13087,262.93558 219.14028,263.10308 C 218.39588,263.12116 217.08961,263.95848 219.26921,262.73185 C 218.93506,262.9277 218.71681,263.24923 218.46693,263.53429 C 217.36252,264.39359 217.13944,264.38565 216.07596,264.40559 C 215.58023,264.33784 215.112,264.49461 214.63753,264.58903 C 214.27533,264.8022 213.87651,264.9126 213.48865,265.0607 L 214.68233,264.14436 C 215.06012,263.9818 215.44757,263.83091 215.8267,263.66951 C 216.31283,263.59364 216.7921,263.45868 217.29218,263.52122 C 218.05693,263.47175 219.22676,263.12721 217.07108,264.10499 C 217.31922,263.82278 217.56169,263.50973 217.86745,263.28387 C 218.86947,262.69349 219.30825,262.28393 220.34684,262.20785 C 220.71842,262.12613 221.98962,261.74772 220.38733,262.53134 C 221.1929,261.94889 222.00562,261.3005 222.97013,261.01759 C 223.40661,261.04126 223.8309,260.94345 224.21519,261.24351 C 224.39225,261.61253 224.66777,261.92884 224.6624,262.39362 C 224.73275,262.84429 224.75728,263.31121 224.94991,263.73254 C 225.15414,264.08439 225.40178,264.40787 225.47113,264.8201 C 225.43314,265.35034 225.49509,265.83531 225.13652,266.3116 C 224.87555,266.98062 224.53535,267.57848 224.75143,268.31277 C 225.08593,268.73793 225.34797,269.19923 225.89482,269.39239 C 226.26446,269.5404 226.65737,269.61272 226.95385,269.90813 C 227.26942,270.04154 227.55807,270.27375 227.92118,270.24642 C 228.47768,270.03186 230.05204,269.454 227.70026,270.56322 C 228.41372,270.01925 229.14762,269.49218 229.97143,269.10327 C 230.32097,269.1456 230.68482,268.726 230.74789,269.35536 C 230.6168,269.82278 230.45184,270.28509 230.38956,270.77017 C 230.31013,271.23746 230.21928,271.701 230.1461,272.16859 C 229.92313,272.54199 229.78707,272.96277 229.39637,273.2252 C 228.90175,273.60406 228.40882,273.98488 227.94275,274.39988 C 227.59474,274.83723 227.2418,275.2582 226.9756,275.76189 C 226.61065,276.10053 226.29258,276.4776 225.84149,276.7172 C 225.53355,277.09831 225.17614,277.34632 225.12344,277.87967 C 225.01518,278.43513 224.89408,278.9855 224.76245,279.53586 C 224.62648,280.15059 224.48508,280.76314 224.43427,281.3926 C 224.43523,281.91105 224.43607,282.42951 224.43741,282.94796 C 224.44028,283.45867 224.44318,283.96937 224.44752,284.48007 C 224.4368,284.9611 224.46903,285.44857 224.35791,285.9213 C 223.73763,286.39718 223.02853,287.37004 222.01713,287.24428 C 221.41194,287.29419 220.79655,287.29947 220.23152,287.55563 C 222.57593,286.1461 219.71132,287.9998 218.87338,288.30687 C 218.93733,288.26148 219.15796,288.25816 219.10815,288.31878 C 218.84175,288.80239 218.55486,289.22265 218.61362,289.80891 C 218.60381,290.29597 218.62406,290.78638 218.54427,291.26921 C 218.37844,291.65282 218.37488,292.01834 217.9277,292.20826 C 217.08415,292.73409 216.48082,293.36137 215.50644,293.34835 C 214.98834,293.26256 214.49444,293.30659 214.08837,292.89774 C 213.75072,292.38805 213.38757,291.90388 213.25384,291.28506 C 213.14954,290.72539 213.02917,290.16891 212.96733,289.6016 C 212.94541,289.03431 212.95047,288.46146 212.8008,287.90842 C 212.57526,287.42348 212.38538,286.93315 211.97306,286.55869 C 211.65131,286.17404 211.28815,285.91823 211.26347,285.36883 C 211.22951,284.83101 211.16117,284.3024 211.31492,283.76889 C 211.49093,283.20735 211.6602,282.64394 211.90753,282.10669 C 212.15974,281.51023 212.44376,280.91927 212.60371,280.28984 C 212.6735,279.76256 212.77355,279.24386 212.69579,278.70251 C 212.63557,278.21432 212.64473,277.71246 212.4248,277.25708 C 212.24734,276.91765 212.08384,276.56206 211.87121,276.24663 C 212.63163,275.70461 213.17852,274.98389 212.53922,276.18642 C 212.3982,276.69057 212.27527,277.20404 212.06213,277.68335 C 211.31069,278.1508 210.67409,278.79741 209.74294,278.72711 C 209.38029,278.60094 209.00505,278.48239 208.63821,278.36472 C 208.18298,278.32278 207.72361,278.29664 207.27344,278.2091 C 206.82415,278.14327 206.3798,278.05464 205.92601,278.01769 C 205.49935,277.7959 205.07862,277.72841 204.84584,277.22898 C 204.56799,276.80533 204.26029,276.39764 204.12659,275.89838 C 204.10942,275.39986 204.0684,274.897 204.09192,274.39493 C 204.09132,273.88683 204.09024,273.37874 204.09113,272.87065 C 204.09832,272.37616 204.09089,271.88086 204.13204,271.38748 C 204.19688,270.9485 204.23686,270.50589 204.34889,270.07431 C 204.37322,269.56858 204.37535,269.05864 204.50035,268.56409 C 204.63866,268.12446 204.74674,267.66858 204.97014,267.26207 C 205.22845,266.82668 205.44352,266.36492 205.7883,265.98444 C 206.09043,265.5525 206.37044,265.10009 206.74472,264.72459 C 207.52684,264.22539 208.26691,263.54069 209.2104,263.34756 C 209.7125,263.2849 210.20408,263.20247 210.7105,263.30556 C 211.13998,263.42927 211.58792,263.47175 211.95575,263.76452 C 212.39999,263.83767 212.79892,264.00094 213.27004,263.8183 C 213.74974,263.80341 214.23073,263.72268 214.71099,263.83307 C 214.96802,263.88994 215.22376,263.97125 215.48131,264.0035 L 214.25316,264.89764 z "
         style="fill:#000000;fill-opacity:1;stroke:#000000;stroke-width:0.78131109;stroke-linejoin:bevel;stroke-miterlimit:4;stroke-dasharray:none;stroke-opacity:1"
         id="path6208" />
      <path
         d="M 227.43056,285.97413 C 227.60748,285.83224 227.88226,285.93682 228.1081,285.91817 C 227.76031,286.20424 227.70251,286.59935 227.54688,286.98295 C 227.49832,287.47487 227.40908,287.96065 227.32317,288.44727 C 227.28846,288.94451 227.17545,289.42854 227.08146,289.91651 C 226.84696,290.32111 226.16524,290.12267 225.69866,290.14082 C 225.88511,289.74895 225.95706,289.32586 226.06958,288.913 C 226.09049,288.46058 226.19906,288.02369 226.28746,287.58176 C 226.40175,287.20229 226.63506,286.86559 226.83707,286.52529 C 226.96083,286.32793 226.98127,286.09164 227.05274,285.87669 L 228.40525,285.22295 C 228.33972,285.44978 228.32458,285.69503 228.2077,285.90679 C 228.01369,286.2427 227.81058,286.58008 227.63904,286.92248 C 227.54482,287.36246 227.43728,287.79964 227.41859,288.25083 C 227.31725,288.66831 227.2782,289.10118 227.05178,289.48147 C 226.81495,289.68105 226.07608,291.61771 225.72625,290.572 C 225.82739,290.08705 225.94834,289.60594 225.97621,289.10933 C 226.06113,288.62114 226.15834,288.13492 226.19477,287.64037 C 226.33273,287.2297 226.35536,286.8133 226.72741,286.51647 C 227.40448,285.99046 227.24043,284.94797 228.65871,285.08 L 227.43056,285.97413 z "
         style="fill:#000000;fill-opacity:1;stroke:#000000;stroke-width:0.78131109;stroke-linejoin:bevel;stroke-miterlimit:4;stroke-dasharray:none;stroke-opacity:1"
         id="path6210" />
      <path
         d="M 226.43862,258.16303 C 226.72469,258.27632 226.72681,258.61333 226.86432,258.82821 C 227.02218,259.29375 227.17236,259.76078 227.32179,260.22857 C 227.3295,260.70394 227.52105,261.12006 227.6472,261.55495 C 227.90551,261.86548 228.32629,261.94893 228.69316,262.08601 C 229.09785,262.41628 229.17859,262.92664 229.32302,263.40704 C 229.4973,263.92757 229.89757,264.05163 230.29502,264.31512 C 230.686,264.35292 230.91168,264.65713 231.21881,264.84597 C 231.62663,265.17908 232.00023,265.54493 232.3787,265.90524 C 232.71761,266.33695 232.70263,266.85047 232.79053,267.35877 C 232.78031,267.87107 232.87327,268.37312 232.95143,268.87708 C 232.89977,269.40561 233.21442,269.73769 233.42062,270.13904 C 233.71867,270.46104 234.12656,270.35436 234.4504,270.43231 C 232.97891,271.26124 235.59947,269.84404 235.69035,269.79633 C 236.27199,269.62291 236.86356,269.51268 237.45902,269.40467 C 237.88098,269.33701 238.30074,269.46848 238.70242,269.53214 C 238.04354,269.75672 237.48431,270.62844 237.78588,269.36181 C 237.67217,268.80315 237.94176,268.42803 238.11752,267.96338 C 238.49537,267.7065 238.75239,267.33465 239.05533,267.01287 C 239.31492,266.51057 239.39049,265.95596 239.49887,265.41054 C 239.70336,264.949 239.43657,264.5015 239.38232,264.12564 C 238.97875,264.17819 238.57353,264.24462 238.17086,264.31028 C 237.60499,264.48443 237.30837,264.20346 236.83929,264.00641 C 236.31187,263.78485 236.31081,263.38248 236.10251,262.93838 C 235.96384,262.41599 235.87642,261.88205 235.78461,261.35085 C 235.70622,260.81323 235.35776,260.51515 235.021,260.14433 C 234.4911,259.92771 234.63067,259.4746 234.49772,259.13458 C 235.3473,258.27887 236.00134,258.23382 236.9827,258.1632 C 237.39506,258.30154 237.81563,258.26777 238.23185,258.2934 C 238.66851,258.09995 238.97528,258.39047 239.34907,258.47425 C 239.82029,258.81966 240.38802,258.81195 240.94223,258.88891 C 241.62773,258.91417 242.09574,259.23551 242.61785,259.59458 C 242.90642,260.00377 242.89831,260.49427 242.97073,260.96852 C 242.98384,261.52868 243.35162,261.4314 243.66944,261.67168 C 243.57969,261.94532 244.75355,261.30682 244.50186,261.44596 C 244.1432,261.64646 243.78454,261.84697 243.42588,262.04748 C 243.49877,261.99032 243.57166,261.93317 243.64455,261.87601 C 244.08793,261.557 244.53355,261.24063 244.97809,260.92438 C 246.74346,259.66125 246.21918,259.99787 247.29144,260.40622 C 247.5056,260.85691 247.4758,261.35281 247.49918,261.8384 C 247.53,262.50428 247.67312,263.1507 247.81182,263.79951 C 247.95122,264.36111 248.10936,264.91639 248.26441,265.47271 C 248.46392,265.93887 248.78896,265.88943 249.20363,266.02136 C 249.9049,266.13822 250.47961,266.54126 251.05721,266.93054 C 251.64412,267.37175 252.11584,267.93221 252.59709,268.48001 C 252.943,268.74829 252.05835,269.224 251.65634,269.39679 C 251.5567,269.00239 251.39703,268.62288 251.25998,268.23903 C 251.06951,267.81897 250.87203,267.40357 250.6797,266.9848 C 250.49652,266.51535 250.50406,266.01521 250.47321,265.52132 C 250.46031,264.96097 250.46402,264.40043 250.46441,263.83998 C 250.39723,263.31091 250.61192,262.85341 250.75236,262.36494 C 250.92619,261.90794 250.92826,261.42253 250.96481,260.94284 C 250.98202,260.38515 250.9773,259.82713 250.97695,259.26927 C 250.8827,258.71916 251.19088,258.43043 251.42985,258.00437 C 252.80758,256.84918 252.86809,256.96761 253.91361,257.51015 C 254.36847,258.47742 254.65104,259.53163 254.98259,260.55004 C 255.20974,261.49855 255.51757,262.40193 255.92678,263.28332 C 256.96281,264.38578 255.68482,264.25621 255.50473,264.31525 C 255.82011,263.4577 256.02939,262.55942 256.26969,261.67664 C 256.41225,261.06405 256.50273,260.44069 256.60661,259.82145 C 256.71119,259.41318 256.99337,259.11375 257.2298,258.78136 C 257.59611,258.38979 257.92341,257.96516 258.25773,257.5483 C 258.5308,257.13634 258.50782,256.66048 258.57233,256.19477 C 258.57804,255.73382 258.29975,255.39766 258.09105,255.01515 C 257.88856,254.60402 257.86938,254.1443 257.7993,253.70025 C 257.65475,253.23036 257.63414,252.74268 257.5904,252.25747 C 257.57624,251.67549 257.55574,251.09282 257.53462,250.51238 C 257.45753,250.04394 257.32342,249.58564 257.1922,249.1303 C 257.08144,248.40003 257.07727,247.66014 257.06229,246.9234 C 257.14308,246.28385 256.96032,245.73364 256.77148,245.14355 C 256.64479,244.69611 256.33748,244.39985 256.06298,244.04957 C 255.80602,243.66776 255.56583,243.27409 255.32078,242.88392 C 255.11132,242.36816 254.71607,242.54123 254.33459,242.40794 C 253.88804,242.63586 253.40506,242.57773 252.95233,242.61715 C 252.61576,242.43926 252.46293,242.09404 252.23504,241.81274 C 251.94474,241.51902 251.64209,241.23999 251.34085,240.9577 C 251.0966,240.60248 250.72304,240.40823 250.40186,240.15819 C 249.81066,240.01144 249.65974,239.62202 249.37603,239.15776 C 249.3013,238.71293 249.1912,238.2481 249.10672,237.82313 C 248.83663,237.74105 248.50913,237.8529 248.22395,237.89924 C 247.77269,237.8767 247.50062,237.53788 247.16732,237.27662 C 246.84454,236.95502 246.52588,236.62728 246.20938,236.29901 C 245.96051,235.9053 245.5676,235.74486 245.20008,235.50416 C 244.85922,235.24652 244.54696,234.94553 244.23138,234.65968 C 243.43619,234.49239 242.70062,235.10046 244.4558,234.11165 C 243.86379,234.79647 242.70929,235.00684 242.12081,235.22529 C 241.74871,235.125 241.44859,234.89709 241.12495,234.70331 C 240.7519,234.4506 240.32936,234.51135 239.91684,234.47145 C 239.43111,234.59105 238.93016,234.57691 238.44092,234.60882 C 238.02962,234.52627 237.65023,234.29008 237.28094,234.08956 C 236.84608,233.93352 236.39336,234.01134 235.94443,234.03821 C 235.51561,233.94188 235.23368,233.61031 234.90572,233.35029 C 234.70479,232.9448 234.29754,232.97815 233.99194,232.81607 C 233.49686,232.93138 233.12263,232.69106 232.68059,232.54941 C 232.19845,232.27812 231.65419,232.24532 231.12082,232.1681 C 230.6559,232.13822 230.19061,232.24837 229.7319,232.32347 C 229.24769,232.38263 228.75957,232.37546 228.27304,232.38848 C 227.7668,232.39197 227.26055,232.39041 226.75431,232.38995 C 226.25767,232.27121 225.87777,232.48824 225.43897,232.6056 C 228.07501,231.21283 225.13094,232.6943 224.23949,233.13225 C 223.8255,233.32785 223.37214,233.3266 222.93014,233.38584 C 222.45044,233.35595 221.98367,233.44704 221.51373,233.49279 C 221.64992,233.66572 222.7926,232.28251 222.16524,233.64099 C 221.98497,234.04101 221.82245,234.44751 221.65738,234.85394 C 221.2099,235.68309 220.16695,235.8873 219.38497,236.30111 C 217.76487,236.8622 219.34293,236.12448 219.38364,236.10288 C 218.98755,236.3773 219.00624,236.76512 218.88753,237.17767 C 218.65566,238.36712 218.43128,238.15338 217.03999,238.9172 C 217.16644,238.75215 217.45051,238.99507 217.65816,238.99429 C 217.57219,239.47158 217.59545,239.95795 217.5858,240.44022 C 217.37676,241.45799 216.65144,241.38732 215.65772,241.79133 C 215.29381,241.57096 215.06464,241.18654 214.80847,240.85531 C 214.43603,240.50233 214.37184,240.02999 214.24945,239.55639 C 214.22169,238.93804 213.82808,239.10412 213.53778,238.91867 C 213.57492,238.82362 213.73885,238.95159 213.83939,238.96804 C 213.4923,239.40446 213.42724,239.91806 213.32193,240.44192 C 213.27082,240.94977 213.28105,241.46072 213.27891,241.97032 C 213.28145,242.47853 213.28285,242.98675 213.28431,243.49497 C 213.30287,243.99604 213.27282,244.4976 213.26056,244.99677 C 213.18686,245.40668 212.82008,245.57522 212.55561,245.84211 C 212.111,246.15344 211.84619,246.6026 211.55327,247.03542 C 211.34135,247.51157 212.03726,247.36616 212.21528,247.48781 C 212.77788,247.58503 213.31335,247.4743 213.85426,247.39057 C 212.56905,248.30441 213.26652,247.34693 213.42237,247.06641 C 213.75626,246.12543 214.65031,245.97691 215.52196,245.52461 C 215.35998,245.51032 214.28458,246.71022 214.92929,245.31834 C 214.94352,244.80309 215.13559,244.32428 215.2657,243.84164 C 216.42368,241.02292 216.8739,243.54864 217.03885,243.53078 C 217.09449,244.08892 217.08514,244.65067 217.08997,245.2108 C 217.10761,245.73225 217.07631,246.25416 217.06259,246.77366 C 217.03399,247.23621 216.81438,247.63432 216.65317,248.05382 C 216.34991,248.44226 216.28446,248.91165 216.14286,249.36158 C 216.20819,249.86111 215.84606,250.08136 215.64094,250.44919 C 215.32484,250.82769 215.45068,251.22497 215.43488,251.6625 C 215.36979,252.67864 214.43487,252.61151 213.61093,252.92373 C 213.11943,252.62133 213.0041,252.16449 212.81213,251.6655 C 212.73825,251.14022 212.57065,250.63809 212.41321,250.134 C 212.03791,249.00072 211.89443,249.46222 213.3901,248.68744 C 213.26794,249.04561 213.28326,249.45259 213.25731,249.83141 C 213.23252,250.30433 212.97467,250.68211 212.77741,251.09186 C 212.26747,251.85615 211.33658,252.14392 210.54874,252.58931 C 212.29735,251.32311 211.54314,252.10295 211.20024,252.84159 C 210.73475,254.92525 209.56939,253.36723 209.12607,253.47976 C 208.86749,253.12357 208.58022,252.78942 208.30041,252.44999 C 208.10469,252.04433 207.69557,251.9882 207.37816,251.77345 C 206.97381,251.81991 206.56576,251.96682 206.17112,252.08845 C 204.59059,252.50697 206.28512,251.86045 206.37362,251.81863 C 206.28432,252.20587 206.09109,252.54009 205.93057,252.89827 C 205.71671,253.36129 205.79401,253.86045 205.81372,254.35425 C 205.79993,254.9178 205.43775,255.2528 205.14946,255.68187 C 204.84139,256.03722 204.48855,256.35731 204.14204,256.67382 C 203.90261,257.13361 203.52791,257.44453 203.15844,257.78299 C 201.92521,258.68808 201.75406,258.74472 200.64423,258.58897 C 200.67425,258.17664 201.45721,258.4474 201.86312,258.37338 C 202.20246,258.64906 202.63291,258.60829 203.03854,258.66804 C 203.6246,258.51694 203.93514,258.8428 204.37604,259.02238 C 204.64396,259.47951 204.76939,259.9957 204.92054,260.4985 C 204.91169,261.08174 205.4725,261.1674 205.67407,261.34689 C 203.86167,262.64288 204.60289,261.92293 204.99827,261.21331 C 205.07042,260.72618 205.13742,260.24031 205.22011,259.75411 C 205.31883,259.31575 205.49789,258.90221 205.64548,258.4834 C 206.79084,257.47261 208.57388,256.71513 206.59715,257.70243 C 207.02339,256.6972 207.22063,256.78555 208.44111,256.09089 C 208.7661,256.15079 209.04072,256.32961 209.33827,256.46043 C 209.88792,256.56187 210.3807,256.82248 210.88976,257.04231 C 211.51228,257.17254 211.61222,257.58446 211.92044,258.01887 C 212.04547,258.43756 212.11711,258.86754 212.2095,259.29299 C 212.27216,259.7799 212.26157,260.27133 212.27312,260.76086 C 212.08122,261.126 212.45277,261.53064 212.49899,261.72871 C 212.79501,261.64631 213.05088,261.47222 213.32986,261.34766 C 209.63641,263.33659 216.67941,259.58279 212.8229,261.65264 C 212.99704,261.30186 212.9462,260.89808 212.96776,260.51807 C 212.95174,260.06444 212.66106,259.73799 212.44877,259.36536 C 212.04425,259.0844 212.01863,258.66928 211.87185,258.27855 C 214.28333,256.66184 212.70919,257.51303 212.6728,257.52824 C 212.87309,257.14419 212.94821,256.7004 213.04711,256.28282 C 213.41596,254.17149 214.73649,255.68802 215.10632,255.58529 C 215.23183,255.99959 215.48681,256.34504 215.69244,256.71601 C 216.05982,257.19655 216.48793,257.62747 216.90812,258.05931 C 217.19451,258.40606 217.50473,258.72998 217.81296,259.05687 C 218.54625,259.71475 218.57617,259.1859 217.35249,259.79544 C 217.3784,259.38717 217.67975,259.1207 217.84247,258.79356 C 218.12213,258.50936 218.19072,258.11726 218.31741,257.75352 C 218.69111,256.88187 219.80232,256.76817 220.55604,256.4154 C 220.71935,256.51591 220.18501,256.28867 219.9935,256.29622 C 220.22808,254.50286 221.49922,255.93833 221.74635,255.90473 C 222.22257,256.21673 222.02426,256.62829 222.11387,257.02078 C 221.59946,257.94026 221.11089,258.03947 220.04602,258.65019 C 219.71076,258.59177 220.69816,258.454 221.01823,258.33824 C 221.21751,258.29702 220.72682,258.63295 220.54517,258.72484 C 220.79323,258.45149 220.97547,258.13079 221.18479,257.83017 C 221.33156,257.48345 221.58225,257.19522 221.77734,256.88445 C 223.69028,255.62349 223.02834,255.80675 223.62688,256.73549 C 223.74262,257.19099 223.59093,257.61021 223.51112,258.04858 C 223.30705,258.43289 223.28549,258.85994 223.20529,259.2754 C 223.16884,259.76949 223.27572,260.26306 223.34472,260.75148 C 222.57139,261.977 226.92543,259.26637 222.4606,261.72052 C 223.06764,260.95736 224.07194,260.87226 224.85526,260.50454 C 225.02679,260.54318 224.50252,260.44697 224.32871,260.47352 C 224.51464,260.15476 224.86166,259.97375 225.15089,259.75256 C 225.27093,259.66246 225.31679,259.51351 225.39807,259.3964 L 226.7683,258.7784 C 226.69335,258.91023 226.65588,259.06962 226.54079,259.17853 C 226.25446,259.3824 225.97211,259.64234 225.69646,259.84399 C 225.12689,260.34046 224.69872,261.39598 223.65553,261.41049 C 223.72387,261.32582 223.76822,261.09912 223.86056,261.15652 C 220.17309,263.33952 223.22005,261.78456 222.01621,261.4501 C 221.94641,260.95186 221.8393,260.44867 221.8603,259.94546 C 221.93097,259.5188 221.93734,259.07903 222.14743,258.68588 C 222.24303,258.27277 222.40537,257.88181 222.29821,257.44328 C 223.17964,256.30329 218.64367,258.28878 223.17171,256.31354 C 222.97169,256.60529 222.66698,256.85381 222.56442,257.22538 C 222.3579,257.53146 222.17825,257.85369 221.93036,258.13113 C 221.24166,258.58778 220.62255,259.38945 219.75337,259.16554 C 219.7703,259.14771 219.4127,257.14491 221.22048,257.70791 C 219.18526,258.91931 220.38462,258.3179 220.74471,257.65122 C 220.6886,257.313 220.9287,256.98203 220.46273,256.6882 C 220.7513,256.33404 220.95002,255.42762 221.35145,255.64496 C 220.81907,256.1588 220.51033,257.37564 219.35398,257.31942 C 219.45403,257.23883 219.76172,257.01512 219.68037,257.11462 C 219.559,257.49168 219.47406,257.89383 219.23348,258.21464 C 219.04639,258.54341 218.69502,258.72447 218.7336,259.18833 C 217.71044,259.85038 217.45153,260.48201 216.53071,259.84332 C 216.2215,259.51187 215.90757,259.18608 215.62308,258.83251 C 215.20132,258.3962 214.77102,257.96176 214.40045,257.47846 C 214.19216,257.10928 213.92884,256.76833 213.807,256.35242 C 214.01432,256.12452 214.11671,255.58983 214.41687,255.65788 C 214.31116,256.07447 214.19047,256.51331 214.05294,256.92903 C 212.33611,258.12473 212.25892,258.20191 213.22443,257.60886 C 213.36326,257.92114 213.33987,258.37172 213.74422,258.60278 C 213.97124,259.00072 214.27719,259.35459 214.30642,259.8364 C 214.2918,260.24155 214.32393,260.65603 214.20919,261.05024 C 209.73686,263.89113 216.67609,259.47164 212.15926,262.29452 C 211.86291,262.40583 211.5804,262.63554 211.24423,262.57719 C 211.12279,262.22916 210.76038,261.92759 210.93655,261.44451 C 210.92653,260.96125 210.9369,260.47638 210.88013,259.99529 C 210.79198,259.57809 210.72393,259.15669 210.60389,258.74613 C 210.3172,258.34771 210.22238,257.98955 209.6421,257.87014 C 209.13033,257.65452 208.63012,257.41712 208.08473,257.29646 C 207.81561,257.19092 207.55823,256.97113 207.25496,257.02752 C 209.08684,255.92587 208.28842,256.21793 207.9828,257.1131 C 207.75201,257.26689 205.68705,258.46886 207.01763,257.86757 C 206.86548,258.27103 206.67448,258.66783 206.56851,259.09532 C 206.49391,259.58597 206.39589,260.06995 206.3552,260.5653 C 205.89981,261.59204 205.90752,261.63724 204.46497,262.2526 C 204.10478,261.96687 203.68994,261.81454 203.60611,261.21616 C 203.46108,260.73575 203.34058,260.24242 203.08974,259.8032 C 202.69293,259.6786 202.31693,259.42634 201.81759,259.54324 C 201.37029,259.45803 200.91652,259.4909 200.56588,259.14258 C 200.87946,258.77065 198.81357,257.28192 201.88724,257.73188 C 202.55224,257.70351 203.85065,257.58337 201.76016,258.32909 C 202.1294,258.00001 202.55944,257.75779 202.75852,257.26083 C 203.10161,256.93999 203.4294,256.59764 203.76764,256.27104 C 204.05933,255.87476 204.42677,255.56165 204.47713,255.03411 C 204.45533,254.52816 204.37731,254.00503 204.55897,253.52034 C 204.71327,253.1532 204.96723,252.84467 204.99593,252.42759 C 205.73512,251.90981 206.39863,251.2316 207.36568,251.17503 C 207.77655,251.04942 208.18809,250.86139 208.62211,250.92606 C 208.97673,251.15093 209.36144,251.27605 209.59075,251.67775 C 209.86747,252.01232 210.14782,252.34414 210.41017,252.6902 C 210.20473,252.93568 210.13352,253.52397 209.8225,253.44979 C 210.27058,252.4484 210.39514,252.22971 211.71729,251.64166 C 211.62637,251.69659 211.32613,251.78264 211.40699,251.7137 C 211.60785,251.31915 211.86758,250.95147 211.91123,250.49646 C 211.93637,250.09374 211.96585,249.68821 211.99686,249.28439 C 213.64663,248.35639 213.31925,248.20511 213.7292,249.41392 C 213.88833,249.91894 214.05971,250.42279 214.1316,250.94971 C 214.33236,251.39275 214.37161,251.84401 214.86679,252.08917 C 214.86586,252.08985 213.4797,253.54321 214.10467,252.36133 C 214.10304,251.89878 213.96884,251.46361 214.25617,251.04277 C 214.48918,250.69093 214.84067,250.51515 214.79384,250.02146 C 214.92307,249.55605 214.96431,249.07023 215.28344,248.67465 C 215.45417,248.27004 215.67868,247.89122 215.71476,247.43893 C 215.73455,246.92689 215.77905,246.40905 215.75504,245.89262 C 215.75172,245.34086 215.76241,244.78755 215.70916,244.2376 C 215.83091,244.10874 215.54739,242.33861 216.63815,243.22611 C 216.49599,243.6874 216.26772,244.14721 216.27865,244.66014 C 215.922,245.70832 215.81769,246.03629 214.32889,246.44232 C 214.45651,246.35846 214.87871,246.31298 214.78666,246.43494 C 214.32293,247.40701 213.96946,247.94213 212.66685,248.3096 C 212.1111,248.36679 211.55574,248.45048 210.99032,248.35682 C 210.51447,248.15233 210.24079,248.27503 210.18857,247.66375 C 210.46534,247.20442 210.71094,246.73944 211.1559,246.39944 C 211.42518,246.17157 211.76151,245.99559 211.91258,245.66221 C 211.93047,245.17081 211.97379,244.67358 211.94754,244.17784 C 211.94601,243.66962 211.94513,243.16141 211.94222,242.65319 C 211.94329,242.1381 211.9336,241.622 211.97737,241.10817 C 212.07253,240.56484 212.127,240.02739 212.46291,239.56276 C 213.16772,239.04023 213.68215,238.03316 214.74909,238.02039 C 215.15175,238.25586 215.47671,238.23 215.56821,238.83735 C 215.69866,239.28294 215.72365,239.74097 216.09225,240.07133 C 216.33232,240.37908 216.53982,240.7555 216.89677,240.93151 C 216.88521,240.93991 215.47784,242.35176 216.24889,241.12281 C 216.25553,240.6316 216.23584,240.1378 216.3042,239.64962 C 216.67802,238.72084 216.89315,238.34513 218.22424,237.98652 C 216.51463,239.01685 217.35958,238.77715 217.54137,237.84571 C 217.63979,237.40955 217.61489,236.98028 217.98519,236.6573 C 218.83205,236.14647 219.59184,235.56168 220.57041,235.37686 C 220.48775,235.43287 220.22228,235.55587 220.2903,235.4827 C 220.45239,235.07924 220.60749,234.67295 220.80766,234.2859 C 221.15359,233.32053 221.37333,232.93586 222.71252,232.58358 C 223.18591,232.54889 223.65983,232.48731 224.138,232.49162 C 224.57251,232.41869 225.01806,232.40374 225.42401,232.20454 C 227.47984,231.27007 222.2839,234.15577 226.61472,231.66331 C 227.05986,231.58048 227.48928,231.41144 227.96828,231.50633 C 228.47417,231.5066 228.98007,231.50843 229.48594,231.50295 C 229.96947,231.48592 230.45513,231.49229 230.93537,231.42211 C 231.40155,231.35023 231.86837,231.23417 232.34237,231.29847 C 232.88788,231.38932 233.44256,231.43869 233.93467,231.72075 C 234.36521,231.83424 234.74671,232.03462 235.21835,231.94198 C 235.56948,232.12029 235.94371,232.17927 236.18775,232.56092 C 236.4942,232.79505 236.75083,233.10868 237.16064,233.15374 C 237.62918,233.13948 238.08396,233.04785 238.53067,233.25305 C 238.89207,233.44606 239.24854,233.68789 239.66157,233.73046 C 240.14882,233.68638 240.64196,233.66658 241.12706,233.58048 C 241.56303,233.64518 242.00999,233.60937 242.39271,233.88921 C 242.71593,234.05848 243.0054,234.29909 243.37257,234.38269 C 243.26619,234.47249 242.95355,234.74943 243.05694,234.6562 C 244.5226,233.80152 244.3444,233.5932 245.50211,233.85226 C 245.81197,234.13716 246.11398,234.44235 246.4608,234.68287 C 246.82853,234.93639 247.2328,235.11263 247.48862,235.50801 C 247.80459,235.83748 248.12095,236.16804 248.44653,236.48748 C 248.76288,236.71898 249.00028,237.03049 249.42807,236.99602 C 249.78028,236.97942 250.10909,236.78601 250.4093,237.05862 C 250.50079,237.49571 250.63787,237.96198 250.68638,238.42773 C 250.98532,238.81899 251.07622,239.22475 251.65849,239.32934 C 251.98501,239.5937 252.35793,239.80954 252.61715,240.16189 C 252.92131,240.44905 253.22831,240.73265 253.52304,241.02993 C 253.73361,241.28615 253.86363,241.61718 254.18751,241.754 C 254.63381,241.68624 255.10425,241.65847 255.54926,241.5208 C 255.99755,241.6716 256.37071,241.61615 256.62281,242.13235 C 256.86219,242.51305 257.0959,242.89873 257.34948,243.26941 C 257.62869,243.63369 257.94873,243.94422 258.07746,244.40611 C 258.27803,245.01532 258.47704,245.58131 258.38924,246.24341 C 258.40296,246.97075 258.40451,247.70139 258.51349,248.42243 C 258.6476,248.88097 258.78352,249.34308 258.8625,249.81521 C 258.88632,250.39779 258.91305,250.98299 258.92138,251.56785 C 258.96297,252.046 258.98072,252.52695 259.12489,252.98963 C 259.19044,253.41857 259.21131,253.86388 259.39542,254.26438 C 259.61555,254.66974 259.90535,255.03298 259.91315,255.5187 C 259.85793,256.0043 259.88317,256.50168 259.63255,256.94412 C 259.30379,257.36683 258.99347,257.80842 258.61187,258.19117 C 258.371,258.50333 258.10255,258.79534 257.96029,259.16974 C 257.84513,259.79133 257.74623,260.4163 257.61002,261.03513 C 257.36651,261.92467 257.13819,262.82065 256.86998,263.70134 C 255.68392,264.59409 255.31038,265.46734 254.63389,264.02215 C 254.22064,263.13109 253.91408,262.21926 253.69732,261.25719 C 253.37095,260.26397 253.08415,259.23971 252.63372,258.29737 C 251.36878,257.79158 252.6698,257.62748 252.81791,257.42365 C 252.54691,257.81575 252.23912,258.04515 252.31288,258.58689 C 252.31276,259.14678 252.316,259.70676 252.30202,260.26653 C 252.27272,260.7582 252.27691,261.25551 252.11473,261.72805 C 251.96354,262.2017 251.73812,262.63981 251.80062,263.1582 C 251.79915,263.71734 251.79432,264.27657 251.8056,264.83565 C 251.8334,265.31112 251.82402,265.79391 251.99139,266.24807 C 252.18332,266.66975 252.37943,267.08861 252.57234,267.51029 C 252.71442,267.90032 252.87415,268.28635 252.98964,268.68367 C 252.74304,268.86798 251.78465,270.31223 251.31309,269.25157 C 250.84371,268.71218 250.38539,268.15859 249.80167,267.7352 C 249.23101,267.35962 248.66923,266.97573 247.97452,266.88787 C 247.52871,266.70628 247.15494,266.72441 246.94891,266.19811 C 246.79402,265.63532 246.63841,265.07327 246.4939,264.5066 C 246.35301,263.84962 246.21236,263.19494 246.16626,262.52227 C 246.14612,262.06894 246.1767,261.60137 245.99431,261.17549 C 246.35697,260.43011 242.50281,262.23418 246.37979,260.3832 C 245.93163,260.69169 245.4822,261.00246 245.03456,261.31515 C 244.17794,261.85356 243.46842,262.60463 242.42979,262.5254 C 242.03713,262.26197 241.70992,262.24989 241.64372,261.67554 C 241.58054,261.23152 241.59026,260.76542 241.3351,260.37747 C 240.82332,260.10918 240.37854,259.72655 239.72651,259.75623 C 239.15225,259.66564 238.57006,259.65661 238.08377,259.29182 C 237.73872,259.24265 237.406,259.01903 237.02181,259.19079 C 236.60718,259.14833 236.18473,259.13739 235.77113,259.05121 C 234.31504,259.22294 235.45955,258.93148 235.88012,258.52501 C 235.94616,258.65671 235.78416,259.25134 236.29188,259.34611 C 236.64376,259.74399 237.01803,260.07245 237.10642,260.63724 C 237.19736,261.16938 237.28209,261.70569 237.42478,262.22822 C 237.61738,262.64602 237.60897,262.9873 238.10619,263.19467 C 238.5488,263.34804 238.85333,263.58799 239.37317,263.41003 C 239.80093,263.34296 240.24994,263.19495 240.66759,263.33546 C 240.78485,263.79174 241.03775,264.20427 240.84294,264.74801 C 240.74009,265.30839 240.66326,265.87375 240.42698,266.4002 C 240.1376,266.74463 239.93958,267.15741 239.50181,267.37109 C 239.28323,267.81906 239.00151,268.10946 239.12713,268.68838 C 238.96212,269.75228 238.9661,269.89662 237.48227,270.42112 C 237.07422,270.3582 236.68217,270.19474 236.25963,270.30467 C 235.67108,270.42155 235.08264,270.53366 234.5092,270.71785 C 235.6219,269.97304 235.12911,270.38749 233.24831,271.34207 C 232.86659,271.24253 232.4644,271.24235 232.14117,270.93183 C 231.91708,270.49578 231.57604,270.1431 231.62456,269.57853 C 231.54525,269.07151 231.44566,268.56615 231.45811,268.05069 C 231.38341,267.57214 231.40845,267.08736 231.09323,266.67955 C 230.71789,266.32866 230.34741,265.96956 229.9429,265.64619 C 229.64271,265.47175 229.40922,265.19664 229.03833,265.14719 C 228.63092,264.85042 228.19658,264.68079 228.01361,264.13976 C 227.87948,263.69725 227.80958,263.21334 227.43775,262.91422 C 227.03417,262.7548 226.60136,262.68657 226.341,262.30457 C 226.20769,261.85696 225.99942,261.43698 226.00305,260.9447 C 225.85541,260.47726 225.70803,260.01084 225.54124,259.54908 C 225.44338,259.40355 225.45759,259.06541 225.21047,259.05717 L 226.43862,258.16303 z "
         style="fill:#000000;fill-opacity:1;stroke:#000000;stroke-width:0.78131109;stroke-linejoin:bevel;stroke-miterlimit:4;stroke-dasharray:none;stroke-opacity:1"
         id="path6212" />
      <path
         d="M 263.21521,253.47043 C 263.08582,253.69995 263.07544,253.97782 263.00565,254.23112 C 262.95309,254.7107 262.96264,255.19364 262.95309,255.67511 C 262.90639,256.16139 262.9851,256.64057 263.01981,257.11975 C 263.10228,257.4882 263.39419,257.72204 263.6003,258.01289 C 263.97164,258.41221 264.03117,258.9242 264.15214,259.4295 C 264.29162,260.08225 264.11821,260.67382 263.96529,261.29923 C 263.78124,261.91096 263.7816,262.54562 263.75481,263.17362 C 263.89642,263.58332 263.00449,263.61966 262.59306,263.75387 C 262.57739,263.14169 262.74969,262.56393 262.89402,261.9766 C 263.03652,261.31505 263.49111,260.86657 263.91734,260.37521 C 264.28123,259.97168 264.28263,259.47692 264.3899,258.98318 C 264.48152,258.51166 264.35881,258.0645 264.30222,257.60398 C 264.17105,257.16424 264.02655,256.72956 263.89151,256.29182 C 263.75453,255.93964 263.47085,255.6922 263.24884,255.40029 C 262.96675,255.25647 262.81208,254.97365 262.59969,254.76618 L 263.90124,254.00706 C 264.10975,254.20805 264.2818,254.46297 264.53944,254.62222 C 264.77056,254.92958 265.06449,255.1915 265.20636,255.56147 C 265.34323,256.00607 265.48769,256.44799 265.62745,256.89247 C 265.69068,257.36673 265.82147,257.82567 265.73318,258.31231 C 265.6381,258.82975 265.64584,259.34977 265.29461,259.78691 C 264.87304,260.25895 264.40831,260.69832 264.24163,261.32998 C 264.09413,261.90812 263.91144,262.47735 263.9422,263.08212 C 263.64071,263.33858 262.5795,264.997 262.42338,263.86378 C 262.44459,263.22226 262.43626,262.5728 262.61574,261.94524 C 262.77725,261.33964 262.95886,260.76861 262.82733,260.13272 C 262.71751,259.65014 262.67032,259.16669 262.30923,258.79034 C 262.09,258.47702 261.78549,258.22317 261.69392,257.82981 C 261.65397,257.34106 261.56376,256.85419 261.61579,256.3569 C 261.62316,255.87106 261.61524,255.38429 261.65719,254.89964 C 261.71808,254.68068 261.65388,254.27551 261.8626,254.16104 L 263.21521,253.47043 z "
         style="fill:#000000;fill-opacity:1;stroke:#000000;stroke-width:0.78131109;stroke-linejoin:bevel;stroke-miterlimit:4;stroke-dasharray:none;stroke-opacity:1"
         id="path6214" />
      <path
         d="M 262.67647,250.03715 C 262.79811,249.99392 262.8629,250.14282 262.94188,250.18758 L 261.65708,250.98622 C 261.59409,250.96965 261.53078,250.88923 261.44832,250.9313 L 262.67647,250.03715 z "
         style="fill:#000000;fill-opacity:1;stroke:#000000;stroke-width:0.78131109;stroke-linejoin:bevel;stroke-miterlimit:4;stroke-dasharray:none;stroke-opacity:1"
         id="path6216" />
      <path
         d="M 259.41404,267.69071 C 259.33207,267.97752 259.03063,268.15531 258.8279,268.36164 C 258.49089,268.60592 258.19602,268.89883 257.88841,269.17605 C 257.58094,269.51918 257.29355,269.88065 257.00017,270.23622 C 256.6583,270.54678 256.78936,270.95948 256.72584,271.31877 C 257.07494,271.59514 257.53901,271.58734 257.96175,271.66406 C 258.32602,271.8834 258.73198,271.98056 259.12886,272.11479 C 260.72414,272.02244 259.05723,272.54047 259.04775,272.54504 C 259.36401,272.12865 259.25231,271.6786 259.27439,271.20825 C 259.1744,270.69486 259.04109,270.18753 258.92638,269.67651 C 258.97483,269.20413 258.75712,268.80421 258.63438,268.40412 L 259.92482,267.62597 C 260.0649,268.05837 260.31499,268.45995 260.25089,268.97095 C 260.36291,269.48505 260.49345,269.99447 260.60223,270.50839 C 260.62141,271.01474 260.69507,271.48467 260.43151,271.95565 C 259.47671,272.58161 258.97232,273.26448 257.88616,272.96112 C 257.49636,272.82329 257.09864,272.71637 256.72929,272.52401 C 256.24881,272.4231 255.75506,272.44411 255.40562,272.04644 C 255.41888,271.61999 255.29106,271.219 255.61689,270.82755 C 255.91358,270.472 256.20246,270.11071 256.50086,269.75668 C 256.80333,269.46775 257.09104,269.16727 257.43086,268.91894 C 257.62643,268.73738 257.87022,268.52984 258.06143,268.38132 L 259.41404,267.69071 z "
         style="fill:#000000;fill-opacity:1;stroke:#000000;stroke-width:0.78131109;stroke-linejoin:bevel;stroke-miterlimit:4;stroke-dasharray:none;stroke-opacity:1"
         id="path6218" />
      <path
         d="M 244.65472,280.19115 C 244.27049,280.3609 243.88063,280.24553 243.48433,280.23274 C 242.99173,280.13949 242.48995,280.18006 241.99832,280.17569 C 241.97203,280.11886 242.12132,280.19824 242.18281,280.20951 C 241.84352,280.68859 241.79314,281.24541 241.69836,281.80304 C 241.65353,282.32148 241.66273,282.84223 241.66127,283.36198 C 241.645,283.85748 241.67812,284.35369 241.69313,284.84671 C 241.88504,285.30305 242.21047,285.2201 242.62687,285.32812 C 243.29924,285.36375 243.97313,285.352 244.64617,285.35014 C 245.47516,285.45456 246.10578,285.20479 246.8183,284.82942 C 245.76203,285.56134 247.02555,284.61956 247.33136,284.39549 C 247.93195,283.55589 248.98791,283.29882 249.84444,282.87127 C 250.33166,282.74079 250.71009,282.96742 251.15123,283.11235 C 251.5726,283.40539 251.92358,283.24865 252.33705,283.2416 C 250.20226,284.78182 251.78921,283.24229 252.2295,282.67588 C 252.65287,282.17005 253.16403,281.75303 253.65739,281.32012 C 254.0601,281.03922 254.19855,280.61682 254.42234,280.22287 C 254.5772,279.81678 254.35984,279.46928 254.28462,279.08874 C 254.07448,278.56743 254.11467,278.02809 254.11905,277.48073 C 254.11876,277.01793 253.745,276.90974 253.48686,276.635 C 253.1438,276.41083 252.73292,276.38098 252.34338,276.29692 C 251.96131,276.11102 251.85243,275.72368 251.67213,275.36951 C 251.41254,275.3527 252.0618,275.01274 252.29662,274.90058 C 252.02602,275.24857 251.82281,275.63762 251.59937,276.0155 C 251.14036,276.81919 249.97486,276.92944 249.33272,277.18829 C 248.89259,277.0357 248.63203,276.63487 248.32068,276.31168 C 248.01202,275.92095 248.02835,275.45003 247.9467,274.98901 C 248.14201,274.38457 247.4382,274.66168 247.30677,274.57707 C 247.64876,274.58042 248.55476,273.43577 248.04782,274.75594 C 247.99722,275.24368 247.64241,275.44942 247.3373,275.76912 C 246.48628,276.42504 245.89851,276.59339 244.98913,276.77546 C 244.92713,276.80005 244.86514,276.82465 244.80315,276.84924 C 245.17969,276.63625 245.55226,276.41603 245.93278,276.21025 C 246.19191,276.07012 245.5311,276.64181 245.33027,276.85759 C 245.09853,277.28057 244.76499,277.62859 244.46325,277.99864 C 244.43986,277.98304 244.22303,278.29524 244.21866,278.30063 L 242.84008,278.90554 C 242.91824,278.79616 242.96279,278.66266 243.07456,278.5774 C 243.38034,278.2173 243.72794,277.88517 243.95636,277.46361 C 244.56965,276.69968 245.02347,276.10363 246.17603,275.84859 C 246.83303,275.72077 248.21639,275.24277 245.94049,276.32787 C 246.24997,276.04969 246.61133,275.8632 246.69891,275.41898 C 246.98891,274.40568 247.09438,274.1162 248.50821,273.66514 C 248.87123,273.8685 249.2299,273.63138 249.27936,274.29595 C 249.34887,274.72795 249.32418,275.16888 249.60964,275.53612 C 249.90469,275.83725 250.14043,276.21413 250.56993,276.32805 C 250.45302,276.42608 250.1166,276.73648 250.22591,276.63 C 250.44679,276.24381 250.65993,275.85679 250.91228,275.49007 C 251.59797,275.02363 252.22462,274.03665 252.97172,274.60691 C 253.15439,274.91535 253.20996,275.30706 253.58154,275.44138 C 253.98753,275.53757 254.4112,275.56374 254.75792,275.82556 C 255.07211,276.13254 255.41014,276.29663 255.45355,276.79717 C 255.44314,277.32614 255.39924,277.84811 255.59874,278.35299 C 255.70781,278.76168 255.9023,279.13691 255.78034,279.57675 C 255.5713,280.00786 255.46646,280.44594 255.04425,280.75502 C 254.54965,281.1837 254.04202,281.60011 253.60141,282.08769 C 252.85564,283.05771 252.43918,283.66522 251.15177,284.16876 C 250.73046,284.13191 250.30875,284.22091 249.9018,283.95255 C 249.47298,283.82916 249.11821,283.62689 248.65179,283.78242 C 248.67434,283.79834 248.73734,283.80916 248.71943,283.83019 C 246.1947,285.75808 247.76429,284.353 245.65887,285.76288 C 244.93092,286.11335 244.2687,286.32495 243.44169,286.22783 C 242.7624,286.23067 242.0815,286.24828 241.40348,286.19816 C 240.93323,286.03346 240.57005,286.09684 240.36371,285.54867 C 240.34522,285.05003 240.30332,284.54713 240.32467,284.04486 C 240.32539,283.5202 240.31663,282.99475 240.35594,282.47109 C 240.44291,281.89468 240.48898,281.3162 240.80614,280.80538 C 241.41713,280.05359 242.17279,279.38571 243.20491,279.27839 C 243.70502,279.29508 244.20988,279.27936 244.70792,279.36118 C 245.09412,279.35244 245.47902,279.46011 245.83788,279.24278 L 244.65472,280.19115 z "
         style="fill:#000000;fill-opacity:1;stroke:#000000;stroke-width:0.78131109;stroke-linejoin:bevel;stroke-miterlimit:4;stroke-dasharray:none;stroke-opacity:1"
         id="path6220" />
      <path
         d="M 255.29031,282.22416 C 255.6168,281.63023 256.02223,281.08518 256.40703,280.529 C 256.86499,280.0228 257.04886,279.42122 257.24534,278.79388 C 257.29665,278.28442 257.33769,277.77499 257.38612,277.26579 C 257.40105,276.84093 257.54893,276.4375 257.6346,276.03293 C 259.27022,274.99543 259.03917,275.12205 259.14579,276.24417 C 259.13941,276.73845 259.16743,277.23356 259.1814,277.72563 C 259.29244,278.29907 259.32664,278.88168 259.37452,279.4623 C 259.44718,279.98416 259.1664,280.23531 258.93122,280.62556 C 258.32242,281.29714 257.37374,281.50799 256.60995,281.8653 C 256.52897,281.8293 256.78513,281.83867 256.87271,281.82536 C 256.69641,282.05822 256.51941,282.29045 256.3428,282.52295 L 254.95825,283.11174 C 255.13403,282.87813 255.33584,282.66149 255.48719,282.40874 C 256.217,281.9061 256.8416,281.07323 257.81067,280.95914 C 257.716,281.03413 257.44737,281.27766 257.53718,281.19688 C 257.75299,280.83928 258.1364,280.67547 258.04438,280.15141 C 257.99981,279.57448 257.9719,278.99488 257.85183,278.4267 C 257.8346,277.93103 257.79793,277.43135 257.80957,276.93239 C 258.76769,275.75639 255.29746,276.73794 259.02705,275.43805 C 258.93052,275.78757 258.70016,276.18572 258.73366,276.60497 C 258.688,277.11548 258.62146,277.62452 258.59424,278.1383 C 258.40992,278.79056 258.24429,279.41426 257.77047,279.93847 C 257.39168,280.48289 256.99042,281.01754 256.67072,281.59833 L 255.29031,282.22416 z "
         style="fill:#000000;fill-opacity:1;stroke:#000000;stroke-width:0.78131109;stroke-linejoin:bevel;stroke-miterlimit:4;stroke-dasharray:none;stroke-opacity:1"
         id="path6222" />
      <path
         d="M 206.40805,246.37554 C 206.42984,246.64028 206.37796,246.89972 206.35725,247.16034 C 206.31679,247.45417 206.08304,247.6233 205.9298,247.84302 C 205.64965,248.00094 205.64526,248.25609 205.5434,248.51888 C 205.46887,248.82886 205.53097,249.13921 205.54903,249.44435 C 205.73818,249.45384 205.96649,249.41191 206.16525,249.38395 C 206.51657,249.42113 206.86778,249.45791 207.21954,249.49114 C 207.33387,249.53742 206.97267,249.50285 206.85091,249.52243 C 206.9098,249.17614 206.89592,248.82332 206.89842,248.47352 C 206.92902,248.0832 206.87157,247.69759 206.84462,247.31221 C 206.80279,247.03197 206.59636,246.85614 206.46131,246.63493 C 206.43037,246.60914 206.39944,246.58336 206.36849,246.55758 L 207.27245,245.99315 C 207.30575,246.02277 207.33903,246.0524 207.37232,246.08202 C 207.52674,246.31812 207.72416,246.51638 207.78193,246.81173 C 207.822,247.20396 207.86675,247.59357 207.84201,247.99131 C 207.84191,248.34756 207.85482,248.70563 207.80885,249.05991 C 207.44472,249.37991 207.15187,250.27476 206.35642,250.10924 C 206.0091,250.07433 205.66125,250.02611 205.31239,250.01935 C 205.05837,250.04212 204.81145,250.1457 204.61231,249.95505 C 204.58821,249.63521 204.51667,249.31322 204.5886,248.98669 C 204.6738,248.70429 204.6646,248.42194 204.94046,248.23783 C 205.09948,248.04377 205.34588,247.90655 205.40036,247.62504 C 205.42411,247.37214 205.49169,247.12277 205.45161,246.86388 L 206.40805,246.37554 z "
         style="fill:#000000;fill-opacity:1;stroke:#000000;stroke-width:0.78131109;stroke-linejoin:bevel;stroke-miterlimit:4;stroke-dasharray:none;stroke-opacity:1"
         id="path6251" />
      <path
         d="M 202.06959,247.81215 C 202.18709,247.69305 202.4043,247.82199 202.57097,247.8095 C 202.36452,248.15214 202.85974,248.12081 202.96139,248.23037 C 202.85636,248.38848 203.65107,247.91619 203.48404,248.00596 C 203.21737,248.15314 202.9507,248.3003 202.68403,248.44747 C 202.71308,248.41276 202.74213,248.37804 202.77119,248.34333 C 202.87175,248.22415 202.86643,248.06143 202.91312,247.92327 L 203.86803,247.45672 C 203.82812,247.6097 203.8333,247.77879 203.74737,247.9193 C 203.24682,248.26614 202.74479,248.78501 202.08695,248.83696 C 201.79067,248.64659 201.59528,248.69241 201.60832,248.26096 C 201.93964,247.63904 201.95076,247.46224 202.93802,247.17989 L 202.06959,247.81215 z "
         style="fill:#000000;fill-opacity:1;stroke:#000000;stroke-width:0.78131109;stroke-linejoin:bevel;stroke-miterlimit:4;stroke-dasharray:none;stroke-opacity:1"
         id="path6253" />
      <path
         d="M 329.82764,76.088444 L 341.1875,76.088444 L 356.01172,97.868229 L 356.01172,76.088444 L 367.479,76.088444 L 367.479,115.45856 L 356.01172,115.45856 L 341.26807,93.839909 L 341.26807,115.45856 L 329.82764,115.45856 L 329.82764,76.088444 z "
         transform="matrix(0.7095522,0,0,0.7110141,-35.152043,-14.099956)"
         style="font-size:55px;font-family:Arial Black"
         id="flowRoot6364" />
      <path
         d="M 142.82761,276.14153 L 142.82761,251.42501 L 113.05308,263.5024 L 142.82761,276.14153 z "
         style="fill:#000000;fill-opacity:1;fill-rule:evenodd;stroke:#000000;stroke-width:1.76694417px;stroke-linecap:butt;stroke-linejoin:miter;stroke-opacity:1"
         id="path1891" />
      <path
         d="M 282.00309,274.79688 L 282.00309,250.08146 L 311.81543,262.15832 L 282.00309,274.79688 z "
         style="fill:#000000;fill-opacity:1;fill-rule:evenodd;stroke:#000000;stroke-width:1.76802802px;stroke-linecap:butt;stroke-linejoin:miter;stroke-opacity:1"
         id="path1893" />
      <path
         d="M 325.51172,277.64573 L 358.70703,277.64573 L 358.70703,286.20433 L 337.92578,286.20433 L 337.92578,292.57542 L 357.20313,292.57542 L 357.20313,300.7512 L 337.92578,300.7512 L 337.92578,308.65355 L 359.30859,308.65355 L 359.30859,317.73167 L 325.51172,317.73167 L 325.51172,277.64573 z "
         transform="matrix(0.7095522,0,0,0.7110141,84.068549,50.679479)"
         style="font-size:56px;font-family:Arial Black"
         id="flowRoot2798" />
    </g>
  </g>
</svg>
