<?xml version="1.0" encoding="UTF-8" standalone="no"?>
<!-- Created with Inkscape (http://www.inkscape.org/) -->
<!-- Copyright © 2008 by Silvio Grosso, under the terms of the GNU GPL version 2. -->
<svg
   xmlns:svg="http://www.w3.org/2000/svg"
   xmlns="http://www.w3.org/2000/svg"
   version="1.0"
   viewBox="0 0 450 500"
   width="450"
   height="500"
   id="svg2">
  <defs
     id="defs4" />
  <g
     id="layer1">
    <g
       transform="matrix(1.043913,0,0,1.0288552,-185.57267,-259.23818)"
       id="g2314">
      <path
         d="M 325.51172,277.64573 L 358.70703,277.64573 L 358.70703,286.20433 L 337.92578,286.20433 L 337.92578,292.57542 L 357.20313,292.57542 L 357.20313,300.7512 L 337.92578,300.7512 L 337.92578,308.65355 L 359.30859,308.65355 L 359.30859,317.73167 L 325.51172,317.73167 L 325.51172,277.64573 z "
         transform="translate(227.4542,205.0977)"
         style="font-size:56px;font-family:Arial Black"
         id="flowRoot2055" />
      <path
         d="M 325.62109,277.64573 L 337.1875,277.64573 L 352.28125,299.82151 L 352.28125,277.64573 L 363.95703,277.64573 L 363.95703,317.73167 L 352.28125,317.73167 L 337.26953,295.71995 L 337.26953,317.73167 L 325.62109,317.73167 L 325.62109,277.64573 z "
         transform="translate(47.70264,37.89736)"
         style="font-size:56px;font-family:Arial Black"
         id="flowRoot2063" />
      <g
         transform="matrix(1.266604,0,0,1.156406,-28.30399,-130.7979)"
         id="g4734">
        <g
           id="g3828">
          <path
             d="M 405.07117 505.36459 A 28.284271 39.901024 0 1 1  348.50262,505.36459 A 28.284271 39.901024 0 1 1  405.07117 505.36459 z"
             style="opacity:0.97000002;fill:none;fill-opacity:1;stroke:none;stroke-width:10.64999962;stroke-linecap:square;stroke-linejoin:miter;stroke-miterlimit:4;stroke-dasharray:none;stroke-opacity:1"
             id="path2034" />
          <path
             d="M 391.93919 594.76306 A 43.941635 87.88327 0 1 1  304.05592,594.76306 A 43.941635 87.88327 0 1 1  391.93919 594.76306 z"
             style="opacity:0.97000002;fill:none;fill-opacity:1;stroke:none;stroke-width:10.64999962;stroke-linecap:square;stroke-linejoin:miter;stroke-miterlimit:4;stroke-dasharray:none;stroke-opacity:1"
             id="path2036" />
          <path
             d="M 331.33003 377.58029 A 33.335033 33.335033 0 1 1  264.65996,377.58029 A 33.335033 33.335033 0 1 1  331.33003 377.58029 z"
             transform="matrix(0.471179,0,0,0.592392,190.4158,324.1156)"
             style="opacity:0.97000002;fill:none;fill-opacity:1;stroke:#000000;stroke-width:31.93136787;stroke-linecap:square;stroke-linejoin:miter;stroke-miterlimit:4;stroke-dasharray:none;stroke-opacity:1"
             id="path2038" />
          <path
             d="M 308.55142,531.85967 C 322.31437,522.41867 336.43486,515.4482 353.93909,531.85967 L 331.13438,420.43149 L 308.55142,531.85967 z "
             style="fill:#000000;fill-opacity:1;fill-rule:evenodd;stroke:none;stroke-width:4.27360439px;stroke-linecap:butt;stroke-linejoin:miter;stroke-opacity:1"
             id="path2040" />
          <path
             d="M 354.02387,564.30279 C 340.26092,573.7438 326.14043,580.71427 308.6362,564.30279 L 331.44091,675.73097 L 354.02387,564.30279 z "
             style="fill:#000000;fill-opacity:1;fill-rule:evenodd;stroke:none;stroke-width:4.27360439px;stroke-linecap:butt;stroke-linejoin:miter;stroke-opacity:1"
             id="path3820" />
          <path
             d="M 343.80124,525.60223 C 353.24224,539.36518 360.21271,553.48567 343.80124,570.9899 L 455.22942,548.18519 L 343.80124,525.60223 z "
             style="fill:#000000;fill-opacity:1;fill-rule:evenodd;stroke:none;stroke-width:4.27360439px;stroke-linecap:butt;stroke-linejoin:miter;stroke-opacity:1"
             id="path3822" />
          <path
             d="M 317.34358,570.9899 C 307.90256,557.22696 300.9321,543.10647 317.34358,525.60224 L 205.9154,548.40695 L 317.34358,570.9899 z "
             style="fill:#000000;fill-opacity:1;fill-rule:evenodd;stroke:none;stroke-width:4.27360439px;stroke-linecap:butt;stroke-linejoin:miter;stroke-opacity:1"
             id="path3824" />
        </g>
        <path
           d="M 610.13216 485.6666 A 69.19545 73.741135 0 1 1  471.74126,485.6666 A 69.19545 73.741135 0 1 1  610.13216 485.6666 z"
           transform="translate(-209.1016,61.66945)"
           style="opacity:0.97000002;fill:none;fill-opacity:1;stroke:#000000;stroke-width:2.56999993;stroke-linecap:square;stroke-linejoin:miter;stroke-miterlimit:4;stroke-dasharray:none;stroke-opacity:1"
           id="path3837" />
        <path
           d="M 610.13216 485.6666 A 69.19545 73.741135 0 1 1  471.74126,485.6666 A 69.19545 73.741135 0 1 1  610.13216 485.6666 z"
           transform="matrix(1.172345,0,0,1.133665,-302.6838,-3.141892)"
           style="opacity:0.97000002;fill:none;fill-opacity:1;stroke:#000000;stroke-width:2.56999993;stroke-linecap:square;stroke-linejoin:miter;stroke-miterlimit:4;stroke-dasharray:none;stroke-opacity:1"
           id="path4724" />
        <path
           d="M 450.35713 472.18362 A 2.3214285 2.3214285 0 1 1  445.71428,472.18362 A 2.3214285 2.3214285 0 1 1  450.35713 472.18362 z"
           transform="matrix(0.449919,-0.449918,1.088359,1.088359,-440.4914,182.7925)"
           style="opacity:0.97000002;fill:#000000;fill-opacity:1;stroke:#000000;stroke-width:2.56999993;stroke-linecap:square;stroke-linejoin:miter;stroke-miterlimit:4;stroke-dasharray:none;stroke-opacity:1"
           id="path4726" />
        <path
           d="M 450.35713 472.18362 A 2.3214285 2.3214285 0 1 1  445.71428,472.18362 A 2.3214285 2.3214285 0 1 1  450.35713 472.18362 z"
           transform="matrix(0.449919,-0.449918,1.088359,1.088359,-333.4851,293.2862)"
           style="opacity:0.97000002;fill:#000000;fill-opacity:1;stroke:#000000;stroke-width:2.56999993;stroke-linecap:square;stroke-linejoin:miter;stroke-miterlimit:4;stroke-dasharray:none;stroke-opacity:1"
           id="path4728" />
        <path
           d="M 450.35713 472.18362 A 2.3214285 2.3214285 0 1 1  445.71428,472.18362 A 2.3214285 2.3214285 0 1 1  450.35713 472.18362 z"
           transform="matrix(0.449918,0.449919,-1.088359,1.088359,592.0759,-111.6229)"
           style="opacity:0.97000002;fill:#000000;fill-opacity:1;stroke:#000000;stroke-width:2.56999993;stroke-linecap:square;stroke-linejoin:miter;stroke-miterlimit:4;stroke-dasharray:none;stroke-opacity:1"
           id="path4730" />
        <path
           d="M 450.35713 472.18362 A 2.3214285 2.3214285 0 1 1  445.71428,472.18362 A 2.3214285 2.3214285 0 1 1  450.35713 472.18362 z"
           transform="matrix(-0.449919,-0.449918,-1.088359,1.088359,1100.485,179.7862)"
           style="opacity:0.97000002;fill:#000000;fill-opacity:1;stroke:#000000;stroke-width:2.56999993;stroke-linecap:square;stroke-linejoin:miter;stroke-miterlimit:4;stroke-dasharray:none;stroke-opacity:1"
           id="path4732" />
      </g>
    </g>
  </g>
</svg>
