<?xml version="1.0" encoding="UTF-8" standalone="no"?>
<!-- Created with Inkscape (http://www.inkscape.org/) -->
<!-- Copyright © 2008 by Silvio Grosso, under the terms of the GNU GPL version 2. -->
<svg
   xmlns:svg="http://www.w3.org/2000/svg"
   xmlns="http://www.w3.org/2000/svg"
   version="1.0"
   viewBox="0 0 450 500"
   width="450"
   height="500"
   id="svg2">
  <defs
     id="defs4" />
  <g
     id="layer1">
    <g
       transform="matrix(0.8541561,0,0,0.8278264,-73.342864,-176.2404)"
       id="g2311">
      <g
         transform="matrix(2.828697,0,0,2.46252,-450.7429,-760.262)"
         id="g1902">
        <path
           d="M 298.50007 514.45593 A 12.121831 12.121831 0 1 1  274.2564,514.45593 A 12.121831 12.121831 0 1 1  298.50007 514.45593 z"
           transform="matrix(0.563063,0,0,0.521397,117.6793,254.1753)"
           style="opacity:0.97000002;fill:#000000;fill-opacity:1;stroke:#000000;stroke-width:9.39999962;stroke-linecap:square;stroke-linejoin:miter;stroke-miterlimit:4;stroke-dasharray:none;stroke-opacity:1"
           id="path1872" />
        <g
           transform="matrix(0.853812,0,0,2.36934,-31.56705,-781.5973)"
           id="g1880">
          <path
             d="M 365,547.36218 L 365,522.36218 L 355,542.36218 L 365,547.36218 z "
             style="fill:#000000;fill-opacity:1;fill-rule:evenodd;stroke-width:1px;stroke-linecap:butt;stroke-linejoin:miter;stroke-opacity:1"
             id="path1876" />
          <path
             d="M 364.91071,547.36218 L 364.91071,522.36218 L 374.91071,542.36218 L 364.91071,547.36218 z "
             style="fill:#000000;fill-opacity:1;fill-rule:evenodd;stroke-width:1px;stroke-linecap:butt;stroke-linejoin:miter;stroke-opacity:1"
             id="path1878" />
        </g>
        <g
           transform="matrix(0,-0.853812,2.36934,0,-1025.971,832.8776)"
           id="g1884">
          <path
             d="M 365,547.36218 L 365,522.36218 L 355,542.36218 L 365,547.36218 z "
             style="fill:#000000;fill-opacity:1;fill-rule:evenodd;stroke-width:1px;stroke-linecap:butt;stroke-linejoin:miter;stroke-opacity:1"
             id="path1886" />
          <path
             d="M 364.91071,547.36218 L 364.91071,522.36218 L 374.91071,542.36218 L 364.91071,547.36218 z "
             style="fill:#000000;fill-opacity:1;fill-rule:evenodd;stroke-width:1px;stroke-linecap:butt;stroke-linejoin:miter;stroke-opacity:1"
             id="path1888" />
        </g>
        <g
           transform="matrix(0,0.853812,-2.36934,0,1583.702,210.0499)"
           id="g1890">
          <path
             d="M 365,547.36218 L 365,522.36218 L 355,542.36218 L 365,547.36218 z "
             style="fill:#000000;fill-opacity:1;fill-rule:evenodd;stroke-width:1px;stroke-linecap:butt;stroke-linejoin:miter;stroke-opacity:1"
             id="path1892" />
          <path
             d="M 364.91071,547.36218 L 364.91071,522.36218 L 374.91071,542.36218 L 364.91071,547.36218 z "
             style="fill:#000000;fill-opacity:1;fill-rule:evenodd;stroke-width:1px;stroke-linecap:butt;stroke-linejoin:miter;stroke-opacity:1"
             id="path1894" />
        </g>
        <g
           transform="matrix(-0.853812,0,0,-2.36934,591.5414,1826.553)"
           id="g1896">
          <path
             d="M 365,547.36218 L 365,522.36218 L 355,542.36218 L 365,547.36218 z "
             style="fill:#000000;fill-opacity:1;fill-rule:evenodd;stroke-width:1px;stroke-linecap:butt;stroke-linejoin:miter;stroke-opacity:1"
             id="path1898" />
          <path
             d="M 364.91071,547.36218 L 364.91071,522.36218 L 374.91071,542.36218 L 364.91071,547.36218 z "
             style="fill:#000000;fill-opacity:1;fill-rule:evenodd;stroke-width:1px;stroke-linecap:butt;stroke-linejoin:miter;stroke-opacity:1"
             id="path1900" />
        </g>
      </g>
      <path
         d="M 325.51172,277.64573 L 358.70703,277.64573 L 358.70703,286.20433 L 337.92578,286.20433 L 337.92578,292.57542 L 357.20313,292.57542 L 357.20313,300.7512 L 337.92578,300.7512 L 337.92578,308.65355 L 359.30859,308.65355 L 359.30859,317.73167 L 325.51172,317.73167 L 325.51172,277.64573 z "
         transform="matrix(1.276681,0,0,1.230352,118.7487,152.7155)"
         style="font-size:56px;font-family:Arial Black"
         id="flowRoot2029" />
      <path
         d="M 325.62109,277.64573 L 337.1875,277.64573 L 352.28125,299.82151 L 352.28125,277.64573 L 363.95703,277.64573 L 363.95703,317.73167 L 352.28125,317.73167 L 337.26953,295.71995 L 337.26953,317.73167 L 325.62109,317.73167 L 325.62109,277.64573 z "
         transform="matrix(1.276681,0,0,1.230352,-98.54041,-27.17924)"
         style="font-size:56px;font-family:Arial Black"
         id="flowRoot2045" />
    </g>
  </g>
</svg>
