<?xml version="1.0" encoding="UTF-8" standalone="no"?>
<!-- Created with Inkscape (http://www.inkscape.org/) -->
<!-- Copyright © 2008 by Silvio Grosso, under the terms of the GNU GPL version 2. -->
<svg
   xmlns:svg="http://www.w3.org/2000/svg"
   xmlns="http://www.w3.org/2000/svg"
   version="1.0"
   viewBox="0 0 450 500"
   width="450"
   height="500"
   id="svg2">
  <defs
     id="defs4" />
  <g
     id="layer1">
    <g
       transform="matrix(1.0809585,0,0,1.0641244,-176.53288,-143.02454)"
       id="g2407">
      <path
         d="M 325.51172,277.64573 L 358.70703,277.64573 L 358.70703,286.20433 L 337.92578,286.20433 L 337.92578,292.57542 L 357.20313,292.57542 L 357.20313,300.7512 L 337.92578,300.7512 L 337.92578,308.65355 L 359.30859,308.65355 L 359.30859,317.73167 L 325.51172,317.73167 L 325.51172,277.64573 z "
         transform="translate(180.17464,83.2019)"
         style="font-size:56px;font-family:Arial Black"
         id="flowRoot2029" />
      <path
         d="M 325.62109,277.64573 L 337.1875,277.64573 L 352.28125,299.82151 L 352.28125,277.64573 L 363.95703,277.64573 L 363.95703,317.73167 L 352.28125,317.73167 L 337.26953,295.71995 L 337.26953,317.73167 L 325.62109,317.73167 L 325.62109,277.64573 z "
         transform="translate(18.1918,-72.08816)"
         style="font-size:56px;font-family:Arial Black"
         id="flowRoot2045" />
      <g
         transform="matrix(0.500988,0,0,0.429254,212.79719,166.5877)"
         id="g3332">
        <path
           d="M 320.71429 496.64789 A 20 20 0 1 1  280.71429,496.64789 A 20 20 0 1 1  320.71429 496.64789 z"
           style="opacity:0.97000002;fill:#000000;fill-opacity:1;stroke:none;stroke-width:8.10099983;stroke-linecap:square;stroke-linejoin:miter;stroke-miterlimit:4;stroke-dasharray:none;stroke-opacity:1"
           id="path2363" />
        <path
           d="M 160 533.07648 A 28.571428 28.571428 0 1 1  102.85715,533.07648 A 28.571428 28.571428 0 1 1  160 533.07648 z"
           transform="translate(169.2857,-36.42857)"
           style="opacity:0.97000002;fill:none;fill-opacity:1;stroke:#000000;stroke-width:8.10099983;stroke-linecap:square;stroke-linejoin:miter;stroke-miterlimit:4;stroke-dasharray:none;stroke-opacity:1"
           id="path2365" />
        <path
           d="M 300.77292,477.36218 L 300.77292,468.74655 L 300.77292,468.74655 L 301.02546,468.99909"
           style="fill:none;fill-rule:evenodd;stroke:#000000;stroke-width:1px;stroke-linecap:butt;stroke-linejoin:miter;stroke-opacity:1"
           id="path2367" />
        <path
           d="M 320,497.36218 L 326.42857,497.36218 L 326.42857,497.36218 L 326.42857,497.36218"
           style="fill:none;fill-rule:evenodd;stroke:#000000;stroke-width:1px;stroke-linecap:butt;stroke-linejoin:miter;stroke-opacity:1"
           id="path2375" />
        <path
           d="M 281.25,497.36218 L 275,497.36218"
           style="fill:none;fill-rule:evenodd;stroke:#000000;stroke-width:1px;stroke-linecap:butt;stroke-linejoin:miter;stroke-opacity:1"
           id="path2377" />
        <path
           d="M 300.53571,515.75504 L 300.53571,521.6479"
           style="fill:none;fill-rule:evenodd;stroke:#000000;stroke-width:1px;stroke-linecap:butt;stroke-linejoin:miter;stroke-opacity:1"
           id="path2379" />
        <path
           d="M 242.85714 495.75504 A 29.464285 29.464285 0 1 1  183.92857,495.75504 A 29.464285 29.464285 0 1 1  242.85714 495.75504 z"
           transform="matrix(1.374169,0,0,1.382302,7.83358,-188.3956)"
           style="opacity:0.97000002;fill:none;fill-opacity:1;stroke:#000000;stroke-width:4.40057325;stroke-linecap:square;stroke-linejoin:miter;stroke-miterlimit:4;stroke-dasharray:none;stroke-opacity:1"
           id="path2381" />
        <path
           d="M 300.71429,528.61218 L 300.89286,535.75504"
           style="fill:none;fill-rule:evenodd;stroke:#000000;stroke-width:1px;stroke-linecap:butt;stroke-linejoin:miter;stroke-opacity:1"
           id="path3268" />
        <path
           d="M 333.39286,497.36218 L 340,497.36218"
           style="fill:none;fill-rule:evenodd;stroke:#000000;stroke-width:1px;stroke-linecap:butt;stroke-linejoin:miter;stroke-opacity:1"
           id="path3270" />
        <path
           d="M 275 497.36218 A 47.857143 47.857143 0 1 1  179.28571,497.36218 A 47.857143 47.857143 0 1 1  275 497.36218 z"
           transform="matrix(1.095189,0,0,1.080264,51.94672,-39.91708)"
           style="opacity:0.97000002;fill:none;fill-opacity:1;stroke:#000000;stroke-width:6.06500006;stroke-linecap:square;stroke-linejoin:miter;stroke-miterlimit:4;stroke-dasharray:none;stroke-opacity:1"
           id="path3276" />
        <path
           d="M 258.03571,497.36218 L 250,497.36218"
           style="fill:none;fill-rule:evenodd;stroke:#000000;stroke-width:1px;stroke-linecap:butt;stroke-linejoin:miter;stroke-opacity:1"
           id="path3278" />
        <path
           d="M 300.89286,540.3979 L 300.89286,545.93361"
           style="fill:none;fill-rule:evenodd;stroke:#000000;stroke-width:1px;stroke-linecap:butt;stroke-linejoin:miter;stroke-opacity:1"
           id="path3280" />
        <path
           d="M 344.28572,497.36218 L 351.42857,497.36218"
           style="fill:none;fill-rule:evenodd;stroke:#000000;stroke-width:1px;stroke-linecap:butt;stroke-linejoin:miter;stroke-opacity:1"
           id="path3282" />
        <path
           d="M 301.07143,464.32647 L 300.89286,456.29075"
           style="fill:none;fill-rule:evenodd;stroke:#000000;stroke-width:1px;stroke-linecap:butt;stroke-linejoin:miter;stroke-opacity:1"
           id="path3284" />
        <path
           d="M 300.71429,453.96932 L 300.53571,446.29075"
           style="fill:none;fill-rule:evenodd;stroke:#000000;stroke-width:1px;stroke-linecap:butt;stroke-linejoin:miter;stroke-opacity:1"
           id="path3286" />
        <path
           d="M 270,497.36218 L 262.85714,497.36218"
           style="fill:none;fill-rule:evenodd;stroke:#000000;stroke-width:1px;stroke-linecap:butt;stroke-linejoin:miter;stroke-opacity:1"
           id="path3288" />
        <path
           d="M 207.08128 460.16025 A 58.336311 58.336311 0 1 1  90.408653,460.16025 A 58.336311 58.336311 0 1 1  207.08128 460.16025 z"
           transform="matrix(1.111107,0,0,1.111107,135.7538,-13.49903)"
           style="opacity:0.97000002;fill:none;fill-opacity:1;stroke:#000000;stroke-width:6.06500006;stroke-linecap:square;stroke-linejoin:miter;stroke-miterlimit:4;stroke-dasharray:none;stroke-opacity:1"
           id="path3290" />
        <path
           d="M 300.77292,443.74527 L 300.52038,433.13867"
           style="fill:none;fill-rule:evenodd;stroke:#000000;stroke-width:1px;stroke-linecap:butt;stroke-linejoin:miter;stroke-opacity:1"
           id="path3292" />
        <path
           d="M 356.07877,497.36218 L 365.42268,497.36218"
           style="fill:none;fill-rule:evenodd;stroke:#000000;stroke-width:1px;stroke-linecap:butt;stroke-linejoin:miter;stroke-opacity:1"
           id="path3294" />
        <path
           d="M 245.97215,496.77828 L 238.64854,496.77828"
           style="fill:none;fill-rule:evenodd;stroke:#000000;stroke-width:1px;stroke-linecap:butt;stroke-linejoin:miter;stroke-opacity:1"
           id="path3296" />
        <path
           d="M 301.07143,551.82647 L 301.07143,560.75504"
           style="fill:none;fill-rule:evenodd;stroke:#000000;stroke-width:1px;stroke-linecap:butt;stroke-linejoin:miter;stroke-opacity:1"
           id="path3298" />
        <g
           transform="matrix(-1.826981,1.826981,-1.992814,-1.992814,2128.49,939.9551)"
           id="g3310">
          <path
             d="M 376.5168,545.73446 L 376.71228,536.6295 L 370.9087,546.62956 L 376.5168,545.73446 z "
             style="fill:#000000;fill-opacity:1;fill-rule:evenodd;stroke-width:1px;stroke-linecap:butt;stroke-linejoin:miter;stroke-opacity:1"
             id="path3300" />
          <path
             d="M 376.48827,545.64485 L 376.58601,536.6295 L 382.38958,546.62956 L 376.48827,545.64485 z "
             style="fill:#000000;fill-opacity:1;fill-rule:evenodd;stroke-width:1px;stroke-linecap:butt;stroke-linejoin:miter;stroke-opacity:1"
             id="path3302" />
        </g>
        <g
           transform="matrix(1.826981,1.826981,-1.992814,1.992814,747.9553,-1325.587)"
           id="g3314">
          <path
             d="M 376.5168,545.73446 L 376.71228,536.6295 L 370.9087,546.62956 L 376.5168,545.73446 z "
             style="fill:#000000;fill-opacity:1;fill-rule:evenodd;stroke-width:1px;stroke-linecap:butt;stroke-linejoin:miter;stroke-opacity:1"
             id="path3316" />
          <path
             d="M 376.48827,545.64485 L 376.58601,536.6295 L 382.38958,546.62956 L 376.48827,545.64485 z "
             style="fill:#000000;fill-opacity:1;fill-rule:evenodd;stroke-width:1px;stroke-linecap:butt;stroke-linejoin:miter;stroke-opacity:1"
             id="path3318" />
        </g>
        <g
           transform="matrix(-1.826981,-1.826981,1.992814,-1.992814,-144.8943,2322.242)"
           id="g3320">
          <path
             d="M 376.5168,545.73446 L 376.71228,536.6295 L 370.9087,546.62956 L 376.5168,545.73446 z "
             style="fill:#000000;fill-opacity:1;fill-rule:evenodd;stroke-width:1px;stroke-linecap:butt;stroke-linejoin:miter;stroke-opacity:1"
             id="path3322" />
          <path
             d="M 376.48827,545.64485 L 376.58601,536.6295 L 382.38958,546.62956 L 376.48827,545.64485 z "
             style="fill:#000000;fill-opacity:1;fill-rule:evenodd;stroke-width:1px;stroke-linecap:butt;stroke-linejoin:miter;stroke-opacity:1"
             id="path3324" />
        </g>
        <g
           transform="matrix(1.826981,-1.826981,1.992814,1.992814,-1525.701,53.88859)"
           id="g3326">
          <path
             d="M 376.5168,545.73446 L 376.71228,536.6295 L 370.9087,546.62956 L 376.5168,545.73446 z "
             style="fill:#000000;fill-opacity:1;fill-rule:evenodd;stroke-width:1px;stroke-linecap:butt;stroke-linejoin:miter;stroke-opacity:1"
             id="path3328" />
          <path
             d="M 376.48827,545.64485 L 376.58601,536.6295 L 382.38958,546.62956 L 376.48827,545.64485 z "
             style="fill:#000000;fill-opacity:1;fill-rule:evenodd;stroke-width:1px;stroke-linecap:butt;stroke-linejoin:miter;stroke-opacity:1"
             id="path3330" />
        </g>
      </g>
      <g
         transform="matrix(0.780471,0,0,1.483532,30.325,-400.8828)"
         id="g3377">
        <path
           d="M 425.64511,506.95071 L 400.64511,511.71708 L 426.00225,435.37917 L 425.64511,506.95071 z "
           style="fill:none;fill-rule:evenodd;stroke:#000000;stroke-width:1.29021394px;stroke-linecap:butt;stroke-linejoin:miter;stroke-opacity:1"
           id="path3367" />
        <path
           d="M 426.37577,506.86431 L 452.43082,512.31159 L 426.00225,434.19228 C 426.00225,452.74031 426.37577,480.70549 426.37577,506.86431 z "
           style="fill:#000000;fill-opacity:1;fill-rule:evenodd;stroke-width:1px;stroke-linecap:butt;stroke-linejoin:miter;stroke-opacity:1"
           id="path3369" />
      </g>
      <g
         transform="matrix(0,0.780471,-1.483532,0,1148.8701,49.8087)"
         id="g3381">
        <path
           d="M 425.64511,506.95071 L 400.64511,511.71708 L 426.00225,435.37917 L 425.64511,506.95071 z "
           style="fill:none;fill-rule:evenodd;stroke:#000000;stroke-width:1.29021394px;stroke-linecap:butt;stroke-linejoin:miter;stroke-opacity:1"
           id="path3383" />
        <path
           d="M 426.37577,506.86431 L 452.43082,512.31159 L 426.00225,434.19228 C 426.00225,452.74031 426.37577,480.70549 426.37577,506.86431 z "
           style="fill:#000000;fill-opacity:1;fill-rule:evenodd;stroke-width:1px;stroke-linecap:butt;stroke-linejoin:miter;stroke-opacity:1"
           id="path3385" />
      </g>
      <g
         transform="matrix(-0.780471,0,0,-1.483532,695.7676,1161.5894)"
         id="g3387">
        <path
           d="M 425.64511,506.95071 L 400.64511,511.71708 L 426.00225,435.37917 L 425.64511,506.95071 z "
           style="fill:none;fill-rule:evenodd;stroke:#000000;stroke-width:1.29021394px;stroke-linecap:butt;stroke-linejoin:miter;stroke-opacity:1"
           id="path3389" />
        <path
           d="M 426.37577,506.86431 L 452.43082,512.31159 L 426.00225,434.19228 C 426.00225,452.74031 426.37577,480.70549 426.37577,506.86431 z "
           style="fill:#000000;fill-opacity:1;fill-rule:evenodd;stroke-width:1px;stroke-linecap:butt;stroke-linejoin:miter;stroke-opacity:1"
           id="path3391" />
      </g>
      <g
         transform="matrix(0,-0.74657,1.483532,0,-422.2781,700.6498)"
         id="g3393">
        <path
           d="M 425.64511,506.95071 L 400.64511,511.71708 L 426.00225,435.37917 L 425.64511,506.95071 z "
           style="fill:none;fill-rule:evenodd;stroke:#000000;stroke-width:1.29021394px;stroke-linecap:butt;stroke-linejoin:miter;stroke-opacity:1"
           id="path3395" />
        <path
           d="M 426.37577,506.86431 L 452.43082,512.31159 L 426.00225,434.19228 C 426.00225,452.74031 426.37577,480.70549 426.37577,506.86431 z "
           style="fill:#000000;fill-opacity:1;fill-rule:evenodd;stroke-width:1px;stroke-linecap:butt;stroke-linejoin:miter;stroke-opacity:1"
           id="path3397" />
      </g>
    </g>
  </g>
</svg>
