<?xml version="1.0" encoding="UTF-8" standalone="no"?>
<!-- Created with Inkscape (http://www.inkscape.org/) -->
<!-- Copyright © 2008 by Silvio Grosso, under the terms of the GNU GPL version 2. -->
<svg
   xmlns:svg="http://www.w3.org/2000/svg"
   xmlns="http://www.w3.org/2000/svg"
   version="1.0"
   viewBox="0 0 450 500"
   width="450"
   height="500"
   id="svg2">
  <defs
     id="defs4" />
  <g
     id="layer1">
    <g
       transform="translate(-92.857142,-195.71428)"
       id="g2364">
      <path
         d="M 325.51172,277.64573 L 358.70703,277.64573 L 358.70703,286.20433 L 337.92578,286.20433 L 337.92578,292.57542 L 357.20313,292.57542 L 357.20313,300.7512 L 337.92578,300.7512 L 337.92578,308.65355 L 359.30859,308.65355 L 359.30859,317.73167 L 325.51172,317.73167 L 325.51172,277.64573 z "
         transform="translate(120.2025,165.8597)"
         style="font-size:56px;font-family:Arial Black"
         id="flowRoot2798" />
      <path
         d="M 325.62109,277.64573 L 337.1875,277.64573 L 352.28125,299.82151 L 352.28125,277.64573 L 363.95703,277.64573 L 363.95703,317.73167 L 352.28125,317.73167 L 337.26953,295.71995 L 337.26953,317.73167 L 325.62109,317.73167 L 325.62109,277.64573 z "
         transform="translate(-38.47829,7.819412)"
         style="font-size:56px;font-family:Arial Black"
         id="flowRoot2790" />
      <path
         d="M 220.71428 511.11218 A 13.75 13.75 0 1 1  193.21428,511.11218 A 13.75 13.75 0 1 1  220.71428 511.11218 z"
         transform="translate(101.7775,-47.67051)"
         style="fill:none;fill-opacity:1;stroke:#000000;stroke-width:6.4000001;stroke-miterlimit:4;stroke-dasharray:none;stroke-opacity:1"
         id="path1938" />
      <path
         d="M 472.75139 523.5473 A 91.418808 91.418808 0 1 1  289.91377,523.5473 A 91.418808 91.418808 0 1 1  472.75139 523.5473 z"
         transform="matrix(1.103132,0,0,1.104543,-111.8861,-117.992)"
         style="fill:none;fill-opacity:1;stroke:#000000;stroke-width:13.62841034;stroke-miterlimit:4;stroke-dasharray:none;stroke-opacity:1"
         id="path1874" />
      <path
         d="M 308.94088,369.67111 L 308.29193,460.78352 L 220.68561,459.69885 C 223.97374,407.73276 254.12263,376.98009 308.94088,369.67111 z "
         style="fill:#000000;fill-opacity:1;fill-rule:evenodd;stroke:#000000;stroke-width:0.95903033px;stroke-linecap:butt;stroke-linejoin:miter;stroke-opacity:1"
         id="path1878" />
      <g
         transform="matrix(0.748443,0,0,0.836937,592.2214,44.12846)"
         id="g11445">
        <path
           d="M -379.17633,368.23588 L -368.03889,368.23588 L -368.03889,351.45051 L -379.17633,343.05783 L -379.17633,368.23588 z "
           style="fill:#000000;fill-opacity:1;fill-rule:evenodd;stroke:#000000;stroke-width:1.03415477;stroke-linecap:butt;stroke-linejoin:miter;stroke-miterlimit:4;stroke-dasharray:none;stroke-opacity:1"
           id="path9671" />
        <path
           d="M -380.00271,368.16549 L -391.14015,368.16549 L -391.14015,351.38012 L -380.00271,342.98744 L -380.00271,368.16549 z "
           style="fill:none;fill-opacity:1;fill-rule:evenodd;stroke:#000000;stroke-width:1.03415477;stroke-linecap:butt;stroke-linejoin:miter;stroke-miterlimit:4;stroke-dasharray:none;stroke-opacity:1"
           id="path11443" />
      </g>
      <g
         transform="matrix(0,-0.748443,-0.836937,0,723.9117,180.5106)"
         id="g11455">
        <path
           d="M -379.17633,368.23588 L -368.03889,368.23588 L -368.03889,351.45051 L -379.17633,343.05783 L -379.17633,368.23588 z "
           style="fill:#000000;fill-opacity:1;fill-rule:evenodd;stroke:#000000;stroke-width:1.03415477;stroke-linecap:butt;stroke-linejoin:miter;stroke-miterlimit:4;stroke-dasharray:none;stroke-opacity:1"
           id="path11457" />
        <path
           d="M -380.00271,368.16549 L -391.14015,368.16549 L -391.14015,351.38012 L -380.00271,342.98744 L -380.00271,368.16549 z "
           style="fill:none;fill-opacity:1;fill-rule:evenodd;stroke:#000000;stroke-width:1.03415477;stroke-linecap:butt;stroke-linejoin:miter;stroke-miterlimit:4;stroke-dasharray:none;stroke-opacity:1"
           id="path11459" />
      </g>
      <g
         transform="matrix(-0.748443,0,0,-0.836937,27.8102,872.4654)"
         id="g11461">
        <path
           d="M -379.17633,368.23588 L -368.03889,368.23588 L -368.03889,351.45051 L -379.17633,343.05783 L -379.17633,368.23588 z "
           style="fill:#000000;fill-opacity:1;fill-rule:evenodd;stroke:#000000;stroke-width:1.03415477;stroke-linecap:butt;stroke-linejoin:miter;stroke-miterlimit:4;stroke-dasharray:none;stroke-opacity:1"
           id="path11463" />
        <path
           d="M -380.00271,368.16549 L -391.14015,368.16549 L -391.14015,351.38012 L -380.00271,342.98744 L -380.00271,368.16549 z "
           style="fill:none;fill-opacity:1;fill-rule:evenodd;stroke:#000000;stroke-width:1.03415477;stroke-linecap:butt;stroke-linejoin:miter;stroke-miterlimit:4;stroke-dasharray:none;stroke-opacity:1"
           id="path11465" />
      </g>
      <g
         transform="matrix(0,0.748443,0.836937,0,-106.4708,741.7747)"
         id="g11467">
        <path
           d="M -379.17633,368.23588 L -368.03889,368.23588 L -368.03889,351.45051 L -379.17633,343.05783 L -379.17633,368.23588 z "
           style="fill:#000000;fill-opacity:1;fill-rule:evenodd;stroke:#000000;stroke-width:1.03415477;stroke-linecap:butt;stroke-linejoin:miter;stroke-miterlimit:4;stroke-dasharray:none;stroke-opacity:1"
           id="path11469" />
        <path
           d="M -380.00271,368.16549 L -391.14015,368.16549 L -391.14015,351.38012 L -380.00271,342.98744 L -380.00271,368.16549 z "
           style="fill:none;fill-opacity:1;fill-rule:evenodd;stroke:#000000;stroke-width:1.03415477;stroke-linecap:butt;stroke-linejoin:miter;stroke-miterlimit:4;stroke-dasharray:none;stroke-opacity:1"
           id="path11471" />
      </g>
      <path
         d="M 398.45405,461.44366 L 311.60102,462.08755 L 312.63499,549.01098 C 362.43443,540.42613 393.65787,513.7814 398.45405,461.44366 z "
         style="fill:#000000;fill-opacity:1;fill-rule:evenodd;stroke:#000000;stroke-width:0.93268889px;stroke-linecap:butt;stroke-linejoin:miter;stroke-opacity:1"
         id="path1876" />
    </g>
  </g>
</svg>
