<?xml version="1.0" encoding="UTF-8" standalone="no"?>
<!-- Created with Inkscape (http://www.inkscape.org/) -->
<!-- Copyright © 2008 by Silvio Grosso, under the terms of the GNU GPL version 2. -->
<svg
   xmlns:svg="http://www.w3.org/2000/svg"
   xmlns="http://www.w3.org/2000/svg"
   version="1.0"
   viewBox="0 0 450 500"
   width="450"
   height="500"
   id="svg2">
  <defs
     id="defs4" />
  <g
     id="layer1">
    <g
       transform="translate(-31.112698,-266.90636)"
       id="g2400">
      <g
         transform="matrix(3.441086,0,0,3.232982,-957.2253,-1215.08)"
         id="g6568">
        <g
           transform="matrix(0.35534,0,0,0.348629,244.3993,348.4684)"
           id="g3649">
          <path
             d="M 352.14284 523.52289 A 7.5892859 7.5892859 0 1 1  336.96427,523.52289 A 7.5892859 7.5892859 0 1 1  352.14284 523.52289 z"
             transform="translate(-39.25,7.02858)"
             style="opacity:0.97000002;fill:#ffffff;fill-opacity:1;stroke:#000000;stroke-width:1.70000005;stroke-miterlimit:4;stroke-dasharray:none;stroke-opacity:1"
             id="path1872" />
          <path
             d="M 363.0357 527.27289 A 17.857143 19.375 0 1 1  327.32141,527.27289 A 17.857143 19.375 0 1 1  363.0357 527.27289 z"
             transform="matrix(0.695668,0,0,0.642091,65.42376,192.1552)"
             style="opacity:0.97000002;fill:none;fill-opacity:1;stroke:#000000;stroke-width:9.30445576;stroke-miterlimit:4;stroke-dasharray:none;stroke-opacity:1"
             id="path2760" />
          <path
             d="M 336.5 531.73718 A 30.875 30.875 0 1 1  274.75,531.73718 A 30.875 30.875 0 1 1  336.5 531.73718 z"
             style="opacity:0.97000002;fill:none;fill-opacity:1;stroke:#000000;stroke-width:8.44200039;stroke-miterlimit:4;stroke-dasharray:none;stroke-opacity:1"
             id="path3647" />
        </g>
        <path
           d="M 374.75 534.61218 A 21.25 21.25 0 1 1  332.25,534.61218 A 21.25 21.25 0 1 1  374.75 534.61218 z"
           style="opacity:0.97000002;fill:none;fill-opacity:1;stroke:#000000;stroke-width:8.44200039;stroke-miterlimit:4;stroke-dasharray:none;stroke-opacity:1"
           id="path3654" />
        <path
           d="M 387.125 534.36218 A 34.3125 33.25 0 1 1  318.5,534.36218 A 34.3125 33.25 0 1 1  387.125 534.36218 z"
           style="opacity:0.97000002;fill:none;fill-opacity:1;stroke:#000000;stroke-width:1.10000002;stroke-miterlimit:4;stroke-dasharray:none;stroke-opacity:1"
           id="path4543" />
        <path
           d="M 378.52899,537.36218 L 386.59601,537.36218"
           style="fill:none;fill-rule:evenodd;stroke:#000000;stroke-width:1.02857721px;stroke-linecap:butt;stroke-linejoin:miter;stroke-opacity:1"
           id="path4545" />
        <path
           d="M 328.48148,537.36218 L 319.01852,537.36218"
           style="fill:none;fill-rule:evenodd;stroke:#000000;stroke-width:1.01835012px;stroke-linecap:butt;stroke-linejoin:miter;stroke-opacity:1"
           id="path4547" />
        <path
           d="M 354.125,509.70385 L 354.125,500.77051"
           style="fill:none;fill-rule:evenodd;stroke:#000000;stroke-width:1.03279555px;stroke-linecap:butt;stroke-linejoin:miter;stroke-opacity:1"
           id="path4549" />
        <path
           d="M 354,560.11218 L 354.125,567.36218"
           style="fill:none;fill-rule:evenodd;stroke:#000000;stroke-width:1px;stroke-linecap:butt;stroke-linejoin:miter;stroke-opacity:1"
           id="path4551" />
        <path
           d="M 371.22476,517.21065 L 377.40653,511.83065"
           style="fill:none;fill-rule:evenodd;stroke:#000000;stroke-width:1.1137265px;stroke-linecap:butt;stroke-linejoin:miter;stroke-opacity:1"
           id="path4553" />
        <path
           d="M 328.02107,511.50825 L 334.36909,518.31966"
           style="fill:none;fill-rule:evenodd;stroke:#000000;stroke-width:1.04214442px;stroke-linecap:butt;stroke-linejoin:miter;stroke-opacity:1"
           id="path4559" />
        <path
           d="M 369.00535,554.29431 L 374.96432,559.3265"
           style="fill:none;fill-rule:evenodd;stroke:#000000;stroke-width:1.07136142px;stroke-linecap:butt;stroke-linejoin:miter;stroke-opacity:1"
           id="path4561" />
        <path
           d="M 335.2848,551.98899 L 328.73664,557.41215"
           style="fill:none;fill-rule:evenodd;stroke:#000000;stroke-width:1.07683265px;stroke-linecap:butt;stroke-linejoin:miter;stroke-opacity:1"
           id="path4565" />
        <g
           transform="translate(-45.77614,-47.23058)"
           id="g6353">
          <path
             d="M 394.7,548.46236 L 399.65581,548.02042 L 399.7,542.05438 L 394.7,548.46236 z "
             style="fill:none;fill-rule:evenodd;stroke:#000000;stroke-width:0.14;stroke-linecap:butt;stroke-linejoin:miter;stroke-miterlimit:4;stroke-dasharray:none;stroke-opacity:1"
             id="path4567" />
          <path
             d="M 404.80486,548.46894 L 399.76067,548.027 L 399.80486,542.06096 L 404.80486,548.46894 z "
             style="fill:#000000;fill-opacity:1;fill-rule:evenodd;stroke:#000000;stroke-width:0.14;stroke-linecap:butt;stroke-linejoin:miter;stroke-miterlimit:4;stroke-dasharray:none;stroke-opacity:1"
             id="path5454" />
        </g>
        <g
           transform="matrix(0,1,-1,0,935.2752,137.4873)"
           id="g6357">
          <path
             d="M 394.7,548.46236 L 399.65581,548.02042 L 399.7,542.05438 L 394.7,548.46236 z "
             style="fill:none;fill-rule:evenodd;stroke:#000000;stroke-width:0.14;stroke-linecap:butt;stroke-linejoin:miter;stroke-miterlimit:4;stroke-dasharray:none;stroke-opacity:1"
             id="path6359" />
          <path
             d="M 404.80486,548.71894 L 399.76067,548.027 L 399.80486,542.06096 L 404.80486,548.71894 z "
             style="fill:#000000;fill-opacity:1;fill-rule:evenodd;stroke:#000000;stroke-width:0.14;stroke-linecap:butt;stroke-linejoin:miter;stroke-miterlimit:4;stroke-dasharray:none;stroke-opacity:1"
             id="path6361" />
        </g>
        <g
           transform="matrix(-1,0,0,-1,753.6594,1115.901)"
           id="g6363">
          <path
             d="M 394.7,548.46236 L 399.65581,548.02042 L 399.7,542.05438 L 394.7,548.46236 z "
             style="fill:none;fill-rule:evenodd;stroke:#000000;stroke-width:0.14;stroke-linecap:butt;stroke-linejoin:miter;stroke-miterlimit:4;stroke-dasharray:none;stroke-opacity:1"
             id="path6365" />
          <path
             d="M 404.80486,548.46894 L 399.76067,548.027 L 399.80486,542.06096 L 404.80486,548.46894 z "
             style="fill:#000000;fill-opacity:1;fill-rule:evenodd;stroke:#000000;stroke-width:0.14;stroke-linecap:butt;stroke-linejoin:miter;stroke-miterlimit:4;stroke-dasharray:none;stroke-opacity:1"
             id="path6367" />
        </g>
        <g
           transform="matrix(0,-1,1,0,-229.8036,936.8154)"
           id="g6369">
          <path
             d="M 394.95,548.64986 L 399.65581,548.02042 L 399.7,542.05438 L 394.95,548.64986 z "
             style="fill:none;fill-rule:evenodd;stroke:#000000;stroke-width:0.14;stroke-linecap:butt;stroke-linejoin:miter;stroke-miterlimit:4;stroke-dasharray:none;stroke-opacity:1"
             id="path6371" />
          <path
             d="M 404.80486,548.46894 L 399.76067,548.027 L 399.80486,542.06096 L 404.80486,548.46894 z "
             style="fill:#000000;fill-opacity:1;fill-rule:evenodd;stroke:#000000;stroke-width:0.14;stroke-linecap:butt;stroke-linejoin:miter;stroke-miterlimit:4;stroke-dasharray:none;stroke-opacity:1"
             id="path6373" />
        </g>
      </g>
      <path
         d="M 325.51172,277.64573 L 358.70703,277.64573 L 358.70703,286.20433 L 337.92578,286.20433 L 337.92578,292.57542 L 357.20313,292.57542 L 357.20313,300.7512 L 337.92578,300.7512 L 337.92578,308.65355 L 359.30859,308.65355 L 359.30859,317.73167 L 325.51172,317.73167 L 325.51172,277.64573 z "
         transform="translate(79.83724,224.2814)"
         style="font-size:56px;font-family:Arial Black"
         id="flowRoot2798" />
      <path
         d="M 325.62109,277.64573 L 337.1875,277.64573 L 352.28125,299.82151 L 352.28125,277.64573 L 363.95703,277.64573 L 363.95703,317.73167 L 352.28125,317.73167 L 337.26953,295.71995 L 337.26953,317.73167 L 325.62109,317.73167 L 325.62109,277.64573 z "
         transform="translate(-83.95703,65.86333)"
         style="font-size:56px;font-family:Arial Black"
         id="flowRoot2790" />
      <path
         d="M 323.37891,304.46995 L 335.16406,303.73167 C 335.41926,305.64575 335.93879,307.10408 336.72266,308.10667 C 337.99868,309.72908 339.8216,310.54027 342.19141,310.54026 C 343.95961,310.54027 345.32224,310.12556 346.2793,309.29612 C 347.2363,308.46671 347.71482,307.50512 347.71484,306.41136 C 347.71482,305.37231 347.25909,304.44262 346.34766,303.6223 C 345.43617,302.802 343.32159,302.02726 340.00391,301.29808 C 334.5716,300.07674 330.69791,298.45435 328.38281,296.43089 C 326.04947,294.40748 324.88281,291.82805 324.88281,288.69261 C 324.88281,286.63274 325.47981,284.68678 326.67383,282.85472 C 327.86783,281.02272 329.6634,279.58262 332.06055,278.53441 C 334.45767,277.48627 337.74347,276.96218 341.91797,276.96214 C 347.04034,276.96218 350.94593,277.91465 353.63477,279.81956 C 356.32353,281.72455 357.92314,284.75514 358.43359,288.91136 L 346.75781,289.59495 C 346.44789,287.79029 345.7962,286.4778 344.80273,285.65745 C 343.80922,284.83717 342.43748,284.42702 340.6875,284.42698 C 339.24738,284.42702 338.16274,284.73236 337.43359,285.343 C 336.70441,285.95371 336.33983,286.69655 336.33984,287.57151 C 336.33983,288.20957 336.64061,288.78378 337.24219,289.29417 C 337.8255,289.82284 339.21092,290.31503 341.39844,290.77073 C 346.81247,291.93743 350.69073,293.11776 353.0332,294.31175 C 355.37562,295.50578 357.08004,296.9869 358.14648,298.75511 C 359.21285,300.52336 359.74606,302.50122 359.74609,304.6887 C 359.74606,307.25903 359.03512,309.62881 357.61328,311.79808 C 356.19137,313.96735 354.20439,315.61253 351.65234,316.73362 C 349.10023,317.85472 345.88279,318.41526 342,318.41526 C 335.18228,318.41526 330.46093,317.10277 327.83594,314.47776 C 325.21093,311.85277 323.72526,308.51684 323.37891,304.46995 L 323.37891,304.46995 z "
         transform="translate(-80.19434,368.4911)"
         style="font-size:56px;font-family:Arial Black"
         id="flowRoot1980" />
      <path
         d="M 323.43359,303.29417 C 323.43359,298.8645 324.92838,295.21412 327.91797,292.343 C 330.90754,289.47193 334.9453,288.03639 340.03125,288.03636 C 345.84633,288.03639 350.23955,289.72258 353.21094,293.09495 C 355.59892,295.81112 356.79293,299.15617 356.79297,303.13011 C 356.79293,307.59626 355.31182,311.25577 352.34961,314.10862 C 349.38734,316.96149 345.29034,318.38792 340.05859,318.38792 C 335.39191,318.38792 331.61848,317.20303 328.73828,314.83323 C 325.20182,311.89834 323.43359,308.05199 323.43359,303.29417 L 323.43359,303.29417 z M 334.58984,303.26683 C 334.58983,305.85538 335.11392,307.76944 336.16211,309.00901 C 337.21027,310.24861 338.52733,310.8684 340.11328,310.86839 C 341.71743,310.8684 343.03448,310.25772 344.06445,309.03636 C 345.09438,307.81501 345.60935,305.85538 345.60938,303.15745 C 345.60935,300.64184 345.08982,298.7688 344.05078,297.53831 C 343.0117,296.30786 341.72654,295.69263 340.19531,295.69261 C 338.5729,295.69263 337.23306,296.31698 336.17578,297.56566 C 335.11848,298.81437 334.58983,300.71476 334.58984,303.26683 L 334.58984,303.26683 z "
         transform="matrix(1.1604724,0,0,1.6290247,-301.21997,28.288088)"
         style="font-size:56px;font-family:Arial Black"
         id="flowRoot1988" />
    </g>
  </g>
</svg>
