<?xml version="1.0" encoding="UTF-8" standalone="no"?>
<!-- Created with Inkscape (http://www.inkscape.org/) -->
<!-- Copyright © 2008 by Silvio Grosso, under the terms of the GNU GPL version 2. -->
<svg
   xmlns:svg="http://www.w3.org/2000/svg"
   xmlns="http://www.w3.org/2000/svg"
   version="1.0"
   viewBox="0 0 450 500"
   width="450"
   height="500"
   id="svg2">
  <defs
     id="defs4" />
  <g
     id="layer1">
    <g
       transform="matrix(0.7610147,0,0,0.7418529,-2.8013926,-128.06592)"
       id="g2293">
      <path
         d="M 275.19412,366.68346 L 275.19412,336.68346 L 290.89409,326.68346 L 305.19412,336.68346 L 305.19412,366.68346 L 275.19412,366.68346 z "
         style="fill:#000000;fill-opacity:1;fill-rule:evenodd;stroke:#000000;stroke-width:1px;stroke-linecap:butt;stroke-linejoin:miter;stroke-opacity:1"
         id="path2780" />
      <path
         d="M 155.58314,526.74089 L 125.58314,526.74089 L 115.58314,511.04092 L 125.58314,496.74089 L 155.58314,496.74089 L 155.58314,526.74089 z "
         style="fill:#000000;fill-opacity:1;fill-rule:evenodd;stroke:#000000;stroke-width:1px;stroke-linecap:butt;stroke-linejoin:miter;stroke-opacity:1"
         id="path2782" />
      <path
         d="M 308.30616,644.35431 L 308.30616,674.35431 L 292.60619,684.35431 L 278.30616,674.35431 L 278.30616,644.35431 L 308.30616,644.35431 z "
         style="fill:#000000;fill-opacity:1;fill-rule:evenodd;stroke:#000000;stroke-width:1px;stroke-linecap:butt;stroke-linejoin:miter;stroke-opacity:1"
         id="path2786" />
      <path
         d="M 432.89731,489.92235 L 462.89731,489.92235 L 472.89731,505.62232 L 462.89731,519.92235 L 432.89731,519.92235 L 432.89731,489.92235 z "
         style="fill:#000000;fill-opacity:1;fill-rule:evenodd;stroke:#000000;stroke-width:1px;stroke-linecap:butt;stroke-linejoin:miter;stroke-opacity:1"
         id="path2788" />
      <path
         d="M 325.62109,277.64573 L 337.1875,277.64573 L 352.28125,299.82151 L 352.28125,277.64573 L 363.95703,277.64573 L 363.95703,317.73167 L 352.28125,317.73167 L 337.26953,295.71995 L 337.26953,317.73167 L 325.62109,317.73167 L 325.62109,277.64573 z "
         transform="translate(-54.80588,7.726692)"
         style="font-size:56px;font-family:Arial Black"
         id="flowRoot2790" />
      <path
         d="M 325.51172,277.64573 L 358.70703,277.64573 L 358.70703,286.20433 L 337.92578,286.20433 L 337.92578,292.57542 L 357.20313,292.57542 L 357.20313,300.7512 L 337.92578,300.7512 L 337.92578,308.65355 L 359.30859,308.65355 L 359.30859,317.73167 L 325.51172,317.73167 L 325.51172,277.64573 z "
         transform="translate(153.0974,210.0349)"
         style="font-size:56px;font-family:Arial Black"
         id="flowRoot2798" />
      <path
         d="M 432.34531 496.77829 A 129.29953 129.29953 0 1 1  173.74625,496.77829 A 129.29953 129.29953 0 1 1  432.34531 496.77829 z"
         transform="translate(-10,8.571429)"
         style="opacity:0.97000002;fill:none;fill-opacity:1;stroke:#000000;stroke-width:22.97900009;stroke-linejoin:round;stroke-miterlimit:0.89999998;stroke-dasharray:none;stroke-opacity:1"
         id="path2010" />
      <rect
         width="24.999969"
         height="59.184189"
         x="277.85718"
         y="478.17795"
         style="opacity:0.97000002;fill:#000000;fill-opacity:1;stroke:#000000;stroke-width:0;stroke-linecap:square;stroke-linejoin:miter;stroke-miterlimit:1.29999995;stroke-dasharray:none;stroke-opacity:1"
         id="rect3784" />
      <rect
         width="73.387772"
         height="119.3559"
         x="254.44786"
         y="448.84995"
         style="opacity:0.97000002;fill:none;fill-opacity:1;stroke:#000000;stroke-width:11.91275311;stroke-linecap:square;stroke-linejoin:miter;stroke-miterlimit:1.5;stroke-dasharray:none;stroke-opacity:1"
         id="rect5556" />
      <rect
         width="145.98987"
         height="183.63167"
         x="219.05891"
         y="417.39328"
         style="opacity:0.97000002;fill:none;fill-opacity:1;stroke:#000000;stroke-width:20.84075737;stroke-linecap:square;stroke-linejoin:miter;stroke-miterlimit:1.5;stroke-dasharray:none;stroke-opacity:1"
         id="rect6443" />
    </g>
  </g>
</svg>
