<?xml version="1.0" encoding="UTF-8" standalone="no"?>
<!-- Created with Inkscape (http://www.inkscape.org/) -->
<!-- Copyright © 2008 by Silvio Grosso, under the terms of the GNU GPL version 2. -->
<svg
   xmlns:svg="http://www.w3.org/2000/svg"
   xmlns="http://www.w3.org/2000/svg"
   version="1.0"
   viewBox="0 0 450 500"
   width="450"
   height="500"
   id="svg2">
  <defs
     id="defs4" />
  <g
     id="layer1">
    <g
       transform="matrix(0.8369185,0,0,0.8360407,-85.210991,-36.850036)"
       id="g2624">
      <g
         transform="matrix(0.791217,0,0,0.784707,193.4718,-11.49344)"
         id="g7487">
        <g
           transform="translate(-128.7692,0)"
           id="g4677">
          <g
             transform="matrix(0.971457,0,0,0.854229,7.969158,79.25222)"
             id="g2880">
            <g
               transform="matrix(1,0,0,1.094658,-7.576144,-116.9675)"
               id="g2816">
              <g
                 transform="matrix(0,0.977376,-1.108433,0,946.5542,176.5779)"
                 id="g2774">
                <g
                   id="g2764">
                  <path
                     d="M 361.26494,521.30569 L 361.26494,531.09724 L 372.73506,531.09724 C 372.17308,525.85757 370.20395,521.47039 361.26494,521.30569 z "
                     style="fill:none;fill-rule:evenodd;stroke:#000000;stroke-width:0.52988255;stroke-linecap:butt;stroke-linejoin:miter;stroke-miterlimit:4;stroke-dasharray:none;stroke-opacity:1"
                     id="path1872" />
                  <path
                     d="M 361.08929,521.27289 L 361.08929,531.06444 L 349.61917,531.06444 C 350.18115,525.82477 352.15028,521.43759 361.08929,521.27289 z "
                     style="fill:#000000;fill-opacity:1;fill-rule:evenodd;stroke:#000000;stroke-width:0.52988255;stroke-linecap:butt;stroke-linejoin:miter;stroke-miterlimit:4;stroke-dasharray:none;stroke-opacity:1"
                     id="path2762" />
                </g>
                <g
                   transform="matrix(-1,0,0,-1,722.3542,1062.297)"
                   id="g2768">
                  <path
                     d="M 361.26494,521.30569 L 361.26494,531.09724 L 372.73506,531.09724 C 372.17308,525.85757 370.20395,521.47039 361.26494,521.30569 z "
                     style="fill:none;fill-rule:evenodd;stroke:#000000;stroke-width:0.52988255;stroke-linecap:butt;stroke-linejoin:miter;stroke-miterlimit:4;stroke-dasharray:none;stroke-opacity:1"
                     id="path2770" />
                  <path
                     d="M 361.08929,521.27289 L 361.08929,531.06444 L 349.61917,531.06444 C 350.18115,525.82477 352.15028,521.43759 361.08929,521.27289 z "
                     style="fill:#000000;fill-opacity:1;fill-rule:evenodd;stroke:#000000;stroke-width:0.52988255;stroke-linecap:butt;stroke-linejoin:miter;stroke-miterlimit:4;stroke-dasharray:none;stroke-opacity:1"
                     id="path2772" />
                </g>
              </g>
              <g
                 transform="matrix(2.103961,0,0,2.23862,-402.8135,-659.013)"
                 id="g2788">
                <g
                   id="g2790">
                  <path
                     d="M 361.26494,521.30569 L 361.26494,531.09724 L 372.73506,531.09724 C 372.17308,525.85757 370.20395,521.47039 361.26494,521.30569 z "
                     style="fill:none;fill-rule:evenodd;stroke:#000000;stroke-width:0.52988255;stroke-linecap:butt;stroke-linejoin:miter;stroke-miterlimit:4;stroke-dasharray:none;stroke-opacity:1"
                     id="path2792" />
                  <path
                     d="M 361.08929,521.27289 L 361.08929,531.06444 L 349.61917,531.06444 C 350.18115,525.82477 352.15028,521.43759 361.08929,521.27289 z "
                     style="fill:#000000;fill-opacity:1;fill-rule:evenodd;stroke:#000000;stroke-width:0.52988255;stroke-linecap:butt;stroke-linejoin:miter;stroke-miterlimit:4;stroke-dasharray:none;stroke-opacity:1"
                     id="path2794" />
                </g>
                <g
                   transform="matrix(-1,0,0,-1,722.3542,1062.297)"
                   id="g2796">
                  <path
                     d="M 361.26494,521.30569 L 361.26494,531.09724 L 372.73506,531.09724 C 372.17308,525.85757 370.20395,521.47039 361.26494,521.30569 z "
                     style="fill:none;fill-rule:evenodd;stroke:#000000;stroke-width:0.52988255;stroke-linecap:butt;stroke-linejoin:miter;stroke-miterlimit:4;stroke-dasharray:none;stroke-opacity:1"
                     id="path2798" />
                  <path
                     d="M 361.08929,521.27289 L 361.08929,531.06444 L 349.61917,531.06444 C 350.18115,525.82477 352.15028,521.43759 361.08929,521.27289 z "
                     style="fill:#000000;fill-opacity:1;fill-rule:evenodd;stroke:#000000;stroke-width:0.52988255;stroke-linecap:butt;stroke-linejoin:miter;stroke-miterlimit:4;stroke-dasharray:none;stroke-opacity:1"
                     id="path2800" />
                </g>
              </g>
            </g>
            <g
               transform="matrix(0,-7.547046,6.042845,0,-2725.338,3604.531)"
               id="g2842">
              <path
                 d="M 427.36015,509.11223 L 416.50687,509.11223 L 416.50687,520.32285 C 422.3147,519.77359 427.17759,517.84901 427.36015,509.11223 z "
                 style="fill:none;fill-rule:evenodd;stroke:#000000;stroke-width:0.55152494;stroke-linecap:butt;stroke-linejoin:miter;stroke-miterlimit:4;stroke-dasharray:none;stroke-opacity:1"
                 id="path2806" />
              <path
                 d="M 427.27025,508.84857 L 416.41697,508.84857 L 416.41697,497.63795 C 422.22479,498.18721 427.08769,500.11179 427.27025,508.84857 z "
                 style="fill:#000000;fill-opacity:1;fill-rule:evenodd;stroke:#000000;stroke-width:0.55152494;stroke-linecap:butt;stroke-linejoin:miter;stroke-miterlimit:4;stroke-dasharray:none;stroke-opacity:1"
                 id="path2808" />
            </g>
            <g
               transform="matrix(0,7.547046,-6.042845,0,3425.287,-2683.494)"
               id="g2874">
              <path
                 d="M 427.36015,509.11223 L 416.50687,509.11223 L 416.50687,520.32285 C 422.3147,519.77359 427.17759,517.84901 427.36015,509.11223 z "
                 style="fill:none;fill-rule:evenodd;stroke:#000000;stroke-width:0.55152494;stroke-linecap:butt;stroke-linejoin:miter;stroke-miterlimit:4;stroke-dasharray:none;stroke-opacity:1"
                 id="path2876" />
              <path
                 d="M 427.27025,508.84857 L 416.41697,508.84857 L 416.41697,497.63795 C 422.22479,498.18721 427.08769,500.11179 427.27025,508.84857 z "
                 style="fill:#000000;fill-opacity:1;fill-rule:evenodd;stroke:#000000;stroke-width:0.55152494;stroke-linecap:butt;stroke-linejoin:miter;stroke-miterlimit:4;stroke-dasharray:none;stroke-opacity:1"
                 id="path2878" />
            </g>
          </g>
          <path
             d="M 264.65997 434.6539 A 75.00383 84.34774 0 1 1  114.65231,434.6539 A 75.00383 84.34774 0 1 1  264.65997 434.6539 z"
             transform="matrix(0.909272,0,0,0.889383,179.589,85.28945)"
             style="opacity:0.97000002;fill:none;fill-opacity:1;stroke:#000000;stroke-width:12.19096565;stroke-linecap:square;stroke-linejoin:miter;stroke-miterlimit:4;stroke-dasharray:none;stroke-opacity:1"
             id="path2903" />
        </g>
        <path
           d="M 321.73359 471.77701 A 98.742409 98.742409 0 1 1  124.24877,471.77701 A 98.742409 98.742409 0 1 1  321.73359 471.77701 z"
           style="opacity:0.97000002;fill:none;fill-opacity:1;stroke:#000000;stroke-width:10.9630003;stroke-linecap:square;stroke-linejoin:miter;stroke-miterlimit:4;stroke-dasharray:none;stroke-opacity:1"
           id="path4675" />
        <path
           d="M 415.17269 425.81506 A 18.940361 18.940361 0 1 1  377.29197,425.81506 A 18.940361 18.940361 0 1 1  415.17269 425.81506 z"
           transform="translate(-177.2818,48.9924)"
           style="opacity:0.97000002;fill:none;fill-opacity:1;stroke:#000000;stroke-width:10.9630003;stroke-linecap:square;stroke-linejoin:miter;stroke-miterlimit:4;stroke-dasharray:none;stroke-opacity:1"
           id="path4702" />
        <g
           transform="matrix(0.773465,-0.806212,0.773465,0.806212,-489.2498,310.4752)"
           id="g7363">
          <path
             d="M 360.24559,497.35523 L 354.57049,492.29557 L 360.24559,477.11659 L 360.24559,497.35523 z "
             style="fill:none;fill-rule:evenodd;stroke:#000000;stroke-width:0.414;stroke-linecap:butt;stroke-linejoin:miter;stroke-miterlimit:4;stroke-dasharray:none;stroke-opacity:1"
             id="path4704" />
          <path
             d="M 360.24538,497.74427 L 365.67544,492.52265 L 360.24538,476.85781 L 360.24538,497.74427 z "
             style="fill:#000000;fill-opacity:1;fill-rule:evenodd;stroke:#000000;stroke-width:0.30639601;stroke-linecap:butt;stroke-linejoin:miter;stroke-miterlimit:4;stroke-dasharray:none;stroke-opacity:1"
             id="path5591" />
        </g>
        <g
           transform="matrix(0,-1,1.370927,0,-525.4876,834.2622)"
           id="g7367">
          <path
             d="M 360.24559,497.35523 L 354.57049,492.29557 L 360.24559,477.11659 L 360.24559,497.35523 z "
             style="fill:none;fill-rule:evenodd;stroke:#000000;stroke-width:0.414;stroke-linecap:butt;stroke-linejoin:miter;stroke-miterlimit:4;stroke-dasharray:none;stroke-opacity:1"
             id="path7369" />
          <path
             d="M 360.24538,497.74427 L 365.67544,492.52265 L 360.24538,476.85781 L 360.24538,497.74427 z "
             style="fill:#000000;fill-opacity:1;fill-rule:evenodd;stroke:#000000;stroke-width:0.30639601;stroke-linecap:butt;stroke-linejoin:miter;stroke-miterlimit:4;stroke-dasharray:none;stroke-opacity:1"
             id="path7371" />
        </g>
        <g
           transform="matrix(-1,0,0,-1,576.7521,1043.131)"
           id="g7373">
          <path
             d="M 360.24559,497.35523 L 354.57049,492.29557 L 360.24559,477.11659 L 360.24559,497.35523 z "
             style="fill:none;fill-rule:evenodd;stroke:#000000;stroke-width:0.414;stroke-linecap:butt;stroke-linejoin:miter;stroke-miterlimit:4;stroke-dasharray:none;stroke-opacity:1"
             id="path7375" />
          <path
             d="M 360.24538,497.74427 L 365.67544,492.52265 L 360.24538,476.85781 L 360.24538,497.74427 z "
             style="fill:#000000;fill-opacity:1;fill-rule:evenodd;stroke:#000000;stroke-width:0.30639601;stroke-linecap:butt;stroke-linejoin:miter;stroke-miterlimit:4;stroke-dasharray:none;stroke-opacity:1"
             id="path7377" />
        </g>
        <g
           transform="matrix(0,1,-1.320327,0,946.7844,109.6182)"
           id="g7379">
          <path
             d="M 360.24559,497.35523 L 354.57049,492.29557 L 360.24559,477.11659 L 360.24559,497.35523 z "
             style="fill:none;fill-rule:evenodd;stroke:#000000;stroke-width:0.414;stroke-linecap:butt;stroke-linejoin:miter;stroke-miterlimit:4;stroke-dasharray:none;stroke-opacity:1"
             id="path7381" />
          <path
             d="M 360.24538,497.74427 L 365.67544,492.52265 L 360.24538,476.85781 L 360.24538,497.74427 z "
             style="fill:#000000;fill-opacity:1;fill-rule:evenodd;stroke:#000000;stroke-width:0.30639601;stroke-linecap:butt;stroke-linejoin:miter;stroke-miterlimit:4;stroke-dasharray:none;stroke-opacity:1"
             id="path7383" />
        </g>
        <g
           transform="matrix(-6.349602,0,0,7.893866,2509.173,-3511.318)"
           id="g7385">
          <path
             d="M 360.35808,491.65901 L 354.57049,492.29557 L 360.24559,477.11659 L 360.35808,491.65901 z "
             style="fill:none;fill-rule:evenodd;stroke:#000000;stroke-width:0.414;stroke-linecap:butt;stroke-linejoin:miter;stroke-miterlimit:4;stroke-dasharray:none;stroke-opacity:1"
             id="path7387" />
          <path
             d="M 360.35787,491.43225 L 365.67544,492.52265 L 360.24538,476.85781 L 360.35787,491.43225 z "
             style="fill:#000000;fill-opacity:1;fill-rule:evenodd;stroke:#000000;stroke-width:0.30639601;stroke-linecap:butt;stroke-linejoin:miter;stroke-miterlimit:4;stroke-dasharray:none;stroke-opacity:1"
             id="path7389" />
        </g>
        <g
           transform="matrix(0.806212,0.773465,-0.806212,0.773465,380.4122,-244.3374)"
           id="g7391">
          <path
             d="M 360.24559,497.35523 L 354.57049,492.29557 L 360.24559,477.11659 L 360.24559,497.35523 z "
             style="fill:none;fill-rule:evenodd;stroke:#000000;stroke-width:0.414;stroke-linecap:butt;stroke-linejoin:miter;stroke-miterlimit:4;stroke-dasharray:none;stroke-opacity:1"
             id="path7393" />
          <path
             d="M 360.24538,497.74427 L 365.67544,492.52265 L 360.24538,476.85781 L 360.24538,497.74427 z "
             style="fill:#000000;fill-opacity:1;fill-rule:evenodd;stroke:#000000;stroke-width:0.30639601;stroke-linecap:butt;stroke-linejoin:miter;stroke-miterlimit:4;stroke-dasharray:none;stroke-opacity:1"
             id="path7395" />
        </g>
        <g
           transform="matrix(-0.773465,0.806212,-0.773465,-0.806212,938.1283,630.2744)"
           id="g7397">
          <path
             d="M 360.24559,497.35523 L 354.57049,492.29557 L 360.24559,477.11659 L 360.24559,497.35523 z "
             style="fill:none;fill-rule:evenodd;stroke:#000000;stroke-width:0.414;stroke-linecap:butt;stroke-linejoin:miter;stroke-miterlimit:4;stroke-dasharray:none;stroke-opacity:1"
             id="path7399" />
          <path
             d="M 360.24538,497.74427 L 365.67544,492.52265 L 360.24538,476.85781 L 360.24538,497.74427 z "
             style="fill:#000000;fill-opacity:1;fill-rule:evenodd;stroke:#000000;stroke-width:0.30639601;stroke-linecap:butt;stroke-linejoin:miter;stroke-miterlimit:4;stroke-dasharray:none;stroke-opacity:1"
             id="path7401" />
        </g>
        <g
           transform="matrix(-0.806212,-0.773465,0.806212,-0.773465,61.40929,1183.452)"
           id="g7403">
          <path
             d="M 360.24559,497.35523 L 354.57049,492.29557 L 360.24559,477.11659 L 360.24559,497.35523 z "
             style="fill:none;fill-rule:evenodd;stroke:#000000;stroke-width:0.414;stroke-linecap:butt;stroke-linejoin:miter;stroke-miterlimit:4;stroke-dasharray:none;stroke-opacity:1"
             id="path7405" />
          <path
             d="M 360.24538,497.74427 L 365.67544,492.52265 L 360.24538,476.85781 L 360.24538,497.74427 z "
             style="fill:#000000;fill-opacity:1;fill-rule:evenodd;stroke:#000000;stroke-width:0.30639601;stroke-linecap:butt;stroke-linejoin:miter;stroke-miterlimit:4;stroke-dasharray:none;stroke-opacity:1"
             id="path7407" />
        </g>
        <g
           transform="translate(-138.8727,-100.1242)"
           id="g7409">
          <path
             d="M 360.24559,497.35523 L 354.57049,492.29557 L 360.24559,477.11659 L 360.24559,497.35523 z "
             style="fill:none;fill-rule:evenodd;stroke:#000000;stroke-width:0.414;stroke-linecap:butt;stroke-linejoin:miter;stroke-miterlimit:4;stroke-dasharray:none;stroke-opacity:1"
             id="path7411" />
          <path
             d="M 360.24538,497.74427 L 365.67544,492.52265 L 360.24538,476.85781 L 360.24538,497.74427 z "
             style="fill:#000000;fill-opacity:1;fill-rule:evenodd;stroke:#000000;stroke-width:0.30639601;stroke-linecap:butt;stroke-linejoin:miter;stroke-miterlimit:4;stroke-dasharray:none;stroke-opacity:1"
             id="path7413" />
        </g>
        <g
           transform="matrix(6.349602,0,0,-7.893866,-2068.875,4452.955)"
           id="g7415">
          <path
             d="M 360.35808,491.65901 L 354.57049,492.29557 L 360.24559,477.11659 L 360.35808,491.65901 z "
             style="fill:none;fill-rule:evenodd;stroke:#000000;stroke-width:0.414;stroke-linecap:butt;stroke-linejoin:miter;stroke-miterlimit:4;stroke-dasharray:none;stroke-opacity:1"
             id="path7417" />
          <path
             d="M 360.35787,491.43225 L 365.67544,492.52265 L 360.24538,476.85781 L 360.35787,491.43225 z "
             style="fill:#000000;fill-opacity:1;fill-rule:evenodd;stroke:#000000;stroke-width:0.30639601;stroke-linecap:butt;stroke-linejoin:miter;stroke-miterlimit:4;stroke-dasharray:none;stroke-opacity:1"
             id="path7419" />
        </g>
        <g
           transform="matrix(0,-6.349602,-7.893866,0,4204.025,2755.34)"
           id="g7421">
          <path
             d="M 360.35808,491.65901 L 354.57049,492.29557 L 360.24559,477.11659 L 360.35808,491.65901 z "
             style="fill:none;fill-rule:evenodd;stroke:#000000;stroke-width:0.414;stroke-linecap:butt;stroke-linejoin:miter;stroke-miterlimit:4;stroke-dasharray:none;stroke-opacity:1"
             id="path7423" />
          <path
             d="M 360.35787,491.43225 L 365.67544,492.52265 L 360.24538,476.85781 L 360.35787,491.43225 z "
             style="fill:#000000;fill-opacity:1;fill-rule:evenodd;stroke:#000000;stroke-width:0.30639601;stroke-linecap:butt;stroke-linejoin:miter;stroke-miterlimit:4;stroke-dasharray:none;stroke-opacity:1"
             id="path7425" />
        </g>
        <g
           transform="matrix(0,6.349602,7.893866,0,-3760.225,-1814.241)"
           id="g7427">
          <path
             d="M 360.35808,491.65901 L 354.57049,492.29557 L 360.24559,477.11659 L 360.35808,491.65901 z "
             style="fill:none;fill-rule:evenodd;stroke:#000000;stroke-width:0.414;stroke-linecap:butt;stroke-linejoin:miter;stroke-miterlimit:4;stroke-dasharray:none;stroke-opacity:1"
             id="path7429" />
          <path
             d="M 360.35787,491.43225 L 365.67544,492.52265 L 360.24538,476.85781 L 360.35787,491.43225 z "
             style="fill:#000000;fill-opacity:1;fill-rule:evenodd;stroke:#000000;stroke-width:0.30639601;stroke-linecap:butt;stroke-linejoin:miter;stroke-miterlimit:4;stroke-dasharray:none;stroke-opacity:1"
             id="path7431" />
        </g>
        <g
           transform="matrix(0,1,-1,0,697.4462,233.063)"
           id="g7459">
          <path
             d="M 305.70361,545.14042 L 280.24237,567.55227 L 341.6215,582.21057 L 305.70361,545.14042 z "
             style="fill:none;fill-rule:evenodd;stroke:#000000;stroke-width:1.88635445;stroke-linecap:butt;stroke-linejoin:miter;stroke-miterlimit:4;stroke-dasharray:none;stroke-opacity:1"
             id="path7447" />
          <path
             d="M 307.13089,545.75404 L 326.94823,520.3061 L 344.28179,583.86251 L 307.13089,545.75404 z "
             style="fill:#000000;fill-opacity:1;fill-rule:evenodd;stroke-width:1.43641043;stroke-linecap:butt;stroke-linejoin:miter;stroke-miterlimit:4;stroke-dasharray:none;stroke-opacity:1"
             id="path7449" />
        </g>
        <g
           transform="matrix(-1,0,0,-1,460.0686,944.3811)"
           id="g7469">
          <path
             d="M 305.70361,545.14042 L 280.24237,567.55227 L 341.6215,582.21057 L 305.70361,545.14042 z "
             style="fill:none;fill-rule:evenodd;stroke:#000000;stroke-width:1.88635445;stroke-linecap:butt;stroke-linejoin:miter;stroke-miterlimit:4;stroke-dasharray:none;stroke-opacity:1"
             id="path7471" />
          <path
             d="M 307.13089,545.75404 L 326.94823,520.3061 L 344.28179,583.86251 L 307.13089,545.75404 z "
             style="fill:#000000;fill-opacity:1;fill-rule:evenodd;stroke-width:1.43641043;stroke-linecap:butt;stroke-linejoin:miter;stroke-miterlimit:4;stroke-dasharray:none;stroke-opacity:1"
             id="path7473" />
        </g>
        <g
           transform="matrix(0,-1,1,0,-252.7986,704.8668)"
           id="g7475">
          <path
             d="M 305.70361,545.14042 L 280.24237,567.55227 L 341.6215,582.21057 L 305.70361,545.14042 z "
             style="fill:none;fill-rule:evenodd;stroke:#000000;stroke-width:1.88635445;stroke-linecap:butt;stroke-linejoin:miter;stroke-miterlimit:4;stroke-dasharray:none;stroke-opacity:1"
             id="path7477" />
          <path
             d="M 307.13089,545.75404 L 326.94823,520.3061 L 344.28179,583.86251 L 307.13089,545.75404 z "
             style="fill:#000000;fill-opacity:1;fill-rule:evenodd;stroke-width:1.43641043;stroke-linecap:butt;stroke-linejoin:miter;stroke-miterlimit:4;stroke-dasharray:none;stroke-opacity:1"
             id="path7479" />
        </g>
        <g
           transform="translate(-12.50478,-4.722123)"
           id="g7481">
          <path
             d="M 305.70361,545.14042 L 280.24237,567.55227 L 341.6215,582.21057 L 305.70361,545.14042 z "
             style="fill:none;fill-rule:evenodd;stroke:#000000;stroke-width:1.88635445;stroke-linecap:butt;stroke-linejoin:miter;stroke-miterlimit:4;stroke-dasharray:none;stroke-opacity:1"
             id="path7483" />
          <path
             d="M 307.13089,545.75404 L 326.94823,520.3061 L 344.28179,583.86251 L 307.13089,545.75404 z "
             style="fill:#000000;fill-opacity:1;fill-rule:evenodd;stroke-width:1.43641043;stroke-linecap:butt;stroke-linejoin:miter;stroke-miterlimit:4;stroke-dasharray:none;stroke-opacity:1"
             id="path7485" />
        </g>
      </g>
      <path
         d="M 325.62109,277.64573 L 337.1875,277.64573 L 352.28125,299.82151 L 352.28125,277.64573 L 363.95703,277.64573 L 363.95703,317.73167 L 352.28125,317.73167 L 337.26953,295.71995 L 337.26953,317.73167 L 325.62109,317.73167 L 325.62109,277.64573 z "
         transform="translate(24.02516,-131.2246)"
         style="font-size:56px;font-family:Arial Black"
         id="flowRoot2790" />
      <path
         d="M 325.51172,277.64573 L 358.70703,277.64573 L 358.70703,286.20433 L 337.92578,286.20433 L 337.92578,292.57542 L 357.20313,292.57542 L 357.20313,300.7512 L 337.92578,300.7512 L 337.92578,308.65355 L 359.30859,308.65355 L 359.30859,317.73167 L 325.51172,317.73167 L 325.51172,277.64573 z "
         transform="translate(221.9285,59.65504)"
         style="font-size:56px;font-family:Arial Black"
         id="flowRoot2798" />
    </g>
  </g>
</svg>
