<?xml version="1.0" encoding="UTF-8" standalone="no"?>
<!-- Created with Inkscape (http://www.inkscape.org/) -->
<svg
   xmlns:dc="http://purl.org/dc/elements/1.1/"
   xmlns:cc="http://web.resource.org/cc/"
   xmlns:rdf="http://www.w3.org/1999/02/22-rdf-syntax-ns#"
   xmlns:svg="http://www.w3.org/2000/svg"
   xmlns="http://www.w3.org/2000/svg"
   xmlns:sodipodi="http://inkscape.sourceforge.net/DTD/sodipodi-0.dtd"
   xmlns:inkscape="http://www.inkscape.org/namespaces/inkscape"
   version="1.0"
   sodipodi:docname="nordRosas.svg"
   sodipodi:docbase="D:\Download\datos\PRUEBAS\northimages"
   viewBox="0 0 450 500"
   height="500"
   width="450"
   inkscape:version="0.40+cvs"
   sodipodi:version="0.32"
   id="svg2">
  <metadata
     id="metadata7">
    <rdf:RDF
       id="RDF4">
      <cc:Work
         id="Work6"
         rdf:about="">
        <dc:format
           id="format8">image/svg+xml</dc:format>
        <dc:type
           id="type10"
           rdf:resource="http://purl.org/dc/dcmitype/StillImage" />
      </cc:Work>
    </rdf:RDF>
  </metadata>
  <defs
     id="defs5" />
  <sodipodi:namedview
     inkscape:document-units="cm"
     inkscape:current-layer="Extras"
     inkscape:window-y="110"
     inkscape:window-x="110"
     inkscape:cy="301.29578"
     inkscape:cx="234.01902"
     inkscape:zoom="0.78504222"
     id="base"
     pagecolor="#ffffff"
     bordercolor="#666666"
     borderopacity="1.0"
     inkscape:pageopacity="0.0"
     inkscape:pageshadow="2"
     inkscape:window-width="769"
     inkscape:window-height="544" />
  <g
     transform="matrix(1.135655,0,0,1.075187,44.53582,78.01662)"
     id="Extras"
     style="fill-rule:nonzero;stroke:#000000;stroke-miterlimit:4">
    <path
       style="stroke:none"
       d="M 8.9172838,200.65588 L 135.55805,170.74063 L 160.94769,20.875289 L 186.82912,170.74063 L 313.90022,201.23396 L 186.82912,231.07696 L 160.94769,380.43648 L 135.55805,231.07696 L 8.9172838,200.65588 z M 160.94769,201.23396 L 20.228887,201.23396 L 137.40234,229.415 L 160.94769,201.23396 z M 160.94769,34.098699 L 137.40234,171.89677 L 160.94769,201.23396 L 160.94769,34.098699 z M 160.94769,201.23396 L 160.94769,366.63499 L 184.98484,229.415 L 160.94769,201.23396 L 160.94769,201.23396 z M 184.98484,171.89677 L 160.94769,201.23396 L 302.15829,201.23396 L 184.98484,171.89677 z M 133.22196,-60.994251 L 133.22196,-62.656211 L 145.88604,-62.656211 L 178.83724,-16.771691 L 178.83724,-52.684451 L 178.83724,-54.057371 L 178.71428,-55.285781 L 178.59133,-56.369661 L 178.4069,-57.381291 L 178.09952,-58.320661 L 177.79214,-58.970991 L 177.42327,-59.549071 L 176.99294,-59.910361 L 176.68557,-60.271651 L 176.31671,-60.632951 L 175.94786,-60.921991 L 175.45605,-61.138761 L 174.84128,-61.355541 L 174.22653,-61.427801 L 173.4888,-61.572321 L 172.75111,-61.572321 L 172.2593,-61.572321 L 172.2593,-62.656211 L 189.2267,-62.656211 L 189.2267,-61.572321 L 187.81275,-61.572321 L 186.8906,-61.500061 L 186.02994,-61.427801 L 185.29223,-61.283281 L 184.61599,-60.994251 L 184.00122,-60.705211 L 183.44793,-60.343921 L 183.0176,-59.838101 L 182.58726,-59.332291 L 182.58726,-2.8979511 L 181.17332,-2.8979511 L 146.86966,-49.360531 L 146.86966,-13.953581 L 146.86966,-12.291631 L 146.86966,-10.774181 L 146.93114,-9.5457811 L 146.93114,-8.4618911 L 147.05409,-7.5947811 L 147.11556,-6.9444511 L 147.17704,-6.5109011 L 147.3,-6.2218611 L 148.09917,-5.4992711 L 149.0828,-4.9934611 L 150.25084,-4.7044211 L 151.54183,-4.5599011 L 153.87794,-4.5599011 L 153.87794,-3.4760211 L 135.98838,-3.4760211 L 135.98838,-4.5599011 L 137.40234,-4.5599011 L 138.32448,-4.6321711 L 139.12367,-4.7766811 L 139.86138,-5.0657111 L 140.47615,-5.4270111 L 141.58271,-6.1496011 L 142.62781,-6.7999311 L 142.68928,-7.1612311 L 142.81224,-7.6670411 L 142.87371,-8.3173711 L 142.93519,-9.1122211 L 142.99666,-10.123851 L 143.05815,-11.280001 L 143.05815,-12.508411 L 143.05815,-13.953581 L 143.05815,-54.924491 L 142.68928,-54.996741 L 142.3819,-55.213521 L 142.19748,-55.430301 L 142.13599,-55.502551 L 141.09091,-56.514181 L 140.16877,-57.309031 L 139.554,-58.031621 L 139.06219,-58.537441 L 138.63186,-58.898731 L 137.95563,-59.260031 L 137.09496,-59.621321 L 135.98838,-59.910361 L 135.68102,-60.416171 L 135.06625,-60.705211 L 134.26706,-60.921991 L 133.22196,-60.994251 L 133.22196,-60.994251 z "
       id="path1336" />
  </g>
</svg>
