<?xml version="1.0" encoding="UTF-8" standalone="no"?>
<!-- Created with Inkscape (http://www.inkscape.org/) -->
<svg
   xmlns:dc="http://purl.org/dc/elements/1.1/"
   xmlns:cc="http://web.resource.org/cc/"
   xmlns:rdf="http://www.w3.org/1999/02/22-rdf-syntax-ns#"
   xmlns:svg="http://www.w3.org/2000/svg"
   xmlns="http://www.w3.org/2000/svg"
   xmlns:sodipodi="http://inkscape.sourceforge.net/DTD/sodipodi-0.dtd"
   xmlns:inkscape="http://www.inkscape.org/namespaces/inkscape"
   sodipodi:docname="norte1-1.svg"
   sodipodi:docbase="C:\Documents and Settings\fjp\Mis documentos"
   height="450"
   width="500"
   viewBox="0 0 450 500"
   inkscape:version="0.40+cvs"
   sodipodi:version="0.32"
   id="svg1339">
  <metadata
     id="metadata1344">
    <rdf:RDF
       id="RDF8804">
      <cc:Work
         id="Work8806"
         rdf:about="">
        <dc:format
           id="format8808">image/svg+xml</dc:format>
        <dc:type
           id="type8810"
           rdf:resource="http://purl.org/dc/dcmitype/StillImage" />
      </cc:Work>
    </rdf:RDF>
  </metadata>
  <defs
     id="defs1342" />
  <sodipodi:namedview
     id="base"
     pagecolor="#ffffff"
     bordercolor="#666666"
     borderopacity="1.0"
     inkscape:pageopacity="0.0"
     inkscape:pageshadow="2"
     inkscape:window-width="1152"
     inkscape:window-height="804"
     inkscape:zoom="0.72400000"
     inkscape:cx="224.99999"
     inkscape:cy="250.00000"
     inkscape:window-x="-4"
     inkscape:window-y="-4" />
  <path
     id="path1356"
     d="M 214.88545,437.72425 C 212.75786,431.08672 215.47026,422.11860 213.21451,416.40309 C 181.12670,410.06229 151.92169,389.79914 136.70726,360.54831 C 128.94673,346.78211 126.60150,331.03383 124.13579,315.66262 C 116.47407,315.65908 108.42639,317.96290 101.04732,315.54768 C 101.97606,309.82682 116.91469,312.03676 124.21249,310.80944 C 127.26952,304.25407 125.94995,291.15534 130.37336,283.01009 C 142.40713,243.65111 179.01975,213.44799 220.22853,210.22205 C 227.27815,211.05945 223.51488,202.04956 224.82385,197.65895 C 225.82517,185.21373 225.00388,172.41129 228.03982,160.25779 C 234.56557,165.95822 231.41268,185.92371 233.31618,197.17910 C 231.20477,206.85221 234.04559,211.80439 243.68690,211.14406 C 288.81728,217.32843 326.87539,255.84101 332.19983,301.11923 C 331.74224,307.84331 333.06572,312.59304 340.75677,310.75680 C 347.05882,310.11476 366.75864,312.79264 351.30865,315.74116 C 340.47876,314.83218 329.64713,315.11070 331.58656,328.92145 C 325.32027,371.42064 290.44841,407.58476 248.24101,415.50578 C 240.48442,415.40763 245.52046,425.09912 244.01033,429.84306 C 243.80991,450.55682 233.52535,422.61133 228.19970,421.19537 C 223.53165,424.67092 220.82019,439.02832 214.88545,437.72425 z M 226.50850,366.17145 C 226.26374,349.42917 226.97561,332.61323 225.56286,315.92145 C 221.56086,328.85653 223.66293,344.08863 222.12452,357.89264 C 220.86653,381.72957 220.57496,405.64527 218.43711,429.42145 C 221.81116,422.99802 228.14560,417.41683 226.47801,409.55901 C 226.48818,395.09649 226.49834,380.63397 226.50850,366.17145 z M 236.50762,372.42145 C 235.57213,353.67078 234.69950,334.91647 233.65739,316.17145 C 229.72620,327.91725 232.54651,345.91733 231.54786,360.01556 C 231.53914,378.68039 231.54598,397.34522 231.54381,416.01004 C 234.47984,420.46088 241.08478,435.61370 238.83189,421.75245 C 238.10436,405.30661 237.30692,388.86392 236.50762,372.42145 z M 196.54381,406.92145 C 190.13941,403.54795 193.70619,408.96653 197.54381,407.72926 L 196.54381,406.92145 z M 214.34021,406.81064 C 197.18082,400.93543 178.91092,395.66543 165.74611,382.23730 C 151.48952,369.24071 142.39102,351.60424 136.95931,333.30112 C 142.62078,366.30101 169.02286,394.38454 200.88674,404.16535 C 204.52799,404.70171 212.46005,408.95188 214.34021,406.81064 z M 269.71871,399.07999 C 285.94403,391.12367 301.34605,378.70796 309.28185,362.32615 C 294.80985,383.93113 272.38212,400.84284 246.29381,405.33609 C 234.14200,411.41649 268.94924,400.56565 269.71871,399.07999 z M 270.53221,404.36710 C 298.82017,391.30310 321.28532,364.14134 326.35093,333.21559 C 317.91997,362.56167 298.87243,390.36777 270.14405,402.99536 C 263.64923,405.62261 258.25920,409.78235 268.41261,405.25079 L 270.53220,404.36711 L 270.53221,404.36710 z M 187.73131,403.23834 C 181.58248,402.23525 189.58892,405.17286 187.73131,403.23834 z M 215.54381,398.36908 C 216.61079,370.87587 217.80920,343.38115 219.55548,315.92145 C 192.88493,315.92145 166.21437,315.92145 139.54381,315.92145 C 140.10955,354.67301 168.40595,391.73676 206.77370,399.95978 C 209.70984,399.79365 216.72754,405.05207 215.54381,398.36908 z M 251.75508,399.98398 C 286.59441,392.10303 313.47523,360.71503 317.68454,325.49380 C 322.87232,314.83802 314.76976,315.30058 307.39234,315.92145 C 284.43895,315.92145 261.48555,315.92145 238.53215,315.92145 C 240.55399,344.54854 241.14135,373.34802 243.00508,401.92145 C 245.93933,401.35708 248.84306,400.64988 251.75508,399.98398 z M 170.04381,392.74634 C 151.69260,377.54951 137.77947,356.90266 131.78911,333.74521 C 135.35027,357.98203 151.00913,379.38884 170.04297,394.14511 C 173.76155,397.58668 171.41958,392.01937 170.04381,392.74634 z M 321.32582,332.92145 C 320.39316,328.31421 318.83234,346.56829 321.10379,335.42145 L 321.32582,332.92145 L 321.32582,332.92145 z M 131.19975,327.65242 C 129.99315,325.40955 131.76726,337.13309 131.19975,327.65242 z M 136.19975,326.65242 C 134.99315,324.40955 136.76726,336.13309 136.19975,326.65242 z M 322.19975,325.65242 C 320.99315,323.40955 322.76726,335.13309 322.19975,325.65242 z M 135.19975,320.65242 C 133.99315,318.40955 135.76726,330.13309 135.19975,320.65242 z M 323.19975,319.65242 C 321.99315,317.40955 323.76726,329.13309 323.19975,319.65242 z M 219.95221,301.17145 C 221.34761,275.57500 222.74116,249.96334 223.29029,224.33460 C 188.84795,226.79936 156.05253,249.51154 144.83961,282.76230 C 143.96736,290.08065 134.60628,308.77291 143.05029,310.92145 C 168.47621,310.92145 193.90214,310.92145 219.32807,310.92145 C 219.53611,307.67145 219.74416,304.42145 219.95221,301.17145 z M 226.54381,293.25478 C 226.71995,286.94598 226.28520,267.64838 225.56593,283.97272 C 225.70486,291.56490 223.39703,306.20257 225.94752,309.81751 C 226.62077,304.32675 226.48720,298.77541 226.54381,293.25478 z M 232.97130,293.67145 C 232.88721,288.01276 231.72673,267.55339 231.60677,283.46633 C 232.03909,291.36383 230.34042,305.72613 233.03779,309.90260 C 233.51175,304.50516 233.12375,299.07530 232.97130,293.67145 z M 317.93279,304.67145 C 314.96374,278.45975 301.76410,252.52090 278.32198,239.05353 C 265.19666,230.99004 250.15431,225.62301 234.79733,224.33460 C 235.49445,253.21619 236.95442,282.08642 238.75954,310.92145 C 265.34407,310.92145 291.92861,310.92145 318.51314,310.92145 C 318.31969,308.83812 318.12624,306.75478 317.93279,304.67145 z M 328.19975,306.65242 C 326.99315,304.40955 328.76726,316.13309 328.19975,306.65242 z M 320.13701,288.48621 C 319.26884,280.60201 308.49530,261.70133 316.02271,279.87188 C 318.16392,286.86868 324.67590,308.84729 320.63998,290.43180 L 320.13702,288.48621 L 320.13701,288.48621 z M 140.77867,270.40303 C 154.43749,242.69574 181.54873,223.38661 211.19465,216.14346 C 184.94524,219.72739 160.62350,235.54737 146.42573,258.09809 C 138.35360,270.19128 132.72766,284.01127 130.63707,298.42145 C 134.20626,289.20084 136.04734,279.23786 140.77867,270.40303 z M 325.14388,286.51198 C 320.52829,269.64768 311.22496,253.46293 298.16055,241.92145 C 310.54982,257.05746 321.67065,274.46889 325.60866,294.13016 C 328.85323,304.94972 326.32550,289.23722 325.14387,286.51198 L 325.14388,286.51198 z M 151.31420,261.66532 C 151.90808,254.52712 134.16368,290.90442 144.28738,274.20334 C 146.50925,269.96604 148.57810,265.60348 151.31420,261.66532 z M 308.72713,261.70478 C 304.66261,260.34254 311.33613,266.03280 308.72713,261.70478 z M 305.72713,257.70478 C 301.66261,256.34254 308.33613,262.03280 305.72713,257.70478 z M 155.54381,255.80342 C 152.77539,254.07464 153.93973,260.36953 155.54381,255.80342 z M 301.06539,251.53864 C 288.40949,236.01705 269.89780,226.33782 250.60622,221.94118 C 269.76136,229.30623 289.19241,238.84797 302.36338,255.18903 C 305.26308,257.38868 300.27441,250.03820 301.06539,251.53864 z M 165.54381,245.42145 C 166.84979,240.46923 159.74350,250.38524 165.54381,245.42145 z M 172.97936,239.03932 C 180.21044,231.32341 205.31080,224.06276 204.37415,222.43664 C 193.85698,225.96658 174.15260,233.29178 171.19434,240.43485 L 172.97936,239.03933 L 172.97936,239.03932 z M 293.04381,236.92145 C 284.31836,229.65053 296.72885,243.51300 293.04381,236.92145 z M 282.54381,229.50752 C 276.16599,224.43700 259.26642,217.76980 256.36874,218.97776 C 265.50895,221.21519 273.94032,227.32187 282.54381,229.50752 z M 204.98494,150.48666 C 207.08463,147.90174 213.06669,143.66931 210.52626,136.31640 C 210.35999,124.95176 209.75611,113.60083 209.24758,102.24811 C 196.77457,98.603110 214.47473,96.371766 218.71896,98.635492 C 226.85357,110.93469 235.17606,123.10784 243.54381,135.24922 C 243.54381,124.28612 243.54381,113.32302 243.54381,102.35993 C 225.32349,96.879585 265.75783,96.142060 249.22758,102.10183 C 247.63547,106.96335 248.99712,113.86713 248.54381,119.51603 C 248.07619,129.86304 249.91008,140.85093 246.46025,150.65182 C 236.53817,141.15539 229.25186,126.64450 220.42894,115.14456 C 210.80073,97.529067 215.83546,124.19020 215.28757,132.31147 C 216.42224,136.97266 213.74676,144.34830 217.41427,147.20502 C 230.05672,151.23338 206.89795,153.55264 204.98494,150.48666 z "
     style="opacity:0.80000007;fill:none;stroke:#000002;stroke-width:0.80000001;stroke-miterlimit:3.5000000;stroke-opacity:1.0000000" />
  <path
     id="path1354"
     d="M 215.09513,437.00449 C 218.21784,424.18979 217.11732,411.89170 200.96344,412.12321 C 186.62494,407.79513 172.90457,400.24479 161.87624,390.25568 C 177.79152,400.62161 194.79437,410.65185 214.03528,413.04009 C 209.33757,406.52665 187.59180,405.23715 178.15287,396.82407 C 172.45808,393.97104 160.35642,382.33787 172.59188,391.45844 C 185.01295,400.01385 199.64625,406.22461 214.62195,407.95790 C 209.59118,399.79916 189.34274,400.64283 180.22812,391.86605 C 174.64622,389.11660 162.30746,377.33495 174.47770,386.37058 C 186.33540,394.96178 200.62389,400.54090 215.12822,402.21267 C 219.29041,390.32092 217.64668,375.51941 219.08896,362.46537 C 219.64174,346.71613 220.98419,330.91403 220.24231,315.17145 C 194.48962,312.82661 168.38674,313.73742 142.53322,314.68067 C 131.71220,320.96639 144.36707,342.27468 147.43803,352.96532 C 150.17409,357.80259 160.59370,376.84843 151.70670,363.77417 C 141.35590,348.27059 136.43233,329.21197 136.18556,310.69859 C 137.86776,295.43472 140.72657,279.80111 149.60420,266.82214 C 151.75733,261.76136 166.73140,243.71831 157.28361,257.61029 C 146.28249,273.48803 137.49499,292.71333 139.04381,312.42145 C 165.34570,312.39503 191.66936,313.29075 217.95423,312.28305 C 224.98415,302.54125 221.00959,284.53782 223.23430,271.50815 C 223.81864,255.53147 225.13791,239.51338 224.55999,223.53763 C 209.12532,222.82159 193.77619,230.07535 180.29517,237.15421 C 166.57632,243.86320 188.69946,229.27909 193.58137,228.64339 C 202.88604,223.27065 217.00674,224.49058 224.25252,218.29682 C 205.39466,218.36261 188.08715,226.98133 171.95040,235.92145 C 179.74559,227.96597 193.91405,222.66868 205.59673,219.35976 C 211.95161,218.87735 234.55323,212.49332 216.37815,213.75653 C 199.46338,215.82609 183.91075,222.98678 169.04972,230.92145 C 177.17699,222.75028 192.55196,217.52173 204.85712,214.30369 C 217.31917,213.05119 231.50001,210.83444 226.76043,194.39277 C 227.23897,183.06443 226.82908,171.57668 229.15480,160.42145 C 232.34549,176.70838 229.56673,193.74162 232.97365,209.86323 C 250.25847,214.15680 268.69928,216.48719 283.73661,227.01058 C 296.36914,236.26800 273.32018,222.53793 269.48322,221.41033 C 258.51727,217.71579 243.64565,211.73673 233.72362,214.48358 C 247.05658,219.15381 261.93344,220.49897 274.69968,227.53279 C 280.76402,229.28402 292.85501,238.99156 279.59987,231.93602 C 266.00479,225.28733 251.48802,219.15043 236.23609,218.15869 C 233.03931,223.69394 254.65710,222.51243 259.83939,227.23866 C 266.35559,230.14274 281.42204,234.96216 282.17541,239.49968 C 266.98796,231.85273 251.01550,222.89515 233.52763,223.53763 C 233.48921,252.91450 234.93258,282.44038 237.76229,311.68268 C 261.90676,313.93445 286.37495,312.20752 310.66369,312.47602 C 319.57031,314.99807 321.09531,308.41275 318.71330,300.66661 C 315.64158,285.39706 310.15522,270.42064 301.82315,257.30877 C 312.61383,268.44733 317.00964,284.81351 320.36582,299.77289 C 323.79410,317.35128 319.99542,335.67950 312.92414,351.94536 C 311.01683,358.27283 296.56345,378.64221 305.98238,361.78303 C 314.26897,347.86175 319.80730,331.49045 319.41732,315.26904 C 293.65770,312.91568 267.56099,313.70823 241.69767,314.55188 C 231.99575,320.78960 240.44498,341.39663 238.63908,353.36432 C 239.66278,369.79020 239.82072,386.36959 242.21351,402.64735 C 259.85829,401.02684 275.91414,392.23129 290.13093,382.17524 C 278.44728,393.85363 262.52355,400.90790 246.41196,404.37408 C 236.00076,412.33212 260.64949,404.27739 264.86054,402.15417 C 273.54360,400.35213 290.72735,386.41463 291.22638,388.18406 C 277.81885,400.09766 260.70313,406.48371 243.62472,411.02263 C 250.07562,415.14738 269.77153,405.97061 279.54301,400.96972 C 285.58223,397.26390 302.95497,385.11469 289.55450,395.90870 C 276.35413,406.99738 259.48730,411.33723 243.45005,416.40101 C 239.86250,420.41742 246.34158,447.62733 237.65407,431.67819 C 234.34439,424.97443 228.07479,413.13439 223.77892,425.90833 C 220.42151,427.59860 219.70920,440.05247 215.09513,437.00449 z M 223.54381,423.15918 C 226.55130,418.70001 229.14458,414.12791 228.08209,408.55912 C 227.98832,378.08831 229.10105,347.58028 227.85052,317.13780 C 218.81924,311.97080 222.79599,338.58723 220.92233,346.79939 C 219.36311,374.62830 218.90777,402.55278 217.43020,430.34562 C 219.71406,432.18123 222.05847,424.53575 223.54381,423.15918 z M 240.66945,429.92145 C 238.43923,392.47750 238.82020,354.84721 235.05185,317.49729 C 227.06040,309.20315 230.43799,333.41015 229.66882,339.39125 C 229.72226,364.73493 229.91727,390.07806 230.04381,415.42145 C 233.38029,419.80174 235.94892,429.32792 240.66945,429.92145 z M 227.43382,311.55397 C 229.16346,287.65085 228.35235,263.53077 227.55131,239.57629 C 225.88579,233.85218 225.64445,252.22920 225.13365,256.56756 C 224.36850,274.88820 222.76244,293.29227 223.69679,311.60578 C 224.52856,313.22872 226.62268,313.13773 227.43382,311.55397 z M 234.39083,311.60578 C 235.18267,287.62186 233.41404,263.51870 231.67580,239.58180 C 229.79197,233.81248 230.26229,252.21306 229.92646,256.53480 C 229.87882,274.86066 229.00468,293.30096 230.65380,311.55398 C 231.46494,313.13774 233.55907,313.22871 234.39083,311.60578 z M 154.54381,383.42145 C 151.55674,376.76275 159.52072,387.56038 154.54381,383.42145 z M 301.54381,384.16635 C 305.05315,376.89061 305.69366,384.98618 301.54381,384.16635 z M 297.54381,381.16635 C 301.05315,373.89061 301.69366,381.98618 297.54381,381.16635 z M 157.54381,379.42145 C 154.55674,372.76275 162.52072,383.56038 157.54381,379.42145 z M 161.54381,376.42145 C 158.55674,369.76275 166.52072,380.56038 161.54381,376.42145 z M 294.54381,377.16635 C 298.05315,369.89061 298.69366,377.98618 294.54381,377.16635 z M 142.02390,367.43454 C 131.22697,352.30707 128.51163,333.74665 125.55560,315.92145 C 119.95905,312.72363 92.593067,315.97859 112.93441,313.34360 C 132.52725,317.56546 125.69263,294.23889 131.21868,283.02056 C 135.90798,268.69081 144.13281,255.29983 154.25773,244.30203 C 141.35441,262.65370 129.75553,283.07320 128.62711,306.08347 C 126.41348,329.72842 133.78270,353.41631 146.99080,372.91988 C 151.18543,381.03473 142.68131,368.63228 142.02390,367.43454 z M 309.54381,375.51358 C 328.57066,348.06205 336.15711,311.59458 323.96707,279.80036 C 319.98257,267.06583 311.92533,256.34734 304.82989,245.30203 C 321.02132,262.07989 330.25122,284.62057 331.57684,307.83067 C 334.08891,316.93885 347.26817,311.82503 354.85049,313.31096 C 358.73728,313.46311 343.34970,313.58483 340.28190,313.88215 C 324.15610,314.76682 333.16581,339.65575 324.69008,349.93522 C 321.11243,358.66153 316.13036,370.06597 309.54381,375.51358 z M 148.33209,367.75434 C 126.36789,336.82626 126.20654,292.20166 147.49431,260.92145 C 151.41409,259.17800 139.45939,276.64664 139.13859,281.80716 C 129.56220,306.06051 131.59893,333.76510 143.73112,356.71038 C 145.24319,359.40469 158.17364,382.27864 148.33209,367.75434 z M 305.54381,372.47260 C 319.12346,349.47322 330.24346,322.08562 322.72391,295.10024 C 319.14751,278.01450 310.93781,262.34234 300.79760,248.33433 C 329.08843,277.52017 334.49492,325.86696 313.63563,360.86741 C 311.34379,364.12572 308.74267,371.67716 305.54381,372.47260 z M 150.54381,257.16634 C 154.05314,249.89063 154.69367,257.98618 150.54381,257.16634 z M 298.54381,254.42145 C 295.55675,247.76273 303.52072,258.56039 298.54381,254.42145 z M 154.54381,252.16634 C 158.05314,244.89063 158.69367,252.98618 154.54381,252.16634 z M 163.54381,248.42145 C 170.12241,242.69982 161.77132,253.90549 163.54381,248.42145 z M 292.54381,248.42145 C 291.23784,243.46923 298.34412,253.38524 292.54381,248.42145 z M 163.54381,242.42145 C 170.12241,236.69982 161.77132,247.90549 163.54381,242.42145 z M 170.54381,242.42145 C 177.12241,236.69982 168.77132,247.90549 170.54381,242.42145 z M 285.54381,242.42145 C 284.23784,237.46923 291.34412,247.38524 285.54381,242.42145 z M 291.54381,240.42145 C 290.23784,235.46923 297.34412,245.38524 291.54381,240.42145 z M 298.54381,240.42145 C 297.23784,235.46923 304.34412,245.38524 298.54381,240.42145 z M 160.54381,237.42145 C 167.12241,231.69982 158.77132,242.90549 160.54381,237.42145 z M 290.54381,233.42145 C 289.23784,228.46923 296.34412,238.38524 290.54381,233.42145 z M 206.04643,149.92570 C 217.60177,143.18991 210.18058,126.56925 211.57123,115.07325 C 215.78125,105.52299 198.29464,95.500568 215.08222,98.128818 C 225.18238,106.58244 231.03337,120.42689 239.28821,131.12544 C 248.25453,146.36022 244.83656,116.95796 245.42984,111.24008 C 249.32131,103.54529 232.08384,96.638525 247.32631,98.004147 C 257.07367,98.045944 241.62783,106.21452 246.57104,113.48504 C 245.13987,124.35601 249.88886,141.79627 244.49698,148.77413 C 234.37201,134.23962 225.07506,119.03354 214.57758,104.78491 C 212.33275,117.70555 210.80518,135.97942 217.07622,147.75426 C 224.69469,151.81741 207.25131,151.33238 206.04643,149.92570 z "
     style="opacity:0.80000007;fill:none;stroke:#000002;stroke-width:0.80000001;stroke-miterlimit:3.5000000;stroke-opacity:1.0000000" />
  <path
     id="path1352"
     d="M 215.54381,434.92145 C 219.72952,427.57501 217.59542,441.62460 215.54381,434.92145 z M 240.15080,435.33966 C 239.78292,427.49078 244.96420,440.52231 240.15080,435.33966 z M 228.62276,416.50479 C 229.41641,411.42984 229.58417,420.56726 228.62276,416.50479 z M 215.64073,415.53824 C 214.00288,408.18311 221.81450,420.23540 215.64073,415.53824 z M 240.54381,414.95282 C 243.93763,408.15849 242.51943,422.20731 240.54381,414.95282 z M 215.64073,410.53824 C 214.00288,403.18311 221.81450,415.23540 215.64073,410.53824 z M 240.54381,409.95282 C 243.93763,403.15849 242.51943,417.20731 240.54381,409.95282 z M 216.23766,405.28198 C 216.27515,397.98346 221.52953,408.09397 216.23766,405.28198 z M 239.54381,404.42145 C 242.52556,399.75782 241.57126,408.95845 239.54381,404.42145 z M 220.66416,314.56645 C 219.58533,306.04984 228.83606,317.19636 220.66416,314.56645 z M 227.66417,314.56645 C 226.58534,306.04985 235.83604,317.19634 227.66417,314.56645 z M 234.66417,314.56645 C 233.58534,306.04985 242.83604,317.19634 234.66417,314.56645 z M 125.23766,314.28197 C 125.27516,306.98344 130.52952,317.09400 125.23766,314.28197 z M 136.54381,313.42145 C 139.52557,308.75782 138.57125,317.95845 136.54381,313.42145 z M 319.23766,314.28197 C 319.27516,306.98344 324.52952,317.09400 319.23766,314.28197 z M 330.54381,313.42145 C 333.52557,308.75782 332.57125,317.95845 330.54381,313.42145 z M 225.12824,222.61504 C 224.56650,216.59183 226.44309,203.50658 226.93810,191.65556 C 226.95832,185.34215 228.78872,159.07647 230.30543,177.88829 C 230.25898,189.82974 233.26354,202.50709 231.85541,213.96242 C 236.16249,217.86751 231.20817,229.61165 229.42502,217.00430 C 226.14991,212.69488 228.89839,226.81956 225.12824,222.61504 z M 208.98494,148.38965 C 215.59394,144.04530 220.60476,152.98576 209.60631,149.81804 C 208.22755,150.87849 207.30270,148.42528 208.98494,148.38965 z M 244.21971,147.51922 C 244.83101,139.87447 248.49692,152.17950 244.21970,147.51922 L 244.21971,147.51922 z M 231.66371,128.28856 C 224.34627,121.11459 220.97187,101.98304 211.70577,102.96639 C 203.15203,94.120587 224.81541,100.45252 223.33588,108.70781 C 231.42749,118.35936 237.73386,137.48739 246.54381,140.26927 C 242.36690,149.33283 234.28476,130.99860 231.66371,128.28856 z M 243.40459,100.95472 C 236.53666,96.264157 257.09826,100.13722 245.02835,102.29505 L 243.40459,100.95472 L 243.40459,100.95472 z "
     style="opacity:0.80000007;fill:none;stroke:#000002;stroke-width:0.80000001;stroke-miterlimit:3.5000000;stroke-opacity:1.0000000" />
  <path
     id="path1350"
     d="M 215.54381,435.48047 C 218.06629,431.56450 218.29787,437.58259 215.54381,435.48047 z M 240.54381,434.92145 C 242.03675,431.76125 242.80064,438.35593 240.54381,434.92145 z M 226.91353,210.67145 C 229.25035,198.51773 224.72624,180.30511 229.81847,171.60199 C 229.41157,184.40205 233.52950,203.18833 229.04381,212.92145 C 227.01595,213.99431 226.26076,211.83916 226.91353,210.67145 z M 209.54381,148.98047 C 211.69477,145.35558 212.32790,151.19290 209.54381,148.98047 z M 210.21048,101.25478 C 208.42360,94.197997 219.29679,104.80946 210.21048,101.25478 z M 244.79381,101.20317 C 240.42903,97.116008 252.52948,100.95059 244.79381,101.20317 z "
     style="opacity:0.80000007;fill:none;stroke:#000002;stroke-width:0.80000001;stroke-miterlimit:3.5000000;stroke-opacity:1.0000000" />
</svg>
