<?xml version="1.0" encoding="UTF-8" standalone="no"?>
<!-- Generator: Adobe Illustrator 9.0, SVG Export Plug-In  -->
<svg
   xmlns:dc="http://purl.org/dc/elements/1.1/"
   xmlns:cc="http://web.resource.org/cc/"
   xmlns:rdf="http://www.w3.org/1999/02/22-rdf-syntax-ns#"
   xmlns:svg="http://www.w3.org/2000/svg"
   xmlns="http://www.w3.org/2000/svg"
   xmlns:sodipodi="http://inkscape.sourceforge.net/DTD/sodipodi-0.dtd"
   xmlns:inkscape="http://www.inkscape.org/namespaces/inkscape"
   version="1.0"
   sodipodi:docbase="D:\Download\datos\PRUEBAS\northimages"
   sodipodi:docname="rosas_en.svg"
   inkscape:version="0.40+cvs"
   sodipodi:version="0.32"
   id="svg2"
   viewBox="0 0 450 500"
   height="500"
   width="450">
  <metadata
     id="metadata19">
    <rdf:RDF
       id="RDF4">
      <cc:Work
         id="Work6"
         rdf:about="">
        <dc:format
           id="format8">image/svg+xml</dc:format>
        <dc:type
           id="type10"
           rdf:resource="http://purl.org/dc/dcmitype/StillImage" />
      </cc:Work>
    </rdf:RDF>
  </metadata>
  <defs
     id="defs17" />
  <sodipodi:namedview
     inkscape:current-layer="svg2"
     inkscape:window-y="-4"
     inkscape:window-x="-4"
     inkscape:cy="-90.981528"
     inkscape:cx="372.18750"
     inkscape:zoom="0.35555853"
     id="base"
     pagecolor="#ffffff"
     bordercolor="#666666"
     borderopacity="1.0"
     inkscape:pageopacity="0.0"
     inkscape:pageshadow="2"
     inkscape:window-width="1024"
     inkscape:window-height="719" />
  <path
     style="fill-rule:nonzero;stroke:none;stroke-miterlimit:4.0000000"
     d="M -2.0567435,213.70043 L -2.0567435,210.68332 L 25.760450,210.68332 L 25.760450,213.70043 L 24.093173,213.70043 L 23.127908,213.79471 L 22.338145,213.98329 L 21.636134,214.36042 L 21.109625,214.83185 L 20.670868,215.39756 L 20.319863,216.15183 L 20.144360,217.00039 L 20.056608,218.03752 L 20.056608,218.98036 L 20.144360,219.92321 L 20.144360,220.67749 L 20.232111,221.33748 L 20.319863,221.90319 L 20.407614,222.37461 L 20.495366,222.65746 L 20.670868,222.84604 L 30.850031,255.84564 L 42.784221,225.95743 L 40.502685,218.60324 L 40.414933,217.18897 L 40.063928,216.05754 L 39.537420,215.02041 L 38.835409,214.36042 L 38.747657,214.36042 L 38.396652,214.26614 L 37.870143,214.17185 L 37.080380,214.07757 L 35.413104,213.79471 L 33.745827,213.70043 L 31.464291,213.70043 L 31.464291,210.68332 L 61.563025,210.68332 L 61.563025,213.70043 L 59.281487,213.70043 L 58.316223,213.79471 L 57.526454,213.88900 L 56.824447,214.17185 L 56.297935,214.45471 L 55.859183,214.92612 L 55.508172,215.39756 L 55.332670,216.05754 L 55.244923,216.81182 L 67.179111,253.95995 L 75.164490,223.50602 L 75.339991,223.22317 L 75.427746,222.94033 L 75.690996,222.46890 L 75.866496,221.80890 L 76.041998,221.05463 L 76.305254,220.20607 L 76.568512,219.16894 L 76.831767,218.03752 L 76.656258,217.00039 L 76.305254,216.15183 L 75.778750,215.39756 L 75.164490,214.83185 L 74.374729,214.36042 L 73.409456,213.98329 L 72.356447,213.79471 L 71.215673,213.70043 L 71.215673,210.68332 L 87.098675,210.68332 L 87.098675,213.70043 L 86.221165,213.79471 L 85.431399,214.17185 L 84.553890,214.64327 L 83.764128,215.39756 L 83.062114,216.34041 L 82.272352,217.47182 L 81.570337,218.88608 L 80.780576,220.39463 L 62.616035,280.17107 L 59.807992,280.17107 L 45.065761,233.21734 L 26.901218,280.17107 L 24.093173,280.17107 L 4.7878655,219.82893 L 4.4368605,218.79180 L 4.1736065,217.94324 L 3.9103515,217.09468 L 3.5593455,216.43468 L 3.2083405,215.77468 L 2.8573355,215.30327 L 2.5940815,214.92612 L 2.2430755,214.64327 L 1.3655605,214.26614 L 0.40029550,213.98329 L -0.74047250,213.79471 L -2.0567435,213.70043 L -2.0567435,213.70043 z M 91.047494,247.26574 L 208.54661,214.36042 L 238.64534,88.679075 L 271.02561,214.36042 L 386.24319,247.26574 L 271.02561,279.60535 L 238.64534,404.06102 L 208.54661,279.60535 L 91.047494,247.26574 L 91.047494,247.26574 z M 211.35466,218.03752 L 113.77511,245.47433 L 236.36380,245.47433 L 211.35466,218.03752 z M 238.03108,247.92573 L 211.96891,277.15396 L 238.03108,380.20701 L 238.03108,247.92573 z M 239.17185,113.09878 L 239.17185,244.81434 L 265.32177,217.37753 L 239.17185,113.09878 z M 368.07866,247.26574 L 239.78611,247.26574 L 266.46253,275.92826 L 368.07866,247.26574 z M 208.02010,77.082068 L 208.02010,74.630670 L 209.07312,74.536387 L 210.03839,74.253529 L 210.91590,74.064961 L 211.70566,73.782104 L 212.40767,73.404969 L 213.02193,73.027827 L 213.54844,72.650692 L 213.89945,72.179267 L 214.25045,71.707842 L 214.60146,71.047855 L 214.77696,70.387869 L 215.04021,69.445012 L 215.12797,68.502168 L 215.30347,67.465040 L 215.30347,66.239338 L 215.39122,64.919359 L 215.39122,17.305641 L 214.33820,16.457080 L 213.54844,15.514234 L 212.93418,14.571388 L 212.49542,13.628541 L 212.31991,13.251404 L 212.05667,12.779980 L 211.61792,12.308558 L 211.09140,11.837134 L 210.47714,11.365711 L 209.77513,10.894289 L 208.89762,10.422866 L 208.02010,10.045727 L 208.02010,6.9343355 L 226.71116,6.9343355 L 259.09142,50.870955 L 259.09142,18.531339 L 259.00366,17.399925 L 259.00366,16.268510 L 258.82816,15.325664 L 258.74041,14.477103 L 258.47716,13.628541 L 258.30166,12.968549 L 257.95064,12.308558 L 257.68740,11.837134 L 257.24864,11.459997 L 256.72213,11.082858 L 256.10787,10.705719 L 255.31811,10.517150 L 254.44059,10.234297 L 253.47533,10.140012 L 252.33456,10.045727 L 251.10604,10.045727 L 251.10604,6.9343355 L 272.69288,6.9343355 L 272.69288,10.045727 L 271.20111,10.045727 L 269.88484,10.140012 L 268.65632,10.234297 L 267.69105,10.422866 L 266.81354,10.611436 L 266.02378,10.894289 L 265.49727,11.177142 L 265.05851,11.554281 L 264.70750,12.025703 L 264.44424,12.591411 L 264.18100,13.251404 L 264.00549,14.099965 L 263.82999,14.948526 L 263.65449,16.079941 L 263.65449,17.211356 L 263.56674,18.531339 L 263.56674,78.307765 L 260.23218,78.307765 L 220.48080,22.774147 L 220.48080,64.919359 L 220.48080,66.239338 L 220.56855,67.465040 L 220.65630,68.502168 L 220.83180,69.445012 L 221.00731,70.387869 L 221.27056,71.047855 L 221.53381,71.707842 L 221.88482,72.179267 L 222.32358,72.650692 L 222.76234,73.027827 L 223.37660,73.404969 L 224.07861,73.782104 L 224.86837,74.064961 L 225.74589,74.253529 L 226.79890,74.536387 L 227.85192,74.630670 L 227.85192,77.082068 L 208.02010,77.082068 L 208.02010,77.082068 z M 217.67276,493.06566 L 217.67276,468.08025 L 221.00731,468.08025 L 221.70932,470.62593 L 222.41133,473.07733 L 223.20109,475.34016 L 224.07861,477.41442 L 224.95612,479.30011 L 225.92139,481.09152 L 226.88666,482.69435 L 228.02742,484.10863 L 229.08044,485.33433 L 230.30896,486.37146 L 231.53748,487.31430 L 232.85375,488.06857 L 234.17002,488.63429 L 235.66179,489.10571 L 237.06582,489.29428 L 238.64534,489.38856 L 240.04936,489.38856 L 241.45338,489.20000 L 242.68191,489.01142 L 243.82267,488.63429 L 244.96344,488.25715 L 245.92871,487.69144 L 246.80622,487.12573 L 247.59599,486.37146 L 248.29800,485.52290 L 248.91226,484.67433 L 249.35100,483.63720 L 249.78976,482.50578 L 250.14078,481.37437 L 250.40402,480.05439 L 250.49178,478.73441 L 250.57953,477.22585 L 250.40402,475.71730 L 250.05302,474.30303 L 249.43876,472.88876 L 248.56125,471.56878 L 247.42048,470.34308 L 246.10421,469.11738 L 244.43693,467.98596 L 242.59416,466.85454 L 233.55576,461.95176 L 231.80074,460.91462 L 230.22120,459.78320 L 228.72943,458.55750 L 227.32541,457.42608 L 226.00914,456.20039 L 224.86837,454.88040 L 223.81535,453.56042 L 222.85009,452.24043 L 222.06033,450.82616 L 221.35832,449.41189 L 220.74405,447.90335 L 220.21755,446.39479 L 219.86654,444.88624 L 219.51553,443.28340 L 219.42778,441.68056 L 219.34004,439.98344 L 219.42778,437.90918 L 219.60329,435.92920 L 220.04204,433.94923 L 220.56855,432.06354 L 221.18281,430.27212 L 222.06033,428.57501 L 223.02560,426.97216 L 224.16636,425.36933 L 225.39488,423.95506 L 226.79890,422.72936 L 228.20292,421.69223 L 229.78245,420.84367 L 231.44972,420.08939 L 233.11700,419.61797 L 234.95978,419.33511 L 236.89031,419.24084 L 237.24132,419.24084 L 237.68008,419.33511 L 238.20658,419.42940 L 238.82085,419.52368 L 239.43511,419.61797 L 240.22487,419.80654 L 241.10238,419.99511 L 242.06764,420.18367 L 244.17368,420.74938 L 246.45522,421.50367 L 249.00000,422.44650 L 251.72030,423.57793 L 252.24681,423.57793 L 253.03657,423.48364 L 253.73858,423.29506 L 254.35284,422.91793 L 254.79160,422.44650 L 255.14261,421.88080 L 255.40586,421.12652 L 255.58137,420.27797 L 255.66911,419.24084 L 259.09142,419.24084 L 259.09142,441.86913 L 256.19563,441.86913 L 255.40586,439.70058 L 254.61610,437.72060 L 253.73858,435.83492 L 252.77332,434.13780 L 251.80805,432.53495 L 250.84279,431.02641 L 249.78976,429.70642 L 248.73674,428.57501 L 247.59599,427.53788 L 246.45522,426.59503 L 245.22670,425.84075 L 243.99818,425.27504 L 242.68191,424.80362 L 241.36564,424.42649 L 240.04936,424.23791 L 238.64534,424.14363 L 236.36380,424.23791 L 234.43328,424.70933 L 232.76600,425.36933 L 231.36197,426.31217 L 230.30896,427.44359 L 229.60695,428.95215 L 229.16819,430.64927 L 228.99269,432.72353 L 228.99269,433.85494 L 229.08044,434.89207 L 229.16819,435.83492 L 229.34369,436.77776 L 229.51920,437.43776 L 229.78245,438.09775 L 230.04570,438.66345 L 230.39671,439.13488 L 230.83546,439.51202 L 231.27423,439.98344 L 231.88848,440.45486 L 232.59050,441.02057 L 233.38026,441.58628 L 234.25778,442.24627 L 235.31078,442.90626 L 236.36380,443.66054 L 247.15723,449.12904 L 248.73674,450.35474 L 250.22853,451.48616 L 251.54480,452.71186 L 252.86107,454.03184 L 254.00184,455.25754 L 255.14261,456.57752 L 256.10787,457.99179 L 256.89762,459.40606 L 257.68740,460.82034 L 258.38941,462.23460 L 258.91591,463.74315 L 259.35467,465.25171 L 259.70568,466.85454 L 259.96893,468.45738 L 260.14443,470.06022 L 260.23218,471.75734 L 260.14443,474.11446 L 259.88118,476.37729 L 259.44242,478.45155 L 258.74041,480.52581 L 257.95064,482.41150 L 256.98538,484.10863 L 255.84462,485.80574 L 254.52835,487.31430 L 253.03657,488.63429 L 251.36930,489.85998 L 249.52652,490.80283 L 247.59599,491.65139 L 245.40220,492.21710 L 243.12066,492.68852 L 240.66362,492.97138 L 238.03108,493.06566 L 235.83730,492.97138 L 233.55576,492.59424 L 231.27423,492.02853 L 228.99269,491.27425 L 227.93967,490.80283 L 226.97440,490.42569 L 226.09690,490.14283 L 225.39488,489.85998 L 224.86837,489.67142 L 224.42962,489.48285 L 224.07861,489.48285 L 223.90310,489.38856 L 223.20109,489.48285 L 222.67458,489.67142 L 222.14808,489.95427 L 221.70932,490.33141 L 221.44607,490.80283 L 221.18281,491.46283 L 221.09506,492.21710 L 221.00731,493.06566 L 217.67276,493.06566 L 217.67276,493.06566 z M 393.00005,280.17107 L 393.00005,277.15396 L 394.22857,277.15396 L 395.36934,277.05968 L 396.42235,276.87110 L 397.29987,276.68253 L 398.08963,276.49396 L 398.79165,276.11683 L 399.40591,275.73969 L 399.84466,275.36255 L 400.28341,274.79685 L 400.63443,274.23113 L 400.89767,273.47686 L 401.16093,272.62830 L 401.33643,271.59117 L 401.42419,270.55403 L 401.51194,269.32834 L 401.51194,268.00835 L 401.51194,222.84604 L 401.51194,221.24319 L 401.42419,219.82893 L 401.33643,218.60324 L 401.16093,217.47182 L 400.98543,216.52897 L 400.72218,215.77468 L 400.45892,215.11470 L 400.10792,214.64327 L 399.75691,214.26614 L 399.23039,213.98329 L 398.52840,213.70043 L 397.82638,213.51185 L 396.94887,213.32329 L 395.89585,213.22901 L 394.84283,213.13473 L 393.61431,213.13473 L 393.61431,210.68332 L 446.44065,210.68332 L 446.44065,230.76594 L 445.29988,230.76594 L 444.94888,228.31455 L 444.42238,226.05172 L 443.89587,223.97746 L 443.19386,222.18604 L 442.40409,220.58321 L 441.52658,219.16894 L 440.47356,218.03752 L 439.33279,217.09468 L 438.01652,216.34041 L 436.52474,215.58612 L 434.76972,215.02041 L 432.83918,214.54899 L 430.73315,214.17185 L 428.36387,213.98329 L 425.81908,213.79471 L 423.09878,213.70043 L 422.04576,213.70043 L 421.08050,213.79471 L 420.20299,213.88900 L 419.41322,213.98329 L 418.79896,214.07757 L 418.18470,214.26614 L 417.74595,214.45471 L 417.48270,214.64327 L 417.21944,214.92612 L 416.95618,215.39756 L 416.78068,215.86897 L 416.60518,216.52897 L 416.42968,217.37753 L 416.34192,218.22609 L 416.34192,219.26322 L 416.34192,220.39463 L 416.34192,242.36294 L 417.48270,242.36294 L 419.23772,242.36294 L 420.81725,242.17438 L 422.30902,241.89152 L 423.71304,241.51438 L 424.94156,241.04296 L 425.99458,240.47725 L 426.87209,239.81726 L 427.66186,239.06298 L 428.36387,238.12014 L 428.97812,236.98872 L 429.68013,235.66874 L 430.20664,234.25447 L 430.73315,232.55735 L 431.25966,230.76594 L 431.78617,228.69168 L 432.22493,226.52313 L 434.50646,226.52313 L 434.50646,261.31415 L 432.22493,261.31415 L 431.87392,259.14560 L 431.52292,257.07134 L 431.08416,255.27994 L 430.64540,253.58281 L 430.11889,252.16855 L 429.50464,250.84855 L 428.89038,249.71715 L 428.27612,248.77429 L 427.48636,248.02002 L 426.52109,247.36003 L 425.38032,246.79432 L 424.15180,246.32290 L 422.66002,245.94576 L 421.08050,245.66290 L 419.32547,245.47433 L 417.48270,245.47433 L 416.34192,245.47433 L 416.34192,269.23405 L 416.34192,270.27118 L 416.34192,271.11974 L 416.42968,271.96830 L 416.51743,272.62830 L 416.60518,273.28829 L 416.78068,273.75971 L 416.95618,274.13686 L 417.13169,274.41970 L 417.39494,274.60827 L 417.83370,274.79685 L 418.36021,274.98542 L 418.97447,275.07970 L 419.67648,275.17398 L 420.55400,275.26827 L 421.51926,275.26827 L 422.57227,275.36255 L 426.52109,275.36255 L 428.62712,275.26827 L 430.55766,275.07970 L 432.48818,274.70256 L 434.33097,274.23113 L 435.99824,273.66543 L 437.66552,272.91115 L 439.15729,272.06259 L 440.56131,271.02547 L 441.87759,269.89405 L 443.19386,268.66835 L 444.33462,267.25408 L 445.38764,265.74552 L 446.35291,264.04840 L 447.23042,262.25699 L 448.02018,260.27702 L 448.63444,258.20276 L 452.05674,258.20276 L 446.96716,280.17107 L 393.00005,280.17107 L 393.00005,280.17107 z "
     id="path14" />
</svg>
