999
TRANSLATION BY geo.cresques.io.DxfFile
999
DATE : Thu Mar 13 09:56:42 CET 2008
  0
SECTION
  2
HEADER
  9
$ACADVER
  1
AC1015
  9
$INSBASE
 10
0.0
 20
0.0
 30
0.0
  9
$EXTMIN
 10
999999999.000000
 20
999999999.000000
 30
0.000000
  9
$EXTMAX
 10
-999999999.000000
 20
-999999999.000000
 30
0.000000
  9
$LIMMIN
 10
999999999.000000
 20
999999999.000000
  9
$LIMMAX
 10
-999999999.000000
 20
-999999999.000000
  9
$ORTHOMODE
 70
     0
  9
$REGENMODE
 70
     1
  9
$FILLMODE
 70
     1
  9
$QTEXTMODE
 70
     0
  9
$MIRRTEXT
 70
     1
  9
$DRAGMODE
 70
     2
  9
$LTSCALE
 40
1.0
  9
$OSMODE
 70
     0
  9
$ATTMODE
 70
     1
  9
$TEXTSIZE
 40
0.2
  9
$TRACEWID
 40
0.05
  9
$TEXTSTYLE
  7
STANDARD
  9
$CLAYER
  8
0
  9
$CELTYPE
  6
CONTINUOUS
  9
$CECOLOR
 62
   256
  9
$DIMSCALE
 40
1.0
  9
$DIMASZ
 40
0.18
  9
$DIMEXO
 40
0.0625
  9
$DIMDLI
 40
0.38
  9
$DIMRND
 40
0.0
  9
$DIMDLE
 40
0.0
  9
$DIMEXE
 40
0.18
  9
$DIMTP
 40
0.0
  9
$DIMTM
 40
0.0
  9
$DIMTXT
 40
0.18
  9
$DIMCEN
 40
0.09
  9
$DIMTSZ
 40
0.0
  9
$DIMTOL
 70
     0
  9
$DIMLIM
 70
     0
  9
$DIMTIH
 70
     1
  9
$DIMTOH
 70
     1
  9
$DIMSE1
 70
     0
  9
$DIMSE2
 70
     0
  9
$DIMTAD
 70
     0
  9
$DIMZIN
 70
     0
  9
$DIMBLK
  1

  9
$DIMASO
 70
     1
  9
$DIMSHO
 70
     1
  9
$DIMPOST
  1

  9
$DIMAPOST
  1

  9
$DIMALT
 70
     0
  9
$DIMALTD
 70
     2
  9
$DIMALTF
 40
25.4
  9
$DIMLFAC
 40
1.0
  9
$DIMTOFL
 70
     0
  9
$DIMTVP
 40
0.0
  9
$DIMTIX
 70
     0
  9
$DIMSOXD
 70
     0
  9
$DIMSAH
 70
     0
  9
$DIMBLK1
  1

  9
$DIMBLK2
  1

  9
$DIMSTYLE
  2
STANDARD
  9
$DIMCLRD
 70
     0
  9
$DIMCLRE
 70
     0
  9
$DIMCLRT
 70
     0
  9
$DIMTFAC
 40
1.0
  9
$DIMGAP
 40
0.09
  9
$LUNITS
 70
     2
  9
$LUPREC
 70
     4
  9
$AXISMODE
 70
     0
  9
$AXISUNIT
 10
0.0
 20
0.0
  9
$SKETCHINC
 40
0.1
  9
$FILLETRAD
 40
0.0
  9
$AUNITS
 70
     0
  9
$AUPREC
 70
     0
  9
$MENU
  1
acad
  9
$ELEVATION
 40
0.0
  9
$PELEVATION
 40
0.0
  9
$THICKNESS
 40
0.0
  9
$LIMCHECK
 70
     0
  9
$BLIPMODE
 70
     1
  9
$CHAMFERA
 40
0.0
  9
$CHAMFERB
 40
0.0
  9
$SKPOLY
 70
     0
  9
$TDCREATE
 40
2453116.436828704
  9
$TDUPDATE
 40
2453116.436828704
  9
$TDINDWG
 40
0.0000000000
  9
$TDUSRTIMER
 40
0.0000000000
  9
$USRTIMER
 70
     1
  9
$ANGBASE
 50
0.0
  9
$ANGDIR
 70
     0
  9
$PDMODE
 70
     0
  9
$PDSIZE
 40
0.0
  9
$PLINEWID
 40
0.0
  9
$COORDS
 70
     0
  9
$SPLFRAME
 70
     0
  9
$SPLINETYPE
 70
     6
  9
$SPLINESEGS
 70
    10
  9
$ATTDIA
 70
     0
  9
$ATTREQ
 70
     1
  9
$HANDLING
 70
     1
  9
$HANDSEED
  5
394B
  9
$SURFTAB1
 70
     6
  9
$SURFTAB2
 70
     6
  9
$SURFTYPE
 70
     6
  9
$SURFU
 70
     6
  9
$SURFV
 70
     6
  9
$UCSNAME
  2

  9
$UCSORG
 10
0.0
 20
0.0
 30
0.0
  9
$UCSXDIR
 10
1.0
 20
0.0
 30
0.0
  9
$UCSYDIR
 10
0.0
 20
1.0
 30
0.0
  9
$PUCSNAME
  2

  9
$PUCSORG
 10
0.0
 20
0.0
 30
0.0
  9
$PUCSXDIR
 10
1.0
 20
0.0
 30
0.0
  9
$PUCSYDIR
 10
0.0
 20
1.0
 30
0.0
  9
$USERI1
 70
     0
  9
$USERI2
 70
     0
  9
$USERI3
 70
     0
  9
$USERI4
 70
     0
  9
$USERI5
 70
     0
  9
$USERR1
 40
0.0
  9
$USERR2
 40
0.0
  9
$USERR3
 40
0.0
  9
$USERR4
 40
0.0
  9
$USERR5
 40
0.0
  9
$WORLDVIEW
 70
     1
  9
$SHADEDGE
 70
     3
  9
$SHADEDIF
 70
    70
  9
$TILEMODE
 70
     1
  9
$MAXACTVP
 70
    16
  9
$PINSBASE
 10
0.0
 20
0.0
 30
0.0
  9
$PLIMCHECK
 70
     0
  9
$PEXTMIN
 10
-1.000000E+20
 20
-1.000000E+20
 30
-1.000000E+20
  9
$PEXTMAX
 10
-1.000000E+20
 20
-1.000000E+20
 30
-1.000000E+20
  9
$PLIMMIN
 10
0.0
 20
0.0
  9
$PLIMMAX
 10
12.0
 20
9.0
  9
$UNITMODE
 70
     0
  9
$VISRETAIN
 70
     0
  9
$PLINEGEN
 70
     1
  9
$PSLTSCALE
 70
     0
  9
$TREEDEPTH
 70
  3020
  9
$DWGCODEPAGE
  3
ansi_1252
  0
ENDSEC
  0
SECTION
  2
TABLES
  0
TABLE
  2
VPORT
  5
     8
100
AcDbSymbolTable
 70
     0
  0
ENDTAB
  0
TABLE
  2
LTYPE
  5
     5
100
AcDbSymbolTable
 70
     1
  0
LTYPE
  5
    14
100
AcDbSymbolTableRecord
100
AcDbLinetypeTableRecord
  2
ByBlock
 70
     0
  3

 72
    65
 73
     0
 40
0.0000
  0
LTYPE
  5
    15
100
AcDbSymbolTableRecord
100
AcDbLinetypeTableRecord
  2
ByLayer
 70
     0
  3

 72
    65
 73
     0
 40
0.0000
  0
ENDTAB
  0
TABLE
  2
LAYER
  5
     2
100
AcDbSymbolTable
 70
     1
  0
LAYER
  5
    10
100
AcDbSymbolTableRecord
100
AcDbLayerTableRecord
  2
0
 70
     0
 62
     7
  6
CONTINUOUS
390
F
  0
ENDTAB
  0
TABLE
  2
STYLE
  5
     3
100
AcDbSymbolTable
 70
     0
  0
STYLE
  5
    11
100
AcDbSymbolTableRecord
100
AcDbTextStyleTableRecord
  2
Standard
 70
     0
 71
     0
 40
0.0000
 41
1.0000
 42
2.5000
 50
0.0000
  3
txt
  4

  0
ENDTAB
  0
TABLE
  2
VIEW
  5
     6
100
AcDbSymbolTable
 70
     0
  0
ENDTAB
  0
TABLE
  2
UCS
  5
     7
100
AcDbSymbolTable
 70
     0
  0
ENDTAB
  0
TABLE
  2
APPID
  5
     9
100
AcDbSymbolTable
 70
     1
  0
APPID
  5
    12
100
AcDbSymbolTableRecord
100
AcDbRegAppTableRecord
  2
ACAD
 70
     1
  0
ENDTAB
  0
TABLE
  2
DIMSTYLE
  5
A
100
AcDbSymbolTable
 70
     0
100
AcDbDimStyleTable
  0
ENDTAB
  0
TABLE
  2
BLOCK_RECORD
  5
     1
100
AcDbSymbolTable
 70
     1
  0
BLOCK_RECORD
  5
1F
100
AcDbSymbolTableRecord
100
AcDbBlockTableRecord
  2
*Model_Space
340
22
  0
BLOCK_RECORD
  5
1B
100
AcDbSymbolTableRecord
100
AcDbBlockTableRecord
  2
*Paper_Space
340
1E
  0
BLOCK_RECORD
  5
23
100
AcDbSymbolTableRecord
100
AcDbBlockTableRecord
  2
*Paper_Space0
340
26
  0
ENDTAB
  0
ENDSEC
  0
SECTION
  2
BLOCKS
  0
BLOCK
  5
20
100
AcDbEntity
  8
0
100
AcDbBlockBegin
  2
*Model_Space
 70
     0
 10
0.0000
 20
0.0000
 30
0.0000
  3
*Model_Space
  1

  0
ENDBLK
  5
21
100
AcDbEntity
  8
0
100
AcDbBlockEnd
  0
BLOCK
  5
1C
100
AcDbEntity
 67
     1
  8
0
100
AcDbBlockBegin
  2
*Paper_Space
 70
     0
 10
0.0000
 20
0.0000
 30
0.0000
  3
*Paper_Space
  1

  0
ENDBLK
  5
1D
100
AcDbEntity
 67
     1
  8
0
100
AcDbBlockEnd
  0
BLOCK
  5
24
100
AcDbEntity
  8
0
100
AcDbBlockBegin
  2
*Paper_Space0
 70
     0
 10
0.0000
 20
0.0000
 30
0.0000
  3
*Paper_Space0
  1

  0
ENDBLK
  5
25
100
AcDbEntity
  8
0
100
AcDbBlockEnd
  0
ENDSEC
  0
SECTION
  2
ENTITIES
  0
LWPOLYLINE
  5
    64
100
AcDbEntity
  8
Primera
 62
     0
100
AcDbPolyline
 90
   264
 70
     1
 38
0.000
 10
759813.387949
 20
4285413.854930
 42
0.000000
 10
759928.208938
 20
4285445.379389
 42
0.000000
 10
759843.259737
 20
4286127.104400
 42
0.000000
 10
760150.094222
 20
4286866.064879
 42
0.000000
 10
760321.572745
 20
4287295.035816
 42
0.000000
 10
760207.429775
 20
4287403.536811
 42
0.000000
 10
760688.379159
 20
4287848.192897
 42
0.000000
 10
760881.917934
 20
4288213.452967
 42
0.000000
 10
761223.246293
 20
4288691.355840
 42
0.000000
 10
761654.494636
 20
4289557.827131
 42
0.000000
 10
762006.942991
 20
4290170.597731
 42
0.000000
 10
762659.927564
 20
4290353.257040
 42
0.000000
 10
762694.463857
 20
4290625.539219
 42
0.000000
 10
762824.411740
 20
4290670.947239
 42
0.000000
 10
762863.432079
 20
4290675.570230
 42
0.000000
 10
763054.523149
 20
4290925.248891
 42
0.000000
 10
763259.610879
 20
4291514.326464
 42
0.000000
 10
763374.071202
 20
4291711.473271
 42
0.000000
 10
763717.086405
 20
4291761.734704
 42
0.000000
 10
763655.069443
 20
4291400.744280
 42
0.000000
 10
763520.598486
 20
4291229.600306
 42
0.000000
 10
763461.290238
 20
4291154.293176
 42
0.000000
 10
763760.288693
 20
4290616.356145
 42
0.000000
 10
764036.518934
 20
4290634.409526
 42
0.000000
 10
764444.376722
 20
4290542.387426
 42
0.000000
 10
764608.794704
 20
4290441.173533
 42
0.000000
 10
764619.172558
 20
4290417.070992
 42
0.000000
 10
764633.824644
 20
4290395.333152
 42
0.000000
 10
764680.131687
 20
4290337.976786
 42
0.000000
 10
764687.384009
 20
4290329.327976
 42
0.000000
 10
764712.878054
 20
4290295.727092
 42
0.000000
 10
764729.159025
 20
4290277.377369
 42
0.000000
 10
765259.755103
 20
4290421.734358
 42
0.000000
 10
765458.639993
 20
4290279.457874
 42
0.000000
 10
765640.231714
 20
4290498.882977
 42
0.000000
 10
765535.110260
 20
4290753.188535
 42
0.000000
 10
765527.558546
 20
4290822.946559
 42
0.000000
 10
765494.464627
 20
4291136.331765
 42
0.000000
 10
765467.729978
 20
4291572.169276
 42
0.000000
 10
765396.532891
 20
4291827.608070
 42
0.000000
 10
765348.515352
 20
4292144.940680
 42
0.000000
 10
765360.924516
 20
4292216.476230
 42
0.000000
 10
765371.520483
 20
4292290.173855
 42
0.000000
 10
765379.396844
 20
4292367.114567
 42
0.000000
 10
765383.037199
 20
4292440.580097
 42
0.000000
 10
765382.404627
 20
4292511.680468
 42
0.000000
 10
765379.052724
 20
4292586.023897
 42
0.000000
 10
765373.240932
 20
4292655.840127
 42
0.000000
 10
765363.877649
 20
4292727.760362
 42
0.000000
 10
765350.592459
 20
4292812.884976
 42
0.000000
 10
765340.545317
 20
4292879.226032
 42
0.000000
 10
765333.901494
 20
4292947.903237
 42
0.000000
 10
765331.920637
 20
4292981.175330
 42
0.000000
 10
765331.641373
 20
4293015.615494
 42
0.000000
 10
765334.967632
 20
4293072.401487
 42
0.000000
 10
765341.956304
 20
4293123.753375
 42
0.000000
 10
765356.101560
 20
4293195.347129
 42
0.000000
 10
765371.301082
 20
4293261.419764
 42
0.000000
 10
765384.077737
 20
4293321.855185
 42
0.000000
 10
765392.767187
 20
4293374.375251
 42
0.000000
 10
765397.831112
 20
4293431.219381
 42
0.000000
 10
765399.067495
 20
4293472.377858
 42
0.000000
 10
765560.031191
 20
4293473.309267
 42
0.000000
 10
765750.308079
 20
4293326.312531
 42
0.000000
 10
765929.581318
 20
4293222.291605
 42
0.000000
 10
766030.271882
 20
4293100.086030
 42
0.000000
 10
766310.135868
 20
4293007.218974
 42
0.000000
 10
766669.633560
 20
4293420.446517
 42
0.000000
 10
766992.245427
 20
4293583.524390
 42
0.000000
 10
767280.336140
 20
4293556.534709
 42
0.000000
 10
767457.837595
 20
4293609.180546
 42
0.000000
 10
767647.850499
 20
4293367.756734
 42
0.000000
 10
767667.495492
 20
4293042.806791
 42
0.000000
 10
767904.272112
 20
4292240.642804
 42
0.000000
 10
768076.401200
 20
4291756.359080
 42
0.000000
 10
768262.111468
 20
4291592.591707
 42
0.000000
 10
768429.027506
 20
4291263.720254
 42
0.000000
 10
768432.767870
 20
4291256.067338
 42
0.000000
 10
768490.866302
 20
4290979.090161
 42
0.000000
 10
768534.852594
 20
4290784.984862
 42
0.000000
 10
768484.128425
 20
4290585.460198
 42
0.000000
 10
768265.191213
 20
4290288.024318
 42
0.000000
 10
768274.778888
 20
4289590.449748
 42
0.000000
 10
768070.700437
 20
4289290.189759
 42
0.000000
 10
768027.382808
 20
4288663.070460
 42
0.000000
 10
768057.779244
 20
4288355.153494
 42
0.000000
 10
767997.738994
 20
4288302.012536
 42
0.000000
 10
768015.050934
 20
4288279.258107
 42
0.000000
 10
768005.808424
 20
4288243.385513
 42
0.000000
 10
767996.154794
 20
4288219.723348
 42
0.000000
 10
767983.779418
 20
4288199.303472
 42
0.000000
 10
767976.623167
 20
4288179.059289
 42
0.000000
 10
767976.500541
 20
4288156.829262
 42
0.000000
 10
767983.475783
 20
4288104.833175
 42
0.000000
 10
767993.706416
 20
4288059.614435
 42
0.000000
 10
768004.871232
 20
4287986.644773
 42
0.000000
 10
768008.778106
 20
4287922.321175
 42
0.000000
 10
768008.858554
 20
4287842.310660
 42
0.000000
 10
768005.293641
 20
4287818.853484
 42
0.000000
 10
767982.307875
 20
4287751.402204
 42
0.000000
 10
768071.559210
 20
4287454.356794
 42
0.000000
 10
768253.269975
 20
4287670.510851
 42
0.000000
 10
768360.766823
 20
4287788.596658
 42
0.000000
 10
768723.390684
 20
4287753.040207
 42
0.000000
 10
768946.607088
 20
4287848.369507
 42
0.000000
 10
769158.707565
 20
4287834.421504
 42
0.000000
 10
769351.633352
 20
4287666.469561
 42
0.000000
 10
769562.524091
 20
4287456.899844
 42
0.000000
 10
769635.358139
 20
4287389.352842
 42
0.000000
 10
769664.136597
 20
4287362.544436
 42
0.000000
 10
769783.597105
 20
4287229.898700
 42
0.000000
 10
769786.432661
 20
4287223.326866
 42
0.000000
 10
769802.919618
 20
4287199.436454
 42
0.000000
 10
769822.016626
 20
4287175.634494
 42
0.000000
 10
769830.072149
 20
4287169.239521
 42
0.000000
 10
769841.908512
 20
4287154.082133
 42
0.000000
 10
769860.817676
 20
4287135.830460
 42
0.000000
 10
769876.853647
 20
4287125.260676
 42
0.000000
 10
769894.592033
 20
4287115.859926
 42
0.000000
 10
769909.645242
 20
4287108.590844
 42
0.000000
 10
769972.167348
 20
4287088.483588
 42
0.000000
 10
770013.772198
 20
4287068.778949
 42
0.000000
 10
770074.098979
 20
4287036.373521
 42
0.000000
 10
770138.926901
 20
4286999.675898
 42
0.000000
 10
770214.078750
 20
4286941.102608
 42
0.000000
 10
770234.348899
 20
4286908.450729
 42
0.000000
 10
770246.073418
 20
4286896.624011
 42
0.000000
 10
770295.962234
 20
4286863.865932
 42
0.000000
 10
770328.300244
 20
4286834.957739
 42
0.000000
 10
770327.265297
 20
4286737.126431
 42
0.000000
 10
770327.491330
 20
4286730.466181
 42
0.000000
 10
770327.299388
 20
4286710.455905
 42
0.000000
 10
770328.840323
 20
4286639.383717
 42
0.000000
 10
770269.582652
 20
4286511.793863
 42
0.000000
 10
770221.939127
 20
4286401.268366
 42
0.000000
 10
770185.571775
 20
4286317.797335
 42
0.000000
 10
770152.081665
 20
4286252.205188
 42
0.000000
 10
770145.831773
 20
4286205.317944
 42
0.000000
 10
770145.563923
 20
4286187.527793
 42
0.000000
 10
770147.454676
 20
4286183.146639
 42
0.000000
 10
770154.067971
 20
4286142.252169
 42
0.000000
 10
770162.685009
 20
4286093.646430
 42
0.000000
 10
770168.696130
 20
4286070.512615
 42
0.000000
 10
770192.515018
 20
4285984.637633
 42
0.000000
 10
770213.389371
 20
4285934.224974
 42
0.000000
 10
770239.367589
 20
4285861.759114
 42
0.000000
 10
770270.567045
 20
4285789.470411
 42
0.000000
 10
770288.229355
 20
4285756.730011
 42
0.000000
 10
770315.195799
 20
4285706.524191
 42
0.000000
 10
770342.459883
 20
4285621.877677
 42
0.000000
 10
770355.165447
 20
4285581.189984
 42
0.000000
 10
770364.959311
 20
4285549.294056
 42
0.000000
 10
770390.446252
 20
4285465.698662
 42
0.000000
 10
770413.402231
 20
4285405.355116
 42
0.000000
 10
770427.656611
 20
4285344.716320
 42
0.000000
 10
769961.380388
 20
4285298.901450
 42
0.000000
 10
769586.889423
 20
4285115.082553
 42
0.000000
 10
769480.398489
 20
4284889.219729
 42
0.000000
 10
769163.319784
 20
4284604.013622
 42
0.000000
 10
768984.191639
 20
4284361.260020
 42
0.000000
 10
768691.472114
 20
4284153.577500
 42
0.000000
 10
768754.927574
 20
4283951.238106
 42
0.000000
 10
768571.979893
 20
4283691.698227
 42
0.000000
 10
768416.964126
 20
4283559.790980
 42
0.000000
 10
768415.143991
 20
4283639.742625
 42
0.000000
 10
768390.448468
 20
4283674.472597
 42
0.000000
 10
768379.513956
 20
4283766.341630
 42
0.000000
 10
768375.658910
 20
4283777.324769
 42
0.000000
 10
768377.223734
 20
4283808.493576
 42
0.000000
 10
768379.274285
 20
4283825.231959
 42
0.000000
 10
768356.357446
 20
4283858.910570
 42
0.000000
 10
768342.357286
 20
4283860.661927
 42
0.000000
 10
768312.119539
 20
4283852.976516
 42
0.000000
 10
768289.031239
 20
4283839.975358
 42
0.000000
 10
768259.663721
 20
4283832.319441
 42
0.000000
 10
768199.983516
 20
4283819.198726
 42
0.000000
 10
768158.207037
 20
4283817.793505
 42
0.000000
 10
768146.855242
 20
4283818.522994
 42
0.000000
 10
768106.457980
 20
4283853.836913
 42
0.000000
 10
768099.271305
 20
4283860.262967
 42
0.000000
 10
768045.185007
 20
4283914.008719
 42
0.000000
 10
768012.845519
 20
4283942.926235
 42
0.000000
 10
767980.804760
 20
4283962.963615
 42
0.000000
 10
767959.618454
 20
4283971.141786
 42
0.000000
 10
767930.872716
 20
4283996.846523
 42
0.000000
 10
767915.554989
 20
4284011.889743
 42
0.000000
 10
767904.738120
 20
4284022.639095
 42
0.000000
 10
767859.208156
 20
4284081.118594
 42
0.000000
 10
767848.242272
 20
4284096.308141
 42
0.000000
 10
767830.388539
 20
4284109.043723
 42
0.000000
 10
767827.703025
 20
4284111.176070
 42
0.000000
 10
767778.145421
 20
4284133.959545
 42
0.000000
 10
767752.049037
 20
4284158.642541
 42
0.000000
 10
767706.918024
 20
4284179.352526
 42
0.000000
 10
767697.954086
 20
4284186.830491
 42
0.000000
 10
767673.673265
 20
4284209.352111
 42
0.000000
 10
767618.684595
 20
4284264.181315
 42
0.000000
 10
767576.588594
 20
4284298.329233
 42
0.000000
 10
767557.753700
 20
4284314.366263
 42
0.000000
 10
767541.753264
 20
4284323.830772
 42
0.000000
 10
767526.219417
 20
4284501.114495
 42
0.000000
 10
767528.561716
 20
4284638.992074
 42
0.000000
 10
767531.600854
 20
4284808.008996
 42
0.000000
 10
767496.097116
 20
4284853.491199
 42
0.000000
 10
767496.594789
 20
4284864.620724
 42
0.000000
 10
767466.722564
 20
4284898.067934
 42
0.000000
 10
767461.253923
 20
4284931.222871
 42
0.000000
 10
767371.368528
 20
4285091.565250
 42
0.000000
 10
767298.950696
 20
4285224.712239
 42
0.000000
 10
767257.372633
 20
4285295.550967
 42
0.000000
 10
767203.100821
 20
4285329.291982
 42
0.000000
 10
766963.832930
 20
4285502.410921
 42
0.000000
 10
766934.247043
 20
4285891.478101
 42
0.000000
 10
766574.769850
 20
4285804.987331
 42
0.000000
 10
766437.530460
 20
4285819.288508
 42
0.000000
 10
766196.765525
 20
4285855.691725
 42
0.000000
 10
766132.397176
 20
4285826.870992
 42
0.000000
 10
766030.225148
 20
4285782.342046
 42
0.000000
 10
765763.173326
 20
4285666.748770
 42
0.000000
 10
765368.985866
 20
4285628.051932
 42
0.000000
 10
765278.478713
 20
4285416.121833
 42
0.000000
 10
765293.667385
 20
4285247.716413
 42
0.000000
 10
765265.281641
 20
4284948.954825
 42
0.000000
 10
765000.340662
 20
4285187.950436
 42
0.000000
 10
764837.478864
 20
4285108.082614
 42
0.000000
 10
764562.624551
 20
4285410.102964
 42
0.000000
 10
764513.527754
 20
4285419.585553
 42
0.000000
 10
764356.482504
 20
4285453.267677
 42
0.000000
 10
764332.426652
 20
4285416.909787
 42
0.000000
 10
764321.703863
 20
4285398.774169
 42
0.000000
 10
764317.366626
 20
4285371.960408
 42
0.000000
 10
764323.668805
 20
4285313.273433
 42
0.000000
 10
764328.230697
 20
4285254.528737
 42
0.000000
 10
764336.434054
 20
4285164.789959
 42
0.000000
 10
764342.455281
 20
4285088.313752
 42
0.000000
 10
764867.649923
 20
4284331.209813
 42
0.000000
 10
764784.973807
 20
4284197.335786
 42
0.000000
 10
764581.245339
 20
4283930.539905
 42
0.000000
 10
764371.723877
 20
4283838.023533
 42
0.000000
 10
764085.731898
 20
4283791.874308
 42
0.000000
 10
764078.622247
 20
4283796.083773
 42
0.000000
 10
763947.611294
 20
4283937.317599
 42
0.000000
 10
763686.489317
 20
4283824.220619
 42
0.000000
 10
763649.983368
 20
4283795.232449
 42
0.000000
 10
763332.082118
 20
4283528.031906
 42
0.000000
 10
762790.181908
 20
4283130.115007
 42
0.000000
 10
762535.400687
 20
4282876.143425
 42
0.000000
 10
762113.509902
 20
4282642.245710
 42
0.000000
 10
761375.407776
 20
4282324.664595
 42
0.000000
 10
761363.403085
 20
4282318.715205
 42
0.000000
 10
761105.605449
 20
4282208.041609
 42
0.000000
 10
760535.067388
 20
4281533.781920
 42
0.000000
 10
760092.957447
 20
4281782.708754
 42
0.000000
 10
757189.414866
 20
4283375.312008
 42
0.000000
 10
757528.306682
 20
4283699.598134
 42
0.000000
 10
757623.161503
 20
4283783.777597
 42
0.000000
 10
757864.164946
 20
4284036.025799
 42
0.000000
 10
758307.080649
 20
4284562.615830
 42
0.000000
 10
758325.541656
 20
4284584.326435
 42
0.000000
 10
758862.088852
 20
4285364.004333
 42
0.000000
 10
759109.905885
 20
4285216.492807
 42
0.000000
 10
759607.998702
 20
4285354.934848
 42
0.000000
 10
759813.387949
 20
4285413.854930
 42
0.000000
 10
759813.387949
 20
4285413.854930
 42
0.000000
  0
LWPOLYLINE
  5
    65
100
AcDbEntity
  8
Segunda
 62
     1
100
AcDbPolyline
 90
    85
 70
     1
 38
0.000
 10
774285.408273
 20
4292648.256148
 42
0.000000
 10
774295.622883
 20
4292629.715076
 42
0.000000
 10
774755.785965
 20
4291857.631732
 42
0.000000
 10
774770.900050
 20
4291873.713327
 42
0.000000
 10
774787.868143
 20
4291886.524865
 42
0.000000
 10
774793.008426
 20
4291888.925256
 42
0.000000
 10
774803.442421
 20
4291889.285807
 42
0.000000
 10
774822.916669
 20
4291879.956312
 42
0.000000
 10
774839.143143
 20
4291863.846300
 42
0.000000
 10
774872.389537
 20
4291758.302287
 42
0.000000
 10
774890.266215
 20
4291694.459775
 42
0.000000
 10
776091.933898
 20
4290532.440122
 42
0.000000
 10
776446.478754
 20
4290226.890576
 42
0.000000
 10
776168.022128
 20
4289870.464463
 42
0.000000
 10
775848.069111
 20
4289680.432523
 42
0.000000
 10
775579.985123
 20
4289626.688920
 42
0.000000
 10
775387.929154
 20
4289464.446350
 42
0.000000
 10
775354.490998
 20
4289122.093611
 42
0.000000
 10
775211.537175
 20
4288899.318118
 42
0.000000
 10
775193.859233
 20
4288705.326153
 42
0.000000
 10
774503.632887
 20
4287986.886218
 42
0.000000
 10
774389.717982
 20
4288158.556637
 42
0.000000
 10
774212.268041
 20
4288430.285873
 42
0.000000
 10
774003.777952
 20
4288921.000766
 42
0.000000
 10
773681.518314
 20
4289302.226399
 42
0.000000
 10
773657.949942
 20
4289329.200151
 42
0.000000
 10
773613.499287
 20
4289381.017438
 42
0.000000
 10
773568.064958
 20
4289436.135210
 42
0.000000
 10
773551.722483
 20
4289455.578045
 42
0.000000
 10
773547.221074
 20
4289459.868784
 42
0.000000
 10
773444.674163
 20
4289555.256145
 42
0.000000
 10
773436.388761
 20
4289568.307833
 42
0.000000
 10
773380.145767
 20
4289608.607398
 42
0.000000
 10
773342.358445
 20
4289643.984388
 42
0.000000
 10
773239.130239
 20
4289759.355111
 42
0.000000
 10
773148.385699
 20
4289866.264548
 42
0.000000
 10
773120.472157
 20
4289893.090458
 42
0.000000
 10
772991.349761
 20
4290002.018328
 42
0.000000
 10
772976.069882
 20
4290015.941796
 42
0.000000
 10
772687.471508
 20
4291119.626057
 42
0.000000
 10
772646.453989
 20
4291274.921454
 42
0.000000
 10
772443.495770
 20
4291329.091512
 42
0.000000
 10
772052.446817
 20
4291435.732230
 42
0.000000
 10
771115.230031
 20
4291782.696424
 42
0.000000
 10
771132.316082
 20
4291817.730497
 42
0.000000
 10
771150.499589
 20
4291820.573153
 42
0.000000
 10
771167.397235
 20
4291835.596758
 42
0.000000
 10
771160.894489
 20
4291847.599777
 42
0.000000
 10
771143.957983
 20
4291859.247042
 42
0.000000
 10
771127.664913
 20
4291852.023483
 42
0.000000
 10
771112.506205
 20
4291837.059248
 42
0.000000
 10
771040.943711
 20
4291842.399241
 42
0.000000
 10
770632.523236
 20
4292281.914291
 42
0.000000
 10
770634.981648
 20
4292363.125480
 42
0.000000
 10
770639.480285
 20
4292384.393988
 42
0.000000
 10
770646.662718
 20
4292403.531184
 42
0.000000
 10
770650.972355
 20
4292430.349953
 42
0.000000
 10
770653.429455
 20
4292434.878939
 42
0.000000
 10
770667.718261
 20
4292449.812729
 42
0.000000
 10
770671.725223
 20
4292459.951167
 42
0.000000
 10
770675.316475
 20
4292482.300158
 42
0.000000
 10
770678.453997
 20
4292492.409003
 42
0.000000
 10
770675.997147
 20
4292513.440758
 42
0.000000
 10
770930.391836
 20
4292583.229282
 42
0.000000
 10
770965.199442
 20
4292787.790831
 42
0.000000
 10
771439.188815
 20
4292926.208528
 42
0.000000
 10
772276.293033
 20
4293059.303152
 42
0.000000
 10
772424.610681
 20
4293074.386888
 42
0.000000
 10
772621.738584
 20
4293036.690532
 42
0.000000
 10
772695.627823
 20
4293064.786224
 42
0.000000
 10
772702.354207
 20
4293071.685146
 42
0.000000
 10
772742.382757
 20
4293071.947075
 42
0.000000
 10
772752.815054
 20
4293072.305017
 42
0.000000
 10
772778.369261
 20
4293063.179594
 42
0.000000
 10
772800.369902
 20
4293056.155025
 42
0.000000
 10
772826.412609
 20
4293058.160150
 42
0.000000
 10
772850.342546
 20
4293045.645108
 42
0.000000
 10
772868.110812
 20
4293035.141354
 42
0.000000
 10
772875.446759
 20
4293024.279523
 42
0.000000
 10
773432.791692
 20
4292914.511740
 42
0.000000
 10
773745.874126
 20
4292846.378871
 42
0.000000
 10
773782.273764
 20
4292850.966462
 42
0.000000
 10
773888.589020
 20
4292796.836939
 42
0.000000
 10
774285.408273
 20
4292648.256148
 42
0.000000
 10
774285.408273
 20
4292648.256148
 42
0.000000
  0
LWPOLYLINE
  5
    66
100
AcDbEntity
  8
Tercera
 62
     2
100
AcDbPolyline
 90
   135
 70
     1
 38
0.000
 10
764118.574530
 20
4280562.597719
 42
0.000000
 10
763818.747665
 20
4280324.879106
 42
0.000000
 10
763864.370505
 20
4280078.583073
 42
0.000000
 10
763741.269156
 20
4279978.949183
 42
0.000000
 10
763881.196862
 20
4279806.888204
 42
0.000000
 10
763697.907409
 20
4279681.930360
 42
0.000000
 10
763297.465603
 20
4279903.181134
 42
0.000000
 10
762739.922206
 20
4280104.831626
 42
0.000000
 10
762586.274219
 20
4280111.999008
 42
0.000000
 10
762379.957486
 20
4280263.006630
 42
0.000000
 10
762035.392617
 20
4280403.922898
 42
0.000000
 10
761966.335072
 20
4280542.779355
 42
0.000000
 10
761757.511731
 20
4280611.489714
 42
0.000000
 10
761769.662517
 20
4280931.915581
 42
0.000000
 10
761701.459733
 20
4280965.237185
 42
0.000000
 10
761661.626767
 20
4280983.932656
 42
0.000000
 10
761570.352398
 20
4281029.833259
 42
0.000000
 10
761548.223317
 20
4281040.219955
 42
0.000000
 10
760535.067388
 20
4281533.781920
 42
0.000000
 10
761105.605449
 20
4282208.041609
 42
0.000000
 10
761363.403085
 20
4282318.715205
 42
0.000000
 10
761375.407776
 20
4282324.664595
 42
0.000000
 10
762113.509902
 20
4282642.245710
 42
0.000000
 10
762535.400687
 20
4282876.143425
 42
0.000000
 10
762790.181908
 20
4283130.115007
 42
0.000000
 10
763332.082118
 20
4283528.031906
 42
0.000000
 10
763649.983368
 20
4283795.232449
 42
0.000000
 10
763686.489317
 20
4283824.220619
 42
0.000000
 10
763947.611294
 20
4283937.317599
 42
0.000000
 10
764078.622247
 20
4283796.083773
 42
0.000000
 10
764085.731898
 20
4283791.874308
 42
0.000000
 10
764371.723877
 20
4283838.023533
 42
0.000000
 10
764581.245339
 20
4283930.539905
 42
0.000000
 10
764784.973807
 20
4284197.335786
 42
0.000000
 10
764867.649923
 20
4284331.209813
 42
0.000000
 10
764342.455281
 20
4285088.313752
 42
0.000000
 10
764336.434054
 20
4285164.789959
 42
0.000000
 10
764328.230697
 20
4285254.528737
 42
0.000000
 10
764323.668805
 20
4285313.273433
 42
0.000000
 10
764317.366626
 20
4285371.960408
 42
0.000000
 10
764321.703863
 20
4285398.774169
 42
0.000000
 10
764332.426652
 20
4285416.909787
 42
0.000000
 10
764356.482504
 20
4285453.267677
 42
0.000000
 10
764513.527754
 20
4285419.585553
 42
0.000000
 10
764562.624551
 20
4285410.102964
 42
0.000000
 10
764837.478864
 20
4285108.082614
 42
0.000000
 10
765000.340662
 20
4285187.950436
 42
0.000000
 10
765265.281641
 20
4284948.954825
 42
0.000000
 10
765293.667385
 20
4285247.716413
 42
0.000000
 10
765278.478713
 20
4285416.121833
 42
0.000000
 10
765368.985866
 20
4285628.051932
 42
0.000000
 10
765763.173326
 20
4285666.748770
 42
0.000000
 10
766030.225148
 20
4285782.342046
 42
0.000000
 10
766132.397176
 20
4285826.870992
 42
0.000000
 10
766196.765525
 20
4285855.691725
 42
0.000000
 10
766437.530460
 20
4285819.288508
 42
0.000000
 10
766574.769850
 20
4285804.987331
 42
0.000000
 10
766934.247043
 20
4285891.478101
 42
0.000000
 10
766963.832930
 20
4285502.410921
 42
0.000000
 10
767203.100821
 20
4285329.291982
 42
0.000000
 10
767257.372633
 20
4285295.550967
 42
0.000000
 10
767298.950696
 20
4285224.712239
 42
0.000000
 10
767371.368528
 20
4285091.565250
 42
0.000000
 10
767461.253923
 20
4284931.222871
 42
0.000000
 10
767466.722564
 20
4284898.067934
 42
0.000000
 10
767496.594789
 20
4284864.620724
 42
0.000000
 10
767496.097116
 20
4284853.491199
 42
0.000000
 10
767531.600854
 20
4284808.008996
 42
0.000000
 10
767528.561716
 20
4284638.992074
 42
0.000000
 10
767526.219417
 20
4284501.114495
 42
0.000000
 10
767541.753264
 20
4284323.830772
 42
0.000000
 10
767557.753700
 20
4284314.366263
 42
0.000000
 10
767576.588594
 20
4284298.329233
 42
0.000000
 10
767618.684595
 20
4284264.181315
 42
0.000000
 10
767673.673265
 20
4284209.352111
 42
0.000000
 10
767697.954086
 20
4284186.830491
 42
0.000000
 10
767706.918024
 20
4284179.352526
 42
0.000000
 10
767752.049037
 20
4284158.642541
 42
0.000000
 10
767778.145421
 20
4284133.959545
 42
0.000000
 10
767827.703025
 20
4284111.176070
 42
0.000000
 10
767830.388539
 20
4284109.043723
 42
0.000000
 10
767848.242272
 20
4284096.308141
 42
0.000000
 10
767859.208156
 20
4284081.118594
 42
0.000000
 10
767904.738120
 20
4284022.639095
 42
0.000000
 10
767915.554989
 20
4284011.889743
 42
0.000000
 10
767930.872716
 20
4283996.846523
 42
0.000000
 10
767959.618454
 20
4283971.141786
 42
0.000000
 10
767980.804760
 20
4283962.963615
 42
0.000000
 10
768012.845519
 20
4283942.926235
 42
0.000000
 10
768045.185007
 20
4283914.008719
 42
0.000000
 10
768099.271305
 20
4283860.262967
 42
0.000000
 10
768106.457980
 20
4283853.836913
 42
0.000000
 10
768146.855242
 20
4283818.522994
 42
0.000000
 10
768158.207037
 20
4283817.793505
 42
0.000000
 10
768199.983516
 20
4283819.198726
 42
0.000000
 10
768259.663721
 20
4283832.319441
 42
0.000000
 10
768289.031239
 20
4283839.975358
 42
0.000000
 10
768312.119539
 20
4283852.976516
 42
0.000000
 10
768342.357286
 20
4283860.661927
 42
0.000000
 10
768356.357446
 20
4283858.910570
 42
0.000000
 10
768379.274285
 20
4283825.231959
 42
0.000000
 10
768377.223734
 20
4283808.493576
 42
0.000000
 10
768375.658910
 20
4283777.324769
 42
0.000000
 10
768379.513956
 20
4283766.341630
 42
0.000000
 10
768390.448468
 20
4283674.472597
 42
0.000000
 10
768415.143991
 20
4283639.742625
 42
0.000000
 10
768416.964126
 20
4283559.790980
 42
0.000000
 10
768266.829457
 20
4283438.053019
 42
0.000000
 10
768225.168019
 20
4283277.737345
 42
0.000000
 10
768082.337109
 20
4283094.017294
 42
0.000000
 10
767847.279383
 20
4282776.071135
 42
0.000000
 10
767977.162397
 20
4282619.298074
 42
0.000000
 10
767905.295840
 20
4282475.750961
 42
0.000000
 10
767642.456046
 20
4282205.776606
 42
0.000000
 10
767523.631031
 20
4281565.029399
 42
0.000000
 10
767708.577004
 20
4281507.889996
 42
0.000000
 10
767676.824881
 20
4281311.239929
 42
0.000000
 10
767738.265882
 20
4281116.605212
 42
0.000000
 10
767870.046299
 20
4280929.887923
 42
0.000000
 10
768136.080379
 20
4280846.585898
 42
0.000000
 10
768392.533939
 20
4280504.040882
 42
0.000000
 10
767832.674672
 20
4280563.023271
 42
0.000000
 10
767668.737568
 20
4280590.861798
 42
0.000000
 10
767367.077921
 20
4280670.763495
 42
0.000000
 10
766952.837369
 20
4281380.332005
 42
0.000000
 10
766343.860038
 20
4281451.104285
 42
0.000000
 10
766187.265984
 20
4281547.003127
 42
0.000000
 10
765412.407920
 20
4281470.071927
 42
0.000000
 10
765198.502588
 20
4281455.180527
 42
0.000000
 10
764928.373572
 20
4281296.188584
 42
0.000000
 10
764805.746629
 20
4281183.216238
 42
0.000000
 10
764594.496645
 20
4281061.750814
 42
0.000000
 10
764180.941916
 20
4280811.355872
 42
0.000000
 10
764118.574530
 20
4280562.597719
 42
0.000000
 10
764118.574530
 20
4280562.597719
 42
0.000000
  0
LWPOLYLINE
  5
    67
100
AcDbEntity
  8
Cuarta
 62
     3
100
AcDbPolyline
 90
    86
 70
     1
 38
0.000
 10
759423.741244
 20
4306115.230214
 42
0.000000
 10
759402.585371
 20
4306124.537969
 42
0.000000
 10
759234.935237
 20
4306176.829591
 42
0.000000
 10
759045.409956
 20
4306233.964767
 42
0.000000
 10
758863.625600
 20
4306293.579858
 42
0.000000
 10
758698.695718
 20
4306342.637516
 42
0.000000
 10
758467.811791
 20
4306416.213673
 42
0.000000
 10
758413.318668
 20
4306435.547511
 42
0.000000
 10
758428.196315
 20
4306219.345196
 42
0.000000
 10
758429.390329
 20
4306209.383193
 42
0.000000
 10
758432.537476
 20
4306192.817636
 42
0.000000
 10
758497.870555
 20
4305841.582701
 42
0.000000
 10
758507.600540
 20
4305809.675029
 42
0.000000
 10
758581.862327
 20
4305557.630710
 42
0.000000
 10
758686.406823
 20
4305203.232549
 42
0.000000
 10
758647.643793
 20
4305139.737830
 42
0.000000
 10
758718.712405
 20
4305092.054676
 42
0.000000
 10
758778.332883
 20
4304889.538069
 42
0.000000
 10
758788.028468
 20
4304858.740705
 42
0.000000
 10
758381.778314
 20
4303860.937125
 42
0.000000
 10
758177.342368
 20
4303814.267666
 42
0.000000
 10
757903.133857
 20
4303882.008752
 42
0.000000
 10
757653.188447
 20
4303738.307617
 42
0.000000
 10
757181.775805
 20
4303456.300516
 42
0.000000
 10
756938.777784
 20
4303258.400991
 42
0.000000
 10
756846.560154
 20
4303180.960725
 42
0.000000
 10
756809.279117
 20
4303258.647129
 42
0.000000
 10
756707.205138
 20
4303485.356478
 42
0.000000
 10
756687.535815
 20
4303529.166941
 42
0.000000
 10
756678.063355
 20
4303553.306311
 42
0.000000
 10
756557.052322
 20
4303828.296036
 42
0.000000
 10
756576.854048
 20
4303914.499373
 42
0.000000
 10
756590.933269
 20
4303962.736807
 42
0.000000
 10
756622.824950
 20
4304104.891768
 42
0.000000
 10
756648.233685
 20
4304205.722661
 42
0.000000
 10
756657.319336
 20
4304247.131330
 42
0.000000
 10
756677.190376
 20
4304331.115013
 42
0.000000
 10
756686.311636
 20
4304371.413706
 42
0.000000
 10
756744.999632
 20
4304517.771695
 42
0.000000
 10
756769.820618
 20
4304583.025896
 42
0.000000
 10
756760.389027
 20
4304632.724014
 42
0.000000
 10
756682.416071
 20
4305081.342590
 42
0.000000
 10
757371.936869
 20
4305172.619741
 42
0.000000
 10
757818.862583
 20
4305589.418440
 42
0.000000
 10
757965.030645
 20
4305743.082576
 42
0.000000
 10
757907.314630
 20
4306127.904554
 42
0.000000
 10
757842.660289
 20
4306299.147579
 42
0.000000
 10
757836.260079
 20
4306308.940013
 42
0.000000
 10
757892.773521
 20
4306654.146622
 42
0.000000
 10
757914.648617
 20
4306675.972579
 42
0.000000
 10
758130.789578
 20
4306894.150921
 42
0.000000
 10
757970.321164
 20
4307073.380275
 42
0.000000
 10
757731.909645
 20
4307058.944255
 42
0.000000
 10
757488.265646
 20
4307392.154532
 42
0.000000
 10
757440.942796
 20
4307485.067654
 42
0.000000
 10
757362.965362
 20
4307639.211590
 42
0.000000
 10
757128.015103
 20
4307759.361226
 42
0.000000
 10
756917.181152
 20
4308233.664272
 42
0.000000
 10
756956.382779
 20
4308417.175754
 42
0.000000
 10
757264.074962
 20
4308142.707430
 42
0.000000
 10
757345.520008
 20
4308068.683009
 42
0.000000
 10
757517.416279
 20
4307910.928570
 42
0.000000
 10
758186.514684
 20
4307396.017736
 42
0.000000
 10
758311.182509
 20
4307302.299263
 42
0.000000
 10
759180.336970
 20
4306782.884442
 42
0.000000
 10
759962.381303
 20
4306565.173779
 42
0.000000
 10
761127.651291
 20
4306293.495361
 42
0.000000
 10
761121.990250
 20
4306254.414774
 42
0.000000
 10
761111.927614
 20
4306190.741456
 42
0.000000
 10
761097.499732
 20
4306101.365396
 42
0.000000
 10
761088.989243
 20
4306043.299611
 42
0.000000
 10
761098.691366
 20
4305749.138079
 42
0.000000
 10
761087.262195
 20
4305753.206140
 42
0.000000
 10
761039.809840
 20
4305769.421308
 42
0.000000
 10
760932.645461
 20
4305804.782095
 42
0.000000
 10
760883.348263
 20
4305824.271084
 42
0.000000
 10
760818.136713
 20
4305852.125997
 42
0.000000
 10
760712.920249
 20
4305907.556194
 42
0.000000
 10
760539.536012
 20
4305975.189946
 42
0.000000
 10
760162.941622
 20
4306119.488906
 42
0.000000
 10
760095.241261
 20
4306143.933832
 42
0.000000
 10
760038.064966
 20
4306165.391313
 42
0.000000
 10
759989.640412
 20
4306184.914159
 42
0.000000
 10
759423.741244
 20
4306115.230214
 42
0.000000
 10
759423.741244
 20
4306115.230214
 42
0.000000
 10
759423.741244
 20
4306115.230214
 42
0.000000
  0
LWPOLYLINE
  5
    68
100
AcDbEntity
  8
Quinta
 62
     4
100
AcDbPolyline
 90
   285
 70
     1
 38
0.000
 10
769697.447451
 20
4299743.856370
 42
0.000000
 10
769678.260110
 20
4299643.183416
 42
0.000000
 10
769523.824864
 20
4299427.891741
 42
0.000000
 10
769489.720190
 20
4299407.840368
 42
0.000000
 10
769472.760665
 20
4299369.478806
 42
0.000000
 10
769471.815198
 20
4299346.108619
 42
0.000000
 10
769483.029494
 20
4299297.590732
 42
0.000000
 10
769503.156777
 20
4299242.707608
 42
0.000000
 10
769504.174925
 20
4299212.736100
 42
0.000000
 10
769527.116944
 20
4298818.990957
 42
0.000000
 10
769542.092339
 20
4298480.542162
 42
0.000000
 10
769542.167750
 20
4298478.322052
 42
0.000000
 10
769556.663494
 20
4298333.229462
 42
0.000000
 10
769629.617509
 20
4297312.167968
 42
0.000000
 10
769644.816769
 20
4296941.498648
 42
0.000000
 10
769745.608518
 20
4295766.908839
 42
0.000000
 10
769910.139421
 20
4295405.758319
 42
0.000000
 10
769948.454664
 20
4295404.837693
 42
0.000000
 10
770000.599857
 20
4295406.610005
 42
0.000000
 10
770068.842544
 20
4295421.154649
 42
0.000000
 10
770100.584405
 20
4295460.019362
 42
0.000000
 10
770136.710615
 20
4295549.043485
 42
0.000000
 10
770166.865749
 20
4295634.530739
 42
0.000000
 10
770186.024535
 20
4295710.753394
 42
0.000000
 10
770198.494852
 20
4295778.969226
 42
0.000000
 10
770261.029670
 20
4295910.012224
 42
0.000000
 10
770621.605657
 20
4295847.830675
 42
0.000000
 10
770671.172247
 20
4296001.773892
 42
0.000000
 10
770963.166925
 20
4295986.170084
 42
0.000000
 10
771097.886073
 20
4295786.279455
 42
0.000000
 10
771309.432342
 20
4295884.633905
 42
0.000000
 10
771361.126314
 20
4295848.614026
 42
0.000000
 10
771454.386990
 20
4295792.899316
 42
0.000000
 10
771426.535697
 20
4295538.559078
 42
0.000000
 10
771310.687057
 20
4294828.893833
 42
0.000000
 10
771407.633649
 20
4294691.063628
 42
0.000000
 10
771402.745367
 20
4294477.517458
 42
0.000000
 10
771197.859855
 20
4294259.365818
 42
0.000000
 10
770982.199335
 20
4293897.489761
 42
0.000000
 10
770880.770394
 20
4293630.643849
 42
0.000000
 10
770112.578181
 20
4293468.916594
 42
0.000000
 10
770084.572002
 20
4293473.521533
 42
0.000000
 10
769966.462617
 20
4293491.735570
 42
0.000000
 10
769505.295013
 20
4293566.102206
 42
0.000000
 10
768953.884241
 20
4293452.961565
 42
0.000000
 10
768416.587574
 20
4293308.108988
 42
0.000000
 10
768705.127447
 20
4293654.586487
 42
0.000000
 10
768749.568357
 20
4293961.701096
 42
0.000000
 10
768557.361665
 20
4294138.570203
 42
0.000000
 10
768473.460252
 20
4294715.841140
 42
0.000000
 10
768589.556026
 20
4294910.911504
 42
0.000000
 10
768706.600904
 20
4295154.914239
 42
0.000000
 10
768839.101020
 20
4295250.525541
 42
0.000000
 10
768885.723836
 20
4295621.062245
 42
0.000000
 10
768909.122509
 20
4295675.197865
 42
0.000000
 10
768963.519007
 20
4295815.955121
 42
0.000000
 10
768982.454166
 20
4295847.713443
 42
0.000000
 10
769069.615247
 20
4296048.481689
 42
0.000000
 10
769216.950594
 20
4296193.502139
 42
0.000000
 10
769513.426391
 20
4296993.715221
 42
0.000000
 10
769622.741908
 20
4297309.711769
 42
0.000000
 10
769170.135839
 20
4297625.528182
 42
0.000000
 10
769128.604165
 20
4297798.598577
 42
0.000000
 10
769105.905127
 20
4297826.723491
 42
0.000000
 10
768916.123118
 20
4298062.560464
 42
0.000000
 10
768732.424119
 20
4298016.330459
 42
0.000000
 10
768515.921752
 20
4298091.240454
 42
0.000000
 10
768127.312545
 20
4298240.354283
 42
0.000000
 10
767917.585794
 20
4298321.065065
 42
0.000000
 10
767737.663778
 20
4298266.094959
 42
0.000000
 10
767221.085471
 20
4298445.385042
 42
0.000000
 10
766909.761351
 20
4298496.029142
 42
0.000000
 10
766877.435608
 20
4298319.355930
 42
0.000000
 10
766881.239598
 20
4298387.273374
 42
0.000000
 10
766867.407438
 20
4298462.376832
 42
0.000000
 10
766819.959992
 20
4298631.921992
 42
0.000000
 10
766711.720398
 20
4298928.334692
 42
0.000000
 10
766679.210802
 20
4299041.706076
 42
0.000000
 10
766664.539106
 20
4299090.110238
 42
0.000000
 10
766640.903640
 20
4299198.223477
 42
0.000000
 10
766587.766896
 20
4299382.025175
 42
0.000000
 10
766549.872702
 20
4299526.332378
 42
0.000000
 10
766505.158325
 20
4299614.845448
 42
0.000000
 10
766434.461547
 20
4299700.263325
 42
0.000000
 10
766328.314620
 20
4299805.606034
 42
0.000000
 10
766222.230947
 20
4299960.960517
 42
0.000000
 10
766137.219832
 20
4300110.355405
 42
0.000000
 10
766056.095414
 20
4300247.657084
 42
0.000000
 10
765988.323582
 20
4300427.636522
 42
0.000000
 10
765936.597103
 20
4300518.139370
 42
0.000000
 10
765891.720401
 20
4300637.765855
 42
0.000000
 10
765843.147655
 20
4300763.936367
 42
0.000000
 10
765642.136053
 20
4300872.774333
 42
0.000000
 10
765608.539515
 20
4300889.429550
 42
0.000000
 10
765562.412919
 20
4300916.778159
 42
0.000000
 10
765520.517406
 20
4300947.602575
 42
0.000000
 10
765483.298984
 20
4300968.582156
 42
0.000000
 10
765447.743339
 20
4300991.840147
 42
0.000000
 10
765347.765157
 20
4301069.617861
 42
0.000000
 10
765311.379084
 20
4301091.737311
 42
0.000000
 10
765295.264357
 20
4301105.644860
 42
0.000000
 10
765261.409625
 20
4301130.071795
 42
0.000000
 10
765246.126358
 20
4301145.118539
 42
0.000000
 10
765228.349265
 20
4301156.748012
 42
0.000000
 10
765151.102770
 20
4301230.843199
 42
0.000000
 10
765134.157307
 20
4301243.611958
 42
0.000000
 10
765107.822461
 20
4301277.181256
 42
0.000000
 10
765092.576877
 20
4301291.118222
 42
0.000000
 10
765078.993939
 20
4301307.333381
 42
0.000000
 10
765063.748461
 20
4301321.270397
 42
0.000000
 10
765021.300428
 20
4301368.747962
 42
0.000000
 10
764942.358162
 20
4301441.676889
 42
0.000000
 10
764922.882486
 20
4301452.138903
 42
0.000000
 10
764884.910958
 20
4301469.761942
 42
0.000000
 10
764864.752479
 20
4301474.644841
 42
0.000000
 10
764845.351167
 20
4301482.886943
 42
0.000000
 10
764804.997289
 20
4301493.763033
 42
0.000000
 10
764784.044698
 20
4301496.397031
 42
0.000000
 10
764763.812222
 20
4301503.500274
 42
0.000000
 10
764682.347889
 20
4301521.894328
 42
0.000000
 10
764598.464101
 20
4301534.652013
 42
0.000000
 10
764579.174403
 20
4301539.564606
 42
0.000000
 10
764560.641979
 20
4301547.836363
 42
0.000000
 10
764280.753915
 20
4301364.029757
 42
0.000000
 10
764256.384292
 20
4301338.769281
 42
0.000000
 10
764119.919836
 20
4301155.306186
 42
0.000000
 10
764087.290434
 20
4301090.876516
 42
0.000000
 10
764078.181373
 20
4301077.237800
 42
0.000000
 10
764037.864419
 20
4301034.777863
 42
0.000000
 10
763930.067106
 20
4300930.062825
 42
0.000000
 10
763903.385186
 20
4300895.836502
 42
0.000000
 10
763865.394289
 20
4300835.674661
 42
0.000000
 10
763836.697328
 20
4300783.601202
 42
0.000000
 10
763818.551398
 20
4300754.104362
 42
0.000000
 10
763804.415297
 20
4300734.742426
 42
0.000000
 10
763775.699769
 20
4300709.339162
 42
0.000000
 10
763731.147617
 20
4300663.406409
 42
0.000000
 10
763722.037404
 20
4300649.768166
 42
0.000000
 10
763672.567702
 20
4301039.290353
 42
0.000000
 10
763385.975518
 20
4301160.894313
 42
0.000000
 10
763425.121249
 20
4301343.331657
 42
0.000000
 10
763522.591228
 20
4301471.033225
 42
0.000000
 10
763659.706174
 20
4301556.715168
 42
0.000000
 10
763732.672592
 20
4301793.620981
 42
0.000000
 10
763871.736245
 20
4302238.314156
 42
0.000000
 10
763862.461544
 20
4302308.015759
 42
0.000000
 10
763838.129744
 20
4302490.566244
 42
0.000000
 10
763710.069873
 20
4302681.888265
 42
0.000000
 10
763690.802292
 20
4302712.362797
 42
0.000000
 10
763618.185313
 20
4302831.075614
 42
0.000000
 10
763597.961554
 20
4303099.331218
 42
0.000000
 10
763568.098631
 20
4303605.079082
 42
0.000000
 10
763727.357027
 20
4303729.285887
 42
0.000000
 10
763764.460437
 20
4303998.339240
 42
0.000000
 10
763398.463983
 20
4303792.798746
 42
0.000000
 10
763064.403167
 20
4303567.223056
 42
0.000000
 10
763149.424690
 20
4303257.779885
 42
0.000000
 10
763068.617641
 20
4303126.189261
 42
0.000000
 10
762757.568250
 20
4303018.076656
 42
0.000000
 10
762729.785485
 20
4303017.155385
 42
0.000000
 10
762711.332220
 20
4303023.211117
 42
0.000000
 10
762703.260701
 20
4303030.722351
 42
0.000000
 10
762660.166465
 20
4303045.962637
 42
0.000000
 10
762584.176261
 20
4303083.449412
 42
0.000000
 10
762503.382161
 20
4303108.553819
 42
0.000000
 10
762484.818996
 20
4303117.940188
 42
0.000000
 10
762412.987559
 20
4303161.122555
 42
0.000000
 10
762379.908634
 20
4303188.919833
 42
0.000000
 10
762350.192421
 20
4303220.162358
 42
0.000000
 10
762317.150711
 20
4303246.849833
 42
0.000000
 10
762254.356950
 20
4303305.890330
 42
0.000000
 10
762423.383896
 20
4303608.193950
 42
0.000000
 10
762378.022137
 20
4303744.487859
 42
0.000000
 10
762357.916457
 20
4303800.496287
 42
0.000000
 10
762169.185402
 20
4303909.818835
 42
0.000000
 10
762408.071982
 20
4304096.642099
 42
0.000000
 10
762567.298979
 20
4304221.935315
 42
0.000000
 10
762703.908813
 20
4304295.363687
 42
0.000000
 10
762735.916975
 20
4304299.759212
 42
0.000000
 10
762812.843777
 20
4304312.312850
 42
0.000000
 10
762903.217337
 20
4304338.648819
 42
0.000000
 10
762920.652385
 20
4304337.005039
 42
0.000000
 10
762957.942445
 20
4304339.354284
 42
0.000000
 10
763016.565560
 20
4304353.524816
 42
0.000000
 10
763048.573418
 20
4304357.921624
 42
0.000000
 10
763156.752290
 20
4304816.025726
 42
0.000000
 10
763152.499198
 20
4305127.040916
 42
0.000000
 10
763083.763887
 20
4305155.872516
 42
0.000000
 10
763047.512971
 20
4305174.671049
 42
0.000000
 10
763010.431134
 20
4305192.330862
 42
0.000000
 10
762936.693606
 20
4305241.000372
 42
0.000000
 10
762872.430888
 20
4305292.207597
 42
0.000000
 10
762845.728703
 20
4305311.323989
 42
0.000000
 10
762837.732813
 20
4305316.614904
 42
0.000000
 10
762819.026648
 20
4305330.440465
 42
0.000000
 10
762802.130152
 20
4305342.103591
 42
0.000000
 10
762770.404784
 20
4305355.497132
 42
0.000000
 10
762731.662232
 20
4305370.880474
 42
0.000000
 10
762642.305103
 20
4305419.034145
 42
0.000000
 10
762630.800857
 20
4305425.320137
 42
0.000000
 10
762571.580836
 20
4305455.582714
 42
0.000000
 10
762513.266035
 20
4305484.764444
 42
0.000000
 10
762498.290240
 20
4305490.935506
 42
0.000000
 10
762473.619950
 20
4305501.230260
 42
0.000000
 10
762447.213856
 20
4305511.467546
 42
0.000000
 10
762425.221099
 20
4305519.628666
 42
0.000000
 10
762382.824447
 20
4305540.448796
 42
0.000000
 10
762412.039821
 20
4305550.307208
 42
0.000000
 10
762454.737240
 20
4305572.836587
 42
0.000000
 10
762473.316471
 20
4305589.010254
 42
0.000000
 10
762490.659659
 20
4305616.255657
 42
0.000000
 10
762507.245217
 20
4305640.142187
 42
0.000000
 10
762510.995910
 20
4305658.046828
 42
0.000000
 10
762512.605854
 20
4305688.104427
 42
0.000000
 10
762507.419692
 20
4305713.491607
 42
0.000000
 10
762492.539302
 20
4305743.002418
 42
0.000000
 10
762479.358024
 20
4305773.680852
 42
0.000000
 10
762437.094407
 20
4305816.730345
 42
0.000000
 10
762419.184402
 20
4305832.805629
 42
0.000000
 10
762406.886610
 20
4305836.843046
 42
0.000000
 10
762365.190606
 20
4305836.572310
 42
0.000000
 10
762338.138560
 20
4305840.120857
 42
0.000000
 10
762299.009520
 20
4305841.046798
 42
0.000000
 10
762264.256775
 20
4305841.006649
 42
0.000000
 10
762246.751702
 20
4305844.871794
 42
0.000000
 10
762235.969206
 20
4305855.627251
 42
0.000000
 10
762228.364159
 20
4305875.378087
 42
0.000000
 10
762217.052382
 20
4305928.344074
 42
0.000000
 10
762210.874477
 20
4305983.702652
 42
0.000000
 10
762200.298255
 20
4306014.467730
 42
0.000000
 10
762173.387300
 20
4306092.476147
 42
0.000000
 10
762150.499685
 20
4306153.948909
 42
0.000000
 10
763158.928726
 20
4305744.011865
 42
0.000000
 10
763355.575877
 20
4305709.433848
 42
0.000000
 10
763496.234615
 20
4305686.332237
 42
0.000000
 10
763947.978605
 20
4305714.716040
 42
0.000000
 10
764337.552303
 20
4305835.509256
 42
0.000000
 10
764643.497748
 20
4306092.438042
 42
0.000000
 10
765052.197391
 20
4306108.334977
 42
0.000000
 10
765385.307431
 20
4305942.798852
 42
0.000000
 10
765705.479210
 20
4305930.201454
 42
0.000000
 10
765907.277461
 20
4305820.289971
 42
0.000000
 10
766232.375035
 20
4305738.977446
 42
0.000000
 10
766876.158792
 20
4305509.495373
 42
0.000000
 10
767643.858285
 20
4305368.710890
 42
0.000000
 10
768464.353311
 20
4305260.905544
 42
0.000000
 10
768951.893629
 20
4304952.938725
 42
0.000000
 10
769063.110569
 20
4304748.895581
 42
0.000000
 10
769251.818492
 20
4304591.941463
 42
0.000000
 10
769942.210560
 20
4304530.980268
 42
0.000000
 10
770088.654797
 20
4304518.191316
 42
0.000000
 10
770194.967174
 20
4303923.908043
 42
0.000000
 10
770263.484355
 20
4303851.784542
 42
0.000000
 10
770380.588909
 20
4303731.308642
 42
0.000000
 10
770455.159012
 20
4303583.820787
 42
0.000000
 10
770534.337992
 20
4303428.711301
 42
0.000000
 10
770836.953517
 20
4303297.907360
 42
0.000000
 10
771246.978152
 20
4303000.751314
 42
0.000000
 10
771671.403422
 20
4302893.040598
 42
0.000000
 10
772038.334797
 20
4303169.024968
 42
0.000000
 10
772489.500772
 20
4303042.270948
 42
0.000000
 10
773081.727219
 20
4302909.287353
 42
0.000000
 10
773283.715319
 20
4302799.554787
 42
0.000000
 10
773408.634454
 20
4302731.623262
 42
0.000000
 10
773559.887673
 20
4302480.111215
 42
0.000000
 10
773778.592438
 20
4302490.997516
 42
0.000000
 10
773941.871390
 20
4302369.940324
 42
0.000000
 10
774143.489878
 20
4302095.727528
 42
0.000000
 10
774300.058754
 20
4302043.351383
 42
0.000000
 10
774472.333202
 20
4301688.108951
 42
0.000000
 10
774963.912905
 20
4301402.841318
 42
0.000000
 10
774901.568453
 20
4301119.493350
 42
0.000000
 10
774610.435976
 20
4300863.784771
 42
0.000000
 10
774318.695874
 20
4300449.137639
 42
0.000000
 10
774018.467725
 20
4300027.542590
 42
0.000000
 10
773998.604879
 20
4300023.522217
 42
0.000000
 10
773194.943780
 20
4299850.209119
 42
0.000000
 10
772875.435960
 20
4299759.191740
 42
0.000000
 10
771763.493500
 20
4299673.229276
 42
0.000000
 10
771653.973660
 20
4299823.957487
 42
0.000000
 10
771169.844121
 20
4300096.345134
 42
0.000000
 10
770298.883492
 20
4300111.068956
 42
0.000000
 10
769752.550700
 20
4300015.786030
 42
0.000000
 10
769697.447451
 20
4299743.856370
 42
0.000000
 10
769697.447451
 20
4299743.856370
 42
0.000000
  0
LWPOLYLINE
  5
    69
100
AcDbEntity
  8
Sexta
 62
     5
100
AcDbPolyline
 90
    64
 70
     1
 38
0.000
 10
765386.860623
 20
4293473.081532
 42
0.000000
 10
764805.706666
 20
4293468.144350
 42
0.000000
 10
764252.745120
 20
4293505.303532
 42
0.000000
 10
764278.126588
 20
4293867.307841
 42
0.000000
 10
764203.318916
 20
4294128.189653
 42
0.000000
 10
763953.391687
 20
4294422.146597
 42
0.000000
 10
763945.089877
 20
4294436.317197
 42
0.000000
 10
763793.312566
 20
4294683.532439
 42
0.000000
 10
763607.471850
 20
4294987.404904
 42
0.000000
 10
763944.061336
 20
4295305.289342
 42
0.000000
 10
764078.049935
 20
4296273.209313
 42
0.000000
 10
764523.695558
 20
4296526.965500
 42
0.000000
 10
764927.130946
 20
4296689.327120
 42
0.000000
 10
765352.230753
 20
4296905.776197
 42
0.000000
 10
766175.463874
 20
4297103.361511
 42
0.000000
 10
766579.983446
 20
4297283.629435
 42
0.000000
 10
766588.522948
 20
4297288.361399
 42
0.000000
 10
766627.099721
 20
4297305.215176
 42
0.000000
 10
766602.829848
 20
4297691.131883
 42
0.000000
 10
766717.403179
 20
4297879.456944
 42
0.000000
 10
766838.856622
 20
4298095.798068
 42
0.000000
 10
766877.435608
 20
4298319.355930
 42
0.000000
 10
766909.761351
 20
4298496.029142
 42
0.000000
 10
767221.085471
 20
4298445.385042
 42
0.000000
 10
767737.663778
 20
4298266.094959
 42
0.000000
 10
767917.585794
 20
4298321.065065
 42
0.000000
 10
768127.312545
 20
4298240.354283
 42
0.000000
 10
768515.921752
 20
4298091.240454
 42
0.000000
 10
768732.424119
 20
4298016.330459
 42
0.000000
 10
768916.123118
 20
4298062.560464
 42
0.000000
 10
769105.905127
 20
4297826.723491
 42
0.000000
 10
769128.604165
 20
4297798.598577
 42
0.000000
 10
769170.135839
 20
4297625.528182
 42
0.000000
 10
769622.741908
 20
4297309.711769
 42
0.000000
 10
769513.426391
 20
4296993.715221
 42
0.000000
 10
769216.950594
 20
4296193.502139
 42
0.000000
 10
769069.615247
 20
4296048.481689
 42
0.000000
 10
768982.454166
 20
4295847.713443
 42
0.000000
 10
768963.519007
 20
4295815.955121
 42
0.000000
 10
768909.122509
 20
4295675.197865
 42
0.000000
 10
768885.723836
 20
4295621.062245
 42
0.000000
 10
768839.101020
 20
4295250.525541
 42
0.000000
 10
768706.600904
 20
4295154.914239
 42
0.000000
 10
768589.556026
 20
4294910.911504
 42
0.000000
 10
768473.460252
 20
4294715.841140
 42
0.000000
 10
768557.361665
 20
4294138.570203
 42
0.000000
 10
768749.568357
 20
4293961.701096
 42
0.000000
 10
768705.127447
 20
4293654.586487
 42
0.000000
 10
768416.587574
 20
4293308.108988
 42
0.000000
 10
768264.541402
 20
4293326.313442
 42
0.000000
 10
767667.495492
 20
4293042.806791
 42
0.000000
 10
767647.850499
 20
4293367.756734
 42
0.000000
 10
767457.837595
 20
4293609.180546
 42
0.000000
 10
767280.336140
 20
4293556.534709
 42
0.000000
 10
766992.245427
 20
4293583.524390
 42
0.000000
 10
766669.633560
 20
4293420.446517
 42
0.000000
 10
766310.135868
 20
4293007.218974
 42
0.000000
 10
766030.271882
 20
4293100.086030
 42
0.000000
 10
765929.581318
 20
4293222.291605
 42
0.000000
 10
765750.308079
 20
4293326.312531
 42
0.000000
 10
765560.031191
 20
4293473.309267
 42
0.000000
 10
765399.067495
 20
4293472.377858
 42
0.000000
 10
765386.860623
 20
4293473.081532
 42
0.000000
 10
765386.860623
 20
4293473.081532
 42
0.000000
  0
LWPOLYLINE
  5
    70
100
AcDbEntity
  8
Septima
 62
     6
100
AcDbPolyline
 90
   171
 70
     1
 38
0.000
 10
769697.447451
 20
4299743.856370
 42
0.000000
 10
769752.550700
 20
4300015.786030
 42
0.000000
 10
770298.883492
 20
4300111.068956
 42
0.000000
 10
771169.844121
 20
4300096.345134
 42
0.000000
 10
771653.973660
 20
4299823.957487
 42
0.000000
 10
771763.493500
 20
4299673.229276
 42
0.000000
 10
772875.435960
 20
4299759.191740
 42
0.000000
 10
773194.943780
 20
4299850.209119
 42
0.000000
 10
773998.604879
 20
4300023.522217
 42
0.000000
 10
774018.467725
 20
4300027.542590
 42
0.000000
 10
774318.695874
 20
4300449.137639
 42
0.000000
 10
774610.435976
 20
4300863.784771
 42
0.000000
 10
774901.568453
 20
4301119.493350
 42
0.000000
 10
774963.912905
 20
4301402.841318
 42
0.000000
 10
775156.437859
 20
4301367.287252
 42
0.000000
 10
775342.509578
 20
4301117.010990
 42
0.000000
 10
775499.704065
 20
4301022.444141
 42
0.000000
 10
775640.458795
 20
4300950.648307
 42
0.000000
 10
776198.513903
 20
4300856.702232
 42
0.000000
 10
776523.800109
 20
4300730.222331
 42
0.000000
 10
776828.785284
 20
4300513.020361
 42
0.000000
 10
777086.114995
 20
4300390.858181
 42
0.000000
 10
777317.879839
 20
4300154.443370
 42
0.000000
 10
777410.035488
 20
4300030.962454
 42
0.000000
 10
777666.848707
 20
4299998.825417
 42
0.000000
 10
777797.994835
 20
4299755.566433
 42
0.000000
 10
777628.728447
 20
4299547.358837
 42
0.000000
 10
777314.789359
 20
4299421.900529
 42
0.000000
 10
777037.055359
 20
4299305.499693
 42
0.000000
 10
776729.939459
 20
4299308.118322
 42
0.000000
 10
776573.993978
 20
4299115.961192
 42
0.000000
 10
776658.784479
 20
4299078.906126
 42
0.000000
 10
776740.272702
 20
4299061.742362
 42
0.000000
 10
776744.040459
 20
4299028.531031
 42
0.000000
 10
776664.736693
 20
4299007.982544
 42
0.000000
 10
776579.695858
 20
4299027.246118
 42
0.000000
 10
776521.469949
 20
4299050.779338
 42
0.000000
 10
776483.178337
 20
4298901.625816
 42
0.000000
 10
776484.208068
 20
4298797.188092
 42
0.000000
 10
776483.586324
 20
4298540.428188
 42
0.000000
 10
776483.409587
 20
4298245.895637
 42
0.000000
 10
776599.103700
 20
4297846.481225
 42
0.000000
 10
776914.204083
 20
4297317.316176
 42
0.000000
 10
777074.815717
 20
4297177.323563
 42
0.000000
 10
777113.569668
 20
4297014.185244
 42
0.000000
 10
777228.135282
 20
4296872.587974
 42
0.000000
 10
777267.219440
 20
4296725.021586
 42
0.000000
 10
777186.737069
 20
4296513.263621
 42
0.000000
 10
777357.525308
 20
4296381.410272
 42
0.000000
 10
777495.801162
 20
4296482.935377
 42
0.000000
 10
777816.058180
 20
4296207.383921
 42
0.000000
 10
778124.986564
 20
4295908.106632
 42
0.000000
 10
778204.615117
 20
4295820.869168
 42
0.000000
 10
778515.531557
 20
4295490.553919
 42
0.000000
 10
778682.745957
 20
4295313.030906
 42
0.000000
 10
778972.816358
 20
4295180.947545
 42
0.000000
 10
779404.470318
 20
4295279.476387
 42
0.000000
 10
779603.019016
 20
4295250.895809
 42
0.000000
 10
779793.455358
 20
4295180.910497
 42
0.000000
 10
779979.669973
 20
4295576.481255
 42
0.000000
 10
780083.891554
 20
4295236.714793
 42
0.000000
 10
779950.893209
 20
4294960.831398
 42
0.000000
 10
779999.860519
 20
4294781.389617
 42
0.000000
 10
780178.775989
 20
4294594.303129
 42
0.000000
 10
780176.917048
 20
4294350.828307
 42
0.000000
 10
780217.578481
 20
4293888.784263
 42
0.000000
 10
780371.266504
 20
4293455.178462
 42
0.000000
 10
780586.109079
 20
4293434.973024
 42
0.000000
 10
780716.965665
 20
4293500.723764
 42
0.000000
 10
780963.887818
 20
4293607.257166
 42
0.000000
 10
780889.152615
 20
4293258.950205
 42
0.000000
 10
780870.928170
 20
4292937.093269
 42
0.000000
 10
781024.875767
 20
4292866.954110
 42
0.000000
 10
780891.630055
 20
4292622.169156
 42
0.000000
 10
781000.980054
 20
4292459.313539
 42
0.000000
 10
780835.842160
 20
4292254.527512
 42
0.000000
 10
780935.015144
 20
4292010.174616
 42
0.000000
 10
780637.762717
 20
4292144.168579
 42
0.000000
 10
780441.709620
 20
4292198.382035
 42
0.000000
 10
780112.184888
 20
4291914.461591
 42
0.000000
 10
779964.707032
 20
4291874.813390
 42
0.000000
 10
779576.902815
 20
4291613.318430
 42
0.000000
 10
779470.533920
 20
4291766.293475
 42
0.000000
 10
779365.572712
 20
4291879.307149
 42
0.000000
 10
779383.200018
 20
4292046.642775
 42
0.000000
 10
778925.656697
 20
4291986.123583
 42
0.000000
 10
778504.681579
 20
4291950.251875
 42
0.000000
 10
778275.993246
 20
4291867.780411
 42
0.000000
 10
778064.946542
 20
4291629.221739
 42
0.000000
 10
778141.404512
 20
4291285.130393
 42
0.000000
 10
778028.566158
 20
4291175.600116
 42
0.000000
 10
777822.626876
 20
4291163.958875
 42
0.000000
 10
777463.891770
 20
4291114.760626
 42
0.000000
 10
777296.177256
 20
4291055.564349
 42
0.000000
 10
776959.833090
 20
4290838.235682
 42
0.000000
 10
776873.562713
 20
4290615.173716
 42
0.000000
 10
776681.006138
 20
4290694.052997
 42
0.000000
 10
776446.478754
 20
4290226.890576
 42
0.000000
 10
776091.933898
 20
4290532.440122
 42
0.000000
 10
774890.266215
 20
4291694.459775
 42
0.000000
 10
774872.389537
 20
4291758.302287
 42
0.000000
 10
774839.143143
 20
4291863.846300
 42
0.000000
 10
774822.916669
 20
4291879.956312
 42
0.000000
 10
774803.442421
 20
4291889.285807
 42
0.000000
 10
774793.008426
 20
4291888.925256
 42
0.000000
 10
774787.868143
 20
4291886.524865
 42
0.000000
 10
774770.900050
 20
4291873.713327
 42
0.000000
 10
774755.785965
 20
4291857.631732
 42
0.000000
 10
774295.622883
 20
4292629.715076
 42
0.000000
 10
774285.408273
 20
4292648.256148
 42
0.000000
 10
773888.589020
 20
4292796.836939
 42
0.000000
 10
773782.273764
 20
4292850.966462
 42
0.000000
 10
773745.874126
 20
4292846.378871
 42
0.000000
 10
773432.791692
 20
4292914.511740
 42
0.000000
 10
772875.446759
 20
4293024.279523
 42
0.000000
 10
772868.110812
 20
4293035.141354
 42
0.000000
 10
772850.342546
 20
4293045.645108
 42
0.000000
 10
772826.412609
 20
4293058.160150
 42
0.000000
 10
772800.369902
 20
4293056.155025
 42
0.000000
 10
772778.369261
 20
4293063.179594
 42
0.000000
 10
772752.815054
 20
4293072.305017
 42
0.000000
 10
772742.382757
 20
4293071.947075
 42
0.000000
 10
772702.354207
 20
4293071.685146
 42
0.000000
 10
772695.627823
 20
4293064.786224
 42
0.000000
 10
772621.738584
 20
4293036.690532
 42
0.000000
 10
772424.610681
 20
4293074.386888
 42
0.000000
 10
772276.293033
 20
4293059.303152
 42
0.000000
 10
771439.188815
 20
4292926.208528
 42
0.000000
 10
770965.199442
 20
4292787.790831
 42
0.000000
 10
770869.633910
 20
4293191.284620
 42
0.000000
 10
770880.770394
 20
4293630.643849
 42
0.000000
 10
770982.199335
 20
4293897.489761
 42
0.000000
 10
771197.859855
 20
4294259.365818
 42
0.000000
 10
771402.745367
 20
4294477.517458
 42
0.000000
 10
771407.633649
 20
4294691.063628
 42
0.000000
 10
771310.687057
 20
4294828.893833
 42
0.000000
 10
771426.535697
 20
4295538.559078
 42
0.000000
 10
771454.386990
 20
4295792.899316
 42
0.000000
 10
771361.126314
 20
4295848.614026
 42
0.000000
 10
771309.432342
 20
4295884.633905
 42
0.000000
 10
771097.886073
 20
4295786.279455
 42
0.000000
 10
770963.166925
 20
4295986.170084
 42
0.000000
 10
770671.172247
 20
4296001.773892
 42
0.000000
 10
770621.605657
 20
4295847.830675
 42
0.000000
 10
770261.029670
 20
4295910.012224
 42
0.000000
 10
770198.494852
 20
4295778.969226
 42
0.000000
 10
770186.024535
 20
4295710.753394
 42
0.000000
 10
770166.865749
 20
4295634.530739
 42
0.000000
 10
770136.710615
 20
4295549.043485
 42
0.000000
 10
770100.584405
 20
4295460.019362
 42
0.000000
 10
770068.842544
 20
4295421.154649
 42
0.000000
 10
770000.599857
 20
4295406.610005
 42
0.000000
 10
769948.454664
 20
4295404.837693
 42
0.000000
 10
769910.139421
 20
4295405.758319
 42
0.000000
 10
769745.608518
 20
4295766.908839
 42
0.000000
 10
769644.816769
 20
4296941.498648
 42
0.000000
 10
769629.617509
 20
4297312.167968
 42
0.000000
 10
769556.663494
 20
4298333.229462
 42
0.000000
 10
769542.167750
 20
4298478.322052
 42
0.000000
 10
769542.092339
 20
4298480.542162
 42
0.000000
 10
769527.116944
 20
4298818.990957
 42
0.000000
 10
769504.174925
 20
4299212.736100
 42
0.000000
 10
769503.156777
 20
4299242.707608
 42
0.000000
 10
769483.029494
 20
4299297.590732
 42
0.000000
 10
769471.815198
 20
4299346.108619
 42
0.000000
 10
769472.760665
 20
4299369.478806
 42
0.000000
 10
769489.720190
 20
4299407.840368
 42
0.000000
 10
769523.824864
 20
4299427.891741
 42
0.000000
 10
769678.260110
 20
4299643.183416
 42
0.000000
 10
769697.447451
 20
4299743.856370
 42
0.000000
 10
769697.447451
 20
4299743.856370
 42
0.000000
  0
LWPOLYLINE
  5
    71
100
AcDbEntity
  8
Octava
 62
     7
100
AcDbPolyline
 90
   141
 70
     1
 38
0.000
 10
759836.354763
 20
4297472.299741
 42
0.000000
 10
760010.512882
 20
4297970.273690
 42
0.000000
 10
759996.233330
 20
4298777.664558
 42
0.000000
 10
759969.942526
 20
4298863.478482
 42
0.000000
 10
759718.573172
 20
4299688.661811
 42
0.000000
 10
759737.499734
 20
4299694.837664
 42
0.000000
 10
759761.455857
 20
4299706.734388
 42
0.000000
 10
759779.513793
 20
4299712.881900
 42
0.000000
 10
759830.285953
 20
4299728.990821
 42
0.000000
 10
759897.669574
 20
4299742.310692
 42
0.000000
 10
759933.675963
 20
4299757.936497
 42
0.000000
 10
759995.993466
 20
4299766.646313
 42
0.000000
 10
760018.466661
 20
4299770.716673
 42
0.000000
 10
760163.181908
 20
4299812.132554
 42
0.000000
 10
760227.017462
 20
4299827.561397
 42
0.000000
 10
760292.772039
 20
4299837.497606
 42
0.000000
 10
760315.208517
 20
4299842.678858
 42
0.000000
 10
760401.808001
 20
4299853.300150
 42
0.000000
 10
760422.507298
 20
4299858.424681
 42
0.000000
 10
760442.265129
 20
4299865.740815
 42
0.000000
 10
760482.466959
 20
4299885.951931
 42
0.000000
 10
760523.792364
 20
4299898.421551
 42
0.000000
 10
760566.095598
 20
4299907.589824
 42
0.000000
 10
760609.121397
 20
4299921.227003
 42
0.000000
 10
760697.311022
 20
4299936.348799
 42
0.000000
 10
760739.577434
 20
4299946.628052
 42
0.000000
 10
760804.389187
 20
4299958.760099
 42
0.000000
 10
760843.144740
 20
4299970.035712
 42
0.000000
 10
760866.412629
 20
4299976.357160
 42
0.000000
 10
760909.656762
 20
4299983.335801
 42
0.000000
 10
760953.659804
 20
4299993.673365
 42
0.000000
 10
761041.957881
 20
4300005.468957
 42
0.000000
 10
761128.299430
 20
4300023.868567
 42
0.000000
 10
761191.409711
 20
4300034.836609
 42
0.000000
 10
761212.108186
 20
4300039.963249
 42
0.000000
 10
761233.565480
 20
4300048.448660
 42
0.000000
 10
761270.180849
 20
4300071.879597
 42
0.000000
 10
761762.596468
 20
4300273.694694
 42
0.000000
 10
761831.157303
 20
4300224.840580
 42
0.000000
 10
761943.339610
 20
4300145.201413
 42
0.000000
 10
762399.160345
 20
4300401.411789
 42
0.000000
 10
762518.014192
 20
4300304.221078
 42
0.000000
 10
762558.309796
 20
4300268.883603
 42
0.000000
 10
762784.001730
 20
4300096.334908
 42
0.000000
 10
762948.544136
 20
4300247.363683
 42
0.000000
 10
762995.523159
 20
4300430.057112
 42
0.000000
 10
762905.015402
 20
4300563.741127
 42
0.000000
 10
762956.570863
 20
4300713.248386
 42
0.000000
 10
763043.730498
 20
4300863.937261
 42
0.000000
 10
763276.942494
 20
4300936.130859
 42
0.000000
 10
763385.975518
 20
4301160.894313
 42
0.000000
 10
763672.567702
 20
4301039.290353
 42
0.000000
 10
763722.037404
 20
4300649.768166
 42
0.000000
 10
763731.147617
 20
4300663.406409
 42
0.000000
 10
763775.699769
 20
4300709.339162
 42
0.000000
 10
763804.415297
 20
4300734.742426
 42
0.000000
 10
763818.551398
 20
4300754.104362
 42
0.000000
 10
763836.697328
 20
4300783.601202
 42
0.000000
 10
763865.394289
 20
4300835.674661
 42
0.000000
 10
763903.385186
 20
4300895.836502
 42
0.000000
 10
763930.067106
 20
4300930.062825
 42
0.000000
 10
764037.864419
 20
4301034.777863
 42
0.000000
 10
764078.181373
 20
4301077.237800
 42
0.000000
 10
764087.290434
 20
4301090.876516
 42
0.000000
 10
764119.919836
 20
4301155.306186
 42
0.000000
 10
764256.384292
 20
4301338.769281
 42
0.000000
 10
764280.753915
 20
4301364.029757
 42
0.000000
 10
764560.641979
 20
4301547.836363
 42
0.000000
 10
764579.174403
 20
4301539.564606
 42
0.000000
 10
764598.464101
 20
4301534.652013
 42
0.000000
 10
764682.347889
 20
4301521.894328
 42
0.000000
 10
764763.812222
 20
4301503.500274
 42
0.000000
 10
764784.044698
 20
4301496.397031
 42
0.000000
 10
764804.997289
 20
4301493.763033
 42
0.000000
 10
764845.351167
 20
4301482.886943
 42
0.000000
 10
764864.752479
 20
4301474.644841
 42
0.000000
 10
764884.910958
 20
4301469.761942
 42
0.000000
 10
764922.882486
 20
4301452.138903
 42
0.000000
 10
764942.358162
 20
4301441.676889
 42
0.000000
 10
765021.300428
 20
4301368.747962
 42
0.000000
 10
765063.748461
 20
4301321.270397
 42
0.000000
 10
765078.993939
 20
4301307.333381
 42
0.000000
 10
765092.576877
 20
4301291.118222
 42
0.000000
 10
765107.822461
 20
4301277.181256
 42
0.000000
 10
765134.157307
 20
4301243.611958
 42
0.000000
 10
765151.102770
 20
4301230.843199
 42
0.000000
 10
765228.349265
 20
4301156.748012
 42
0.000000
 10
765246.126358
 20
4301145.118539
 42
0.000000
 10
765261.409625
 20
4301130.071795
 42
0.000000
 10
765295.264357
 20
4301105.644860
 42
0.000000
 10
765311.379084
 20
4301091.737311
 42
0.000000
 10
765347.765157
 20
4301069.617861
 42
0.000000
 10
765447.743339
 20
4300991.840147
 42
0.000000
 10
765483.298984
 20
4300968.582156
 42
0.000000
 10
765520.517406
 20
4300947.602575
 42
0.000000
 10
765562.412919
 20
4300916.778159
 42
0.000000
 10
765608.539515
 20
4300889.429550
 42
0.000000
 10
765642.136053
 20
4300872.774333
 42
0.000000
 10
765843.147655
 20
4300763.936367
 42
0.000000
 10
765891.720401
 20
4300637.765855
 42
0.000000
 10
765936.597103
 20
4300518.139370
 42
0.000000
 10
765988.323582
 20
4300427.636522
 42
0.000000
 10
766056.095414
 20
4300247.657084
 42
0.000000
 10
766137.219832
 20
4300110.355405
 42
0.000000
 10
766222.230947
 20
4299960.960517
 42
0.000000
 10
766328.314620
 20
4299805.606034
 42
0.000000
 10
766434.461547
 20
4299700.263325
 42
0.000000
 10
766505.158325
 20
4299614.845448
 42
0.000000
 10
766549.872702
 20
4299526.332378
 42
0.000000
 10
766587.766896
 20
4299382.025175
 42
0.000000
 10
766640.903640
 20
4299198.223477
 42
0.000000
 10
766664.539106
 20
4299090.110238
 42
0.000000
 10
766679.210802
 20
4299041.706076
 42
0.000000
 10
766711.720398
 20
4298928.334692
 42
0.000000
 10
766819.959992
 20
4298631.921992
 42
0.000000
 10
766867.407438
 20
4298462.376832
 42
0.000000
 10
766881.239598
 20
4298387.273374
 42
0.000000
 10
766877.435608
 20
4298319.355930
 42
0.000000
 10
766838.856622
 20
4298095.798068
 42
0.000000
 10
766717.403179
 20
4297879.456944
 42
0.000000
 10
766602.829848
 20
4297691.131883
 42
0.000000
 10
766627.099721
 20
4297305.215176
 42
0.000000
 10
766588.522948
 20
4297288.361399
 42
0.000000
 10
766579.983446
 20
4297283.629435
 42
0.000000
 10
766175.463874
 20
4297103.361511
 42
0.000000
 10
765352.230753
 20
4296905.776197
 42
0.000000
 10
764927.130946
 20
4296689.327120
 42
0.000000
 10
764523.695558
 20
4296526.965500
 42
0.000000
 10
764078.049935
 20
4296273.209313
 42
0.000000
 10
763944.061336
 20
4295305.289342
 42
0.000000
 10
763607.471850
 20
4294987.404904
 42
0.000000
 10
762785.540619
 20
4295242.430441
 42
0.000000
 10
762119.169154
 20
4295267.085456
 42
0.000000
 10
761206.217688
 20
4295541.488833
 42
0.000000
 10
761003.394843
 20
4296471.587392
 42
0.000000
 10
760990.938088
 20
4296480.067774
 42
0.000000
 10
760569.125883
 20
4296769.578689
 42
0.000000
 10
759968.009090
 20
4296984.340212
 42
0.000000
 10
759827.669978
 20
4297445.346206
 42
0.000000
 10
759836.354763
 20
4297472.299741
 42
0.000000
 10
759836.354763
 20
4297472.299741
 42
0.000000
  0
LWPOLYLINE
  5
    72
100
AcDbEntity
  8
Novena
 62
     8
100
AcDbPolyline
 90
    56
 70
     1
 38
0.000
 10
763520.598486
 20
4291229.600306
 42
0.000000
 10
763655.069443
 20
4291400.744280
 42
0.000000
 10
763717.086405
 20
4291761.734704
 42
0.000000
 10
763374.071202
 20
4291711.473271
 42
0.000000
 10
763489.070677
 20
4292049.768859
 42
0.000000
 10
763757.640868
 20
4292139.794419
 42
0.000000
 10
763939.067412
 20
4292128.034579
 42
0.000000
 10
764094.727318
 20
4292446.577732
 42
0.000000
 10
764296.157655
 20
4292827.766065
 42
0.000000
 10
764206.487097
 20
4293038.147318
 42
0.000000
 10
764252.745120
 20
4293505.303532
 42
0.000000
 10
764805.706666
 20
4293468.144350
 42
0.000000
 10
765386.860623
 20
4293473.081532
 42
0.000000
 10
765399.067495
 20
4293472.377858
 42
0.000000
 10
765397.831112
 20
4293431.219381
 42
0.000000
 10
765392.767187
 20
4293374.375251
 42
0.000000
 10
765384.077737
 20
4293321.855185
 42
0.000000
 10
765371.301082
 20
4293261.419764
 42
0.000000
 10
765356.101560
 20
4293195.347129
 42
0.000000
 10
765341.956304
 20
4293123.753375
 42
0.000000
 10
765334.967632
 20
4293072.401487
 42
0.000000
 10
765331.641373
 20
4293015.615494
 42
0.000000
 10
765331.920637
 20
4292981.175330
 42
0.000000
 10
765333.901494
 20
4292947.903237
 42
0.000000
 10
765340.545317
 20
4292879.226032
 42
0.000000
 10
765350.592459
 20
4292812.884976
 42
0.000000
 10
765363.877649
 20
4292727.760362
 42
0.000000
 10
765373.240932
 20
4292655.840127
 42
0.000000
 10
765379.052724
 20
4292586.023897
 42
0.000000
 10
765382.404627
 20
4292511.680468
 42
0.000000
 10
765383.037199
 20
4292440.580097
 42
0.000000
 10
765379.396844
 20
4292367.114567
 42
0.000000
 10
765371.520483
 20
4292290.173855
 42
0.000000
 10
765360.924516
 20
4292216.476230
 42
0.000000
 10
765348.515352
 20
4292144.940680
 42
0.000000
 10
765396.532891
 20
4291827.608070
 42
0.000000
 10
765467.729978
 20
4291572.169276
 42
0.000000
 10
765494.464627
 20
4291136.331765
 42
0.000000
 10
765527.558546
 20
4290822.946559
 42
0.000000
 10
765535.110260
 20
4290753.188535
 42
0.000000
 10
765640.231714
 20
4290498.882977
 42
0.000000
 10
765458.639993
 20
4290279.457874
 42
0.000000
 10
765259.755103
 20
4290421.734358
 42
0.000000
 10
764729.159025
 20
4290277.377369
 42
0.000000
 10
764712.878054
 20
4290295.727092
 42
0.000000
 10
764687.384009
 20
4290329.327976
 42
0.000000
 10
764680.131687
 20
4290337.976786
 42
0.000000
 10
764633.824644
 20
4290395.333152
 42
0.000000
 10
764619.172558
 20
4290417.070992
 42
0.000000
 10
764608.794704
 20
4290441.173533
 42
0.000000
 10
764444.376722
 20
4290542.387426
 42
0.000000
 10
764036.518934
 20
4290634.409526
 42
0.000000
 10
763760.288693
 20
4290616.356145
 42
0.000000
 10
763461.290238
 20
4291154.293176
 42
0.000000
 10
763520.598486
 20
4291229.600306
 42
0.000000
 10
763520.598486
 20
4291229.600306
 42
0.000000
  0
LWPOLYLINE
  5
    73
100
AcDbEntity
  8
Decima
 62
     9
100
AcDbPolyline
 90
   164
 70
     1
 38
0.000
 10
772052.446817
 20
4291435.732230
 42
0.000000
 10
772443.495770
 20
4291329.091512
 42
0.000000
 10
772646.453989
 20
4291274.921454
 42
0.000000
 10
772687.471508
 20
4291119.626057
 42
0.000000
 10
772976.069882
 20
4290015.941796
 42
0.000000
 10
772991.349761
 20
4290002.018328
 42
0.000000
 10
773120.472157
 20
4289893.090458
 42
0.000000
 10
773148.385699
 20
4289866.264548
 42
0.000000
 10
773239.130239
 20
4289759.355111
 42
0.000000
 10
773342.358445
 20
4289643.984388
 42
0.000000
 10
773380.145767
 20
4289608.607398
 42
0.000000
 10
773436.388761
 20
4289568.307833
 42
0.000000
 10
773444.674163
 20
4289555.256145
 42
0.000000
 10
773547.221074
 20
4289459.868784
 42
0.000000
 10
773551.722483
 20
4289455.578045
 42
0.000000
 10
773568.064958
 20
4289436.135210
 42
0.000000
 10
773613.499287
 20
4289381.017438
 42
0.000000
 10
773657.949942
 20
4289329.200151
 42
0.000000
 10
773681.518314
 20
4289302.226399
 42
0.000000
 10
774003.777952
 20
4288921.000766
 42
0.000000
 10
774212.268041
 20
4288430.285873
 42
0.000000
 10
774389.717982
 20
4288158.556637
 42
0.000000
 10
774503.632887
 20
4287986.886218
 42
0.000000
 10
774468.957076
 20
4287678.951932
 42
0.000000
 10
774510.375211
 20
4287488.112116
 42
0.000000
 10
774428.390064
 20
4287036.292535
 42
0.000000
 10
774464.999403
 20
4286858.623284
 42
0.000000
 10
774259.234408
 20
4286687.053271
 42
0.000000
 10
774317.592682
 20
4286510.132461
 42
0.000000
 10
774219.784102
 20
4286340.059961
 42
0.000000
 10
774076.694732
 20
4286143.981206
 42
0.000000
 10
773889.632871
 20
4285959.730341
 42
0.000000
 10
773783.092477
 20
4286372.828985
 42
0.000000
 10
773617.934178
 20
4286895.050655
 42
0.000000
 10
773507.643143
 20
4286834.583392
 42
0.000000
 10
773315.718120
 20
4286766.870873
 42
0.000000
 10
773116.438437
 20
4286761.146903
 42
0.000000
 10
772879.062259
 20
4286774.127050
 42
0.000000
 10
772791.791396
 20
4286778.917253
 42
0.000000
 10
772569.667288
 20
4286753.531686
 42
0.000000
 10
772344.322021
 20
4286771.384718
 42
0.000000
 10
772080.975999
 20
4286601.240549
 42
0.000000
 10
771843.906164
 20
4286528.689104
 42
0.000000
 10
771734.621618
 20
4286412.715465
 42
0.000000
 10
771486.723588
 20
4286069.752125
 42
0.000000
 10
771079.513021
 20
4285492.443675
 42
0.000000
 10
771005.190782
 20
4285269.873263
 42
0.000000
 10
770730.488316
 20
4285406.119501
 42
0.000000
 10
770427.656611
 20
4285344.716320
 42
0.000000
 10
770413.402231
 20
4285405.355116
 42
0.000000
 10
770390.446252
 20
4285465.698662
 42
0.000000
 10
770364.959311
 20
4285549.294056
 42
0.000000
 10
770355.165447
 20
4285581.189984
 42
0.000000
 10
770342.459883
 20
4285621.877677
 42
0.000000
 10
770315.195799
 20
4285706.524191
 42
0.000000
 10
770288.229355
 20
4285756.730011
 42
0.000000
 10
770270.567045
 20
4285789.470411
 42
0.000000
 10
770239.367589
 20
4285861.759114
 42
0.000000
 10
770213.389371
 20
4285934.224974
 42
0.000000
 10
770192.515018
 20
4285984.637633
 42
0.000000
 10
770168.696130
 20
4286070.512615
 42
0.000000
 10
770162.685009
 20
4286093.646430
 42
0.000000
 10
770154.067971
 20
4286142.252169
 42
0.000000
 10
770147.454676
 20
4286183.146639
 42
0.000000
 10
770145.563923
 20
4286187.527793
 42
0.000000
 10
770145.831773
 20
4286205.317944
 42
0.000000
 10
770152.081665
 20
4286252.205188
 42
0.000000
 10
770185.571775
 20
4286317.797335
 42
0.000000
 10
770221.939127
 20
4286401.268366
 42
0.000000
 10
770269.582652
 20
4286511.793863
 42
0.000000
 10
770328.840323
 20
4286639.383717
 42
0.000000
 10
770327.299388
 20
4286710.455905
 42
0.000000
 10
770327.491330
 20
4286730.466181
 42
0.000000
 10
770327.265297
 20
4286737.126431
 42
0.000000
 10
770328.300244
 20
4286834.957739
 42
0.000000
 10
770295.962234
 20
4286863.865932
 42
0.000000
 10
770246.073418
 20
4286896.624011
 42
0.000000
 10
770234.348899
 20
4286908.450729
 42
0.000000
 10
770214.078750
 20
4286941.102608
 42
0.000000
 10
770138.926901
 20
4286999.675898
 42
0.000000
 10
770074.098979
 20
4287036.373521
 42
0.000000
 10
770013.772198
 20
4287068.778949
 42
0.000000
 10
769972.167348
 20
4287088.483588
 42
0.000000
 10
769909.645242
 20
4287108.590844
 42
0.000000
 10
769894.592033
 20
4287115.859926
 42
0.000000
 10
769876.853647
 20
4287125.260676
 42
0.000000
 10
769860.817676
 20
4287135.830460
 42
0.000000
 10
769841.908512
 20
4287154.082133
 42
0.000000
 10
769830.072149
 20
4287169.239521
 42
0.000000
 10
769822.016626
 20
4287175.634494
 42
0.000000
 10
769802.919618
 20
4287199.436454
 42
0.000000
 10
769786.432661
 20
4287223.326866
 42
0.000000
 10
769783.597105
 20
4287229.898700
 42
0.000000
 10
769664.136597
 20
4287362.544436
 42
0.000000
 10
769635.358139
 20
4287389.352842
 42
0.000000
 10
769562.524091
 20
4287456.899844
 42
0.000000
 10
769351.633352
 20
4287666.469561
 42
0.000000
 10
769158.707565
 20
4287834.421504
 42
0.000000
 10
768946.607088
 20
4287848.369507
 42
0.000000
 10
768723.390684
 20
4287753.040207
 42
0.000000
 10
768360.766823
 20
4287788.596658
 42
0.000000
 10
768253.269975
 20
4287670.510851
 42
0.000000
 10
768071.559210
 20
4287454.356794
 42
0.000000
 10
767982.307875
 20
4287751.402204
 42
0.000000
 10
768005.293641
 20
4287818.853484
 42
0.000000
 10
768008.858554
 20
4287842.310660
 42
0.000000
 10
768008.778106
 20
4287922.321175
 42
0.000000
 10
768004.871232
 20
4287986.644773
 42
0.000000
 10
767993.706416
 20
4288059.614435
 42
0.000000
 10
767983.475783
 20
4288104.833175
 42
0.000000
 10
767976.500541
 20
4288156.829262
 42
0.000000
 10
767976.623167
 20
4288179.059289
 42
0.000000
 10
767983.779418
 20
4288199.303472
 42
0.000000
 10
767996.154794
 20
4288219.723348
 42
0.000000
 10
768005.808424
 20
4288243.385513
 42
0.000000
 10
768015.050934
 20
4288279.258107
 42
0.000000
 10
767997.738994
 20
4288302.012536
 42
0.000000
 10
768057.779244
 20
4288355.153494
 42
0.000000
 10
768027.382808
 20
4288663.070460
 42
0.000000
 10
768070.700437
 20
4289290.189759
 42
0.000000
 10
768274.778888
 20
4289590.449748
 42
0.000000
 10
768265.191213
 20
4290288.024318
 42
0.000000
 10
768484.128425
 20
4290585.460198
 42
0.000000
 10
768534.852594
 20
4290784.984862
 42
0.000000
 10
768490.866302
 20
4290979.090161
 42
0.000000
 10
768432.767870
 20
4291256.067338
 42
0.000000
 10
768429.027506
 20
4291263.720254
 42
0.000000
 10
768262.111468
 20
4291592.591707
 42
0.000000
 10
768076.401200
 20
4291756.359080
 42
0.000000
 10
767904.272112
 20
4292240.642804
 42
0.000000
 10
767667.495492
 20
4293042.806791
 42
0.000000
 10
768264.541402
 20
4293326.313442
 42
0.000000
 10
768416.587574
 20
4293308.108988
 42
0.000000
 10
768953.884241
 20
4293452.961565
 42
0.000000
 10
769505.295013
 20
4293566.102206
 42
0.000000
 10
769966.462617
 20
4293491.735570
 42
0.000000
 10
770084.572002
 20
4293473.521533
 42
0.000000
 10
770112.578181
 20
4293468.916594
 42
0.000000
 10
770880.770394
 20
4293630.643849
 42
0.000000
 10
770869.633910
 20
4293191.284620
 42
0.000000
 10
770965.199442
 20
4292787.790831
 42
0.000000
 10
770930.391836
 20
4292583.229282
 42
0.000000
 10
770675.997147
 20
4292513.440758
 42
0.000000
 10
770678.453997
 20
4292492.409003
 42
0.000000
 10
770675.316475
 20
4292482.300158
 42
0.000000
 10
770671.725223
 20
4292459.951167
 42
0.000000
 10
770667.718261
 20
4292449.812729
 42
0.000000
 10
770653.429455
 20
4292434.878939
 42
0.000000
 10
770650.972355
 20
4292430.349953
 42
0.000000
 10
770646.662718
 20
4292403.531184
 42
0.000000
 10
770639.480285
 20
4292384.393988
 42
0.000000
 10
770634.981648
 20
4292363.125480
 42
0.000000
 10
770632.523236
 20
4292281.914291
 42
0.000000
 10
771040.943711
 20
4291842.399241
 42
0.000000
 10
771112.506205
 20
4291837.059248
 42
0.000000
 10
771127.664913
 20
4291852.023483
 42
0.000000
 10
771143.957983
 20
4291859.247042
 42
0.000000
 10
771160.894489
 20
4291847.599777
 42
0.000000
 10
771167.397235
 20
4291835.596758
 42
0.000000
 10
771150.499589
 20
4291820.573153
 42
0.000000
 10
771132.316082
 20
4291817.730497
 42
0.000000
 10
771115.230031
 20
4291782.696424
 42
0.000000
 10
772052.446817
 20
4291435.732230
 42
0.000000
 10
772052.446817
 20
4291435.732230
 42
0.000000
  0
ENDSEC
  0
SECTION
  2
OBJECTS
  0
DICTIONARY
  5
C
100
AcDbDictionary
280
     0
281
     1
  3
ACAD_GROUP
350
D
  3
ACAD_LAYOUT
350
1A
  3
ACAD_MLINESTYLE
350
17
  3
ACAD_PLOTSETTINGS
350
19
  3
ACAD_PLOTSTYLENAME
350
E
  3
AcDbVariableDictionary
350
2C
  0
DICTIONARY
  5
D
100
AcDbDictionary
280
     0
281
     1
  0
ACDBDICTIONARYWDFLT
  5
E
100
AcDbDictionary
281
     1
  3
Normal
350
F
100
AcDbDictionaryWithDefault
340
F
  0
ACDBPLACEHOLDER
  5
F
  0
DICTIONARY
  5
17
100
AcDbDictionary
280
     0
281
     1
  3
Standard
350
18
  0
MLINESTYLE
  5
18
100
AcDbMlineStyle
  2
STANDARD
 70
     0
  3

 62
   256
 51
90.0000
 52
90.0000
 71
     2
 49
0.5000
 62
   256
  6
BYLAYER
 49
-0.5000
 62
   256
  6
BYLAYER
  0
DICTIONARY
  5
19
100
AcDbDictionary
280
     0
281
     1
  0
DICTIONARY
  5
1A
100
AcDbDictionary
281
     1
  3
Layout1
350
1E
  3
Layout2
350
26
  3
Model
350
22
  0
LAYOUT
  5
1E
100
AcDbPlotSettings
  1

  2
C:\Program Files\AutoCAD 2002\plotters\DWF ePlot (optimized for plotting).pc3
  4

  6

 40
0.0000
 41
0.0000
 42
0.0000
 43
0.0000
 44
0.0000
 45
0.0000
 46
0.0000
 47
0.0000
 48
0.0000
 49
0.0000
140
0.0000
141
0.0000
142
1.0000
143
1.0000
 70
   688
 72
     0
 73
     0
 74
     5
  7

 75
    16
147
1.0000
148
0.0000
149
0.0000
100
AcDbLayout
  1
Layout1
 70
     1
 71
     1
 10
0.0000
 20
0.0000
 11
420.0000
 21
297.0000
 12
0.0000
 22
0.0000
 32
0.0000
 14
100000000000000000000.0000
 24
100000000000000000000.0000
 34
100000000000000000000.0000
 15
-100000000000000000000.0000
 25
-100000000000000000000.0000
 35
-100000000000000000000.0000
146
0.0000
 13
0.0000
 23
0.0000
 33
0.0000
 16
1.0000
 26
0.0000
 36
0.0000
 17
0.0000
 27
1.0000
 37
0.0000
 76
     0
330
1B
  0
LAYOUT
  5
22
100
AcDbPlotSettings
  1

  2
C:\Program Files\AutoCAD 2002\plotters\DWF ePlot (optimized for plotting).pc3
  4

  6

 40
0.0000
 41
0.0000
 42
0.0000
 43
0.0000
 44
0.0000
 45
0.0000
 46
0.0000
 47
0.0000
 48
0.0000
 49
0.0000
140
0.0000
141
0.0000
142
1.0000
143
1.0000
 70
  1712
 72
     0
 73
     0
 74
     0
  7

 75
     0
147
1.0000
148
0.0000
149
0.0000
100
AcDbLayout
  1
Model
 70
     1
 71
     0
 10
0.0000
 20
0.0000
 11
12.0000
 21
9.0000
 12
0.0000
 22
0.0000
 32
0.0000
 14
0.0000
 24
0.0000
 34
0.0000
 15
0.0000
 25
0.0000
 35
0.0000
146
0.0000
 13
0.0000
 23
0.0000
 33
0.0000
 16
1.0000
 26
0.0000
 36
0.0000
 17
0.0000
 27
1.0000
 37
0.0000
 76
     0
330
1F
  0
LAYOUT
  5
26
100
AcDbPlotSettings
  1

  2
C:\Program Files\AutoCAD 2002\plotters\DWF ePlot (optimized for plotting).pc3
  4

  6

 40
0.0000
 41
0.0000
 42
0.0000
 43
0.0000
 44
0.0000
 45
0.0000
 46
0.0000
 47
0.0000
 48
0.0000
 49
0.0000
140
0.0000
141
0.0000
142
1.0000
143
1.0000
 70
   688
 72
     0
 73
     0
 74
     5
  7

 75
    16
147
1.0000
148
0.0000
149
0.0000
100
AcDbLayout
  1
Layout2
 70
     1
 71
     2
 10
0.0000
 20
0.0000
 11
12.0000
 21
9.0000
 12
0.0000
 22
0.0000
 32
0.0000
 14
0.0000
 24
0.0000
 34
0.0000
 15
0.0000
 25
0.0000
 35
0.0000
146
0.0000
 13
0.0000
 23
0.0000
 33
0.0000
 16
1.0000
 26
0.0000
 36
0.0000
 17
0.0000
 27
1.0000
 37
0.0000
 76
     0
330
23
  0
DICTIONARY
  5
    46
100
AcDbDictionary
281
     1
  3
DIMASSOC
350
    48
  3
HIDETEXT
350
    47
  0
DICTIONARYVAR
  5
    47
100
DictionaryVariables
280
     0
  1
     2
  0
DICTIONARYVAR
  5
    48
100
DictionaryVariables
280
     0
  1
     1
  0
ENDSEC
  0
EOF
